<svg width="52" height="48" viewBox="0 0 52 48" fill="none" xmlns="http://www.w3.org/2000/svg">
<rect width="52" height="48" rx="10" fill="#FFDED4"/>
<path d="M38.4961 31.7875C38.4961 32.6962 37.9899 34.4462 36.8524 35.4075C36.6249 35.5825 36.3974 35.4837 36.4974 35.2288C36.8286 34.4187 37.5861 32.545 37.2311 32.1137C36.9799 31.7862 35.9424 31.8113 35.0574 31.8862C34.6536 31.9375 34.2986 31.9613 34.0236 32.0175C33.7686 32.0375 33.7174 31.8137 33.9724 31.6388C34.3046 31.4045 34.6716 31.2239 35.0599 31.1038C36.4974 30.6737 38.1586 30.9325 38.3974 31.2075C38.4424 31.26 38.4961 31.4087 38.4961 31.7875ZM36.0936 33.4038C35.765 33.6572 35.4187 33.8869 35.0574 34.0912C32.4049 35.685 28.9686 36.52 25.9849 36.52C21.1811 36.52 16.8849 34.7488 13.6249 31.785C13.3449 31.5575 13.5761 31.2275 13.9036 31.4062C17.4161 33.4562 21.7636 34.6962 26.2636 34.6962C29.0961 34.6962 32.1486 34.1663 35.0574 33.0263C35.2611 32.95 35.4886 32.8462 35.6874 32.7737C36.1461 32.5675 36.5499 33.0763 36.0936 33.4038ZM28.3811 19.6163C28.3811 18.315 28.4336 17.5488 28.0024 16.8913C27.6199 16.35 26.9611 16.025 26.0411 16.0762C25.0436 16.1312 23.9724 16.785 23.6999 17.9837C23.6461 18.2587 23.4861 18.5287 23.1536 18.5875L20.1099 18.2C19.8924 18.15 19.5611 17.9838 19.6699 17.5488C20.3236 14.11 23.2624 12.9112 26.0424 12.75H26.6949C28.2199 12.75 30.1799 13.1862 31.4336 14.33C32.9549 15.75 32.7924 17.6575 32.7924 19.73V24.6388C32.7924 26.1112 33.3899 26.7638 33.9899 27.5312C34.1524 27.805 34.2086 28.1275 33.9349 28.35C33.1474 29.0521 32.3485 29.7413 31.5386 30.4175C31.3199 30.5838 30.9274 30.6013 30.7761 30.4738C29.8136 29.6675 29.5786 29.22 28.9824 28.4012C27.9449 29.49 27.0736 30.0913 26.0374 30.4175C25.3088 30.6029 24.5592 30.6937 23.8074 30.6875C21.1949 30.6875 19.1261 29.0588 19.1261 25.8375C19.1261 23.2762 20.4886 21.535 22.5011 20.7113C24.5136 19.8863 27.4386 19.6237 28.3811 19.6187M27.7849 26.1088C28.4349 25.0188 28.3811 24.1262 28.3811 22.1275C27.5661 22.1275 26.7486 22.1838 26.0424 22.35C24.7361 22.7288 23.6986 23.55 23.6986 25.2937C23.6986 26.6562 24.4086 27.5837 25.6061 27.5837C25.7711 27.5837 25.9161 27.565 26.0411 27.5275C26.8786 27.295 27.4011 26.875 27.7849 26.1088Z" fill="black"/>
</svg>
