<svg width="52" height="48" viewBox="0 0 52 48" fill="none" xmlns="http://www.w3.org/2000/svg">
<rect width="52" height="48" rx="10" fill="#FFEED4"/>
<g clip-path="url(#clip0_245_6535)">
<path d="M37.2235 13.7196C37.1999 13.5485 37.05 13.4538 36.9262 13.4433C36.0128 13.3747 35.0994 13.3066 34.186 13.2391C34.186 13.2391 32.3687 11.435 32.1693 11.2353C31.9697 11.0357 31.5799 11.0964 31.4287 11.141C31.4064 11.1475 31.0316 11.2632 30.4117 11.455C29.8047 9.70822 28.7333 8.10299 26.8486 8.10299C26.7966 8.10299 26.743 8.1051 26.6895 8.10814C26.1535 7.39928 25.4895 7.09131 24.916 7.09131C20.5255 7.09131 18.428 12.5798 17.7703 15.3688C16.0643 15.8975 14.8524 16.2733 14.6976 16.3219C13.7453 16.6206 13.7152 16.6506 13.5901 17.5479C13.496 18.2273 11.0044 37.4963 11.0044 37.4963L30.4198 41.134L40.9397 38.8583C40.9397 38.8583 37.2467 13.8906 37.2235 13.7196ZM29.3386 11.7869L27.6958 12.2954C27.6963 12.1796 27.6969 12.0657 27.6969 11.9411C27.6969 10.8555 27.5462 9.98139 27.3045 9.28846C28.2756 9.41033 28.9224 10.5153 29.3386 11.7869ZM26.0998 9.50373C26.3698 10.1803 26.5453 11.1512 26.5453 12.4613C26.5453 12.5283 26.5447 12.5896 26.5442 12.6516C25.4758 12.9826 24.3148 13.3419 23.1512 13.7023C23.8046 11.1809 25.0292 9.96311 26.0998 9.50373ZM24.7954 8.26893C24.9849 8.26893 25.1758 8.33326 25.3585 8.459C23.9514 9.12111 22.4432 10.7887 21.8063 14.1188L19.1243 14.9494C19.8703 12.4094 21.6419 8.26893 24.7954 8.26893Z" fill="#95BF46"/>
<path d="M36.9263 13.4433C36.013 13.3746 35.0996 13.3066 34.1861 13.239C34.1861 13.239 32.3689 11.4349 32.1695 11.2352C32.0948 11.1609 31.9941 11.1229 31.8889 11.1064L30.4209 41.1338L40.9399 38.8582C40.9399 38.8582 37.2468 13.8906 37.2236 13.7195C37.2001 13.5484 37.0502 13.4537 36.9263 13.4433Z" fill="#5E8E3E"/>
<path d="M26.8487 19.256L25.5515 23.1146C25.5515 23.1146 24.415 22.508 23.0219 22.508C20.9796 22.508 20.8768 23.7897 20.8768 24.1126C20.8768 25.8749 25.4705 26.5501 25.4705 30.678C25.4705 33.9256 23.4107 36.0168 20.6334 36.0168C17.3006 36.0168 15.5962 33.9426 15.5962 33.9426L16.4886 30.9941C16.4886 30.9941 18.2405 32.4982 19.7188 32.4982C20.6848 32.4982 21.0778 31.7377 21.0778 31.182C21.0778 28.8832 17.309 28.7807 17.309 25.0034C17.309 21.8242 19.5909 18.7477 24.1971 18.7477C25.9719 18.7477 26.8487 19.256 26.8487 19.256Z" fill="white"/>
</g>
<defs>
<clipPath id="clip0_245_6535">
<rect width="30" height="34.2188" fill="white" transform="translate(11 7)"/>
</clipPath>
</defs>
</svg>
