<svg width="275" height="171" viewBox="0 0 275 171" fill="none" xmlns="http://www.w3.org/2000/svg">
<path d="M8.10156 65.625V77H5.76562V65.625H8.10156ZM11.6016 65.625V67.4609H2.32031V65.625H11.6016ZM16.3097 65.625V77H13.9738V65.625H16.3097ZM21.7288 65.625V77H19.385V65.625H21.7288ZM28.5413 65.625L24.0334 71.2422L21.4319 74.0391L21.01 71.8203L22.7678 69.4141L25.6663 65.625H28.5413ZM25.8772 77L22.5256 71.7422L24.26 70.2891L28.6506 77H25.8772ZM35.5228 65.625V77H33.1869V65.625H35.5228ZM39.0228 65.625V67.4609H29.7416V65.625H39.0228ZM50.3638 71.0469V71.5859C50.3638 72.4505 50.2466 73.2266 50.0122 73.9141C49.7778 74.6016 49.4471 75.1875 49.02 75.6719C48.5929 76.151 48.0825 76.5182 47.4888 76.7734C46.9002 77.0286 46.2466 77.1562 45.5278 77.1562C44.8143 77.1562 44.1606 77.0286 43.5669 76.7734C42.9783 76.5182 42.4679 76.151 42.0356 75.6719C41.6033 75.1875 41.2674 74.6016 41.0278 73.9141C40.7934 73.2266 40.6763 72.4505 40.6763 71.5859V71.0469C40.6763 70.1771 40.7934 69.401 41.0278 68.7188C41.2622 68.0312 41.5929 67.4453 42.02 66.9609C42.4523 66.4766 42.9627 66.1068 43.5513 65.8516C44.145 65.5964 44.7986 65.4688 45.5122 65.4688C46.2309 65.4688 46.8846 65.5964 47.4731 65.8516C48.0669 66.1068 48.5773 66.4766 49.0044 66.9609C49.4367 67.4453 49.77 68.0312 50.0044 68.7188C50.244 69.401 50.3638 70.1771 50.3638 71.0469ZM47.9966 71.5859V71.0312C47.9966 70.4271 47.9419 69.8958 47.8325 69.4375C47.7231 68.9792 47.5617 68.5938 47.3481 68.2812C47.1346 67.9688 46.8742 67.7344 46.5669 67.5781C46.2596 67.4167 45.908 67.3359 45.5122 67.3359C45.1164 67.3359 44.7648 67.4167 44.4575 67.5781C44.1554 67.7344 43.8976 67.9688 43.6841 68.2812C43.4757 68.5938 43.3169 68.9792 43.2075 69.4375C43.0981 69.8958 43.0434 70.4271 43.0434 71.0312V71.5859C43.0434 72.1849 43.0981 72.7161 43.2075 73.1797C43.3169 73.638 43.4783 74.026 43.6919 74.3438C43.9054 74.6562 44.1658 74.8932 44.4731 75.0547C44.7804 75.2161 45.132 75.2969 45.5278 75.2969C45.9236 75.2969 46.2752 75.2161 46.5825 75.0547C46.8898 74.8932 47.1476 74.6562 47.3559 74.3438C47.5643 74.026 47.7231 73.638 47.8325 73.1797C47.9419 72.7161 47.9966 72.1849 47.9966 71.5859ZM55.275 65.625V77H52.9313V65.625H55.275ZM62.0875 65.625L57.5797 71.2422L54.9781 74.0391L54.5563 71.8203L56.3141 69.4141L59.2125 65.625H62.0875ZM59.4234 77L56.0719 71.7422L57.8063 70.2891L62.1969 77H59.4234ZM73.4725 67.5703L70.3788 77H67.8866L72.1131 65.625H73.6991L73.4725 67.5703ZM76.0428 77L72.9413 67.5703L72.6913 65.625H74.2928L78.5428 77H76.0428ZM75.9022 72.7656V74.6016H69.8944V72.7656H75.9022ZM86.6181 65.625H88.9541V73.1406C88.9541 74.0156 88.7666 74.7526 88.3916 75.3516C88.0218 75.9505 87.5088 76.401 86.8525 76.7031C86.2015 77.0052 85.4515 77.1562 84.6025 77.1562C83.7535 77.1562 82.9983 77.0052 82.3369 76.7031C81.6806 76.401 81.165 75.9505 80.79 75.3516C80.4202 74.7526 80.2353 74.0156 80.2353 73.1406V65.625H82.5791V73.1406C82.5791 73.651 82.6598 74.0677 82.8213 74.3906C82.9827 74.7135 83.2145 74.9505 83.5166 75.1016C83.8239 75.2526 84.1858 75.3281 84.6025 75.3281C85.0296 75.3281 85.3916 75.2526 85.6884 75.1016C85.9905 74.9505 86.2197 74.7135 86.3759 74.3906C86.5374 74.0677 86.6181 73.651 86.6181 73.1406V65.625ZM96.8497 65.625V77H94.5137V65.625H96.8497ZM100.35 65.625V67.4609H91.0684V65.625H100.35ZM111.691 71.0469V71.5859C111.691 72.4505 111.573 73.2266 111.339 73.9141C111.105 74.6016 110.774 75.1875 110.347 75.6719C109.92 76.151 109.409 76.5182 108.816 76.7734C108.227 77.0286 107.573 77.1562 106.855 77.1562C106.141 77.1562 105.488 77.0286 104.894 76.7734C104.305 76.5182 103.795 76.151 103.363 75.6719C102.93 75.1875 102.594 74.6016 102.355 73.9141C102.12 73.2266 102.003 72.4505 102.003 71.5859V71.0469C102.003 70.1771 102.12 69.401 102.355 68.7188C102.589 68.0312 102.92 67.4453 103.347 66.9609C103.779 66.4766 104.29 66.1068 104.878 65.8516C105.472 65.5964 106.126 65.4688 106.839 65.4688C107.558 65.4688 108.211 65.5964 108.8 65.8516C109.394 66.1068 109.904 66.4766 110.331 66.9609C110.764 67.4453 111.097 68.0312 111.331 68.7188C111.571 69.401 111.691 70.1771 111.691 71.0469ZM109.323 71.5859V71.0312C109.323 70.4271 109.269 69.8958 109.159 69.4375C109.05 68.9792 108.889 68.5938 108.675 68.2812C108.461 67.9688 108.201 67.7344 107.894 67.5781C107.586 67.4167 107.235 67.3359 106.839 67.3359C106.443 67.3359 106.092 67.4167 105.784 67.5781C105.482 67.7344 105.224 67.9688 105.011 68.2812C104.803 68.5938 104.644 68.9792 104.534 69.4375C104.425 69.8958 104.37 70.4271 104.37 71.0312V71.5859C104.37 72.1849 104.425 72.7161 104.534 73.1797C104.644 73.638 104.805 74.026 105.019 74.3438C105.232 74.6562 105.493 74.8932 105.8 75.0547C106.107 75.2161 106.459 75.2969 106.855 75.2969C107.251 75.2969 107.602 75.2161 107.909 75.0547C108.217 74.8932 108.474 74.6562 108.683 74.3438C108.891 74.026 109.05 73.638 109.159 73.1797C109.269 72.7161 109.323 72.1849 109.323 71.5859ZM115.328 65.625H117.313L120.235 73.9766L123.157 65.625H125.141L121.032 77H119.438L115.328 65.625ZM114.258 65.625H116.235L116.594 73.7656V77H114.258V65.625ZM124.235 65.625H126.219V77H123.875V73.7656L124.235 65.625ZM133.919 67.5703L130.826 77H128.333L132.56 65.625H134.146L133.919 67.5703ZM136.49 77L133.388 67.5703L133.138 65.625H134.74L138.99 77H136.49ZM136.349 72.7656V74.6016H130.341V72.7656H136.349ZM145.042 65.625V77H142.706V65.625H145.042ZM148.542 65.625V67.4609H139.26V65.625H148.542ZM153.25 65.625V77H150.914V65.625H153.25ZM165.669 71.0469V71.5859C165.669 72.4505 165.552 73.2266 165.317 73.9141C165.083 74.6016 164.752 75.1875 164.325 75.6719C163.898 76.151 163.387 76.5182 162.794 76.7734C162.205 77.0286 161.552 77.1562 160.833 77.1562C160.119 77.1562 159.466 77.0286 158.872 76.7734C158.283 76.5182 157.773 76.151 157.341 75.6719C156.908 75.1875 156.572 74.6016 156.333 73.9141C156.098 73.2266 155.981 72.4505 155.981 71.5859V71.0469C155.981 70.1771 156.098 69.401 156.333 68.7188C156.567 68.0312 156.898 67.4453 157.325 66.9609C157.757 66.4766 158.268 66.1068 158.856 65.8516C159.45 65.5964 160.104 65.4688 160.817 65.4688C161.536 65.4688 162.19 65.5964 162.778 65.8516C163.372 66.1068 163.882 66.4766 164.309 66.9609C164.742 67.4453 165.075 68.0312 165.309 68.7188C165.549 69.401 165.669 70.1771 165.669 71.0469ZM163.302 71.5859V71.0312C163.302 70.4271 163.247 69.8958 163.137 69.4375C163.028 68.9792 162.867 68.5938 162.653 68.2812C162.44 67.9688 162.179 67.7344 161.872 67.5781C161.565 67.4167 161.213 67.3359 160.817 67.3359C160.421 67.3359 160.07 67.4167 159.762 67.5781C159.46 67.7344 159.203 67.9688 158.989 68.2812C158.781 68.5938 158.622 68.9792 158.512 69.4375C158.403 69.8958 158.348 70.4271 158.348 71.0312V71.5859C158.348 72.1849 158.403 72.7161 158.512 73.1797C158.622 73.638 158.783 74.026 158.997 74.3438C159.21 74.6562 159.471 74.8932 159.778 75.0547C160.085 75.2161 160.437 75.2969 160.833 75.2969C161.229 75.2969 161.58 75.2161 161.887 75.0547C162.195 74.8932 162.453 74.6562 162.661 74.3438C162.869 74.026 163.028 73.638 163.137 73.1797C163.247 72.7161 163.302 72.1849 163.302 71.5859ZM177.494 65.625V77H175.15L170.58 69.375V77H168.236V65.625H170.58L175.158 73.2578V65.625H177.494Z" fill="#331B3B"/>
<path d="M7.52197 104.231V105H1.99219V104.231H7.52197ZM2.25586 94.3359V105H1.35498V94.3359H2.25586ZM8.87666 101.162V100.92C8.87666 100.344 8.95967 99.812 9.12568 99.3237C9.2917 98.8354 9.52852 98.4131 9.83613 98.0566C10.1486 97.7002 10.5222 97.4243 10.9567 97.229C11.3913 97.0288 11.8747 96.9287 12.4069 96.9287C12.944 96.9287 13.4299 97.0288 13.8645 97.229C14.299 97.4243 14.6726 97.7002 14.9851 98.0566C15.2976 98.4131 15.5368 98.8354 15.7028 99.3237C15.8688 99.812 15.9519 100.344 15.9519 100.92V101.162C15.9519 101.738 15.8688 102.271 15.7028 102.759C15.5368 103.242 15.2976 103.662 14.9851 104.019C14.6774 104.375 14.3063 104.653 13.8718 104.854C13.4372 105.049 12.9538 105.146 12.4216 105.146C11.8845 105.146 11.3986 105.049 10.9641 104.854C10.5295 104.653 10.156 104.375 9.84346 104.019C9.53096 103.662 9.2917 103.242 9.12568 102.759C8.95967 102.271 8.87666 101.738 8.87666 101.162ZM9.74824 100.92V101.162C9.74824 101.597 9.80684 102.009 9.92402 102.4C10.0412 102.786 10.2121 103.13 10.4367 103.433C10.6613 103.73 10.9396 103.965 11.2717 104.136C11.6037 104.307 11.987 104.392 12.4216 104.392C12.8513 104.392 13.2297 104.307 13.5568 104.136C13.8889 103.965 14.1672 103.73 14.3918 103.433C14.6164 103.13 14.7849 102.786 14.8972 102.4C15.0144 102.009 15.0729 101.597 15.0729 101.162V100.92C15.0729 100.491 15.0144 100.083 14.8972 99.6973C14.7849 99.3115 14.614 98.9673 14.3845 98.6646C14.1599 98.3618 13.8815 98.1226 13.5495 97.9468C13.2175 97.771 12.8366 97.6831 12.4069 97.6831C11.9772 97.6831 11.5964 97.771 11.2644 97.9468C10.9372 98.1226 10.6589 98.3618 10.4294 98.6646C10.2048 98.9673 10.0339 99.3115 9.9167 99.6973C9.80439 100.083 9.74824 100.491 9.74824 100.92ZM18.9398 98.3862V105H18.0683V97.0752H18.9179L18.9398 98.3862ZM21.745 97.0166L21.723 97.8223C21.6254 97.8076 21.5302 97.7954 21.4374 97.7856C21.3446 97.7759 21.2445 97.771 21.1371 97.771C20.7563 97.771 20.4218 97.8418 20.1337 97.9834C19.8505 98.1201 19.6112 98.313 19.4159 98.562C19.2206 98.8062 19.0717 99.0942 18.9691 99.4263C18.8666 99.7534 18.808 100.105 18.7934 100.481L18.4711 100.605C18.4711 100.088 18.5248 99.6069 18.6322 99.1626C18.7396 98.7183 18.9032 98.3301 19.1229 97.998C19.3476 97.6611 19.6283 97.3999 19.9652 97.2144C20.307 97.0239 20.7074 96.9287 21.1664 96.9287C21.2787 96.9287 21.3886 96.9385 21.496 96.958C21.6083 96.9727 21.6913 96.9922 21.745 97.0166ZM26.337 105.146C25.8194 105.146 25.3434 105.051 24.9088 104.861C24.4791 104.67 24.1031 104.402 23.7809 104.055C23.4635 103.708 23.2169 103.298 23.0411 102.825C22.8702 102.346 22.7848 101.824 22.7848 101.257V100.942C22.7848 100.332 22.8751 99.7803 23.0558 99.2871C23.2364 98.7939 23.4854 98.3716 23.8028 98.02C24.1202 97.6685 24.4815 97.3999 24.8868 97.2144C25.297 97.0239 25.7267 96.9287 26.1759 96.9287C26.6788 96.9287 27.1256 97.019 27.5162 97.1997C27.9068 97.3755 28.234 97.627 28.4977 97.9541C28.7662 98.2764 28.9688 98.6597 29.1056 99.104C29.2423 99.5435 29.3106 100.029 29.3106 100.562V101.096H23.3121V100.349H28.4391V100.247C28.4293 99.8022 28.339 99.3872 28.1681 99.0015C28.0021 98.6108 27.753 98.2935 27.421 98.0493C27.089 97.8052 26.6739 97.6831 26.1759 97.6831C25.8048 97.6831 25.463 97.7612 25.1505 97.9175C24.8429 98.0737 24.5768 98.2983 24.3521 98.5913C24.1324 98.8794 23.9615 99.2236 23.8395 99.624C23.7223 100.02 23.6637 100.459 23.6637 100.942V101.257C23.6637 101.697 23.7271 102.107 23.8541 102.488C23.9859 102.864 24.1715 103.196 24.4107 103.484C24.6549 103.772 24.943 103.997 25.275 104.158C25.607 104.319 25.9732 104.399 26.3736 104.399C26.8424 104.399 27.2574 104.314 27.6187 104.143C27.9801 103.967 28.3048 103.691 28.5929 103.315L29.1422 103.74C28.9713 103.994 28.7564 104.229 28.4977 104.443C28.2437 104.658 27.9386 104.829 27.5821 104.956C27.2257 105.083 26.8106 105.146 26.337 105.146ZM32.1668 98.7158V105H31.2879V97.0752H32.1302L32.1668 98.7158ZM32.0057 100.547L31.5809 100.327C31.6102 99.8584 31.698 99.4189 31.8445 99.0088C31.9959 98.5986 32.2059 98.2373 32.4744 97.9248C32.743 97.6123 33.0652 97.3682 33.4412 97.1924C33.8172 97.0166 34.2444 96.9287 34.7229 96.9287C35.1087 96.9287 35.4578 96.9824 35.7703 97.0898C36.0877 97.1924 36.3563 97.356 36.576 97.5806C36.8006 97.8003 36.9739 98.0884 37.096 98.4448C37.2181 98.8013 37.2791 99.2285 37.2791 99.7266V105H36.4075V99.7559C36.4075 99.2285 36.3245 98.8159 36.1585 98.5181C35.9974 98.2202 35.7703 98.0078 35.4773 97.8809C35.1893 97.7539 34.8548 97.6904 34.4739 97.6904C34.0247 97.6904 33.6438 97.7832 33.3313 97.9688C33.0237 98.1494 32.7723 98.3862 32.577 98.6792C32.3865 98.9673 32.2449 99.2773 32.1521 99.6094C32.0594 99.9365 32.0105 100.249 32.0057 100.547ZM37.2718 99.8584L36.6858 99.873C36.7103 99.4873 36.7981 99.1187 36.9495 98.7671C37.1058 98.4155 37.3182 98.103 37.5867 97.8296C37.8553 97.5513 38.1751 97.3315 38.5462 97.1704C38.9222 97.0093 39.3445 96.9287 39.8133 96.9287C40.2234 96.9287 40.5896 96.9849 40.9119 97.0972C41.2342 97.2046 41.5052 97.3779 41.7249 97.6172C41.9495 97.8516 42.1204 98.1519 42.2376 98.5181C42.3548 98.8843 42.4134 99.3237 42.4134 99.8364V105H41.5345V99.8291C41.5345 99.2676 41.4515 98.833 41.2854 98.5254C41.1243 98.2129 40.8997 97.9956 40.6116 97.8735C40.3235 97.7515 39.9866 97.6904 39.6009 97.6904C39.22 97.6953 38.8855 97.7661 38.5975 97.9028C38.3094 98.0347 38.0677 98.2104 37.8724 98.4302C37.6819 98.645 37.5354 98.877 37.4329 99.126C37.3353 99.375 37.2815 99.6191 37.2718 99.8584ZM50.2058 94.3359V105H49.3049V94.3359H50.2058ZM54.0653 98.5986V108.047H53.1864V97.0752H54.0067L54.0653 98.5986ZM59.5731 100.964V101.118C59.5731 101.709 59.5048 102.251 59.3681 102.744C59.2313 103.237 59.0336 103.665 58.7748 104.026C58.5209 104.382 58.206 104.658 57.83 104.854C57.454 105.049 57.0268 105.146 56.5482 105.146C56.0746 105.146 55.6522 105.073 55.2812 104.927C54.9101 104.78 54.5902 104.573 54.3217 104.304C54.058 104.031 53.8456 103.713 53.6845 103.352C53.5282 102.986 53.4184 102.585 53.3549 102.151V100.122C53.4281 99.6436 53.5478 99.209 53.7138 98.8184C53.8798 98.4277 54.0922 98.0908 54.351 97.8076C54.6146 97.5244 54.9271 97.3071 55.2885 97.1558C55.6498 97.0044 56.0624 96.9287 56.5263 96.9287C57.0097 96.9287 57.4394 97.0239 57.8153 97.2144C58.1962 97.3999 58.516 97.6709 58.7748 98.0273C59.0385 98.3789 59.2362 98.8037 59.3681 99.3018C59.5048 99.7949 59.5731 100.349 59.5731 100.964ZM58.6942 101.118V100.964C58.6942 100.5 58.6454 100.071 58.5478 99.6753C58.455 99.2798 58.3109 98.9355 58.1156 98.6426C57.9252 98.3447 57.6811 98.1128 57.3832 97.9468C57.0902 97.7808 56.7411 97.6978 56.3358 97.6978C55.9159 97.6978 55.557 97.7686 55.2592 97.9102C54.9662 98.0469 54.7221 98.23 54.5268 98.4595C54.3314 98.6841 54.1776 98.9307 54.0653 99.1992C53.953 99.4678 53.87 99.7314 53.8163 99.9902V102.327C53.9091 102.698 54.058 103.042 54.2631 103.359C54.4682 103.672 54.7416 103.923 55.0834 104.114C55.4301 104.299 55.8524 104.392 56.3505 104.392C56.7509 104.392 57.0976 104.309 57.3905 104.143C57.6835 103.977 57.9252 103.745 58.1156 103.447C58.3109 103.149 58.455 102.803 58.5478 102.407C58.6454 102.012 58.6942 101.582 58.6942 101.118ZM66.5675 102.979C66.5675 102.764 66.5138 102.551 66.4063 102.341C66.2989 102.131 66.0914 101.938 65.7838 101.763C65.4811 101.587 65.0343 101.438 64.4435 101.316C64.004 101.218 63.6109 101.108 63.2643 100.986C62.9225 100.864 62.6344 100.718 62.4 100.547C62.1656 100.376 61.9874 100.171 61.8653 99.9316C61.7433 99.6924 61.6822 99.4092 61.6822 99.082C61.6822 98.7891 61.7457 98.5132 61.8727 98.2544C62.0045 97.9907 62.19 97.7612 62.4293 97.5659C62.6734 97.3657 62.9664 97.2095 63.3082 97.0972C63.6549 96.9849 64.0431 96.9287 64.4728 96.9287C65.0831 96.9287 65.6056 97.0337 66.0401 97.2437C66.4796 97.4487 66.8141 97.7295 67.0436 98.0859C67.2779 98.4424 67.3951 98.8452 67.3951 99.2944H66.5235C66.5235 99.021 66.443 98.7622 66.2818 98.5181C66.1256 98.2739 65.8937 98.0737 65.586 97.9175C65.2833 97.7612 64.9122 97.6831 64.4728 97.6831C64.0187 97.6831 63.65 97.7515 63.3668 97.8882C63.0836 98.0249 62.8761 98.1982 62.7442 98.4082C62.6173 98.6182 62.5538 98.8354 62.5538 99.0601C62.5538 99.2358 62.5807 99.397 62.6344 99.5435C62.693 99.6851 62.7955 99.8169 62.942 99.939C63.0934 100.061 63.3082 100.176 63.5865 100.283C63.8648 100.391 64.2262 100.496 64.6705 100.598C65.3102 100.74 65.8326 100.913 66.2379 101.118C66.648 101.318 66.9508 101.567 67.1461 101.865C67.3414 102.158 67.4391 102.515 67.4391 102.935C67.4391 103.262 67.3707 103.562 67.234 103.835C67.0973 104.104 66.8995 104.336 66.6407 104.531C66.3868 104.727 66.0792 104.878 65.7179 104.985C65.3614 105.093 64.961 105.146 64.5167 105.146C63.8478 105.146 63.2813 105.037 62.8175 104.817C62.3585 104.592 62.0094 104.299 61.7701 103.938C61.5357 103.572 61.4186 103.184 61.4186 102.773H62.2901C62.3194 103.184 62.4488 103.508 62.6783 103.748C62.9078 103.982 63.1886 104.148 63.5206 104.246C63.8575 104.343 64.1896 104.392 64.5167 104.392C64.9659 104.392 65.3419 104.326 65.6446 104.194C65.9474 104.062 66.1769 103.889 66.3331 103.674C66.4894 103.459 66.5675 103.228 66.5675 102.979ZM74.7996 103.169V97.0752H75.6785V105H74.8362L74.7996 103.169ZM74.9607 101.704L75.4148 101.689C75.4148 102.188 75.3562 102.646 75.2391 103.066C75.1219 103.486 74.9388 103.853 74.6897 104.165C74.4407 104.478 74.1185 104.719 73.7229 104.89C73.3274 105.061 72.8514 105.146 72.2947 105.146C71.909 105.146 71.555 105.093 71.2327 104.985C70.9153 104.873 70.6419 104.697 70.4124 104.458C70.1829 104.219 70.0047 103.909 69.8777 103.528C69.7557 103.147 69.6946 102.686 69.6946 102.144V97.0752H70.5662V102.158C70.5662 102.583 70.6126 102.937 70.7054 103.22C70.803 103.503 70.9349 103.73 71.1009 103.901C71.2718 104.072 71.4671 104.194 71.6868 104.268C71.9065 104.341 72.1434 104.377 72.3973 104.377C73.0418 104.377 73.5496 104.253 73.9207 104.004C74.2967 103.755 74.5628 103.428 74.719 103.022C74.8802 102.612 74.9607 102.173 74.9607 101.704ZM79.0986 98.7158V105H78.2197V97.0752H79.062L79.0986 98.7158ZM78.9375 100.547L78.5127 100.327C78.542 99.8584 78.6299 99.4189 78.7764 99.0088C78.9277 98.5986 79.1377 98.2373 79.4062 97.9248C79.6748 97.6123 79.9971 97.3682 80.373 97.1924C80.749 97.0166 81.1763 96.9287 81.6548 96.9287C82.0405 96.9287 82.3896 96.9824 82.7021 97.0898C83.0195 97.1924 83.2881 97.356 83.5078 97.5806C83.7324 97.8003 83.9058 98.0884 84.0278 98.4448C84.1499 98.8013 84.2109 99.2285 84.2109 99.7266V105H83.3394V99.7559C83.3394 99.2285 83.2563 98.8159 83.0903 98.5181C82.9292 98.2202 82.7021 98.0078 82.4092 97.8809C82.1211 97.7539 81.7866 97.6904 81.4058 97.6904C80.9565 97.6904 80.5757 97.7832 80.2632 97.9688C79.9556 98.1494 79.7041 98.3862 79.5088 98.6792C79.3184 98.9673 79.1768 99.2773 79.084 99.6094C78.9912 99.9365 78.9424 100.249 78.9375 100.547ZM84.2036 99.8584L83.6177 99.873C83.6421 99.4873 83.73 99.1187 83.8813 98.7671C84.0376 98.4155 84.25 98.103 84.5186 97.8296C84.7871 97.5513 85.1069 97.3315 85.478 97.1704C85.854 97.0093 86.2764 96.9287 86.7451 96.9287C87.1553 96.9287 87.5215 96.9849 87.8438 97.0972C88.166 97.2046 88.437 97.3779 88.6567 97.6172C88.8813 97.8516 89.0522 98.1519 89.1694 98.5181C89.2866 98.8843 89.3452 99.3237 89.3452 99.8364V105H88.4663V99.8291C88.4663 99.2676 88.3833 98.833 88.2173 98.5254C88.0562 98.2129 87.8315 97.9956 87.5435 97.8735C87.2554 97.7515 86.9185 97.6904 86.5327 97.6904C86.1519 97.6953 85.8174 97.7661 85.5293 97.9028C85.2412 98.0347 84.9995 98.2104 84.8042 98.4302C84.6138 98.645 84.4673 98.877 84.3647 99.126C84.2671 99.375 84.2134 99.6191 84.2036 99.8584ZM96.7055 93.75V105H95.8339V93.75H96.7055ZM96.5077 100.547L96.1195 100.327C96.1488 99.8584 96.244 99.4189 96.4052 99.0088C96.5663 98.5986 96.7836 98.2373 97.057 97.9248C97.3354 97.6123 97.6601 97.3682 98.0312 97.1924C98.4071 97.0166 98.8222 96.9287 99.2763 96.9287C99.6718 96.9287 100.026 96.9824 100.338 97.0898C100.651 97.1973 100.917 97.3682 101.137 97.6025C101.356 97.8369 101.522 98.1372 101.635 98.5034C101.752 98.8696 101.81 99.3164 101.81 99.8438V105H100.932V99.8364C100.932 99.2896 100.856 98.8623 100.704 98.5547C100.553 98.2422 100.338 98.02 100.06 97.8882C99.7816 97.7563 99.452 97.6904 99.0712 97.6904C98.6513 97.6904 98.2826 97.7832 97.9652 97.9688C97.6527 98.1494 97.3891 98.3862 97.1742 98.6792C96.9643 98.9673 96.8031 99.2773 96.6908 99.6094C96.5785 99.9365 96.5175 100.249 96.5077 100.547ZM109.186 103.579V99.4922C109.186 99.1162 109.108 98.7915 108.951 98.5181C108.795 98.2446 108.566 98.0347 108.263 97.8882C107.96 97.7417 107.587 97.6685 107.142 97.6685C106.732 97.6685 106.366 97.7417 106.044 97.8882C105.726 98.0298 105.475 98.2227 105.289 98.4668C105.108 98.7061 105.018 98.9722 105.018 99.2651L104.139 99.2578C104.139 98.96 104.213 98.6719 104.359 98.3936C104.505 98.1152 104.713 97.8662 104.982 97.6465C105.25 97.4268 105.57 97.2534 105.941 97.1265C106.317 96.9946 106.73 96.9287 107.179 96.9287C107.745 96.9287 108.243 97.0239 108.673 97.2144C109.108 97.4048 109.447 97.6904 109.691 98.0713C109.935 98.4521 110.057 98.9307 110.057 99.5068V103.337C110.057 103.611 110.077 103.894 110.116 104.187C110.16 104.48 110.221 104.722 110.299 104.912V105H109.369C109.31 104.824 109.264 104.604 109.23 104.341C109.2 104.072 109.186 103.818 109.186 103.579ZM109.391 100.386L109.405 101.06H107.684C107.235 101.06 106.832 101.101 106.476 101.184C106.124 101.262 105.826 101.379 105.582 101.536C105.338 101.687 105.15 101.87 105.018 102.085C104.891 102.3 104.828 102.544 104.828 102.817C104.828 103.101 104.899 103.359 105.04 103.594C105.187 103.828 105.392 104.016 105.655 104.158C105.924 104.294 106.241 104.363 106.608 104.363C107.096 104.363 107.525 104.272 107.897 104.092C108.273 103.911 108.583 103.674 108.827 103.381C109.071 103.088 109.234 102.769 109.317 102.422L109.698 102.927C109.635 103.171 109.518 103.423 109.347 103.682C109.181 103.936 108.963 104.175 108.695 104.399C108.426 104.619 108.109 104.8 107.743 104.941C107.381 105.078 106.971 105.146 106.512 105.146C105.995 105.146 105.543 105.049 105.157 104.854C104.776 104.658 104.479 104.392 104.264 104.055C104.054 103.713 103.949 103.328 103.949 102.898C103.949 102.507 104.032 102.158 104.198 101.851C104.364 101.538 104.603 101.274 104.916 101.06C105.233 100.84 105.614 100.674 106.058 100.562C106.507 100.444 107.01 100.386 107.567 100.386H109.391ZM117.454 102.979C117.454 102.764 117.401 102.551 117.293 102.341C117.186 102.131 116.978 101.938 116.671 101.763C116.368 101.587 115.921 101.438 115.33 101.316C114.891 101.218 114.498 101.108 114.151 100.986C113.809 100.864 113.521 100.718 113.287 100.547C113.053 100.376 112.874 100.171 112.752 99.9316C112.63 99.6924 112.569 99.4092 112.569 99.082C112.569 98.7891 112.633 98.5132 112.76 98.2544C112.891 97.9907 113.077 97.7612 113.316 97.5659C113.56 97.3657 113.853 97.2095 114.195 97.0972C114.542 96.9849 114.93 96.9287 115.36 96.9287C115.97 96.9287 116.492 97.0337 116.927 97.2437C117.367 97.4487 117.701 97.7295 117.93 98.0859C118.165 98.4424 118.282 98.8452 118.282 99.2944H117.41C117.41 99.021 117.33 98.7622 117.169 98.5181C117.012 98.2739 116.781 98.0737 116.473 97.9175C116.17 97.7612 115.799 97.6831 115.36 97.6831C114.906 97.6831 114.537 97.7515 114.254 97.8882C113.971 98.0249 113.763 98.1982 113.631 98.4082C113.504 98.6182 113.441 98.8354 113.441 99.0601C113.441 99.2358 113.468 99.397 113.521 99.5435C113.58 99.6851 113.682 99.8169 113.829 99.939C113.98 100.061 114.195 100.176 114.473 100.283C114.752 100.391 115.113 100.496 115.557 100.598C116.197 100.74 116.72 100.913 117.125 101.118C117.535 101.318 117.838 101.567 118.033 101.865C118.228 102.158 118.326 102.515 118.326 102.935C118.326 103.262 118.258 103.562 118.121 103.835C117.984 104.104 117.786 104.336 117.528 104.531C117.274 104.727 116.966 104.878 116.605 104.985C116.248 105.093 115.848 105.146 115.404 105.146C114.735 105.146 114.168 105.037 113.704 104.817C113.245 104.592 112.896 104.299 112.657 103.938C112.423 103.572 112.305 103.184 112.305 102.773H113.177C113.206 103.184 113.336 103.508 113.565 103.748C113.795 103.982 114.075 104.148 114.408 104.246C114.744 104.343 115.076 104.392 115.404 104.392C115.853 104.392 116.229 104.326 116.532 104.194C116.834 104.062 117.064 103.889 117.22 103.674C117.376 103.459 117.454 103.228 117.454 102.979ZM124.558 93.75H125.437V103.462L125.379 105H124.558V93.75ZM130.952 100.964V101.118C130.952 101.709 130.884 102.251 130.747 102.744C130.611 103.237 130.413 103.665 130.154 104.026C129.895 104.382 129.578 104.658 129.202 104.854C128.831 105.049 128.404 105.146 127.92 105.146C127.446 105.146 127.027 105.073 126.66 104.927C126.294 104.775 125.982 104.563 125.723 104.29C125.464 104.011 125.257 103.687 125.1 103.315C124.944 102.939 124.834 102.527 124.771 102.078V100.122C124.844 99.6436 124.961 99.209 125.122 98.8184C125.283 98.4277 125.491 98.0908 125.745 97.8076C126.004 97.5244 126.311 97.3071 126.668 97.1558C127.029 97.0044 127.442 96.9287 127.905 96.9287C128.389 96.9287 128.819 97.0239 129.195 97.2144C129.575 97.3999 129.895 97.6709 130.154 98.0273C130.413 98.3789 130.611 98.8037 130.747 99.3018C130.884 99.7949 130.952 100.349 130.952 100.964ZM130.066 101.118V100.964C130.066 100.5 130.022 100.071 129.934 99.6753C129.846 99.2798 129.707 98.9355 129.517 98.6426C129.331 98.3447 129.092 98.1128 128.799 97.9468C128.506 97.7808 128.154 97.6978 127.744 97.6978C127.324 97.6978 126.966 97.7686 126.668 97.9102C126.375 98.0469 126.131 98.23 125.935 98.4595C125.745 98.6841 125.593 98.9307 125.481 99.1992C125.369 99.4678 125.286 99.7314 125.232 99.9902V102.268C125.315 102.634 125.459 102.979 125.664 103.301C125.869 103.623 126.145 103.884 126.492 104.084C126.839 104.28 127.261 104.377 127.759 104.377C128.159 104.377 128.504 104.294 128.792 104.128C129.085 103.962 129.324 103.733 129.509 103.44C129.7 103.147 129.839 102.803 129.927 102.407C130.02 102.012 130.066 101.582 130.066 101.118ZM136.255 105.146C135.737 105.146 135.261 105.051 134.827 104.861C134.397 104.67 134.021 104.402 133.699 104.055C133.381 103.708 133.135 103.298 132.959 102.825C132.788 102.346 132.703 101.824 132.703 101.257V100.942C132.703 100.332 132.793 99.7803 132.974 99.2871C133.154 98.7939 133.403 98.3716 133.721 98.02C134.038 97.6685 134.399 97.3999 134.805 97.2144C135.215 97.0239 135.644 96.9287 136.094 96.9287C136.597 96.9287 137.043 97.019 137.434 97.1997C137.825 97.3755 138.152 97.627 138.415 97.9541C138.684 98.2764 138.887 98.6597 139.023 99.104C139.16 99.5435 139.228 100.029 139.228 100.562V101.096H133.23V100.349H138.357V100.247C138.347 99.8022 138.257 99.3872 138.086 99.0015C137.92 98.6108 137.671 98.2935 137.339 98.0493C137.007 97.8052 136.592 97.6831 136.094 97.6831C135.723 97.6831 135.381 97.7612 135.068 97.9175C134.761 98.0737 134.495 98.2983 134.27 98.5913C134.05 98.8794 133.879 99.2236 133.757 99.624C133.64 100.02 133.581 100.459 133.581 100.942V101.257C133.581 101.697 133.645 102.107 133.772 102.488C133.904 102.864 134.089 103.196 134.329 103.484C134.573 103.772 134.861 103.997 135.193 104.158C135.525 104.319 135.891 104.399 136.291 104.399C136.76 104.399 137.175 104.314 137.537 104.143C137.898 103.967 138.223 103.691 138.511 103.315L139.06 103.74C138.889 103.994 138.674 104.229 138.415 104.443C138.162 104.658 137.856 104.829 137.5 104.956C137.143 105.083 136.728 105.146 136.255 105.146ZM144.318 105.146C143.801 105.146 143.325 105.051 142.89 104.861C142.461 104.67 142.085 104.402 141.762 104.055C141.445 103.708 141.198 103.298 141.023 102.825C140.852 102.346 140.766 101.824 140.766 101.257V100.942C140.766 100.332 140.857 99.7803 141.037 99.2871C141.218 98.7939 141.467 98.3716 141.784 98.02C142.102 97.6685 142.463 97.3999 142.868 97.2144C143.278 97.0239 143.708 96.9287 144.157 96.9287C144.66 96.9287 145.107 97.019 145.498 97.1997C145.888 97.3755 146.215 97.627 146.479 97.9541C146.748 98.2764 146.95 98.6597 147.087 99.104C147.224 99.5435 147.292 100.029 147.292 100.562V101.096H141.294V100.349H146.421V100.247C146.411 99.8022 146.32 99.3872 146.15 99.0015C145.983 98.6108 145.734 98.2935 145.402 98.0493C145.07 97.8052 144.655 97.6831 144.157 97.6831C143.786 97.6831 143.444 97.7612 143.132 97.9175C142.824 98.0737 142.558 98.2983 142.334 98.5913C142.114 98.8794 141.943 99.2236 141.821 99.624C141.704 100.02 141.645 100.459 141.645 100.942V101.257C141.645 101.697 141.709 102.107 141.836 102.488C141.967 102.864 142.153 103.196 142.392 103.484C142.636 103.772 142.924 103.997 143.256 104.158C143.588 104.319 143.955 104.399 144.355 104.399C144.824 104.399 145.239 104.314 145.6 104.143C145.962 103.967 146.286 103.691 146.574 103.315L147.124 103.74C146.953 103.994 146.738 104.229 146.479 104.443C146.225 104.658 145.92 104.829 145.564 104.956C145.207 105.083 144.792 105.146 144.318 105.146ZM150.192 98.7671V105H149.321V97.0752H150.156L150.192 98.7671ZM149.994 100.547L149.606 100.327C149.636 99.8584 149.731 99.4189 149.892 99.0088C150.053 98.5986 150.27 98.2373 150.544 97.9248C150.822 97.6123 151.147 97.3682 151.518 97.1924C151.894 97.0166 152.309 96.9287 152.763 96.9287C153.158 96.9287 153.512 96.9824 153.825 97.0898C154.137 97.1973 154.404 97.3682 154.623 97.6025C154.843 97.8369 155.009 98.1372 155.121 98.5034C155.239 98.8696 155.297 99.3164 155.297 99.8438V105H154.418V99.8364C154.418 99.2896 154.343 98.8623 154.191 98.5547C154.04 98.2422 153.825 98.02 153.547 97.8882C153.268 97.7563 152.939 97.6904 152.558 97.6904C152.138 97.6904 151.769 97.7832 151.452 97.9688C151.139 98.1494 150.876 98.3862 150.661 98.6792C150.451 98.9673 150.29 99.2773 150.178 99.6094C150.065 99.9365 150.004 100.249 149.994 100.547ZM164.825 97.0752V97.793H160.856V97.0752H164.825ZM162.313 95.0391H163.185V103.074C163.185 103.44 163.234 103.716 163.331 103.901C163.429 104.087 163.556 104.211 163.712 104.275C163.868 104.338 164.037 104.37 164.217 104.37C164.349 104.37 164.476 104.363 164.598 104.348C164.72 104.329 164.83 104.309 164.928 104.29L164.965 105.029C164.857 105.063 164.718 105.09 164.547 105.11C164.376 105.134 164.205 105.146 164.034 105.146C163.697 105.146 163.4 105.085 163.141 104.963C162.882 104.836 162.679 104.622 162.533 104.319C162.386 104.011 162.313 103.594 162.313 103.066V95.0391ZM167.835 93.75V105H166.964V93.75H167.835ZM167.638 100.547L167.249 100.327C167.279 99.8584 167.374 99.4189 167.535 99.0088C167.696 98.5986 167.913 98.2373 168.187 97.9248C168.465 97.6123 168.79 97.3682 169.161 97.1924C169.537 97.0166 169.952 96.9287 170.406 96.9287C170.802 96.9287 171.156 96.9824 171.468 97.0898C171.781 97.1973 172.047 97.3682 172.267 97.6025C172.486 97.8369 172.652 98.1372 172.765 98.5034C172.882 98.8696 172.94 99.3164 172.94 99.8438V105H172.061V99.8364C172.061 99.2896 171.986 98.8623 171.834 98.5547C171.683 98.2422 171.468 98.02 171.19 97.8882C170.912 97.7563 170.582 97.6904 170.201 97.6904C169.781 97.6904 169.413 97.7832 169.095 97.9688C168.783 98.1494 168.519 98.3862 168.304 98.6792C168.094 98.9673 167.933 99.2773 167.821 99.6094C167.708 99.9365 167.647 100.249 167.638 100.547ZM178.558 105.146C178.04 105.146 177.564 105.051 177.129 104.861C176.7 104.67 176.324 104.402 176.002 104.055C175.684 103.708 175.438 103.298 175.262 102.825C175.091 102.346 175.005 101.824 175.005 101.257V100.942C175.005 100.332 175.096 99.7803 175.276 99.2871C175.457 98.7939 175.706 98.3716 176.024 98.02C176.341 97.6685 176.702 97.3999 177.108 97.2144C177.518 97.0239 177.947 96.9287 178.397 96.9287C178.9 96.9287 179.346 97.019 179.737 97.1997C180.128 97.3755 180.455 97.627 180.718 97.9541C180.987 98.2764 181.19 98.6597 181.326 99.104C181.463 99.5435 181.531 100.029 181.531 100.562V101.096H175.533V100.349H180.66V100.247C180.65 99.8022 180.56 99.3872 180.389 99.0015C180.223 98.6108 179.974 98.2935 179.642 98.0493C179.31 97.8052 178.895 97.6831 178.397 97.6831C178.025 97.6831 177.684 97.7612 177.371 97.9175C177.064 98.0737 176.797 98.2983 176.573 98.5913C176.353 98.8794 176.182 99.2236 176.06 99.624C175.943 100.02 175.884 100.459 175.884 100.942V101.257C175.884 101.697 175.948 102.107 176.075 102.488C176.207 102.864 176.392 103.196 176.631 103.484C176.876 103.772 177.164 103.997 177.496 104.158C177.828 104.319 178.194 104.399 178.594 104.399C179.063 104.399 179.478 104.314 179.839 104.143C180.201 103.967 180.525 103.691 180.814 103.315L181.363 103.74C181.192 103.994 180.977 104.229 180.718 104.443C180.464 104.658 180.159 104.829 179.803 104.956C179.446 105.083 179.031 105.146 178.558 105.146ZM188.496 97.0752V105H187.625V97.0752H188.496ZM187.471 94.7827C187.471 94.6167 187.522 94.4775 187.625 94.3652C187.732 94.248 187.878 94.1895 188.064 94.1895C188.25 94.1895 188.396 94.248 188.503 94.3652C188.616 94.4775 188.672 94.6167 188.672 94.7827C188.672 94.9438 188.616 95.083 188.503 95.2002C188.396 95.3125 188.25 95.3687 188.064 95.3687C187.878 95.3687 187.732 95.3125 187.625 95.2002C187.522 95.083 187.471 94.9438 187.471 94.7827ZM192.063 98.7671V105H191.191V97.0752H192.026L192.063 98.7671ZM191.865 100.547L191.477 100.327C191.506 99.8584 191.601 99.4189 191.762 99.0088C191.924 98.5986 192.141 98.2373 192.414 97.9248C192.693 97.6123 193.017 97.3682 193.388 97.1924C193.764 97.0166 194.179 96.9287 194.633 96.9287C195.029 96.9287 195.383 96.9824 195.696 97.0898C196.008 97.1973 196.274 97.3682 196.494 97.6025C196.714 97.8369 196.88 98.1372 196.992 98.5034C197.109 98.8696 197.168 99.3164 197.168 99.8438V105H196.289V99.8364C196.289 99.2896 196.213 98.8623 196.062 98.5547C195.91 98.2422 195.696 98.02 195.417 97.8882C195.139 97.7563 194.809 97.6904 194.428 97.6904C194.008 97.6904 193.64 97.7832 193.322 97.9688C193.01 98.1494 192.746 98.3862 192.531 98.6792C192.321 98.9673 192.16 99.2773 192.048 99.6094C191.936 99.9365 191.875 100.249 191.865 100.547ZM204.887 103.462V93.75H205.766V105H204.946L204.887 103.462ZM199.387 101.118V100.964C199.387 100.349 199.457 99.7949 199.599 99.3018C199.741 98.8037 199.943 98.3789 200.207 98.0273C200.475 97.6709 200.798 97.3999 201.174 97.2144C201.55 97.0239 201.975 96.9287 202.448 96.9287C202.912 96.9287 203.322 97.0044 203.679 97.1558C204.035 97.3071 204.34 97.5244 204.594 97.8076C204.853 98.0908 205.06 98.4277 205.217 98.8184C205.378 99.209 205.495 99.6436 205.568 100.122V102.078C205.51 102.527 205.402 102.939 205.246 103.315C205.09 103.687 204.882 104.011 204.623 104.29C204.365 104.563 204.052 104.775 203.686 104.927C203.325 105.073 202.907 105.146 202.434 105.146C201.965 105.146 201.542 105.049 201.166 104.854C200.79 104.658 200.471 104.382 200.207 104.026C199.943 103.665 199.741 103.237 199.599 102.744C199.457 102.251 199.387 101.709 199.387 101.118ZM200.266 100.964V101.118C200.266 101.582 200.312 102.012 200.405 102.407C200.497 102.803 200.639 103.147 200.829 103.44C201.02 103.733 201.262 103.962 201.555 104.128C201.848 104.294 202.194 104.377 202.595 104.377C203.098 104.377 203.52 104.282 203.862 104.092C204.204 103.896 204.477 103.64 204.682 103.323C204.887 103 205.036 102.649 205.129 102.268V99.9902C205.07 99.7314 204.985 99.4678 204.872 99.1992C204.76 98.9307 204.606 98.6841 204.411 98.4595C204.221 98.23 203.976 98.0469 203.679 97.9102C203.386 97.7686 203.029 97.6978 202.609 97.6978C202.204 97.6978 201.855 97.7808 201.562 97.9468C201.269 98.1128 201.025 98.3447 200.829 98.6426C200.639 98.9355 200.497 99.2798 200.405 99.6753C200.312 100.071 200.266 100.5 200.266 100.964ZM213.449 103.169V97.0752H214.328V105H213.485L213.449 103.169ZM213.61 101.704L214.064 101.689C214.064 102.188 214.005 102.646 213.888 103.066C213.771 103.486 213.588 103.853 213.339 104.165C213.09 104.478 212.768 104.719 212.372 104.89C211.977 105.061 211.501 105.146 210.944 105.146C210.558 105.146 210.204 105.093 209.882 104.985C209.565 104.873 209.291 104.697 209.062 104.458C208.832 104.219 208.654 103.909 208.527 103.528C208.405 103.147 208.344 102.686 208.344 102.144V97.0752H209.215V102.158C209.215 102.583 209.262 102.937 209.355 103.22C209.452 103.503 209.584 103.73 209.75 103.901C209.921 104.072 210.116 104.194 210.336 104.268C210.556 104.341 210.793 104.377 211.046 104.377C211.691 104.377 212.199 104.253 212.57 104.004C212.946 103.755 213.212 103.428 213.368 103.022C213.529 102.612 213.61 102.173 213.61 101.704ZM221.666 102.979C221.666 102.764 221.613 102.551 221.505 102.341C221.398 102.131 221.19 101.938 220.883 101.763C220.58 101.587 220.133 101.438 219.542 101.316C219.103 101.218 218.71 101.108 218.363 100.986C218.021 100.864 217.733 100.718 217.499 100.547C217.264 100.376 217.086 100.171 216.964 99.9316C216.842 99.6924 216.781 99.4092 216.781 99.082C216.781 98.7891 216.845 98.5132 216.971 98.2544C217.103 97.9907 217.289 97.7612 217.528 97.5659C217.772 97.3657 218.065 97.2095 218.407 97.0972C218.754 96.9849 219.142 96.9287 219.572 96.9287C220.182 96.9287 220.704 97.0337 221.139 97.2437C221.578 97.4487 221.913 97.7295 222.142 98.0859C222.377 98.4424 222.494 98.8452 222.494 99.2944H221.622C221.622 99.021 221.542 98.7622 221.381 98.5181C221.224 98.2739 220.992 98.0737 220.685 97.9175C220.382 97.7612 220.011 97.6831 219.572 97.6831C219.117 97.6831 218.749 97.7515 218.466 97.8882C218.182 98.0249 217.975 98.1982 217.843 98.4082C217.716 98.6182 217.653 98.8354 217.653 99.0601C217.653 99.2358 217.679 99.397 217.733 99.5435C217.792 99.6851 217.894 99.8169 218.041 99.939C218.192 100.061 218.407 100.176 218.685 100.283C218.964 100.391 219.325 100.496 219.769 100.598C220.409 100.74 220.931 100.913 221.337 101.118C221.747 101.318 222.05 101.567 222.245 101.865C222.44 102.158 222.538 102.515 222.538 102.935C222.538 103.262 222.47 103.562 222.333 103.835C222.196 104.104 221.998 104.336 221.74 104.531C221.486 104.727 221.178 104.878 220.817 104.985C220.46 105.093 220.06 105.146 219.616 105.146C218.947 105.146 218.38 105.037 217.916 104.817C217.457 104.592 217.108 104.299 216.869 103.938C216.635 103.572 216.517 103.184 216.517 102.773H217.389C217.418 103.184 217.548 103.508 217.777 103.748C218.007 103.982 218.287 104.148 218.619 104.246C218.956 104.343 219.288 104.392 219.616 104.392C220.065 104.392 220.441 104.326 220.743 104.194C221.046 104.062 221.276 103.889 221.432 103.674C221.588 103.459 221.666 103.228 221.666 102.979ZM227.818 97.0752V97.793H223.849V97.0752H227.818ZM225.306 95.0391H226.178V103.074C226.178 103.44 226.227 103.716 226.324 103.901C226.422 104.087 226.549 104.211 226.705 104.275C226.861 104.338 227.03 104.37 227.21 104.37C227.342 104.37 227.469 104.363 227.591 104.348C227.713 104.329 227.823 104.309 227.921 104.29L227.958 105.029C227.85 105.063 227.711 105.09 227.54 105.11C227.369 105.134 227.198 105.146 227.027 105.146C226.69 105.146 226.393 105.085 226.134 104.963C225.875 104.836 225.672 104.622 225.526 104.319C225.379 104.011 225.306 103.594 225.306 103.066V95.0391ZM230.828 98.3862V105H229.957V97.0752H230.806L230.828 98.3862ZM233.633 97.0166L233.612 97.8223C233.514 97.8076 233.419 97.7954 233.326 97.7856C233.233 97.7759 233.133 97.771 233.026 97.771C232.645 97.771 232.31 97.8418 232.022 97.9834C231.739 98.1201 231.5 98.313 231.304 98.562C231.109 98.8062 230.96 99.0942 230.858 99.4263C230.755 99.7534 230.696 100.105 230.682 100.481L230.36 100.605C230.36 100.088 230.413 99.6069 230.521 99.1626C230.628 98.7183 230.792 98.3301 231.011 97.998C231.236 97.6611 231.517 97.3999 231.854 97.2144C232.196 97.0239 232.596 96.9287 233.055 96.9287C233.167 96.9287 233.277 96.9385 233.384 96.958C233.497 96.9727 233.58 96.9922 233.633 97.0166ZM237.793 104.209L240.262 97.0752H241.206L237.852 106.274C237.784 106.455 237.696 106.655 237.588 106.875C237.486 107.095 237.349 107.305 237.178 107.505C237.012 107.71 236.802 107.876 236.548 108.003C236.299 108.135 235.994 108.201 235.633 108.201C235.54 108.201 235.42 108.188 235.274 108.164C235.132 108.145 235.03 108.125 234.966 108.105L234.959 107.366C235.013 107.38 235.091 107.393 235.193 107.402C235.296 107.412 235.367 107.417 235.406 107.417C235.723 107.417 235.989 107.363 236.204 107.256C236.424 107.148 236.607 106.987 236.753 106.772C236.9 106.562 237.029 106.299 237.142 105.981L237.793 104.209ZM235.486 97.0752L238.013 103.879L238.247 104.795L237.61 105.154L234.534 97.0752H235.486ZM243.506 93.75V94.7754L243.374 97.0166H242.722L242.759 94.8413V93.75H243.506ZM250.017 102.979C250.017 102.764 249.963 102.551 249.856 102.341C249.748 102.131 249.541 101.938 249.233 101.763C248.93 101.587 248.484 101.438 247.893 101.316C247.453 101.218 247.06 101.108 246.714 100.986C246.372 100.864 246.084 100.718 245.849 100.547C245.615 100.376 245.437 100.171 245.315 99.9316C245.193 99.6924 245.132 99.4092 245.132 99.082C245.132 98.7891 245.195 98.5132 245.322 98.2544C245.454 97.9907 245.639 97.7612 245.879 97.5659C246.123 97.3657 246.416 97.2095 246.758 97.0972C247.104 96.9849 247.492 96.9287 247.922 96.9287C248.533 96.9287 249.055 97.0337 249.49 97.2437C249.929 97.4487 250.263 97.7295 250.493 98.0859C250.727 98.4424 250.845 98.8452 250.845 99.2944H249.973C249.973 99.021 249.892 98.7622 249.731 98.5181C249.575 98.2739 249.343 98.0737 249.035 97.9175C248.733 97.7612 248.362 97.6831 247.922 97.6831C247.468 97.6831 247.099 97.7515 246.816 97.8882C246.533 98.0249 246.325 98.1982 246.194 98.4082C246.067 98.6182 246.003 98.8354 246.003 99.0601C246.003 99.2358 246.03 99.397 246.084 99.5435C246.142 99.6851 246.245 99.8169 246.391 99.939C246.543 100.061 246.758 100.176 247.036 100.283C247.314 100.391 247.676 100.496 248.12 100.598C248.76 100.74 249.282 100.913 249.687 101.118C250.097 101.318 250.4 101.567 250.596 101.865C250.791 102.158 250.888 102.515 250.888 102.935C250.888 103.262 250.82 103.562 250.683 103.835C250.547 104.104 250.349 104.336 250.09 104.531C249.836 104.727 249.529 104.878 249.167 104.985C248.811 105.093 248.41 105.146 247.966 105.146C247.297 105.146 246.731 105.037 246.267 104.817C245.808 104.592 245.459 104.299 245.22 103.938C244.985 103.572 244.868 103.184 244.868 102.773H245.74C245.769 103.184 245.898 103.508 246.128 103.748C246.357 103.982 246.638 104.148 246.97 104.246C247.307 104.343 247.639 104.392 247.966 104.392C248.415 104.392 248.791 104.326 249.094 104.194C249.397 104.062 249.626 103.889 249.783 103.674C249.939 103.459 250.017 103.228 250.017 102.979ZM5.896 124.979C5.896 124.764 5.84229 124.551 5.73486 124.341C5.62744 124.131 5.41992 123.938 5.1123 123.763C4.80957 123.587 4.36279 123.438 3.77197 123.316C3.33252 123.218 2.93945 123.108 2.59277 122.986C2.25098 122.864 1.96289 122.718 1.72852 122.547C1.49414 122.376 1.31592 122.171 1.19385 121.932C1.07178 121.692 1.01074 121.409 1.01074 121.082C1.01074 120.789 1.07422 120.513 1.20117 120.254C1.33301 119.991 1.51855 119.761 1.75781 119.566C2.00195 119.366 2.29492 119.209 2.63672 119.097C2.9834 118.985 3.37158 118.929 3.80127 118.929C4.41162 118.929 4.93408 119.034 5.36865 119.244C5.80811 119.449 6.14258 119.729 6.37207 120.086C6.60645 120.442 6.72363 120.845 6.72363 121.294H5.85205C5.85205 121.021 5.77148 120.762 5.61035 120.518C5.4541 120.274 5.22217 120.074 4.91455 119.917C4.61182 119.761 4.24072 119.683 3.80127 119.683C3.34717 119.683 2.97852 119.751 2.69531 119.888C2.41211 120.025 2.20459 120.198 2.07275 120.408C1.9458 120.618 1.88232 120.835 1.88232 121.06C1.88232 121.236 1.90918 121.397 1.96289 121.543C2.02148 121.685 2.12402 121.817 2.27051 121.939C2.42188 122.061 2.63672 122.176 2.91504 122.283C3.19336 122.391 3.55469 122.496 3.99902 122.598C4.63867 122.74 5.16113 122.913 5.56641 123.118C5.97656 123.318 6.2793 123.567 6.47461 123.865C6.66992 124.158 6.76758 124.515 6.76758 124.935C6.76758 125.262 6.69922 125.562 6.5625 125.835C6.42578 126.104 6.22803 126.336 5.96924 126.531C5.71533 126.727 5.40771 126.878 5.04639 126.985C4.68994 127.093 4.28955 127.146 3.84521 127.146C3.17627 127.146 2.60986 127.037 2.146 126.817C1.68701 126.592 1.33789 126.299 1.09863 125.938C0.864258 125.572 0.74707 125.184 0.74707 124.773H1.61865C1.64795 125.184 1.77734 125.508 2.00684 125.748C2.23633 125.982 2.51709 126.148 2.84912 126.246C3.18604 126.343 3.51807 126.392 3.84521 126.392C4.29443 126.392 4.67041 126.326 4.97314 126.194C5.27588 126.062 5.50537 125.889 5.66162 125.674C5.81787 125.459 5.896 125.228 5.896 124.979ZM12.048 119.075V119.793H8.07832V119.075H12.048ZM9.53584 117.039H10.4074V125.074C10.4074 125.44 10.4563 125.716 10.5539 125.901C10.6516 126.087 10.7785 126.211 10.9348 126.275C11.091 126.338 11.2595 126.37 11.4401 126.37C11.572 126.37 11.6989 126.363 11.821 126.348C11.9431 126.329 12.0529 126.309 12.1506 126.29L12.1872 127.029C12.0798 127.063 11.9406 127.09 11.7697 127.11C11.5988 127.134 11.4279 127.146 11.257 127.146C10.9201 127.146 10.6223 127.085 10.3635 126.963C10.1047 126.836 9.90205 126.622 9.75557 126.319C9.60908 126.011 9.53584 125.594 9.53584 125.066V117.039ZM19.0058 125.579V121.492C19.0058 121.116 18.9276 120.792 18.7714 120.518C18.6151 120.245 18.3856 120.035 18.0829 119.888C17.7802 119.742 17.4066 119.668 16.9623 119.668C16.5521 119.668 16.1859 119.742 15.8637 119.888C15.5463 120.03 15.2948 120.223 15.1093 120.467C14.9286 120.706 14.8383 120.972 14.8383 121.265L13.9594 121.258C13.9594 120.96 14.0326 120.672 14.1791 120.394C14.3256 120.115 14.5331 119.866 14.8017 119.646C15.0702 119.427 15.39 119.253 15.7611 119.126C16.1371 118.995 16.5497 118.929 16.9989 118.929C17.5653 118.929 18.0634 119.024 18.4931 119.214C18.9276 119.405 19.267 119.69 19.5111 120.071C19.7553 120.452 19.8773 120.931 19.8773 121.507V125.337C19.8773 125.611 19.8969 125.894 19.9359 126.187C19.9799 126.48 20.0409 126.722 20.119 126.912V127H19.1889C19.1303 126.824 19.0839 126.604 19.0497 126.341C19.0204 126.072 19.0058 125.818 19.0058 125.579ZM19.2108 122.386L19.2255 123.06H17.5043C17.0551 123.06 16.6522 123.101 16.2958 123.184C15.9442 123.262 15.6464 123.379 15.4022 123.536C15.1581 123.687 14.9701 123.87 14.8383 124.085C14.7113 124.3 14.6479 124.544 14.6479 124.817C14.6479 125.101 14.7187 125.359 14.8603 125.594C15.0067 125.828 15.2118 126.016 15.4755 126.158C15.744 126.294 16.0614 126.363 16.4276 126.363C16.9159 126.363 17.3456 126.272 17.7167 126.092C18.0927 125.911 18.4027 125.674 18.6469 125.381C18.891 125.088 19.0546 124.769 19.1376 124.422L19.5185 124.927C19.455 125.171 19.3378 125.423 19.1669 125.682C19.0009 125.936 18.7836 126.175 18.515 126.399C18.2465 126.619 17.9291 126.8 17.5629 126.941C17.2016 127.078 16.7914 127.146 16.3324 127.146C15.8148 127.146 15.3632 127.049 14.9774 126.854C14.5966 126.658 14.2987 126.392 14.0839 126.055C13.8739 125.713 13.7689 125.328 13.7689 124.898C13.7689 124.507 13.852 124.158 14.018 123.851C14.184 123.538 14.4232 123.274 14.7357 123.06C15.0531 122.84 15.434 122.674 15.8783 122.562C16.3275 122.444 16.8305 122.386 17.3871 122.386H19.2108ZM23.4 120.767V127H22.5284V119.075H23.3634L23.4 120.767ZM23.2022 122.547L22.8141 122.327C22.8434 121.858 22.9386 121.419 23.0997 121.009C23.2608 120.599 23.4781 120.237 23.7516 119.925C24.0299 119.612 24.3546 119.368 24.7257 119.192C25.1017 119.017 25.5167 118.929 25.9708 118.929C26.3663 118.929 26.7203 118.982 27.0328 119.09C27.3453 119.197 27.6114 119.368 27.8312 119.603C28.0509 119.837 28.2169 120.137 28.3292 120.503C28.4464 120.87 28.505 121.316 28.505 121.844V127H27.6261V121.836C27.6261 121.29 27.5504 120.862 27.399 120.555C27.2477 120.242 27.0328 120.02 26.7545 119.888C26.4762 119.756 26.1466 119.69 25.7657 119.69C25.3458 119.69 24.9771 119.783 24.6598 119.969C24.3473 120.149 24.0836 120.386 23.8687 120.679C23.6588 120.967 23.4977 121.277 23.3854 121.609C23.273 121.937 23.212 122.249 23.2022 122.547ZM36.2244 125.462V115.75H37.1033V127H36.283L36.2244 125.462ZM30.7239 123.118V122.964C30.7239 122.349 30.7947 121.795 30.9363 121.302C31.0779 120.804 31.2806 120.379 31.5442 120.027C31.8128 119.671 32.1351 119.4 32.511 119.214C32.887 119.024 33.3118 118.929 33.7854 118.929C34.2493 118.929 34.6595 119.004 35.0159 119.156C35.3724 119.307 35.6775 119.524 35.9314 119.808C36.1902 120.091 36.3978 120.428 36.554 120.818C36.7151 121.209 36.8323 121.644 36.9056 122.122V124.078C36.847 124.527 36.7396 124.939 36.5833 125.315C36.4271 125.687 36.2195 126.011 35.9607 126.29C35.702 126.563 35.3895 126.775 35.0232 126.927C34.6619 127.073 34.2444 127.146 33.7708 127.146C33.3021 127.146 32.8797 127.049 32.5037 126.854C32.1277 126.658 31.8079 126.382 31.5442 126.026C31.2806 125.665 31.0779 125.237 30.9363 124.744C30.7947 124.251 30.7239 123.709 30.7239 123.118ZM31.6028 122.964V123.118C31.6028 123.582 31.6492 124.012 31.742 124.407C31.8348 124.803 31.9764 125.147 32.1668 125.44C32.3572 125.733 32.5989 125.962 32.8919 126.128C33.1849 126.294 33.5315 126.377 33.9319 126.377C34.4349 126.377 34.8572 126.282 35.199 126.092C35.5408 125.896 35.8143 125.64 36.0193 125.323C36.2244 125 36.3733 124.649 36.4661 124.268V121.99C36.4075 121.731 36.3221 121.468 36.2098 121.199C36.0975 120.931 35.9437 120.684 35.7483 120.459C35.5579 120.23 35.3138 120.047 35.0159 119.91C34.7229 119.769 34.3665 119.698 33.9466 119.698C33.5413 119.698 33.1922 119.781 32.8992 119.947C32.6063 120.113 32.3621 120.345 32.1668 120.643C31.9764 120.936 31.8348 121.28 31.742 121.675C31.6492 122.071 31.6028 122.5 31.6028 122.964ZM44.5298 125.579V121.492C44.5298 121.116 44.4517 120.792 44.2954 120.518C44.1392 120.245 43.9097 120.035 43.6069 119.888C43.3042 119.742 42.9307 119.668 42.4863 119.668C42.0762 119.668 41.71 119.742 41.3877 119.888C41.0703 120.03 40.8188 120.223 40.6333 120.467C40.4526 120.706 40.3623 120.972 40.3623 121.265L39.4834 121.258C39.4834 120.96 39.5566 120.672 39.7031 120.394C39.8496 120.115 40.0571 119.866 40.3257 119.646C40.5942 119.427 40.9141 119.253 41.2852 119.126C41.6611 118.995 42.0737 118.929 42.5229 118.929C43.0894 118.929 43.5874 119.024 44.0171 119.214C44.4517 119.405 44.791 119.69 45.0352 120.071C45.2793 120.452 45.4014 120.931 45.4014 121.507V125.337C45.4014 125.611 45.4209 125.894 45.46 126.187C45.5039 126.48 45.5649 126.722 45.6431 126.912V127H44.7129C44.6543 126.824 44.6079 126.604 44.5737 126.341C44.5444 126.072 44.5298 125.818 44.5298 125.579ZM44.7349 122.386L44.7495 123.06H43.0283C42.5791 123.06 42.1763 123.101 41.8198 123.184C41.4683 123.262 41.1704 123.379 40.9263 123.536C40.6821 123.687 40.4941 123.87 40.3623 124.085C40.2354 124.3 40.1719 124.544 40.1719 124.817C40.1719 125.101 40.2427 125.359 40.3843 125.594C40.5308 125.828 40.7358 126.016 40.9995 126.158C41.2681 126.294 41.5854 126.363 41.9517 126.363C42.4399 126.363 42.8696 126.272 43.2407 126.092C43.6167 125.911 43.9268 125.674 44.1709 125.381C44.415 125.088 44.5786 124.769 44.6616 124.422L45.0425 124.927C44.979 125.171 44.8618 125.423 44.6909 125.682C44.5249 125.936 44.3076 126.175 44.0391 126.399C43.7705 126.619 43.4531 126.8 43.0869 126.941C42.7256 127.078 42.3154 127.146 41.8564 127.146C41.3389 127.146 40.8872 127.049 40.5015 126.854C40.1206 126.658 39.8228 126.392 39.6079 126.055C39.3979 125.713 39.293 125.328 39.293 124.898C39.293 124.507 39.376 124.158 39.542 123.851C39.708 123.538 39.9473 123.274 40.2598 123.06C40.5771 122.84 40.958 122.674 41.4023 122.562C41.8516 122.444 42.3545 122.386 42.9111 122.386H44.7349ZM48.924 120.386V127H48.0524V119.075H48.9021L48.924 120.386ZM51.7292 119.017L51.7072 119.822C51.6096 119.808 51.5144 119.795 51.4216 119.786C51.3288 119.776 51.2287 119.771 51.1213 119.771C50.7404 119.771 50.406 119.842 50.1179 119.983C49.8347 120.12 49.5954 120.313 49.4001 120.562C49.2048 120.806 49.0559 121.094 48.9533 121.426C48.8508 121.753 48.7922 122.105 48.7775 122.481L48.4553 122.605C48.4553 122.088 48.509 121.607 48.6164 121.163C48.7238 120.718 48.8874 120.33 49.1071 119.998C49.3317 119.661 49.6125 119.4 49.9494 119.214C50.2912 119.024 50.6916 118.929 51.1506 118.929C51.2629 118.929 51.3728 118.938 51.4802 118.958C51.5925 118.973 51.6755 118.992 51.7292 119.017ZM58.4086 125.462V115.75H59.2875V127H58.4672L58.4086 125.462ZM52.9081 123.118V122.964C52.9081 122.349 52.9789 121.795 53.1205 121.302C53.2621 120.804 53.4647 120.379 53.7284 120.027C53.997 119.671 54.3192 119.4 54.6952 119.214C55.0712 119.024 55.496 118.929 55.9696 118.929C56.4335 118.929 56.8437 119.004 57.2001 119.156C57.5565 119.307 57.8617 119.524 58.1156 119.808C58.3744 120.091 58.5819 120.428 58.7382 120.818C58.8993 121.209 59.0165 121.644 59.0897 122.122V124.078C59.0312 124.527 58.9237 124.939 58.7675 125.315C58.6112 125.687 58.4037 126.011 58.1449 126.29C57.8861 126.563 57.5736 126.775 57.2074 126.927C56.8461 127.073 56.4286 127.146 55.955 127.146C55.4862 127.146 55.0639 127.049 54.6879 126.854C54.3119 126.658 53.9921 126.382 53.7284 126.026C53.4647 125.665 53.2621 125.237 53.1205 124.744C52.9789 124.251 52.9081 123.709 52.9081 123.118ZM53.787 122.964V123.118C53.787 123.582 53.8334 124.012 53.9262 124.407C54.0189 124.803 54.1605 125.147 54.351 125.44C54.5414 125.733 54.7831 125.962 55.0761 126.128C55.369 126.294 55.7157 126.377 56.1161 126.377C56.619 126.377 57.0414 126.282 57.3832 126.092C57.725 125.896 57.9984 125.64 58.2035 125.323C58.4086 125 58.5575 124.649 58.6503 124.268V121.99C58.5917 121.731 58.5062 121.468 58.3939 121.199C58.2816 120.931 58.1278 120.684 57.9325 120.459C57.7421 120.23 57.4979 120.047 57.2001 119.91C56.9071 119.769 56.5507 119.698 56.1308 119.698C55.7255 119.698 55.3764 119.781 55.0834 119.947C54.7904 120.113 54.5463 120.345 54.351 120.643C54.1605 120.936 54.0189 121.28 53.9262 121.675C53.8334 122.071 53.787 122.5 53.787 122.964ZM71.0057 125.462V115.75H71.8846V127H71.0643L71.0057 125.462ZM65.5052 123.118V122.964C65.5052 122.349 65.576 121.795 65.7176 121.302C65.8592 120.804 66.0618 120.379 66.3255 120.027C66.594 119.671 66.9163 119.4 67.2923 119.214C67.6683 119.024 68.0931 118.929 68.5667 118.929C69.0306 118.929 69.4407 119.004 69.7972 119.156C70.1536 119.307 70.4588 119.524 70.7127 119.808C70.9715 120.091 71.179 120.428 71.3353 120.818C71.4964 121.209 71.6136 121.644 71.6868 122.122V124.078C71.6282 124.527 71.5208 124.939 71.3645 125.315C71.2083 125.687 71.0008 126.011 70.742 126.29C70.4832 126.563 70.1707 126.775 69.8045 126.927C69.4432 127.073 69.0257 127.146 68.552 127.146C68.0833 127.146 67.6609 127.049 67.285 126.854C66.909 126.658 66.5892 126.382 66.3255 126.026C66.0618 125.665 65.8592 125.237 65.7176 124.744C65.576 124.251 65.5052 123.709 65.5052 123.118ZM66.3841 122.964V123.118C66.3841 123.582 66.4305 124.012 66.5232 124.407C66.616 124.803 66.7576 125.147 66.948 125.44C67.1385 125.733 67.3802 125.962 67.6731 126.128C67.9661 126.294 68.3128 126.377 68.7132 126.377C69.2161 126.377 69.6385 126.282 69.9803 126.092C70.3221 125.896 70.5955 125.64 70.8006 125.323C71.0057 125 71.1546 124.649 71.2474 124.268V121.99C71.1888 121.731 71.1033 121.468 70.991 121.199C70.8787 120.931 70.7249 120.684 70.5296 120.459C70.3392 120.23 70.095 120.047 69.7972 119.91C69.5042 119.769 69.1478 119.698 68.7278 119.698C68.3226 119.698 67.9734 119.781 67.6805 119.947C67.3875 120.113 67.1434 120.345 66.948 120.643C66.7576 120.936 66.616 121.28 66.5232 121.675C66.4305 122.071 66.3841 122.5 66.3841 122.964ZM79.5674 125.169V119.075H80.4463V127H79.604L79.5674 125.169ZM79.7285 123.704L80.1826 123.689C80.1826 124.188 80.124 124.646 80.0068 125.066C79.8896 125.486 79.7065 125.853 79.4575 126.165C79.2085 126.478 78.8862 126.719 78.4907 126.89C78.0952 127.061 77.6191 127.146 77.0625 127.146C76.6768 127.146 76.3228 127.093 76.0005 126.985C75.6831 126.873 75.4097 126.697 75.1802 126.458C74.9507 126.219 74.7725 125.909 74.6455 125.528C74.5234 125.147 74.4624 124.686 74.4624 124.144V119.075H75.334V124.158C75.334 124.583 75.3804 124.937 75.4731 125.22C75.5708 125.503 75.7026 125.73 75.8687 125.901C76.0396 126.072 76.2349 126.194 76.4546 126.268C76.6743 126.341 76.9111 126.377 77.165 126.377C77.8096 126.377 78.3174 126.253 78.6885 126.004C79.0645 125.755 79.3306 125.428 79.4868 125.022C79.6479 124.612 79.7285 124.173 79.7285 123.704ZM83.8664 120.716V127H82.9875V119.075H83.8298L83.8664 120.716ZM83.7053 122.547L83.2805 122.327C83.3098 121.858 83.3977 121.419 83.5441 121.009C83.6955 120.599 83.9055 120.237 84.174 119.925C84.4426 119.612 84.7648 119.368 85.1408 119.192C85.5168 119.017 85.944 118.929 86.4226 118.929C86.8083 118.929 87.1574 118.982 87.4699 119.09C87.7873 119.192 88.0559 119.356 88.2756 119.581C88.5002 119.8 88.6735 120.088 88.7956 120.445C88.9177 120.801 88.9787 121.229 88.9787 121.727V127H88.1071V121.756C88.1071 121.229 88.0241 120.816 87.8581 120.518C87.697 120.22 87.4699 120.008 87.177 119.881C86.8889 119.754 86.5544 119.69 86.1735 119.69C85.7243 119.69 85.3435 119.783 85.031 119.969C84.7233 120.149 84.4719 120.386 84.2766 120.679C84.0861 120.967 83.9445 121.277 83.8518 121.609C83.759 121.937 83.7102 122.249 83.7053 122.547ZM88.9714 121.858L88.3855 121.873C88.4099 121.487 88.4978 121.119 88.6491 120.767C88.8054 120.416 89.0178 120.103 89.2863 119.83C89.5549 119.551 89.8747 119.332 90.2458 119.17C90.6218 119.009 91.0441 118.929 91.5129 118.929C91.923 118.929 92.2893 118.985 92.6115 119.097C92.9338 119.205 93.2048 119.378 93.4245 119.617C93.6491 119.852 93.82 120.152 93.9372 120.518C94.0544 120.884 94.113 121.324 94.113 121.836V127H93.2341V121.829C93.2341 121.268 93.1511 120.833 92.9851 120.525C92.8239 120.213 92.5993 119.996 92.3112 119.874C92.0231 119.751 91.6862 119.69 91.3005 119.69C90.9196 119.695 90.5852 119.766 90.2971 119.903C90.009 120.035 89.7673 120.21 89.572 120.43C89.3815 120.645 89.2351 120.877 89.1325 121.126C89.0349 121.375 88.9812 121.619 88.9714 121.858ZM97.4672 120.716V127H96.5883V119.075H97.4306L97.4672 120.716ZM97.3061 122.547L96.8812 122.327C96.9105 121.858 96.9984 121.419 97.1449 121.009C97.2963 120.599 97.5062 120.237 97.7748 119.925C98.0434 119.612 98.3656 119.368 98.7416 119.192C99.1176 119.017 99.5448 118.929 100.023 118.929C100.409 118.929 100.758 118.982 101.071 119.09C101.388 119.192 101.657 119.356 101.876 119.581C102.101 119.8 102.274 120.088 102.396 120.445C102.518 120.801 102.579 121.229 102.579 121.727V127H101.708V121.756C101.708 121.229 101.625 120.816 101.459 120.518C101.298 120.22 101.071 120.008 100.778 119.881C100.49 119.754 100.155 119.69 99.7743 119.69C99.3251 119.69 98.9442 119.783 98.6317 119.969C98.3241 120.149 98.0727 120.386 97.8773 120.679C97.6869 120.967 97.5453 121.277 97.4525 121.609C97.3598 121.937 97.3109 122.249 97.3061 122.547ZM102.572 121.858L101.986 121.873C102.011 121.487 102.099 121.119 102.25 120.767C102.406 120.416 102.619 120.103 102.887 119.83C103.156 119.551 103.475 119.332 103.847 119.17C104.223 119.009 104.645 118.929 105.114 118.929C105.524 118.929 105.89 118.985 106.212 119.097C106.535 119.205 106.806 119.378 107.025 119.617C107.25 119.852 107.421 120.152 107.538 120.518C107.655 120.884 107.714 121.324 107.714 121.836V127H106.835V121.829C106.835 121.268 106.752 120.833 106.586 120.525C106.425 120.213 106.2 119.996 105.912 119.874C105.624 119.751 105.287 119.69 104.901 119.69C104.52 119.695 104.186 119.766 103.898 119.903C103.61 120.035 103.368 120.21 103.173 120.43C102.982 120.645 102.836 120.877 102.733 121.126C102.636 121.375 102.582 121.619 102.572 121.858ZM112.591 126.209L115.06 119.075H116.004L112.65 128.274C112.582 128.455 112.494 128.655 112.386 128.875C112.284 129.095 112.147 129.305 111.976 129.505C111.81 129.71 111.6 129.876 111.346 130.003C111.097 130.135 110.792 130.201 110.431 130.201C110.338 130.201 110.218 130.188 110.072 130.164C109.93 130.145 109.828 130.125 109.764 130.105L109.757 129.366C109.811 129.38 109.889 129.393 109.991 129.402C110.094 129.412 110.165 129.417 110.204 129.417C110.521 129.417 110.787 129.363 111.002 129.256C111.222 129.148 111.405 128.987 111.551 128.772C111.698 128.562 111.827 128.299 111.94 127.981L112.591 126.209ZM110.284 119.075L112.811 125.879L113.046 126.795L112.408 127.154L109.332 119.075H110.284ZM124.632 119.075V119.793H120.662V119.075H124.632ZM122.12 117.039H122.991V125.074C122.991 125.44 123.04 125.716 123.138 125.901C123.235 126.087 123.362 126.211 123.519 126.275C123.675 126.338 123.843 126.37 124.024 126.37C124.156 126.37 124.283 126.363 124.405 126.348C124.527 126.329 124.637 126.309 124.734 126.29L124.771 127.029C124.664 127.063 124.524 127.09 124.354 127.11C124.183 127.134 124.012 127.146 123.841 127.146C123.504 127.146 123.206 127.085 122.947 126.963C122.688 126.836 122.486 126.622 122.339 126.319C122.193 126.011 122.12 125.594 122.12 125.066V117.039ZM129.832 127.146C129.314 127.146 128.838 127.051 128.404 126.861C127.974 126.67 127.598 126.402 127.276 126.055C126.958 125.708 126.712 125.298 126.536 124.825C126.365 124.346 126.279 123.824 126.279 123.257V122.942C126.279 122.332 126.37 121.78 126.55 121.287C126.731 120.794 126.98 120.372 127.298 120.02C127.615 119.668 127.976 119.4 128.382 119.214C128.792 119.024 129.221 118.929 129.671 118.929C130.174 118.929 130.62 119.019 131.011 119.2C131.402 119.375 131.729 119.627 131.992 119.954C132.261 120.276 132.464 120.66 132.6 121.104C132.737 121.543 132.805 122.029 132.805 122.562V123.096H126.807V122.349H131.934V122.247C131.924 121.802 131.834 121.387 131.663 121.001C131.497 120.611 131.248 120.293 130.916 120.049C130.584 119.805 130.169 119.683 129.671 119.683C129.3 119.683 128.958 119.761 128.645 119.917C128.338 120.074 128.071 120.298 127.847 120.591C127.627 120.879 127.456 121.224 127.334 121.624C127.217 122.02 127.158 122.459 127.158 122.942V123.257C127.158 123.697 127.222 124.107 127.349 124.488C127.481 124.864 127.666 125.196 127.905 125.484C128.15 125.772 128.438 125.997 128.77 126.158C129.102 126.319 129.468 126.399 129.868 126.399C130.337 126.399 130.752 126.314 131.113 126.143C131.475 125.967 131.8 125.691 132.088 125.315L132.637 125.74C132.466 125.994 132.251 126.229 131.992 126.443C131.738 126.658 131.433 126.829 131.077 126.956C130.72 127.083 130.305 127.146 129.832 127.146ZM135.178 119.075L137.317 122.276L139.463 119.075H140.503L137.815 122.957L140.613 127H139.587L137.324 123.653L135.068 127H134.043L136.841 122.957L134.153 119.075H135.178ZM145.439 119.075V119.793H141.469V119.075H145.439ZM142.927 117.039H143.798V125.074C143.798 125.44 143.847 125.716 143.945 125.901C144.043 126.087 144.17 126.211 144.326 126.275C144.482 126.338 144.65 126.37 144.831 126.37C144.963 126.37 145.09 126.363 145.212 126.348C145.334 126.329 145.444 126.309 145.542 126.29L145.578 127.029C145.471 127.063 145.332 127.09 145.161 127.11C144.99 127.134 144.819 127.146 144.648 127.146C144.311 127.146 144.013 127.085 143.754 126.963C143.496 126.836 143.293 126.622 143.147 126.319C143 126.011 142.927 125.594 142.927 125.066V117.039ZM154.601 127.146C154.083 127.146 153.607 127.051 153.173 126.861C152.743 126.67 152.367 126.402 152.045 126.055C151.728 125.708 151.481 125.298 151.305 124.825C151.134 124.346 151.049 123.824 151.049 123.257V122.942C151.049 122.332 151.139 121.78 151.32 121.287C151.5 120.794 151.75 120.372 152.067 120.02C152.384 119.668 152.746 119.4 153.151 119.214C153.561 119.024 153.991 118.929 154.44 118.929C154.943 118.929 155.39 119.019 155.78 119.2C156.171 119.375 156.498 119.627 156.762 119.954C157.03 120.276 157.233 120.66 157.37 121.104C157.506 121.543 157.575 122.029 157.575 122.562V123.096H151.576V122.349H156.703V122.247C156.693 121.802 156.603 121.387 156.432 121.001C156.266 120.611 156.017 120.293 155.685 120.049C155.353 119.805 154.938 119.683 154.44 119.683C154.069 119.683 153.727 119.761 153.415 119.917C153.107 120.074 152.841 120.298 152.616 120.591C152.396 120.879 152.226 121.224 152.104 121.624C151.986 122.02 151.928 122.459 151.928 122.942V123.257C151.928 123.697 151.991 124.107 152.118 124.488C152.25 124.864 152.436 125.196 152.675 125.484C152.919 125.772 153.207 125.997 153.539 126.158C153.871 126.319 154.237 126.399 154.638 126.399C155.106 126.399 155.521 126.314 155.883 126.143C156.244 125.967 156.569 125.691 156.857 125.315L157.406 125.74C157.235 125.994 157.021 126.229 156.762 126.443C156.508 126.658 156.203 126.829 155.846 126.956C155.49 127.083 155.075 127.146 154.601 127.146ZM161.837 126.158L164.379 119.075H165.279L162.313 127H161.676L161.837 126.158ZM159.537 119.075L162.108 126.18L162.247 127H161.603L158.629 119.075H159.537ZM169.981 127.146C169.464 127.146 168.988 127.051 168.553 126.861C168.123 126.67 167.747 126.402 167.425 126.055C167.108 125.708 166.861 125.298 166.685 124.825C166.515 124.346 166.429 123.824 166.429 123.257V122.942C166.429 122.332 166.519 121.78 166.7 121.287C166.881 120.794 167.13 120.372 167.447 120.02C167.765 119.668 168.126 119.4 168.531 119.214C168.941 119.024 169.371 118.929 169.82 118.929C170.323 118.929 170.77 119.019 171.161 119.2C171.551 119.375 171.878 119.627 172.142 119.954C172.411 120.276 172.613 120.66 172.75 121.104C172.887 121.543 172.955 122.029 172.955 122.562V123.096H166.956V122.349H172.083V122.247C172.074 121.802 171.983 121.387 171.812 121.001C171.646 120.611 171.397 120.293 171.065 120.049C170.733 119.805 170.318 119.683 169.82 119.683C169.449 119.683 169.107 119.761 168.795 119.917C168.487 120.074 168.221 120.298 167.996 120.591C167.777 120.879 167.606 121.224 167.484 121.624C167.367 122.02 167.308 122.459 167.308 122.942V123.257C167.308 123.697 167.371 124.107 167.498 124.488C167.63 124.864 167.816 125.196 168.055 125.484C168.299 125.772 168.587 125.997 168.919 126.158C169.251 126.319 169.618 126.399 170.018 126.399C170.487 126.399 170.902 126.314 171.263 126.143C171.624 125.967 171.949 125.691 172.237 125.315L172.787 125.74C172.616 125.994 172.401 126.229 172.142 126.443C171.888 126.658 171.583 126.829 171.226 126.956C170.87 127.083 170.455 127.146 169.981 127.146ZM175.855 120.386V127H174.983V119.075H175.833L175.855 120.386ZM178.66 119.017L178.638 119.822C178.541 119.808 178.445 119.795 178.353 119.786C178.26 119.776 178.16 119.771 178.052 119.771C177.671 119.771 177.337 119.842 177.049 119.983C176.766 120.12 176.526 120.313 176.331 120.562C176.136 120.806 175.987 121.094 175.884 121.426C175.782 121.753 175.723 122.105 175.709 122.481L175.386 122.605C175.386 122.088 175.44 121.607 175.547 121.163C175.655 120.718 175.818 120.33 176.038 119.998C176.263 119.661 176.544 119.4 176.88 119.214C177.222 119.024 177.623 118.929 178.082 118.929C178.194 118.929 178.304 118.938 178.411 118.958C178.524 118.973 178.607 118.992 178.66 119.017ZM189.045 124.979C189.045 124.764 188.992 124.551 188.884 124.341C188.777 124.131 188.569 123.938 188.262 123.763C187.959 123.587 187.512 123.438 186.921 123.316C186.482 123.218 186.089 123.108 185.742 122.986C185.4 122.864 185.112 122.718 184.878 122.547C184.644 122.376 184.465 122.171 184.343 121.932C184.221 121.692 184.16 121.409 184.16 121.082C184.16 120.789 184.224 120.513 184.351 120.254C184.482 119.991 184.668 119.761 184.907 119.566C185.151 119.366 185.444 119.209 185.786 119.097C186.133 118.985 186.521 118.929 186.951 118.929C187.561 118.929 188.083 119.034 188.518 119.244C188.958 119.449 189.292 119.729 189.521 120.086C189.756 120.442 189.873 120.845 189.873 121.294H189.001C189.001 121.021 188.921 120.762 188.76 120.518C188.604 120.274 188.372 120.074 188.064 119.917C187.761 119.761 187.39 119.683 186.951 119.683C186.497 119.683 186.128 119.751 185.845 119.888C185.562 120.025 185.354 120.198 185.222 120.408C185.095 120.618 185.032 120.835 185.032 121.06C185.032 121.236 185.059 121.397 185.112 121.543C185.171 121.685 185.273 121.817 185.42 121.939C185.571 122.061 185.786 122.176 186.064 122.283C186.343 122.391 186.704 122.496 187.148 122.598C187.788 122.74 188.311 122.913 188.716 123.118C189.126 123.318 189.429 123.567 189.624 123.865C189.819 124.158 189.917 124.515 189.917 124.935C189.917 125.262 189.849 125.562 189.712 125.835C189.575 126.104 189.377 126.336 189.119 126.531C188.865 126.727 188.557 126.878 188.196 126.985C187.839 127.093 187.439 127.146 186.995 127.146C186.326 127.146 185.759 127.037 185.295 126.817C184.836 126.592 184.487 126.299 184.248 125.938C184.014 125.572 183.896 125.184 183.896 124.773H184.768C184.797 125.184 184.927 125.508 185.156 125.748C185.386 125.982 185.667 126.148 185.999 126.246C186.335 126.343 186.667 126.392 186.995 126.392C187.444 126.392 187.82 126.326 188.123 126.194C188.425 126.062 188.655 125.889 188.811 125.674C188.967 125.459 189.045 125.228 189.045 124.979ZM193.176 119.075V127H192.304V119.075H193.176ZM192.151 116.783C192.151 116.617 192.202 116.478 192.304 116.365C192.412 116.248 192.558 116.189 192.744 116.189C192.929 116.189 193.076 116.248 193.183 116.365C193.296 116.478 193.352 116.617 193.352 116.783C193.352 116.944 193.296 117.083 193.183 117.2C193.076 117.312 192.929 117.369 192.744 117.369C192.558 117.369 192.412 117.312 192.304 117.2C192.202 117.083 192.151 116.944 192.151 116.783ZM196.743 120.767V127H195.871V119.075H196.706L196.743 120.767ZM196.545 122.547L196.157 122.327C196.186 121.858 196.281 121.419 196.442 121.009C196.603 120.599 196.821 120.237 197.094 119.925C197.372 119.612 197.697 119.368 198.068 119.192C198.444 119.017 198.859 118.929 199.313 118.929C199.709 118.929 200.063 118.982 200.375 119.09C200.688 119.197 200.954 119.368 201.174 119.603C201.393 119.837 201.559 120.137 201.672 120.503C201.789 120.87 201.848 121.316 201.848 121.844V127H200.969V121.836C200.969 121.29 200.893 120.862 200.742 120.555C200.59 120.242 200.375 120.02 200.097 119.888C199.819 119.756 199.489 119.69 199.108 119.69C198.688 119.69 198.32 119.783 198.002 119.969C197.69 120.149 197.426 120.386 197.211 120.679C197.001 120.967 196.84 121.277 196.728 121.609C196.616 121.937 196.555 122.249 196.545 122.547ZM207.34 126.392C207.712 126.392 208.058 126.324 208.38 126.187C208.708 126.045 208.976 125.838 209.186 125.564C209.401 125.286 209.523 124.947 209.552 124.546H210.387C210.363 125.049 210.209 125.499 209.926 125.894C209.648 126.285 209.281 126.592 208.827 126.817C208.378 127.037 207.882 127.146 207.34 127.146C206.789 127.146 206.3 127.046 205.876 126.846C205.456 126.646 205.104 126.368 204.821 126.011C204.538 125.65 204.323 125.23 204.176 124.751C204.035 124.268 203.964 123.748 203.964 123.191V122.884C203.964 122.327 204.035 121.81 204.176 121.331C204.323 120.848 204.538 120.428 204.821 120.071C205.104 119.71 205.456 119.429 205.876 119.229C206.296 119.029 206.781 118.929 207.333 118.929C207.9 118.929 208.407 119.043 208.857 119.273C209.311 119.502 209.672 119.827 209.941 120.247C210.214 120.667 210.363 121.165 210.387 121.741H209.552C209.528 121.316 209.416 120.95 209.215 120.643C209.015 120.335 208.752 120.098 208.424 119.932C208.097 119.766 207.733 119.683 207.333 119.683C206.884 119.683 206.501 119.771 206.183 119.947C205.866 120.118 205.607 120.354 205.407 120.657C205.212 120.955 205.067 121.297 204.975 121.683C204.882 122.063 204.836 122.464 204.836 122.884V123.191C204.836 123.616 204.879 124.021 204.967 124.407C205.06 124.788 205.204 125.127 205.4 125.425C205.6 125.723 205.858 125.96 206.176 126.136C206.498 126.307 206.886 126.392 207.34 126.392ZM215.514 127.146C214.996 127.146 214.52 127.051 214.086 126.861C213.656 126.67 213.28 126.402 212.958 126.055C212.64 125.708 212.394 125.298 212.218 124.825C212.047 124.346 211.962 123.824 211.962 123.257V122.942C211.962 122.332 212.052 121.78 212.233 121.287C212.413 120.794 212.662 120.372 212.98 120.02C213.297 119.668 213.658 119.4 214.064 119.214C214.474 119.024 214.904 118.929 215.353 118.929C215.856 118.929 216.303 119.019 216.693 119.2C217.084 119.375 217.411 119.627 217.675 119.954C217.943 120.276 218.146 120.66 218.283 121.104C218.419 121.543 218.488 122.029 218.488 122.562V123.096H212.489V122.349H217.616V122.247C217.606 121.802 217.516 121.387 217.345 121.001C217.179 120.611 216.93 120.293 216.598 120.049C216.266 119.805 215.851 119.683 215.353 119.683C214.982 119.683 214.64 119.761 214.327 119.917C214.02 120.074 213.754 120.298 213.529 120.591C213.309 120.879 213.138 121.224 213.016 121.624C212.899 122.02 212.841 122.459 212.841 122.942V123.257C212.841 123.697 212.904 124.107 213.031 124.488C213.163 124.864 213.348 125.196 213.588 125.484C213.832 125.772 214.12 125.997 214.452 126.158C214.784 126.319 215.15 126.399 215.551 126.399C216.019 126.399 216.434 126.314 216.796 126.143C217.157 125.967 217.482 125.691 217.77 125.315L218.319 125.74C218.148 125.994 217.933 126.229 217.675 126.443C217.421 126.658 217.116 126.829 216.759 126.956C216.403 127.083 215.988 127.146 215.514 127.146ZM227.474 119.075V119.793H223.504V119.075H227.474ZM224.962 117.039H225.833V125.074C225.833 125.44 225.882 125.716 225.98 125.901C226.077 126.087 226.204 126.211 226.361 126.275C226.517 126.338 226.685 126.37 226.866 126.37C226.998 126.37 227.125 126.363 227.247 126.348C227.369 126.329 227.479 126.309 227.576 126.29L227.613 127.029C227.506 127.063 227.366 127.09 227.196 127.11C227.025 127.134 226.854 127.146 226.683 127.146C226.346 127.146 226.048 127.085 225.789 126.963C225.53 126.836 225.328 126.622 225.181 126.319C225.035 126.011 224.962 125.594 224.962 125.066V117.039ZM230.484 115.75V127H229.612V115.75H230.484ZM230.286 122.547L229.898 122.327C229.927 121.858 230.022 121.419 230.184 121.009C230.345 120.599 230.562 120.237 230.835 119.925C231.114 119.612 231.438 119.368 231.809 119.192C232.185 119.017 232.6 118.929 233.055 118.929C233.45 118.929 233.804 118.982 234.117 119.09C234.429 119.197 234.695 119.368 234.915 119.603C235.135 119.837 235.301 120.137 235.413 120.503C235.53 120.87 235.589 121.316 235.589 121.844V127H234.71V121.836C234.71 121.29 234.634 120.862 234.483 120.555C234.331 120.242 234.117 120.02 233.838 119.888C233.56 119.756 233.23 119.69 232.85 119.69C232.43 119.69 232.061 119.783 231.744 119.969C231.431 120.149 231.167 120.386 230.953 120.679C230.743 120.967 230.581 121.277 230.469 121.609C230.357 121.937 230.296 122.249 230.286 122.547ZM241.206 127.146C240.689 127.146 240.212 127.051 239.778 126.861C239.348 126.67 238.972 126.402 238.65 126.055C238.333 125.708 238.086 125.298 237.91 124.825C237.739 124.346 237.654 123.824 237.654 123.257V122.942C237.654 122.332 237.744 121.78 237.925 121.287C238.106 120.794 238.355 120.372 238.672 120.02C238.989 119.668 239.351 119.4 239.756 119.214C240.166 119.024 240.596 118.929 241.045 118.929C241.548 118.929 241.995 119.019 242.385 119.2C242.776 119.375 243.103 119.627 243.367 119.954C243.635 120.276 243.838 120.66 243.975 121.104C244.111 121.543 244.18 122.029 244.18 122.562V123.096H238.181V122.349H243.308V122.247C243.298 121.802 243.208 121.387 243.037 121.001C242.871 120.611 242.622 120.293 242.29 120.049C241.958 119.805 241.543 119.683 241.045 119.683C240.674 119.683 240.332 119.761 240.02 119.917C239.712 120.074 239.446 120.298 239.221 120.591C239.002 120.879 238.831 121.224 238.709 121.624C238.591 122.02 238.533 122.459 238.533 122.942V123.257C238.533 123.697 238.596 124.107 238.723 124.488C238.855 124.864 239.041 125.196 239.28 125.484C239.524 125.772 239.812 125.997 240.144 126.158C240.476 126.319 240.842 126.399 241.243 126.399C241.712 126.399 242.127 126.314 242.488 126.143C242.849 125.967 243.174 125.691 243.462 125.315L244.011 125.74C243.84 125.994 243.626 126.229 243.367 126.443C243.113 126.658 242.808 126.829 242.451 126.956C242.095 127.083 241.68 127.146 241.206 127.146ZM5.08301 138.292V149H4.21143V139.398L1.31104 140.475V139.647L4.93652 138.292H5.08301ZM10.9128 143.727L10.2243 143.529L10.7443 138.336H16.0764V139.156H11.4914L11.1179 142.745C11.3034 142.613 11.572 142.484 11.9235 142.357C12.28 142.225 12.6804 142.159 13.1247 142.159C13.5983 142.159 14.028 142.24 14.4138 142.401C14.8044 142.557 15.1389 142.787 15.4172 143.089C15.6955 143.387 15.9104 143.749 16.0617 144.173C16.2131 144.593 16.2888 145.069 16.2888 145.602C16.2888 146.114 16.2253 146.585 16.0983 147.015C15.9714 147.445 15.7785 147.821 15.5197 148.143C15.2609 148.46 14.9313 148.707 14.531 148.883C14.1306 149.059 13.6545 149.146 13.1027 149.146C12.6779 149.146 12.2775 149.088 11.9016 148.971C11.5305 148.849 11.1984 148.666 10.9055 148.421C10.6125 148.177 10.3732 147.87 10.1877 147.499C10.007 147.127 9.89473 146.693 9.85078 146.195H10.6931C10.7517 146.673 10.8811 147.076 11.0813 147.403C11.2814 147.73 11.55 147.977 11.8869 148.143C12.2287 148.309 12.634 148.392 13.1027 148.392C13.4836 148.392 13.8156 148.331 14.0988 148.209C14.3869 148.087 14.6262 147.909 14.8166 147.674C15.0119 147.435 15.1584 147.145 15.2561 146.803C15.3586 146.456 15.4099 146.061 15.4099 145.616C15.4099 145.235 15.3562 144.886 15.2487 144.569C15.1413 144.247 14.9826 143.966 14.7727 143.727C14.5676 143.482 14.3137 143.294 14.0109 143.163C13.7082 143.031 13.3615 142.965 12.9709 142.965C12.4631 142.965 12.0578 143.033 11.7551 143.17C11.4572 143.307 11.1765 143.492 10.9128 143.727ZM24.6747 142.752V144.547C24.6747 145.328 24.6015 146.009 24.455 146.59C24.3085 147.167 24.0937 147.645 23.8104 148.026C23.5321 148.402 23.1903 148.683 22.7851 148.868C22.3847 149.054 21.9257 149.146 21.4081 149.146C20.9979 149.146 20.622 149.088 20.2802 148.971C19.9384 148.854 19.6332 148.675 19.3646 148.436C19.101 148.192 18.8764 147.887 18.6908 147.521C18.5053 147.154 18.3637 146.725 18.266 146.231C18.1684 145.733 18.1195 145.172 18.1195 144.547V142.752C18.1195 141.966 18.1928 141.288 18.3393 140.716C18.4906 140.145 18.7055 139.671 18.9838 139.295C19.267 138.919 19.6112 138.641 20.0165 138.46C20.4218 138.275 20.8808 138.182 21.3935 138.182C21.8036 138.182 22.1796 138.243 22.5214 138.365C22.8681 138.482 23.1732 138.658 23.4369 138.893C23.7055 139.127 23.9301 139.427 24.1107 139.793C24.2963 140.155 24.4354 140.582 24.5282 141.075C24.6259 141.568 24.6747 142.127 24.6747 142.752ZM23.8031 144.649V142.643C23.8031 142.159 23.7689 141.72 23.7006 141.324C23.6371 140.929 23.5419 140.582 23.4149 140.284C23.288 139.986 23.1269 139.737 22.9315 139.537C22.7411 139.337 22.5165 139.188 22.2577 139.09C22.0038 138.988 21.7157 138.937 21.3935 138.937C20.9979 138.937 20.6488 139.017 20.3461 139.178C20.0482 139.334 19.7992 139.569 19.599 139.881C19.3988 140.189 19.2475 140.575 19.1449 141.039C19.0473 141.502 18.9984 142.037 18.9984 142.643V144.649C18.9984 145.128 19.0302 145.565 19.0937 145.96C19.1571 146.351 19.2548 146.698 19.3866 147C19.5185 147.303 19.6796 147.56 19.87 147.77C20.0653 147.975 20.2899 148.131 20.5438 148.238C20.8026 148.341 21.0907 148.392 21.4081 148.392C21.8134 148.392 22.1649 148.312 22.4628 148.15C22.7606 147.984 23.0097 147.743 23.2099 147.425C23.4101 147.103 23.559 146.71 23.6566 146.246C23.7543 145.777 23.8031 145.245 23.8031 144.649ZM33.295 142.752V144.547C33.295 145.328 33.2218 146.009 33.0753 146.59C32.9288 147.167 32.714 147.645 32.4308 148.026C32.1524 148.402 31.8106 148.683 31.4054 148.868C31.005 149.054 30.546 149.146 30.0284 149.146C29.6183 149.146 29.2423 149.088 28.9005 148.971C28.5587 148.854 28.2535 148.675 27.985 148.436C27.7213 148.192 27.4967 147.887 27.3111 147.521C27.1256 147.154 26.984 146.725 26.8863 146.231C26.7887 145.733 26.7398 145.172 26.7398 144.547V142.752C26.7398 141.966 26.8131 141.288 26.9596 140.716C27.1109 140.145 27.3258 139.671 27.6041 139.295C27.8873 138.919 28.2315 138.641 28.6368 138.46C29.0421 138.275 29.5011 138.182 30.0138 138.182C30.4239 138.182 30.7999 138.243 31.1417 138.365C31.4884 138.482 31.7936 138.658 32.0572 138.893C32.3258 139.127 32.5504 139.427 32.7311 139.793C32.9166 140.155 33.0558 140.582 33.1485 141.075C33.2462 141.568 33.295 142.127 33.295 142.752ZM32.4234 144.649V142.643C32.4234 142.159 32.3893 141.72 32.3209 141.324C32.2574 140.929 32.1622 140.582 32.0353 140.284C31.9083 139.986 31.7472 139.737 31.5519 139.537C31.3614 139.337 31.1368 139.188 30.878 139.09C30.6241 138.988 30.336 138.937 30.0138 138.937C29.6183 138.937 29.2691 139.017 28.9664 139.178C28.6686 139.334 28.4195 139.569 28.2193 139.881C28.0191 140.189 27.8678 140.575 27.7652 141.039C27.6676 141.502 27.6187 142.037 27.6187 142.643V144.649C27.6187 145.128 27.6505 145.565 27.714 145.96C27.7774 146.351 27.8751 146.698 28.0069 147C28.1388 147.303 28.2999 147.56 28.4903 147.77C28.6856 147.975 28.9103 148.131 29.1642 148.238C29.4229 148.341 29.711 148.392 30.0284 148.392C30.4337 148.392 30.7853 148.312 31.0831 148.15C31.381 147.984 31.63 147.743 31.8302 147.425C32.0304 147.103 32.1793 146.71 32.277 146.246C32.3746 145.777 32.4234 145.245 32.4234 144.649ZM40.3772 146.979C40.3772 146.764 40.3235 146.551 40.2161 146.341C40.1087 146.131 39.9012 145.938 39.5936 145.763C39.2908 145.587 38.844 145.438 38.2532 145.316C37.8138 145.218 37.4207 145.108 37.074 144.986C36.7322 144.864 36.4441 144.718 36.2098 144.547C35.9754 144.376 35.7972 144.171 35.6751 143.932C35.553 143.692 35.492 143.409 35.492 143.082C35.492 142.789 35.5555 142.513 35.6824 142.254C35.8143 141.991 35.9998 141.761 36.2391 141.566C36.4832 141.366 36.7762 141.209 37.118 141.097C37.4646 140.985 37.8528 140.929 38.2825 140.929C38.8929 140.929 39.4153 141.034 39.8499 141.244C40.2894 141.449 40.6238 141.729 40.8533 142.086C41.0877 142.442 41.2049 142.845 41.2049 143.294H40.3333C40.3333 143.021 40.2527 142.762 40.0916 142.518C39.9354 142.274 39.7034 142.074 39.3958 141.917C39.0931 141.761 38.722 141.683 38.2825 141.683C37.8284 141.683 37.4598 141.751 37.1766 141.888C36.8934 142.025 36.6858 142.198 36.554 142.408C36.4271 142.618 36.3636 142.835 36.3636 143.06C36.3636 143.236 36.3904 143.397 36.4441 143.543C36.5027 143.685 36.6053 143.817 36.7518 143.939C36.9031 144.061 37.118 144.176 37.3963 144.283C37.6746 144.391 38.0359 144.496 38.4803 144.598C39.1199 144.74 39.6424 144.913 40.0477 145.118C40.4578 145.318 40.7605 145.567 40.9559 145.865C41.1512 146.158 41.2488 146.515 41.2488 146.935C41.2488 147.262 41.1805 147.562 41.0438 147.835C40.907 148.104 40.7093 148.336 40.4505 148.531C40.1966 148.727 39.889 148.878 39.5276 148.985C39.1712 149.093 38.7708 149.146 38.3265 149.146C37.6575 149.146 37.0911 149.037 36.6272 148.817C36.1683 148.592 35.8191 148.299 35.5799 147.938C35.3455 147.572 35.2283 147.184 35.2283 146.773H36.0999C36.1292 147.184 36.2586 147.508 36.4881 147.748C36.7176 147.982 36.9983 148.148 37.3304 148.246C37.6673 148.343 37.9993 148.392 38.3265 148.392C38.7757 148.392 39.1517 148.326 39.4544 148.194C39.7571 148.062 39.9866 147.889 40.1429 147.674C40.2991 147.459 40.3772 147.228 40.3772 146.979ZM43.4531 148.465C43.4531 148.294 43.5068 148.15 43.6143 148.033C43.7266 147.911 43.8779 147.85 44.0684 147.85C44.2637 147.85 44.4175 147.911 44.5298 148.033C44.6421 148.15 44.6982 148.294 44.6982 148.465C44.6982 148.631 44.6421 148.773 44.5298 148.89C44.4175 149.007 44.2637 149.066 44.0684 149.066C43.8779 149.066 43.7266 149.007 43.6143 148.89C43.5068 148.773 43.4531 148.631 43.4531 148.465Z" fill="#331B3B" fill-opacity="0.66"/>
<rect x="2" width="52" height="48" rx="10" fill="#D4F0FF"/>
<g clip-path="url(#clip0_474_23)">
<path d="M35.2328 19.2368C37.4216 20.8007 40.1031 21.7208 42.9991 21.7208V16.1509C42.451 16.1511 41.9044 16.0939 41.3681 15.9803V20.3646C38.4723 20.3646 35.7912 19.4446 33.6019 17.8808V29.2476C33.6019 34.9338 28.9899 39.5431 23.3011 39.5431C21.1785 39.5431 19.2055 38.9017 17.5667 37.8017C19.4372 39.7133 22.0458 40.8992 24.9317 40.8992C30.6209 40.8992 35.233 36.2899 35.233 30.6034V19.2368H35.2328ZM37.2449 13.6174C36.1262 12.396 35.3917 10.8175 35.2328 9.07232V8.35596H33.6872C34.0763 10.574 35.4034 12.4689 37.2449 13.6174ZM21.1648 33.4383C20.5397 32.6194 20.2019 31.6173 20.2035 30.5871C20.2035 27.9865 22.313 25.8778 24.9156 25.8778C25.4005 25.8776 25.8826 25.952 26.3449 26.0985V20.404C25.8047 20.3301 25.2595 20.2985 24.7146 20.3101V24.7424C24.2521 24.5959 23.7698 24.5215 23.2846 24.5219C20.6821 24.5219 18.5727 26.6303 18.5727 29.2313C18.5727 31.0704 19.627 32.6626 21.1648 33.4383Z" fill="#FF004F"/>
<path d="M33.6019 17.8807C35.7913 19.4445 38.4722 20.3645 41.3681 20.3645V15.9802C39.7516 15.636 38.3207 14.7918 37.2448 13.6174C35.4032 12.4688 34.0763 10.5738 33.6872 8.35596H29.6275V30.6032C29.6182 33.1968 27.5123 35.2968 24.9154 35.2968C23.3851 35.2968 22.0255 34.5678 21.1645 33.4382C19.627 32.6626 18.5726 31.0703 18.5726 29.2314C18.5726 26.6306 20.682 24.522 23.2845 24.522C23.7831 24.522 24.2637 24.5996 24.7145 24.7425V20.3103C19.1256 20.4257 14.6309 24.9899 14.6309 30.6033C14.6309 33.4055 15.7501 35.9458 17.5668 37.8019C19.2056 38.9017 21.1785 39.5433 23.3012 39.5433C28.9901 39.5433 33.602 34.9337 33.602 29.2476L33.6019 17.8807Z" fill="black"/>
<path d="M41.3682 15.9801V14.7948C39.9105 14.797 38.4816 14.389 37.2448 13.6175C38.3396 14.8154 39.7811 15.6414 41.3682 15.9803M33.6871 8.35586C33.6501 8.14393 33.6216 7.9306 33.6018 7.71637V7H27.9963V29.2475C27.9873 31.8408 25.8815 33.9408 23.2844 33.9408C22.5481 33.9419 21.8219 33.7698 21.1645 33.4384C22.0254 34.5678 23.385 35.2967 24.9153 35.2967C27.5121 35.2967 29.6182 33.1969 29.6274 30.6033V8.35598L33.6871 8.35586ZM24.7148 20.3102V19.0482C24.2464 18.9842 23.7741 18.9522 23.3014 18.9523C17.6119 18.9523 13 23.5618 13 29.2475C13 32.8122 14.8125 35.9538 17.5669 37.8017C15.7503 35.9457 14.631 33.4053 14.631 30.6032C14.631 24.9899 19.1256 20.4256 24.7148 20.3102Z" fill="#00F2EA"/>
</g>
<defs>
<clipPath id="clip0_474_23">
<rect width="30" height="33.9844" fill="white" transform="translate(13 7)"/>
</clipPath>
</defs>
</svg>
