<svg width="30" height="34" viewBox="0 0 30 34" fill="none" xmlns="http://www.w3.org/2000/svg">
<g clip-path="url(#clip0_245_6543)">
<path d="M22.2328 12.2368C24.4216 13.8007 27.1031 14.7208 29.9991 14.7208V9.15092C29.451 9.15113 28.9044 9.09394 28.3681 8.98029V13.3646C25.4723 13.3646 22.7912 12.4446 20.6019 10.8808V22.2476C20.6019 27.9338 15.9899 32.5431 10.3011 32.5431C8.17849 32.5431 6.20552 31.9017 4.56665 30.8017C6.4372 32.7133 9.04579 33.8992 11.9317 33.8992C17.6209 33.8992 22.233 29.2899 22.233 23.6034V12.2368H22.2328ZM24.2449 6.61744C23.1262 5.396 22.3917 3.81748 22.2328 2.07232V1.35596H20.6872C21.0763 3.57396 22.4034 5.46889 24.2449 6.61744ZM8.16477 26.4383C7.53974 25.6194 7.2019 24.6173 7.20349 23.5871C7.20349 20.9865 9.31298 18.8778 11.9156 18.8778C12.4005 18.8776 12.8826 18.952 13.3449 19.0985V13.404C12.8047 13.3301 12.2595 13.2985 11.7146 13.3101V17.7424C11.2521 17.5959 10.7698 17.5215 10.2846 17.5219C7.68208 17.5219 5.57271 19.6303 5.57271 22.2313C5.57271 24.0704 6.62704 25.6626 8.16477 26.4383Z" fill="#FF004F"/>
<path d="M20.6019 10.8807C22.7913 12.4445 25.4722 13.3645 28.3681 13.3645V8.98018C26.7516 8.636 25.3207 7.79178 24.2448 6.61744C22.4032 5.46877 21.0763 3.57385 20.6872 1.35596H16.6275V23.6032C16.6182 26.1968 14.5123 28.2968 11.9154 28.2968C10.3851 28.2968 9.02551 27.5678 8.16453 26.4382C6.62703 25.6626 5.57258 24.0703 5.57258 22.2314C5.57258 19.6306 7.68195 17.522 10.2845 17.522C10.7831 17.522 11.2637 17.5996 11.7145 17.7425V13.3103C6.12559 13.4257 1.63086 17.9899 1.63086 23.6033C1.63086 26.4055 2.75012 28.9458 4.56676 30.8019C6.20563 31.9017 8.17848 32.5433 10.3012 32.5433C15.9901 32.5433 20.602 27.9337 20.602 22.2476L20.6019 10.8807Z" fill="black"/>
<path d="M28.3682 8.98008V7.79484C26.9105 7.79696 25.4816 7.38896 24.2448 6.61746C25.3396 7.81537 26.7811 8.64144 28.3682 8.98031M20.6871 1.35586C20.6501 1.14393 20.6216 0.930595 20.6018 0.716367V0H14.9963V22.2475C14.9873 24.8408 12.8815 26.9408 10.2844 26.9408C9.54812 26.9419 8.82192 26.7698 8.16445 26.4384C9.02543 27.5678 10.385 28.2967 11.9153 28.2967C14.5121 28.2967 16.6182 26.1969 16.6274 23.6033V1.35598L20.6871 1.35586ZM11.7148 13.3102V12.0482C11.2464 11.9842 10.7741 11.9522 10.3014 11.9523C4.61191 11.9523 0 16.5618 0 22.2475C0 25.8122 1.81254 28.9538 4.56691 30.8017C2.75027 28.9457 1.63102 26.4053 1.63102 23.6032C1.63102 17.9899 6.12563 13.4256 11.7148 13.3102Z" fill="#00F2EA"/>
</g>
<defs>
<clipPath id="clip0_245_6543">
<rect width="30" height="33.9844" fill="white"/>
</clipPath>
</defs>
</svg>
