<svg width="175" height="164" viewBox="0 0 175 164" fill="none" xmlns="http://www.w3.org/2000/svg">
<path d="M8.9375 67.0234C8.9375 66.8203 8.90625 66.638 8.84375 66.4766C8.78646 66.3099 8.67708 66.1589 8.51562 66.0234C8.35417 65.8828 8.1276 65.7448 7.83594 65.6094C7.54427 65.474 7.16667 65.3333 6.70312 65.1875C6.1875 65.0208 5.69792 64.8333 5.23438 64.625C4.77604 64.4167 4.36979 64.1745 4.01562 63.8984C3.66667 63.6172 3.39062 63.2917 3.1875 62.9219C2.98958 62.5521 2.89062 62.1224 2.89062 61.6328C2.89062 61.1589 2.99479 60.7292 3.20312 60.3438C3.41146 59.9531 3.70312 59.6198 4.07812 59.3438C4.45312 59.0625 4.89583 58.8464 5.40625 58.6953C5.92188 58.5443 6.48698 58.4688 7.10156 58.4688C7.9401 58.4688 8.67188 58.6198 9.29688 58.9219C9.92188 59.224 10.4062 59.638 10.75 60.1641C11.099 60.6901 11.2734 61.2917 11.2734 61.9688H8.94531C8.94531 61.6354 8.875 61.3438 8.73438 61.0938C8.59896 60.8385 8.39062 60.638 8.10938 60.4922C7.83333 60.3464 7.48438 60.2734 7.0625 60.2734C6.65625 60.2734 6.31771 60.3359 6.04688 60.4609C5.77604 60.5807 5.57292 60.7448 5.4375 60.9531C5.30208 61.1562 5.23438 61.3854 5.23438 61.6406C5.23438 61.8333 5.28125 62.0078 5.375 62.1641C5.47396 62.3203 5.61979 62.4661 5.8125 62.6016C6.00521 62.737 6.24219 62.8646 6.52344 62.9844C6.80469 63.1042 7.13021 63.2214 7.5 63.3359C8.11979 63.5234 8.66406 63.7344 9.13281 63.9688C9.60677 64.2031 10.0026 64.4661 10.3203 64.7578C10.638 65.0495 10.8776 65.3802 11.0391 65.75C11.2005 66.1198 11.2812 66.5391 11.2812 67.0078C11.2812 67.5026 11.1849 67.9453 10.9922 68.3359C10.7995 68.7266 10.5208 69.0573 10.1562 69.3281C9.79167 69.599 9.35677 69.8047 8.85156 69.9453C8.34635 70.0859 7.78125 70.1562 7.15625 70.1562C6.59375 70.1562 6.03906 70.0833 5.49219 69.9375C4.94531 69.7865 4.44792 69.5599 4 69.2578C3.55729 68.9557 3.20312 68.5703 2.9375 68.1016C2.67188 67.6328 2.53906 67.0781 2.53906 66.4375H4.89062C4.89062 66.7917 4.94531 67.0911 5.05469 67.3359C5.16406 67.5807 5.31771 67.7786 5.51562 67.9297C5.71875 68.0807 5.95833 68.1901 6.23438 68.2578C6.51562 68.3255 6.82292 68.3594 7.15625 68.3594C7.5625 68.3594 7.89583 68.3021 8.15625 68.1875C8.42188 68.0729 8.61719 67.9141 8.74219 67.7109C8.8724 67.5078 8.9375 67.2786 8.9375 67.0234ZM21.3409 63.2578V65.0859H15.4034V63.2578H21.3409ZM16.0988 58.625V70H13.755V58.625H16.0988ZM23.0128 58.625V70H20.6769V58.625H23.0128ZM35.2756 64.0469V64.5859C35.2756 65.4505 35.1584 66.2266 34.9241 66.9141C34.6897 67.6016 34.359 68.1875 33.9319 68.6719C33.5048 69.151 32.9944 69.5182 32.4006 69.7734C31.8121 70.0286 31.1584 70.1562 30.4397 70.1562C29.7261 70.1562 29.0725 70.0286 28.4788 69.7734C27.8902 69.5182 27.3798 69.151 26.9475 68.6719C26.5152 68.1875 26.1793 67.6016 25.9397 66.9141C25.7053 66.2266 25.5881 65.4505 25.5881 64.5859V64.0469C25.5881 63.1771 25.7053 62.401 25.9397 61.7188C26.1741 61.0312 26.5048 60.4453 26.9319 59.9609C27.3642 59.4766 27.8746 59.1068 28.4631 58.8516C29.0569 58.5964 29.7105 58.4688 30.4241 58.4688C31.1428 58.4688 31.7965 58.5964 32.385 58.8516C32.9788 59.1068 33.4892 59.4766 33.9163 59.9609C34.3485 60.4453 34.6819 61.0312 34.9163 61.7188C35.1558 62.401 35.2756 63.1771 35.2756 64.0469ZM32.9084 64.5859V64.0312C32.9084 63.4271 32.8538 62.8958 32.7444 62.4375C32.635 61.9792 32.4735 61.5938 32.26 61.2812C32.0465 60.9688 31.786 60.7344 31.4788 60.5781C31.1715 60.4167 30.8199 60.3359 30.4241 60.3359C30.0282 60.3359 29.6767 60.4167 29.3694 60.5781C29.0673 60.7344 28.8095 60.9688 28.5959 61.2812C28.3876 61.5938 28.2288 61.9792 28.1194 62.4375C28.01 62.8958 27.9553 63.4271 27.9553 64.0312V64.5859C27.9553 65.1849 28.01 65.7161 28.1194 66.1797C28.2288 66.638 28.3902 67.026 28.6038 67.3438C28.8173 67.6562 29.0777 67.8932 29.385 68.0547C29.6923 68.2161 30.0439 68.2969 30.4397 68.2969C30.8355 68.2969 31.1871 68.2161 31.4944 68.0547C31.8017 67.8932 32.0595 67.6562 32.2678 67.3438C32.4761 67.026 32.635 66.638 32.7444 66.1797C32.8538 65.7161 32.9084 65.1849 32.9084 64.5859ZM42.2728 65.9453H39.3744V64.1172H42.2728C42.7207 64.1172 43.0853 64.0443 43.3666 63.8984C43.6478 63.7474 43.8535 63.5391 43.9837 63.2734C44.114 63.0078 44.1791 62.7083 44.1791 62.375C44.1791 62.0365 44.114 61.7214 43.9837 61.4297C43.8535 61.138 43.6478 60.9036 43.3666 60.7266C43.0853 60.5495 42.7207 60.4609 42.2728 60.4609H40.1869V70H37.8431V58.625H42.2728C43.1634 58.625 43.9265 58.7865 44.5619 59.1094C45.2025 59.4271 45.6921 59.8672 46.0306 60.4297C46.3692 60.9922 46.5384 61.6354 46.5384 62.3594C46.5384 63.0938 46.3692 63.7292 46.0306 64.2656C45.6921 64.8021 45.2025 65.2161 44.5619 65.5078C43.9265 65.7995 43.1634 65.9453 42.2728 65.9453ZM51.5278 58.625V70H49.1919V58.625H51.5278ZM56.9469 58.625V70H54.6031V58.625H56.9469ZM61.4781 63.4844V65.3125H56.3063V63.4844H61.4781ZM62.025 58.625V60.4609H56.3063V58.625H62.025ZM65.8269 58.625L68.2019 63.8125L70.5769 58.625H73.1316L69.3894 65.8594V70H67.0144V65.8594L63.2644 58.625H65.8269ZM84.54 60.5703L81.4463 70H78.9541L83.1806 58.625H84.7666L84.54 60.5703ZM87.1103 70L84.0088 60.5703L83.7588 58.625H85.3603L89.6103 70H87.1103ZM86.9697 65.7656V67.6016H80.9619V65.7656H86.9697ZM97.6856 58.625H100.022V66.1406C100.022 67.0156 99.8341 67.7526 99.4591 68.3516C99.0893 68.9505 98.5762 69.401 97.92 69.7031C97.269 70.0052 96.519 70.1562 95.67 70.1562C94.821 70.1562 94.0658 70.0052 93.4044 69.7031C92.7481 69.401 92.2325 68.9505 91.8575 68.3516C91.4877 67.7526 91.3028 67.0156 91.3028 66.1406V58.625H93.6466V66.1406C93.6466 66.651 93.7273 67.0677 93.8887 67.3906C94.0502 67.7135 94.282 67.9505 94.5841 68.1016C94.8914 68.2526 95.2533 68.3281 95.67 68.3281C96.0971 68.3281 96.4591 68.2526 96.7559 68.1016C97.058 67.9505 97.2872 67.7135 97.4434 67.3906C97.6049 67.0677 97.6856 66.651 97.6856 66.1406V58.625ZM107.917 58.625V70H105.581V58.625H107.917ZM111.417 58.625V60.4609H102.136V58.625H111.417ZM122.758 64.0469V64.5859C122.758 65.4505 122.641 66.2266 122.407 66.9141C122.172 67.6016 121.841 68.1875 121.414 68.6719C120.987 69.151 120.477 69.5182 119.883 69.7734C119.295 70.0286 118.641 70.1562 117.922 70.1562C117.209 70.1562 116.555 70.0286 115.961 69.7734C115.373 69.5182 114.862 69.151 114.43 68.6719C113.998 68.1875 113.662 67.6016 113.422 66.9141C113.188 66.2266 113.071 65.4505 113.071 64.5859V64.0469C113.071 63.1771 113.188 62.401 113.422 61.7188C113.657 61.0312 113.987 60.4453 114.414 59.9609C114.847 59.4766 115.357 59.1068 115.946 58.8516C116.539 58.5964 117.193 58.4688 117.907 58.4688C118.625 58.4688 119.279 58.5964 119.868 58.8516C120.461 59.1068 120.972 59.4766 121.399 59.9609C121.831 60.4453 122.164 61.0312 122.399 61.7188C122.638 62.401 122.758 63.1771 122.758 64.0469ZM120.391 64.5859V64.0312C120.391 63.4271 120.336 62.8958 120.227 62.4375C120.118 61.9792 119.956 61.5938 119.743 61.2812C119.529 60.9688 119.269 60.7344 118.961 60.5781C118.654 60.4167 118.302 60.3359 117.907 60.3359C117.511 60.3359 117.159 60.4167 116.852 60.5781C116.55 60.7344 116.292 60.9688 116.078 61.2812C115.87 61.5938 115.711 61.9792 115.602 62.4375C115.493 62.8958 115.438 63.4271 115.438 64.0312V64.5859C115.438 65.1849 115.493 65.7161 115.602 66.1797C115.711 66.638 115.873 67.026 116.086 67.3438C116.3 67.6562 116.56 67.8932 116.868 68.0547C117.175 68.2161 117.526 68.2969 117.922 68.2969C118.318 68.2969 118.67 68.2161 118.977 68.0547C119.284 67.8932 119.542 67.6562 119.75 67.3438C119.959 67.026 120.118 66.638 120.227 66.1797C120.336 65.7161 120.391 65.1849 120.391 64.5859ZM126.396 58.625H128.38L131.302 66.9766L134.224 58.625H136.208L132.099 70H130.505L126.396 58.625ZM125.326 58.625H127.302L127.662 66.7656V70H125.326V58.625ZM135.302 58.625H137.287V70H134.943V66.7656L135.302 58.625ZM144.987 60.5703L141.893 70H139.401L143.628 58.625H145.213L144.987 60.5703ZM147.557 70L144.456 60.5703L144.206 58.625H145.807L150.057 70H147.557ZM147.417 65.7656V67.6016H141.409V65.7656H147.417ZM156.109 58.625V70H153.773V58.625H156.109ZM159.609 58.625V60.4609H150.328V58.625H159.609ZM164.317 58.625V70H161.981V58.625H164.317ZM176.736 64.0469V64.5859C176.736 65.4505 176.619 66.2266 176.385 66.9141C176.15 67.6016 175.82 68.1875 175.393 68.6719C174.965 69.151 174.455 69.5182 173.861 69.7734C173.273 70.0286 172.619 70.1562 171.9 70.1562C171.187 70.1562 170.533 70.0286 169.939 69.7734C169.351 69.5182 168.84 69.151 168.408 68.6719C167.976 68.1875 167.64 67.6016 167.4 66.9141C167.166 66.2266 167.049 65.4505 167.049 64.5859V64.0469C167.049 63.1771 167.166 62.401 167.4 61.7188C167.635 61.0312 167.965 60.4453 168.393 59.9609C168.825 59.4766 169.335 59.1068 169.924 58.8516C170.518 58.5964 171.171 58.4688 171.885 58.4688C172.603 58.4688 173.257 58.5964 173.846 58.8516C174.439 59.1068 174.95 59.4766 175.377 59.9609C175.809 60.4453 176.143 61.0312 176.377 61.7188C176.616 62.401 176.736 63.1771 176.736 64.0469ZM174.369 64.5859V64.0312C174.369 63.4271 174.314 62.8958 174.205 62.4375C174.096 61.9792 173.934 61.5938 173.721 61.2812C173.507 60.9688 173.247 60.7344 172.939 60.5781C172.632 60.4167 172.281 60.3359 171.885 60.3359C171.489 60.3359 171.137 60.4167 170.83 60.5781C170.528 60.7344 170.27 60.9688 170.057 61.2812C169.848 61.5938 169.689 61.9792 169.58 62.4375C169.471 62.8958 169.416 63.4271 169.416 64.0312V64.5859C169.416 65.1849 169.471 65.7161 169.58 66.1797C169.689 66.638 169.851 67.026 170.064 67.3438C170.278 67.6562 170.538 67.8932 170.846 68.0547C171.153 68.2161 171.504 68.2969 171.9 68.2969C172.296 68.2969 172.648 68.2161 172.955 68.0547C173.262 67.8932 173.52 67.6562 173.728 67.3438C173.937 67.026 174.096 66.638 174.205 66.1797C174.314 65.7161 174.369 65.1849 174.369 64.5859ZM188.562 58.625V70H186.218L181.648 62.375V70H179.304V58.625H181.648L186.226 66.2578V58.625H188.562Z" fill="#331B3B"/>
<path d="M7.52197 97.231V98H1.99219V97.231H7.52197ZM2.25586 87.3359V98H1.35498V87.3359H2.25586ZM8.87666 94.1621V93.9204C8.87666 93.3442 8.95967 92.812 9.12568 92.3237C9.2917 91.8354 9.52852 91.4131 9.83613 91.0566C10.1486 90.7002 10.5222 90.4243 10.9567 90.229C11.3913 90.0288 11.8747 89.9287 12.4069 89.9287C12.944 89.9287 13.4299 90.0288 13.8645 90.229C14.299 90.4243 14.6726 90.7002 14.9851 91.0566C15.2976 91.4131 15.5368 91.8354 15.7028 92.3237C15.8688 92.812 15.9519 93.3442 15.9519 93.9204V94.1621C15.9519 94.7383 15.8688 95.2705 15.7028 95.7588C15.5368 96.2422 15.2976 96.6621 14.9851 97.0186C14.6774 97.375 14.3063 97.6533 13.8718 97.8535C13.4372 98.0488 12.9538 98.1465 12.4216 98.1465C11.8845 98.1465 11.3986 98.0488 10.9641 97.8535C10.5295 97.6533 10.156 97.375 9.84346 97.0186C9.53096 96.6621 9.2917 96.2422 9.12568 95.7588C8.95967 95.2705 8.87666 94.7383 8.87666 94.1621ZM9.74824 93.9204V94.1621C9.74824 94.5967 9.80684 95.0093 9.92402 95.3999C10.0412 95.7856 10.2121 96.1299 10.4367 96.4326C10.6613 96.7305 10.9396 96.9648 11.2717 97.1357C11.6037 97.3066 11.987 97.3921 12.4216 97.3921C12.8513 97.3921 13.2297 97.3066 13.5568 97.1357C13.8889 96.9648 14.1672 96.7305 14.3918 96.4326C14.6164 96.1299 14.7849 95.7856 14.8972 95.3999C15.0144 95.0093 15.0729 94.5967 15.0729 94.1621V93.9204C15.0729 93.4907 15.0144 93.083 14.8972 92.6973C14.7849 92.3115 14.614 91.9673 14.3845 91.6646C14.1599 91.3618 13.8815 91.1226 13.5495 90.9468C13.2175 90.771 12.8366 90.6831 12.4069 90.6831C11.9772 90.6831 11.5964 90.771 11.2644 90.9468C10.9372 91.1226 10.6589 91.3618 10.4294 91.6646C10.2048 91.9673 10.0339 92.3115 9.9167 92.6973C9.80439 93.083 9.74824 93.4907 9.74824 93.9204ZM18.9398 91.3862V98H18.0683V90.0752H18.9179L18.9398 91.3862ZM21.745 90.0166L21.723 90.8223C21.6254 90.8076 21.5302 90.7954 21.4374 90.7856C21.3446 90.7759 21.2445 90.771 21.1371 90.771C20.7563 90.771 20.4218 90.8418 20.1337 90.9834C19.8505 91.1201 19.6112 91.313 19.4159 91.562C19.2206 91.8062 19.0717 92.0942 18.9691 92.4263C18.8666 92.7534 18.808 93.105 18.7934 93.481L18.4711 93.6055C18.4711 93.0879 18.5248 92.6069 18.6322 92.1626C18.7396 91.7183 18.9032 91.3301 19.1229 90.998C19.3476 90.6611 19.6283 90.3999 19.9652 90.2144C20.307 90.0239 20.7074 89.9287 21.1664 89.9287C21.2787 89.9287 21.3886 89.9385 21.496 89.958C21.6083 89.9727 21.6913 89.9922 21.745 90.0166ZM26.337 98.1465C25.8194 98.1465 25.3434 98.0513 24.9088 97.8608C24.4791 97.6704 24.1031 97.4019 23.7809 97.0552C23.4635 96.7085 23.2169 96.2983 23.0411 95.8247C22.8702 95.3462 22.7848 94.8237 22.7848 94.2573V93.9424C22.7848 93.332 22.8751 92.7803 23.0558 92.2871C23.2364 91.7939 23.4854 91.3716 23.8028 91.02C24.1202 90.6685 24.4815 90.3999 24.8868 90.2144C25.297 90.0239 25.7267 89.9287 26.1759 89.9287C26.6788 89.9287 27.1256 90.019 27.5162 90.1997C27.9068 90.3755 28.234 90.627 28.4977 90.9541C28.7662 91.2764 28.9688 91.6597 29.1056 92.104C29.2423 92.5435 29.3106 93.0293 29.3106 93.5615V94.0962H23.3121V93.3491H28.4391V93.2466C28.4293 92.8022 28.339 92.3872 28.1681 92.0015C28.0021 91.6108 27.753 91.2935 27.421 91.0493C27.089 90.8052 26.6739 90.6831 26.1759 90.6831C25.8048 90.6831 25.463 90.7612 25.1505 90.9175C24.8429 91.0737 24.5768 91.2983 24.3521 91.5913C24.1324 91.8794 23.9615 92.2236 23.8395 92.624C23.7223 93.0195 23.6637 93.459 23.6637 93.9424V94.2573C23.6637 94.6968 23.7271 95.1069 23.8541 95.4878C23.9859 95.8638 24.1715 96.1958 24.4107 96.4839C24.6549 96.772 24.943 96.9966 25.275 97.1577C25.607 97.3188 25.9732 97.3994 26.3736 97.3994C26.8424 97.3994 27.2574 97.314 27.6187 97.1431C27.9801 96.9673 28.3048 96.6914 28.5929 96.3154L29.1422 96.7402C28.9713 96.9941 28.7564 97.2285 28.4977 97.4434C28.2437 97.6582 27.9386 97.8291 27.5821 97.9561C27.2257 98.083 26.8106 98.1465 26.337 98.1465ZM32.1668 91.7158V98H31.2879V90.0752H32.1302L32.1668 91.7158ZM32.0057 93.5469L31.5809 93.3271C31.6102 92.8584 31.698 92.4189 31.8445 92.0088C31.9959 91.5986 32.2059 91.2373 32.4744 90.9248C32.743 90.6123 33.0652 90.3682 33.4412 90.1924C33.8172 90.0166 34.2444 89.9287 34.7229 89.9287C35.1087 89.9287 35.4578 89.9824 35.7703 90.0898C36.0877 90.1924 36.3563 90.356 36.576 90.5806C36.8006 90.8003 36.9739 91.0884 37.096 91.4448C37.2181 91.8013 37.2791 92.2285 37.2791 92.7266V98H36.4075V92.7559C36.4075 92.2285 36.3245 91.8159 36.1585 91.5181C35.9974 91.2202 35.7703 91.0078 35.4773 90.8809C35.1893 90.7539 34.8548 90.6904 34.4739 90.6904C34.0247 90.6904 33.6438 90.7832 33.3313 90.9688C33.0237 91.1494 32.7723 91.3862 32.577 91.6792C32.3865 91.9673 32.2449 92.2773 32.1521 92.6094C32.0594 92.9365 32.0105 93.249 32.0057 93.5469ZM37.2718 92.8584L36.6858 92.873C36.7103 92.4873 36.7981 92.1187 36.9495 91.7671C37.1058 91.4155 37.3182 91.103 37.5867 90.8296C37.8553 90.5513 38.1751 90.3315 38.5462 90.1704C38.9222 90.0093 39.3445 89.9287 39.8133 89.9287C40.2234 89.9287 40.5896 89.9849 40.9119 90.0972C41.2342 90.2046 41.5052 90.3779 41.7249 90.6172C41.9495 90.8516 42.1204 91.1519 42.2376 91.5181C42.3548 91.8843 42.4134 92.3237 42.4134 92.8364V98H41.5345V92.8291C41.5345 92.2676 41.4515 91.833 41.2854 91.5254C41.1243 91.2129 40.8997 90.9956 40.6116 90.8735C40.3235 90.7515 39.9866 90.6904 39.6009 90.6904C39.22 90.6953 38.8855 90.7661 38.5975 90.9028C38.3094 91.0347 38.0677 91.2104 37.8724 91.4302C37.6819 91.645 37.5354 91.877 37.4329 92.126C37.3353 92.375 37.2815 92.6191 37.2718 92.8584ZM50.2058 87.3359V98H49.3049V87.3359H50.2058ZM54.0653 91.5986V101.047H53.1864V90.0752H54.0067L54.0653 91.5986ZM59.5731 93.9644V94.1182C59.5731 94.709 59.5048 95.251 59.3681 95.7441C59.2313 96.2373 59.0336 96.6646 58.7748 97.0259C58.5209 97.3823 58.206 97.6582 57.83 97.8535C57.454 98.0488 57.0268 98.1465 56.5482 98.1465C56.0746 98.1465 55.6522 98.0732 55.2812 97.9268C54.9101 97.7803 54.5902 97.5728 54.3217 97.3042C54.058 97.0308 53.8456 96.7134 53.6845 96.3521C53.5282 95.9858 53.4184 95.5854 53.3549 95.1509V93.1221C53.4281 92.6436 53.5478 92.209 53.7138 91.8184C53.8798 91.4277 54.0922 91.0908 54.351 90.8076C54.6146 90.5244 54.9271 90.3071 55.2885 90.1558C55.6498 90.0044 56.0624 89.9287 56.5263 89.9287C57.0097 89.9287 57.4394 90.0239 57.8153 90.2144C58.1962 90.3999 58.516 90.6709 58.7748 91.0273C59.0385 91.3789 59.2362 91.8037 59.3681 92.3018C59.5048 92.7949 59.5731 93.3491 59.5731 93.9644ZM58.6942 94.1182V93.9644C58.6942 93.5005 58.6454 93.0708 58.5478 92.6753C58.455 92.2798 58.3109 91.9355 58.1156 91.6426C57.9252 91.3447 57.6811 91.1128 57.3832 90.9468C57.0902 90.7808 56.7411 90.6978 56.3358 90.6978C55.9159 90.6978 55.557 90.7686 55.2592 90.9102C54.9662 91.0469 54.7221 91.23 54.5268 91.4595C54.3314 91.6841 54.1776 91.9307 54.0653 92.1992C53.953 92.4678 53.87 92.7314 53.8163 92.9902V95.3267C53.9091 95.6978 54.058 96.042 54.2631 96.3594C54.4682 96.6719 54.7416 96.9233 55.0834 97.1138C55.4301 97.2993 55.8524 97.3921 56.3505 97.3921C56.7509 97.3921 57.0976 97.3091 57.3905 97.1431C57.6835 96.9771 57.9252 96.7451 58.1156 96.4473C58.3109 96.1494 58.455 95.8027 58.5478 95.4072C58.6454 95.0117 58.6942 94.582 58.6942 94.1182ZM66.5675 95.9785C66.5675 95.7637 66.5138 95.5513 66.4063 95.3413C66.2989 95.1313 66.0914 94.9385 65.7838 94.7627C65.4811 94.5869 65.0343 94.438 64.4435 94.3159C64.004 94.2183 63.6109 94.1084 63.2643 93.9863C62.9225 93.8643 62.6344 93.7178 62.4 93.5469C62.1656 93.376 61.9874 93.1709 61.8653 92.9316C61.7433 92.6924 61.6822 92.4092 61.6822 92.082C61.6822 91.7891 61.7457 91.5132 61.8727 91.2544C62.0045 90.9907 62.19 90.7612 62.4293 90.5659C62.6734 90.3657 62.9664 90.2095 63.3082 90.0972C63.6549 89.9849 64.0431 89.9287 64.4728 89.9287C65.0831 89.9287 65.6056 90.0337 66.0401 90.2437C66.4796 90.4487 66.8141 90.7295 67.0436 91.0859C67.2779 91.4424 67.3951 91.8452 67.3951 92.2944H66.5235C66.5235 92.021 66.443 91.7622 66.2818 91.5181C66.1256 91.2739 65.8937 91.0737 65.586 90.9175C65.2833 90.7612 64.9122 90.6831 64.4728 90.6831C64.0187 90.6831 63.65 90.7515 63.3668 90.8882C63.0836 91.0249 62.8761 91.1982 62.7442 91.4082C62.6173 91.6182 62.5538 91.8354 62.5538 92.0601C62.5538 92.2358 62.5807 92.397 62.6344 92.5435C62.693 92.6851 62.7955 92.8169 62.942 92.939C63.0934 93.061 63.3082 93.1758 63.5865 93.2832C63.8648 93.3906 64.2262 93.4956 64.6705 93.5981C65.3102 93.7397 65.8326 93.9131 66.2379 94.1182C66.648 94.3184 66.9508 94.5674 67.1461 94.8652C67.3414 95.1582 67.4391 95.5146 67.4391 95.9346C67.4391 96.2617 67.3707 96.562 67.234 96.8354C67.0973 97.104 66.8995 97.3359 66.6407 97.5312C66.3868 97.7266 66.0792 97.8779 65.7179 97.9854C65.3614 98.0928 64.961 98.1465 64.5167 98.1465C63.8478 98.1465 63.2813 98.0366 62.8175 97.8169C62.3585 97.5923 62.0094 97.2993 61.7701 96.938C61.5357 96.5718 61.4186 96.1836 61.4186 95.7734H62.2901C62.3194 96.1836 62.4488 96.5083 62.6783 96.7476C62.9078 96.9819 63.1886 97.1479 63.5206 97.2456C63.8575 97.3433 64.1896 97.3921 64.5167 97.3921C64.9659 97.3921 65.3419 97.3262 65.6446 97.1943C65.9474 97.0625 66.1769 96.8892 66.3331 96.6743C66.4894 96.4595 66.5675 96.2275 66.5675 95.9785ZM74.7996 96.1689V90.0752H75.6785V98H74.8362L74.7996 96.1689ZM74.9607 94.7041L75.4148 94.6895C75.4148 95.1875 75.3562 95.6465 75.2391 96.0664C75.1219 96.4863 74.9388 96.8525 74.6897 97.165C74.4407 97.4775 74.1185 97.7192 73.7229 97.8901C73.3274 98.061 72.8514 98.1465 72.2947 98.1465C71.909 98.1465 71.555 98.0928 71.2327 97.9854C70.9153 97.873 70.6419 97.6973 70.4124 97.458C70.1829 97.2188 70.0047 96.9087 69.8777 96.5278C69.7557 96.147 69.6946 95.6855 69.6946 95.1436V90.0752H70.5662V95.1582C70.5662 95.583 70.6126 95.937 70.7054 96.2202C70.803 96.5034 70.9349 96.7305 71.1009 96.9014C71.2718 97.0723 71.4671 97.1943 71.6868 97.2676C71.9065 97.3408 72.1434 97.3774 72.3973 97.3774C73.0418 97.3774 73.5496 97.2529 73.9207 97.0039C74.2967 96.7549 74.5628 96.4277 74.719 96.0225C74.8802 95.6123 74.9607 95.1729 74.9607 94.7041ZM79.0986 91.7158V98H78.2197V90.0752H79.062L79.0986 91.7158ZM78.9375 93.5469L78.5127 93.3271C78.542 92.8584 78.6299 92.4189 78.7764 92.0088C78.9277 91.5986 79.1377 91.2373 79.4062 90.9248C79.6748 90.6123 79.9971 90.3682 80.373 90.1924C80.749 90.0166 81.1763 89.9287 81.6548 89.9287C82.0405 89.9287 82.3896 89.9824 82.7021 90.0898C83.0195 90.1924 83.2881 90.356 83.5078 90.5806C83.7324 90.8003 83.9058 91.0884 84.0278 91.4448C84.1499 91.8013 84.2109 92.2285 84.2109 92.7266V98H83.3394V92.7559C83.3394 92.2285 83.2563 91.8159 83.0903 91.5181C82.9292 91.2202 82.7021 91.0078 82.4092 90.8809C82.1211 90.7539 81.7866 90.6904 81.4058 90.6904C80.9565 90.6904 80.5757 90.7832 80.2632 90.9688C79.9556 91.1494 79.7041 91.3862 79.5088 91.6792C79.3184 91.9673 79.1768 92.2773 79.084 92.6094C78.9912 92.9365 78.9424 93.249 78.9375 93.5469ZM84.2036 92.8584L83.6177 92.873C83.6421 92.4873 83.73 92.1187 83.8813 91.7671C84.0376 91.4155 84.25 91.103 84.5186 90.8296C84.7871 90.5513 85.1069 90.3315 85.478 90.1704C85.854 90.0093 86.2764 89.9287 86.7451 89.9287C87.1553 89.9287 87.5215 89.9849 87.8438 90.0972C88.166 90.2046 88.437 90.3779 88.6567 90.6172C88.8813 90.8516 89.0522 91.1519 89.1694 91.5181C89.2866 91.8843 89.3452 92.3237 89.3452 92.8364V98H88.4663V92.8291C88.4663 92.2676 88.3833 91.833 88.2173 91.5254C88.0562 91.2129 87.8315 90.9956 87.5435 90.8735C87.2554 90.7515 86.9185 90.6904 86.5327 90.6904C86.1519 90.6953 85.8174 90.7661 85.5293 90.9028C85.2412 91.0347 84.9995 91.2104 84.8042 91.4302C84.6138 91.645 84.4673 91.877 84.3647 92.126C84.2671 92.375 84.2134 92.6191 84.2036 92.8584ZM96.7055 86.75V98H95.8339V86.75H96.7055ZM96.5077 93.5469L96.1195 93.3271C96.1488 92.8584 96.244 92.4189 96.4052 92.0088C96.5663 91.5986 96.7836 91.2373 97.057 90.9248C97.3354 90.6123 97.6601 90.3682 98.0312 90.1924C98.4071 90.0166 98.8222 89.9287 99.2763 89.9287C99.6718 89.9287 100.026 89.9824 100.338 90.0898C100.651 90.1973 100.917 90.3682 101.137 90.6025C101.356 90.8369 101.522 91.1372 101.635 91.5034C101.752 91.8696 101.81 92.3164 101.81 92.8438V98H100.932V92.8364C100.932 92.2896 100.856 91.8623 100.704 91.5547C100.553 91.2422 100.338 91.02 100.06 90.8882C99.7816 90.7563 99.452 90.6904 99.0712 90.6904C98.6513 90.6904 98.2826 90.7832 97.9652 90.9688C97.6527 91.1494 97.3891 91.3862 97.1742 91.6792C96.9643 91.9673 96.8031 92.2773 96.6908 92.6094C96.5785 92.9365 96.5175 93.249 96.5077 93.5469ZM109.186 96.5791V92.4922C109.186 92.1162 109.108 91.7915 108.951 91.5181C108.795 91.2446 108.566 91.0347 108.263 90.8882C107.96 90.7417 107.587 90.6685 107.142 90.6685C106.732 90.6685 106.366 90.7417 106.044 90.8882C105.726 91.0298 105.475 91.2227 105.289 91.4668C105.108 91.7061 105.018 91.9722 105.018 92.2651L104.139 92.2578C104.139 91.96 104.213 91.6719 104.359 91.3936C104.505 91.1152 104.713 90.8662 104.982 90.6465C105.25 90.4268 105.57 90.2534 105.941 90.1265C106.317 89.9946 106.73 89.9287 107.179 89.9287C107.745 89.9287 108.243 90.0239 108.673 90.2144C109.108 90.4048 109.447 90.6904 109.691 91.0713C109.935 91.4521 110.057 91.9307 110.057 92.5068V96.3374C110.057 96.6108 110.077 96.894 110.116 97.187C110.16 97.48 110.221 97.7217 110.299 97.9121V98H109.369C109.31 97.8242 109.264 97.6045 109.23 97.3408C109.2 97.0723 109.186 96.8184 109.186 96.5791ZM109.391 93.3857L109.405 94.0596H107.684C107.235 94.0596 106.832 94.1011 106.476 94.1841C106.124 94.2622 105.826 94.3794 105.582 94.5356C105.338 94.687 105.15 94.8701 105.018 95.085C104.891 95.2998 104.828 95.5439 104.828 95.8174C104.828 96.1006 104.899 96.3594 105.04 96.5938C105.187 96.8281 105.392 97.0161 105.655 97.1577C105.924 97.2944 106.241 97.3628 106.608 97.3628C107.096 97.3628 107.525 97.2725 107.897 97.0918C108.273 96.9111 108.583 96.6743 108.827 96.3813C109.071 96.0884 109.234 95.7686 109.317 95.4219L109.698 95.9272C109.635 96.1714 109.518 96.4229 109.347 96.6816C109.181 96.9355 108.963 97.1748 108.695 97.3994C108.426 97.6191 108.109 97.7998 107.743 97.9414C107.381 98.0781 106.971 98.1465 106.512 98.1465C105.995 98.1465 105.543 98.0488 105.157 97.8535C104.776 97.6582 104.479 97.3921 104.264 97.0552C104.054 96.7134 103.949 96.3276 103.949 95.8979C103.949 95.5073 104.032 95.1582 104.198 94.8506C104.364 94.5381 104.603 94.2744 104.916 94.0596C105.233 93.8398 105.614 93.6738 106.058 93.5615C106.507 93.4443 107.01 93.3857 107.567 93.3857H109.391ZM117.454 95.9785C117.454 95.7637 117.401 95.5513 117.293 95.3413C117.186 95.1313 116.978 94.9385 116.671 94.7627C116.368 94.5869 115.921 94.438 115.33 94.3159C114.891 94.2183 114.498 94.1084 114.151 93.9863C113.809 93.8643 113.521 93.7178 113.287 93.5469C113.053 93.376 112.874 93.1709 112.752 92.9316C112.63 92.6924 112.569 92.4092 112.569 92.082C112.569 91.7891 112.633 91.5132 112.76 91.2544C112.891 90.9907 113.077 90.7612 113.316 90.5659C113.56 90.3657 113.853 90.2095 114.195 90.0972C114.542 89.9849 114.93 89.9287 115.36 89.9287C115.97 89.9287 116.492 90.0337 116.927 90.2437C117.367 90.4487 117.701 90.7295 117.93 91.0859C118.165 91.4424 118.282 91.8452 118.282 92.2944H117.41C117.41 92.021 117.33 91.7622 117.169 91.5181C117.012 91.2739 116.781 91.0737 116.473 90.9175C116.17 90.7612 115.799 90.6831 115.36 90.6831C114.906 90.6831 114.537 90.7515 114.254 90.8882C113.971 91.0249 113.763 91.1982 113.631 91.4082C113.504 91.6182 113.441 91.8354 113.441 92.0601C113.441 92.2358 113.468 92.397 113.521 92.5435C113.58 92.6851 113.682 92.8169 113.829 92.939C113.98 93.061 114.195 93.1758 114.473 93.2832C114.752 93.3906 115.113 93.4956 115.557 93.5981C116.197 93.7397 116.72 93.9131 117.125 94.1182C117.535 94.3184 117.838 94.5674 118.033 94.8652C118.228 95.1582 118.326 95.5146 118.326 95.9346C118.326 96.2617 118.258 96.562 118.121 96.8354C117.984 97.104 117.786 97.3359 117.528 97.5312C117.274 97.7266 116.966 97.8779 116.605 97.9854C116.248 98.0928 115.848 98.1465 115.404 98.1465C114.735 98.1465 114.168 98.0366 113.704 97.8169C113.245 97.5923 112.896 97.2993 112.657 96.938C112.423 96.5718 112.305 96.1836 112.305 95.7734H113.177C113.206 96.1836 113.336 96.5083 113.565 96.7476C113.795 96.9819 114.075 97.1479 114.408 97.2456C114.744 97.3433 115.076 97.3921 115.404 97.3921C115.853 97.3921 116.229 97.3262 116.532 97.1943C116.834 97.0625 117.064 96.8892 117.22 96.6743C117.376 96.4595 117.454 96.2275 117.454 95.9785ZM124.558 86.75H125.437V96.4619L125.379 98H124.558V86.75ZM130.952 93.9644V94.1182C130.952 94.709 130.884 95.251 130.747 95.7441C130.611 96.2373 130.413 96.6646 130.154 97.0259C129.895 97.3823 129.578 97.6582 129.202 97.8535C128.831 98.0488 128.404 98.1465 127.92 98.1465C127.446 98.1465 127.027 98.0732 126.66 97.9268C126.294 97.7754 125.982 97.563 125.723 97.2896C125.464 97.0112 125.257 96.6865 125.1 96.3154C124.944 95.9395 124.834 95.5269 124.771 95.0776V93.1221C124.844 92.6436 124.961 92.209 125.122 91.8184C125.283 91.4277 125.491 91.0908 125.745 90.8076C126.004 90.5244 126.311 90.3071 126.668 90.1558C127.029 90.0044 127.442 89.9287 127.905 89.9287C128.389 89.9287 128.819 90.0239 129.195 90.2144C129.575 90.3999 129.895 90.6709 130.154 91.0273C130.413 91.3789 130.611 91.8037 130.747 92.3018C130.884 92.7949 130.952 93.3491 130.952 93.9644ZM130.066 94.1182V93.9644C130.066 93.5005 130.022 93.0708 129.934 92.6753C129.846 92.2798 129.707 91.9355 129.517 91.6426C129.331 91.3447 129.092 91.1128 128.799 90.9468C128.506 90.7808 128.154 90.6978 127.744 90.6978C127.324 90.6978 126.966 90.7686 126.668 90.9102C126.375 91.0469 126.131 91.23 125.935 91.4595C125.745 91.6841 125.593 91.9307 125.481 92.1992C125.369 92.4678 125.286 92.7314 125.232 92.9902V95.2681C125.315 95.6343 125.459 95.9785 125.664 96.3008C125.869 96.623 126.145 96.8843 126.492 97.0845C126.839 97.2798 127.261 97.3774 127.759 97.3774C128.159 97.3774 128.504 97.2944 128.792 97.1284C129.085 96.9624 129.324 96.7329 129.509 96.4399C129.7 96.147 129.839 95.8027 129.927 95.4072C130.02 95.0117 130.066 94.582 130.066 94.1182ZM136.255 98.1465C135.737 98.1465 135.261 98.0513 134.827 97.8608C134.397 97.6704 134.021 97.4019 133.699 97.0552C133.381 96.7085 133.135 96.2983 132.959 95.8247C132.788 95.3462 132.703 94.8237 132.703 94.2573V93.9424C132.703 93.332 132.793 92.7803 132.974 92.2871C133.154 91.7939 133.403 91.3716 133.721 91.02C134.038 90.6685 134.399 90.3999 134.805 90.2144C135.215 90.0239 135.644 89.9287 136.094 89.9287C136.597 89.9287 137.043 90.019 137.434 90.1997C137.825 90.3755 138.152 90.627 138.415 90.9541C138.684 91.2764 138.887 91.6597 139.023 92.104C139.16 92.5435 139.228 93.0293 139.228 93.5615V94.0962H133.23V93.3491H138.357V93.2466C138.347 92.8022 138.257 92.3872 138.086 92.0015C137.92 91.6108 137.671 91.2935 137.339 91.0493C137.007 90.8052 136.592 90.6831 136.094 90.6831C135.723 90.6831 135.381 90.7612 135.068 90.9175C134.761 91.0737 134.495 91.2983 134.27 91.5913C134.05 91.8794 133.879 92.2236 133.757 92.624C133.64 93.0195 133.581 93.459 133.581 93.9424V94.2573C133.581 94.6968 133.645 95.1069 133.772 95.4878C133.904 95.8638 134.089 96.1958 134.329 96.4839C134.573 96.772 134.861 96.9966 135.193 97.1577C135.525 97.3188 135.891 97.3994 136.291 97.3994C136.76 97.3994 137.175 97.314 137.537 97.1431C137.898 96.9673 138.223 96.6914 138.511 96.3154L139.06 96.7402C138.889 96.9941 138.674 97.2285 138.415 97.4434C138.162 97.6582 137.856 97.8291 137.5 97.9561C137.143 98.083 136.728 98.1465 136.255 98.1465ZM144.318 98.1465C143.801 98.1465 143.325 98.0513 142.89 97.8608C142.461 97.6704 142.085 97.4019 141.762 97.0552C141.445 96.7085 141.198 96.2983 141.023 95.8247C140.852 95.3462 140.766 94.8237 140.766 94.2573V93.9424C140.766 93.332 140.857 92.7803 141.037 92.2871C141.218 91.7939 141.467 91.3716 141.784 91.02C142.102 90.6685 142.463 90.3999 142.868 90.2144C143.278 90.0239 143.708 89.9287 144.157 89.9287C144.66 89.9287 145.107 90.019 145.498 90.1997C145.888 90.3755 146.215 90.627 146.479 90.9541C146.748 91.2764 146.95 91.6597 147.087 92.104C147.224 92.5435 147.292 93.0293 147.292 93.5615V94.0962H141.294V93.3491H146.421V93.2466C146.411 92.8022 146.32 92.3872 146.15 92.0015C145.983 91.6108 145.734 91.2935 145.402 91.0493C145.07 90.8052 144.655 90.6831 144.157 90.6831C143.786 90.6831 143.444 90.7612 143.132 90.9175C142.824 91.0737 142.558 91.2983 142.334 91.5913C142.114 91.8794 141.943 92.2236 141.821 92.624C141.704 93.0195 141.645 93.459 141.645 93.9424V94.2573C141.645 94.6968 141.709 95.1069 141.836 95.4878C141.967 95.8638 142.153 96.1958 142.392 96.4839C142.636 96.772 142.924 96.9966 143.256 97.1577C143.588 97.3188 143.955 97.3994 144.355 97.3994C144.824 97.3994 145.239 97.314 145.6 97.1431C145.962 96.9673 146.286 96.6914 146.574 96.3154L147.124 96.7402C146.953 96.9941 146.738 97.2285 146.479 97.4434C146.225 97.6582 145.92 97.8291 145.564 97.9561C145.207 98.083 144.792 98.1465 144.318 98.1465ZM150.192 91.7671V98H149.321V90.0752H150.156L150.192 91.7671ZM149.994 93.5469L149.606 93.3271C149.636 92.8584 149.731 92.4189 149.892 92.0088C150.053 91.5986 150.27 91.2373 150.544 90.9248C150.822 90.6123 151.147 90.3682 151.518 90.1924C151.894 90.0166 152.309 89.9287 152.763 89.9287C153.158 89.9287 153.512 89.9824 153.825 90.0898C154.137 90.1973 154.404 90.3682 154.623 90.6025C154.843 90.8369 155.009 91.1372 155.121 91.5034C155.239 91.8696 155.297 92.3164 155.297 92.8438V98H154.418V92.8364C154.418 92.2896 154.343 91.8623 154.191 91.5547C154.04 91.2422 153.825 91.02 153.547 90.8882C153.268 90.7563 152.939 90.6904 152.558 90.6904C152.138 90.6904 151.769 90.7832 151.452 90.9688C151.139 91.1494 150.876 91.3862 150.661 91.6792C150.451 91.9673 150.29 92.2773 150.178 92.6094C150.065 92.9365 150.004 93.249 149.994 93.5469ZM164.825 90.0752V90.793H160.856V90.0752H164.825ZM162.313 88.0391H163.185V96.0737C163.185 96.4399 163.234 96.7158 163.331 96.9014C163.429 97.0869 163.556 97.2114 163.712 97.2749C163.868 97.3384 164.037 97.3701 164.217 97.3701C164.349 97.3701 164.476 97.3628 164.598 97.3481C164.72 97.3286 164.83 97.3091 164.928 97.2896L164.965 98.0293C164.857 98.0635 164.718 98.0903 164.547 98.1099C164.376 98.1343 164.205 98.1465 164.034 98.1465C163.697 98.1465 163.4 98.0854 163.141 97.9634C162.882 97.8364 162.679 97.6216 162.533 97.3188C162.386 97.0112 162.313 96.5938 162.313 96.0664V88.0391ZM167.835 86.75V98H166.964V86.75H167.835ZM167.638 93.5469L167.249 93.3271C167.279 92.8584 167.374 92.4189 167.535 92.0088C167.696 91.5986 167.913 91.2373 168.187 90.9248C168.465 90.6123 168.79 90.3682 169.161 90.1924C169.537 90.0166 169.952 89.9287 170.406 89.9287C170.802 89.9287 171.156 89.9824 171.468 90.0898C171.781 90.1973 172.047 90.3682 172.267 90.6025C172.486 90.8369 172.652 91.1372 172.765 91.5034C172.882 91.8696 172.94 92.3164 172.94 92.8438V98H172.061V92.8364C172.061 92.2896 171.986 91.8623 171.834 91.5547C171.683 91.2422 171.468 91.02 171.19 90.8882C170.912 90.7563 170.582 90.6904 170.201 90.6904C169.781 90.6904 169.413 90.7832 169.095 90.9688C168.783 91.1494 168.519 91.3862 168.304 91.6792C168.094 91.9673 167.933 92.2773 167.821 92.6094C167.708 92.9365 167.647 93.249 167.638 93.5469ZM178.558 98.1465C178.04 98.1465 177.564 98.0513 177.129 97.8608C176.7 97.6704 176.324 97.4019 176.002 97.0552C175.684 96.7085 175.438 96.2983 175.262 95.8247C175.091 95.3462 175.005 94.8237 175.005 94.2573V93.9424C175.005 93.332 175.096 92.7803 175.276 92.2871C175.457 91.7939 175.706 91.3716 176.024 91.02C176.341 90.6685 176.702 90.3999 177.108 90.2144C177.518 90.0239 177.947 89.9287 178.397 89.9287C178.9 89.9287 179.346 90.019 179.737 90.1997C180.128 90.3755 180.455 90.627 180.718 90.9541C180.987 91.2764 181.19 91.6597 181.326 92.104C181.463 92.5435 181.531 93.0293 181.531 93.5615V94.0962H175.533V93.3491H180.66V93.2466C180.65 92.8022 180.56 92.3872 180.389 92.0015C180.223 91.6108 179.974 91.2935 179.642 91.0493C179.31 90.8052 178.895 90.6831 178.397 90.6831C178.025 90.6831 177.684 90.7612 177.371 90.9175C177.064 91.0737 176.797 91.2983 176.573 91.5913C176.353 91.8794 176.182 92.2236 176.06 92.624C175.943 93.0195 175.884 93.459 175.884 93.9424V94.2573C175.884 94.6968 175.948 95.1069 176.075 95.4878C176.207 95.8638 176.392 96.1958 176.631 96.4839C176.876 96.772 177.164 96.9966 177.496 97.1577C177.828 97.3188 178.194 97.3994 178.594 97.3994C179.063 97.3994 179.478 97.314 179.839 97.1431C180.201 96.9673 180.525 96.6914 180.814 96.3154L181.363 96.7402C181.192 96.9941 180.977 97.2285 180.718 97.4434C180.464 97.6582 180.159 97.8291 179.803 97.9561C179.446 98.083 179.031 98.1465 178.558 98.1465ZM188.496 90.0752V98H187.625V90.0752H188.496ZM187.471 87.7827C187.471 87.6167 187.522 87.4775 187.625 87.3652C187.732 87.248 187.878 87.1895 188.064 87.1895C188.25 87.1895 188.396 87.248 188.503 87.3652C188.616 87.4775 188.672 87.6167 188.672 87.7827C188.672 87.9438 188.616 88.083 188.503 88.2002C188.396 88.3125 188.25 88.3687 188.064 88.3687C187.878 88.3687 187.732 88.3125 187.625 88.2002C187.522 88.083 187.471 87.9438 187.471 87.7827ZM192.063 91.7671V98H191.191V90.0752H192.026L192.063 91.7671ZM191.865 93.5469L191.477 93.3271C191.506 92.8584 191.601 92.4189 191.762 92.0088C191.924 91.5986 192.141 91.2373 192.414 90.9248C192.693 90.6123 193.017 90.3682 193.388 90.1924C193.764 90.0166 194.179 89.9287 194.633 89.9287C195.029 89.9287 195.383 89.9824 195.696 90.0898C196.008 90.1973 196.274 90.3682 196.494 90.6025C196.714 90.8369 196.88 91.1372 196.992 91.5034C197.109 91.8696 197.168 92.3164 197.168 92.8438V98H196.289V92.8364C196.289 92.2896 196.213 91.8623 196.062 91.5547C195.91 91.2422 195.696 91.02 195.417 90.8882C195.139 90.7563 194.809 90.6904 194.428 90.6904C194.008 90.6904 193.64 90.7832 193.322 90.9688C193.01 91.1494 192.746 91.3862 192.531 91.6792C192.321 91.9673 192.16 92.2773 192.048 92.6094C191.936 92.9365 191.875 93.249 191.865 93.5469ZM204.887 96.4619V86.75H205.766V98H204.946L204.887 96.4619ZM199.387 94.1182V93.9644C199.387 93.3491 199.457 92.7949 199.599 92.3018C199.741 91.8037 199.943 91.3789 200.207 91.0273C200.475 90.6709 200.798 90.3999 201.174 90.2144C201.55 90.0239 201.975 89.9287 202.448 89.9287C202.912 89.9287 203.322 90.0044 203.679 90.1558C204.035 90.3071 204.34 90.5244 204.594 90.8076C204.853 91.0908 205.06 91.4277 205.217 91.8184C205.378 92.209 205.495 92.6436 205.568 93.1221V95.0776C205.51 95.5269 205.402 95.9395 205.246 96.3154C205.09 96.6865 204.882 97.0112 204.623 97.2896C204.365 97.563 204.052 97.7754 203.686 97.9268C203.325 98.0732 202.907 98.1465 202.434 98.1465C201.965 98.1465 201.542 98.0488 201.166 97.8535C200.79 97.6582 200.471 97.3823 200.207 97.0259C199.943 96.6646 199.741 96.2373 199.599 95.7441C199.457 95.251 199.387 94.709 199.387 94.1182ZM200.266 93.9644V94.1182C200.266 94.582 200.312 95.0117 200.405 95.4072C200.497 95.8027 200.639 96.147 200.829 96.4399C201.02 96.7329 201.262 96.9624 201.555 97.1284C201.848 97.2944 202.194 97.3774 202.595 97.3774C203.098 97.3774 203.52 97.2822 203.862 97.0918C204.204 96.8965 204.477 96.6401 204.682 96.3228C204.887 96.0005 205.036 95.6489 205.129 95.2681V92.9902C205.07 92.7314 204.985 92.4678 204.872 92.1992C204.76 91.9307 204.606 91.6841 204.411 91.4595C204.221 91.23 203.976 91.0469 203.679 90.9102C203.386 90.7686 203.029 90.6978 202.609 90.6978C202.204 90.6978 201.855 90.7808 201.562 90.9468C201.269 91.1128 201.025 91.3447 200.829 91.6426C200.639 91.9355 200.497 92.2798 200.405 92.6753C200.312 93.0708 200.266 93.5005 200.266 93.9644ZM213.449 96.1689V90.0752H214.328V98H213.485L213.449 96.1689ZM213.61 94.7041L214.064 94.6895C214.064 95.1875 214.005 95.6465 213.888 96.0664C213.771 96.4863 213.588 96.8525 213.339 97.165C213.09 97.4775 212.768 97.7192 212.372 97.8901C211.977 98.061 211.501 98.1465 210.944 98.1465C210.558 98.1465 210.204 98.0928 209.882 97.9854C209.565 97.873 209.291 97.6973 209.062 97.458C208.832 97.2188 208.654 96.9087 208.527 96.5278C208.405 96.147 208.344 95.6855 208.344 95.1436V90.0752H209.215V95.1582C209.215 95.583 209.262 95.937 209.355 96.2202C209.452 96.5034 209.584 96.7305 209.75 96.9014C209.921 97.0723 210.116 97.1943 210.336 97.2676C210.556 97.3408 210.793 97.3774 211.046 97.3774C211.691 97.3774 212.199 97.2529 212.57 97.0039C212.946 96.7549 213.212 96.4277 213.368 96.0225C213.529 95.6123 213.61 95.1729 213.61 94.7041ZM221.666 95.9785C221.666 95.7637 221.613 95.5513 221.505 95.3413C221.398 95.1313 221.19 94.9385 220.883 94.7627C220.58 94.5869 220.133 94.438 219.542 94.3159C219.103 94.2183 218.71 94.1084 218.363 93.9863C218.021 93.8643 217.733 93.7178 217.499 93.5469C217.264 93.376 217.086 93.1709 216.964 92.9316C216.842 92.6924 216.781 92.4092 216.781 92.082C216.781 91.7891 216.845 91.5132 216.971 91.2544C217.103 90.9907 217.289 90.7612 217.528 90.5659C217.772 90.3657 218.065 90.2095 218.407 90.0972C218.754 89.9849 219.142 89.9287 219.572 89.9287C220.182 89.9287 220.704 90.0337 221.139 90.2437C221.578 90.4487 221.913 90.7295 222.142 91.0859C222.377 91.4424 222.494 91.8452 222.494 92.2944H221.622C221.622 92.021 221.542 91.7622 221.381 91.5181C221.224 91.2739 220.992 91.0737 220.685 90.9175C220.382 90.7612 220.011 90.6831 219.572 90.6831C219.117 90.6831 218.749 90.7515 218.466 90.8882C218.182 91.0249 217.975 91.1982 217.843 91.4082C217.716 91.6182 217.653 91.8354 217.653 92.0601C217.653 92.2358 217.679 92.397 217.733 92.5435C217.792 92.6851 217.894 92.8169 218.041 92.939C218.192 93.061 218.407 93.1758 218.685 93.2832C218.964 93.3906 219.325 93.4956 219.769 93.5981C220.409 93.7397 220.931 93.9131 221.337 94.1182C221.747 94.3184 222.05 94.5674 222.245 94.8652C222.44 95.1582 222.538 95.5146 222.538 95.9346C222.538 96.2617 222.47 96.562 222.333 96.8354C222.196 97.104 221.998 97.3359 221.74 97.5312C221.486 97.7266 221.178 97.8779 220.817 97.9854C220.46 98.0928 220.06 98.1465 219.616 98.1465C218.947 98.1465 218.38 98.0366 217.916 97.8169C217.457 97.5923 217.108 97.2993 216.869 96.938C216.635 96.5718 216.517 96.1836 216.517 95.7734H217.389C217.418 96.1836 217.548 96.5083 217.777 96.7476C218.007 96.9819 218.287 97.1479 218.619 97.2456C218.956 97.3433 219.288 97.3921 219.616 97.3921C220.065 97.3921 220.441 97.3262 220.743 97.1943C221.046 97.0625 221.276 96.8892 221.432 96.6743C221.588 96.4595 221.666 96.2275 221.666 95.9785ZM227.818 90.0752V90.793H223.849V90.0752H227.818ZM225.306 88.0391H226.178V96.0737C226.178 96.4399 226.227 96.7158 226.324 96.9014C226.422 97.0869 226.549 97.2114 226.705 97.2749C226.861 97.3384 227.03 97.3701 227.21 97.3701C227.342 97.3701 227.469 97.3628 227.591 97.3481C227.713 97.3286 227.823 97.3091 227.921 97.2896L227.958 98.0293C227.85 98.0635 227.711 98.0903 227.54 98.1099C227.369 98.1343 227.198 98.1465 227.027 98.1465C226.69 98.1465 226.393 98.0854 226.134 97.9634C225.875 97.8364 225.672 97.6216 225.526 97.3188C225.379 97.0112 225.306 96.5938 225.306 96.0664V88.0391ZM230.828 91.3862V98H229.957V90.0752H230.806L230.828 91.3862ZM233.633 90.0166L233.612 90.8223C233.514 90.8076 233.419 90.7954 233.326 90.7856C233.233 90.7759 233.133 90.771 233.026 90.771C232.645 90.771 232.31 90.8418 232.022 90.9834C231.739 91.1201 231.5 91.313 231.304 91.562C231.109 91.8062 230.96 92.0942 230.858 92.4263C230.755 92.7534 230.696 93.105 230.682 93.481L230.36 93.6055C230.36 93.0879 230.413 92.6069 230.521 92.1626C230.628 91.7183 230.792 91.3301 231.011 90.998C231.236 90.6611 231.517 90.3999 231.854 90.2144C232.196 90.0239 232.596 89.9287 233.055 89.9287C233.167 89.9287 233.277 89.9385 233.384 89.958C233.497 89.9727 233.58 89.9922 233.633 90.0166ZM237.793 97.209L240.262 90.0752H241.206L237.852 99.2744C237.784 99.4551 237.696 99.6553 237.588 99.875C237.486 100.095 237.349 100.305 237.178 100.505C237.012 100.71 236.802 100.876 236.548 101.003C236.299 101.135 235.994 101.201 235.633 101.201C235.54 101.201 235.42 101.188 235.274 101.164C235.132 101.145 235.03 101.125 234.966 101.105L234.959 100.366C235.013 100.38 235.091 100.393 235.193 100.402C235.296 100.412 235.367 100.417 235.406 100.417C235.723 100.417 235.989 100.363 236.204 100.256C236.424 100.148 236.607 99.9873 236.753 99.7725C236.9 99.5625 237.029 99.2988 237.142 98.9814L237.793 97.209ZM235.486 90.0752L238.013 96.8794L238.247 97.7949L237.61 98.1538L234.534 90.0752H235.486ZM243.506 86.75V87.7754L243.374 90.0166H242.722L242.759 87.8413V86.75H243.506ZM250.017 95.9785C250.017 95.7637 249.963 95.5513 249.856 95.3413C249.748 95.1313 249.541 94.9385 249.233 94.7627C248.93 94.5869 248.484 94.438 247.893 94.3159C247.453 94.2183 247.06 94.1084 246.714 93.9863C246.372 93.8643 246.084 93.7178 245.849 93.5469C245.615 93.376 245.437 93.1709 245.315 92.9316C245.193 92.6924 245.132 92.4092 245.132 92.082C245.132 91.7891 245.195 91.5132 245.322 91.2544C245.454 90.9907 245.639 90.7612 245.879 90.5659C246.123 90.3657 246.416 90.2095 246.758 90.0972C247.104 89.9849 247.492 89.9287 247.922 89.9287C248.533 89.9287 249.055 90.0337 249.49 90.2437C249.929 90.4487 250.263 90.7295 250.493 91.0859C250.727 91.4424 250.845 91.8452 250.845 92.2944H249.973C249.973 92.021 249.892 91.7622 249.731 91.5181C249.575 91.2739 249.343 91.0737 249.035 90.9175C248.733 90.7612 248.362 90.6831 247.922 90.6831C247.468 90.6831 247.099 90.7515 246.816 90.8882C246.533 91.0249 246.325 91.1982 246.194 91.4082C246.067 91.6182 246.003 91.8354 246.003 92.0601C246.003 92.2358 246.03 92.397 246.084 92.5435C246.142 92.6851 246.245 92.8169 246.391 92.939C246.543 93.061 246.758 93.1758 247.036 93.2832C247.314 93.3906 247.676 93.4956 248.12 93.5981C248.76 93.7397 249.282 93.9131 249.687 94.1182C250.097 94.3184 250.4 94.5674 250.596 94.8652C250.791 95.1582 250.888 95.5146 250.888 95.9346C250.888 96.2617 250.82 96.562 250.683 96.8354C250.547 97.104 250.349 97.3359 250.09 97.5312C249.836 97.7266 249.529 97.8779 249.167 97.9854C248.811 98.0928 248.41 98.1465 247.966 98.1465C247.297 98.1465 246.731 98.0366 246.267 97.8169C245.808 97.5923 245.459 97.2993 245.22 96.938C244.985 96.5718 244.868 96.1836 244.868 95.7734H245.74C245.769 96.1836 245.898 96.5083 246.128 96.7476C246.357 96.9819 246.638 97.1479 246.97 97.2456C247.307 97.3433 247.639 97.3921 247.966 97.3921C248.415 97.3921 248.791 97.3262 249.094 97.1943C249.397 97.0625 249.626 96.8892 249.783 96.6743C249.939 96.4595 250.017 96.2275 250.017 95.9785ZM5.896 117.979C5.896 117.764 5.84229 117.551 5.73486 117.341C5.62744 117.131 5.41992 116.938 5.1123 116.763C4.80957 116.587 4.36279 116.438 3.77197 116.316C3.33252 116.218 2.93945 116.108 2.59277 115.986C2.25098 115.864 1.96289 115.718 1.72852 115.547C1.49414 115.376 1.31592 115.171 1.19385 114.932C1.07178 114.692 1.01074 114.409 1.01074 114.082C1.01074 113.789 1.07422 113.513 1.20117 113.254C1.33301 112.991 1.51855 112.761 1.75781 112.566C2.00195 112.366 2.29492 112.209 2.63672 112.097C2.9834 111.985 3.37158 111.929 3.80127 111.929C4.41162 111.929 4.93408 112.034 5.36865 112.244C5.80811 112.449 6.14258 112.729 6.37207 113.086C6.60645 113.442 6.72363 113.845 6.72363 114.294H5.85205C5.85205 114.021 5.77148 113.762 5.61035 113.518C5.4541 113.274 5.22217 113.074 4.91455 112.917C4.61182 112.761 4.24072 112.683 3.80127 112.683C3.34717 112.683 2.97852 112.751 2.69531 112.888C2.41211 113.025 2.20459 113.198 2.07275 113.408C1.9458 113.618 1.88232 113.835 1.88232 114.06C1.88232 114.236 1.90918 114.397 1.96289 114.543C2.02148 114.685 2.12402 114.817 2.27051 114.939C2.42188 115.061 2.63672 115.176 2.91504 115.283C3.19336 115.391 3.55469 115.496 3.99902 115.598C4.63867 115.74 5.16113 115.913 5.56641 116.118C5.97656 116.318 6.2793 116.567 6.47461 116.865C6.66992 117.158 6.76758 117.515 6.76758 117.935C6.76758 118.262 6.69922 118.562 6.5625 118.835C6.42578 119.104 6.22803 119.336 5.96924 119.531C5.71533 119.727 5.40771 119.878 5.04639 119.985C4.68994 120.093 4.28955 120.146 3.84521 120.146C3.17627 120.146 2.60986 120.037 2.146 119.817C1.68701 119.592 1.33789 119.299 1.09863 118.938C0.864258 118.572 0.74707 118.184 0.74707 117.773H1.61865C1.64795 118.184 1.77734 118.508 2.00684 118.748C2.23633 118.982 2.51709 119.148 2.84912 119.246C3.18604 119.343 3.51807 119.392 3.84521 119.392C4.29443 119.392 4.67041 119.326 4.97314 119.194C5.27588 119.062 5.50537 118.889 5.66162 118.674C5.81787 118.459 5.896 118.228 5.896 117.979ZM12.048 112.075V112.793H8.07832V112.075H12.048ZM9.53584 110.039H10.4074V118.074C10.4074 118.44 10.4563 118.716 10.5539 118.901C10.6516 119.087 10.7785 119.211 10.9348 119.275C11.091 119.338 11.2595 119.37 11.4401 119.37C11.572 119.37 11.6989 119.363 11.821 119.348C11.9431 119.329 12.0529 119.309 12.1506 119.29L12.1872 120.029C12.0798 120.063 11.9406 120.09 11.7697 120.11C11.5988 120.134 11.4279 120.146 11.257 120.146C10.9201 120.146 10.6223 120.085 10.3635 119.963C10.1047 119.836 9.90205 119.622 9.75557 119.319C9.60908 119.011 9.53584 118.594 9.53584 118.066V110.039ZM19.0058 118.579V114.492C19.0058 114.116 18.9276 113.792 18.7714 113.518C18.6151 113.245 18.3856 113.035 18.0829 112.888C17.7802 112.742 17.4066 112.668 16.9623 112.668C16.5521 112.668 16.1859 112.742 15.8637 112.888C15.5463 113.03 15.2948 113.223 15.1093 113.467C14.9286 113.706 14.8383 113.972 14.8383 114.265L13.9594 114.258C13.9594 113.96 14.0326 113.672 14.1791 113.394C14.3256 113.115 14.5331 112.866 14.8017 112.646C15.0702 112.427 15.39 112.253 15.7611 112.126C16.1371 111.995 16.5497 111.929 16.9989 111.929C17.5653 111.929 18.0634 112.024 18.4931 112.214C18.9276 112.405 19.267 112.69 19.5111 113.071C19.7553 113.452 19.8773 113.931 19.8773 114.507V118.337C19.8773 118.611 19.8969 118.894 19.9359 119.187C19.9799 119.48 20.0409 119.722 20.119 119.912V120H19.1889C19.1303 119.824 19.0839 119.604 19.0497 119.341C19.0204 119.072 19.0058 118.818 19.0058 118.579ZM19.2108 115.386L19.2255 116.06H17.5043C17.0551 116.06 16.6522 116.101 16.2958 116.184C15.9442 116.262 15.6464 116.379 15.4022 116.536C15.1581 116.687 14.9701 116.87 14.8383 117.085C14.7113 117.3 14.6479 117.544 14.6479 117.817C14.6479 118.101 14.7187 118.359 14.8603 118.594C15.0067 118.828 15.2118 119.016 15.4755 119.158C15.744 119.294 16.0614 119.363 16.4276 119.363C16.9159 119.363 17.3456 119.272 17.7167 119.092C18.0927 118.911 18.4027 118.674 18.6469 118.381C18.891 118.088 19.0546 117.769 19.1376 117.422L19.5185 117.927C19.455 118.171 19.3378 118.423 19.1669 118.682C19.0009 118.936 18.7836 119.175 18.515 119.399C18.2465 119.619 17.9291 119.8 17.5629 119.941C17.2016 120.078 16.7914 120.146 16.3324 120.146C15.8148 120.146 15.3632 120.049 14.9774 119.854C14.5966 119.658 14.2987 119.392 14.0839 119.055C13.8739 118.713 13.7689 118.328 13.7689 117.898C13.7689 117.507 13.852 117.158 14.018 116.851C14.184 116.538 14.4232 116.274 14.7357 116.06C15.0531 115.84 15.434 115.674 15.8783 115.562C16.3275 115.444 16.8305 115.386 17.3871 115.386H19.2108ZM23.4 113.767V120H22.5284V112.075H23.3634L23.4 113.767ZM23.2022 115.547L22.8141 115.327C22.8434 114.858 22.9386 114.419 23.0997 114.009C23.2608 113.599 23.4781 113.237 23.7516 112.925C24.0299 112.612 24.3546 112.368 24.7257 112.192C25.1017 112.017 25.5167 111.929 25.9708 111.929C26.3663 111.929 26.7203 111.982 27.0328 112.09C27.3453 112.197 27.6114 112.368 27.8312 112.603C28.0509 112.837 28.2169 113.137 28.3292 113.503C28.4464 113.87 28.505 114.316 28.505 114.844V120H27.6261V114.836C27.6261 114.29 27.5504 113.862 27.399 113.555C27.2477 113.242 27.0328 113.02 26.7545 112.888C26.4762 112.756 26.1466 112.69 25.7657 112.69C25.3458 112.69 24.9771 112.783 24.6598 112.969C24.3473 113.149 24.0836 113.386 23.8687 113.679C23.6588 113.967 23.4977 114.277 23.3854 114.609C23.273 114.937 23.212 115.249 23.2022 115.547ZM36.2244 118.462V108.75H37.1033V120H36.283L36.2244 118.462ZM30.7239 116.118V115.964C30.7239 115.349 30.7947 114.795 30.9363 114.302C31.0779 113.804 31.2806 113.379 31.5442 113.027C31.8128 112.671 32.1351 112.4 32.511 112.214C32.887 112.024 33.3118 111.929 33.7854 111.929C34.2493 111.929 34.6595 112.004 35.0159 112.156C35.3724 112.307 35.6775 112.524 35.9314 112.808C36.1902 113.091 36.3978 113.428 36.554 113.818C36.7151 114.209 36.8323 114.644 36.9056 115.122V117.078C36.847 117.527 36.7396 117.939 36.5833 118.315C36.4271 118.687 36.2195 119.011 35.9607 119.29C35.702 119.563 35.3895 119.775 35.0232 119.927C34.6619 120.073 34.2444 120.146 33.7708 120.146C33.3021 120.146 32.8797 120.049 32.5037 119.854C32.1277 119.658 31.8079 119.382 31.5442 119.026C31.2806 118.665 31.0779 118.237 30.9363 117.744C30.7947 117.251 30.7239 116.709 30.7239 116.118ZM31.6028 115.964V116.118C31.6028 116.582 31.6492 117.012 31.742 117.407C31.8348 117.803 31.9764 118.147 32.1668 118.44C32.3572 118.733 32.5989 118.962 32.8919 119.128C33.1849 119.294 33.5315 119.377 33.9319 119.377C34.4349 119.377 34.8572 119.282 35.199 119.092C35.5408 118.896 35.8143 118.64 36.0193 118.323C36.2244 118 36.3733 117.649 36.4661 117.268V114.99C36.4075 114.731 36.3221 114.468 36.2098 114.199C36.0975 113.931 35.9437 113.684 35.7483 113.459C35.5579 113.23 35.3138 113.047 35.0159 112.91C34.7229 112.769 34.3665 112.698 33.9466 112.698C33.5413 112.698 33.1922 112.781 32.8992 112.947C32.6063 113.113 32.3621 113.345 32.1668 113.643C31.9764 113.936 31.8348 114.28 31.742 114.675C31.6492 115.071 31.6028 115.5 31.6028 115.964ZM44.5298 118.579V114.492C44.5298 114.116 44.4517 113.792 44.2954 113.518C44.1392 113.245 43.9097 113.035 43.6069 112.888C43.3042 112.742 42.9307 112.668 42.4863 112.668C42.0762 112.668 41.71 112.742 41.3877 112.888C41.0703 113.03 40.8188 113.223 40.6333 113.467C40.4526 113.706 40.3623 113.972 40.3623 114.265L39.4834 114.258C39.4834 113.96 39.5566 113.672 39.7031 113.394C39.8496 113.115 40.0571 112.866 40.3257 112.646C40.5942 112.427 40.9141 112.253 41.2852 112.126C41.6611 111.995 42.0737 111.929 42.5229 111.929C43.0894 111.929 43.5874 112.024 44.0171 112.214C44.4517 112.405 44.791 112.69 45.0352 113.071C45.2793 113.452 45.4014 113.931 45.4014 114.507V118.337C45.4014 118.611 45.4209 118.894 45.46 119.187C45.5039 119.48 45.5649 119.722 45.6431 119.912V120H44.7129C44.6543 119.824 44.6079 119.604 44.5737 119.341C44.5444 119.072 44.5298 118.818 44.5298 118.579ZM44.7349 115.386L44.7495 116.06H43.0283C42.5791 116.06 42.1763 116.101 41.8198 116.184C41.4683 116.262 41.1704 116.379 40.9263 116.536C40.6821 116.687 40.4941 116.87 40.3623 117.085C40.2354 117.3 40.1719 117.544 40.1719 117.817C40.1719 118.101 40.2427 118.359 40.3843 118.594C40.5308 118.828 40.7358 119.016 40.9995 119.158C41.2681 119.294 41.5854 119.363 41.9517 119.363C42.4399 119.363 42.8696 119.272 43.2407 119.092C43.6167 118.911 43.9268 118.674 44.1709 118.381C44.415 118.088 44.5786 117.769 44.6616 117.422L45.0425 117.927C44.979 118.171 44.8618 118.423 44.6909 118.682C44.5249 118.936 44.3076 119.175 44.0391 119.399C43.7705 119.619 43.4531 119.8 43.0869 119.941C42.7256 120.078 42.3154 120.146 41.8564 120.146C41.3389 120.146 40.8872 120.049 40.5015 119.854C40.1206 119.658 39.8228 119.392 39.6079 119.055C39.3979 118.713 39.293 118.328 39.293 117.898C39.293 117.507 39.376 117.158 39.542 116.851C39.708 116.538 39.9473 116.274 40.2598 116.06C40.5771 115.84 40.958 115.674 41.4023 115.562C41.8516 115.444 42.3545 115.386 42.9111 115.386H44.7349ZM48.924 113.386V120H48.0524V112.075H48.9021L48.924 113.386ZM51.7292 112.017L51.7072 112.822C51.6096 112.808 51.5144 112.795 51.4216 112.786C51.3288 112.776 51.2287 112.771 51.1213 112.771C50.7404 112.771 50.406 112.842 50.1179 112.983C49.8347 113.12 49.5954 113.313 49.4001 113.562C49.2048 113.806 49.0559 114.094 48.9533 114.426C48.8508 114.753 48.7922 115.105 48.7775 115.481L48.4553 115.605C48.4553 115.088 48.509 114.607 48.6164 114.163C48.7238 113.718 48.8874 113.33 49.1071 112.998C49.3317 112.661 49.6125 112.4 49.9494 112.214C50.2912 112.024 50.6916 111.929 51.1506 111.929C51.2629 111.929 51.3728 111.938 51.4802 111.958C51.5925 111.973 51.6755 111.992 51.7292 112.017ZM58.4086 118.462V108.75H59.2875V120H58.4672L58.4086 118.462ZM52.9081 116.118V115.964C52.9081 115.349 52.9789 114.795 53.1205 114.302C53.2621 113.804 53.4647 113.379 53.7284 113.027C53.997 112.671 54.3192 112.4 54.6952 112.214C55.0712 112.024 55.496 111.929 55.9696 111.929C56.4335 111.929 56.8437 112.004 57.2001 112.156C57.5565 112.307 57.8617 112.524 58.1156 112.808C58.3744 113.091 58.5819 113.428 58.7382 113.818C58.8993 114.209 59.0165 114.644 59.0897 115.122V117.078C59.0312 117.527 58.9237 117.939 58.7675 118.315C58.6112 118.687 58.4037 119.011 58.1449 119.29C57.8861 119.563 57.5736 119.775 57.2074 119.927C56.8461 120.073 56.4286 120.146 55.955 120.146C55.4862 120.146 55.0639 120.049 54.6879 119.854C54.3119 119.658 53.9921 119.382 53.7284 119.026C53.4647 118.665 53.2621 118.237 53.1205 117.744C52.9789 117.251 52.9081 116.709 52.9081 116.118ZM53.787 115.964V116.118C53.787 116.582 53.8334 117.012 53.9262 117.407C54.0189 117.803 54.1605 118.147 54.351 118.44C54.5414 118.733 54.7831 118.962 55.0761 119.128C55.369 119.294 55.7157 119.377 56.1161 119.377C56.619 119.377 57.0414 119.282 57.3832 119.092C57.725 118.896 57.9984 118.64 58.2035 118.323C58.4086 118 58.5575 117.649 58.6503 117.268V114.99C58.5917 114.731 58.5062 114.468 58.3939 114.199C58.2816 113.931 58.1278 113.684 57.9325 113.459C57.7421 113.23 57.4979 113.047 57.2001 112.91C56.9071 112.769 56.5507 112.698 56.1308 112.698C55.7255 112.698 55.3764 112.781 55.0834 112.947C54.7904 113.113 54.5463 113.345 54.351 113.643C54.1605 113.936 54.0189 114.28 53.9262 114.675C53.8334 115.071 53.787 115.5 53.787 115.964ZM71.0057 118.462V108.75H71.8846V120H71.0643L71.0057 118.462ZM65.5052 116.118V115.964C65.5052 115.349 65.576 114.795 65.7176 114.302C65.8592 113.804 66.0618 113.379 66.3255 113.027C66.594 112.671 66.9163 112.4 67.2923 112.214C67.6683 112.024 68.0931 111.929 68.5667 111.929C69.0306 111.929 69.4407 112.004 69.7972 112.156C70.1536 112.307 70.4588 112.524 70.7127 112.808C70.9715 113.091 71.179 113.428 71.3353 113.818C71.4964 114.209 71.6136 114.644 71.6868 115.122V117.078C71.6282 117.527 71.5208 117.939 71.3645 118.315C71.2083 118.687 71.0008 119.011 70.742 119.29C70.4832 119.563 70.1707 119.775 69.8045 119.927C69.4432 120.073 69.0257 120.146 68.552 120.146C68.0833 120.146 67.6609 120.049 67.285 119.854C66.909 119.658 66.5892 119.382 66.3255 119.026C66.0618 118.665 65.8592 118.237 65.7176 117.744C65.576 117.251 65.5052 116.709 65.5052 116.118ZM66.3841 115.964V116.118C66.3841 116.582 66.4305 117.012 66.5232 117.407C66.616 117.803 66.7576 118.147 66.948 118.44C67.1385 118.733 67.3802 118.962 67.6731 119.128C67.9661 119.294 68.3128 119.377 68.7132 119.377C69.2161 119.377 69.6385 119.282 69.9803 119.092C70.3221 118.896 70.5955 118.64 70.8006 118.323C71.0057 118 71.1546 117.649 71.2474 117.268V114.99C71.1888 114.731 71.1033 114.468 70.991 114.199C70.8787 113.931 70.7249 113.684 70.5296 113.459C70.3392 113.23 70.095 113.047 69.7972 112.91C69.5042 112.769 69.1478 112.698 68.7278 112.698C68.3226 112.698 67.9734 112.781 67.6805 112.947C67.3875 113.113 67.1434 113.345 66.948 113.643C66.7576 113.936 66.616 114.28 66.5232 114.675C66.4305 115.071 66.3841 115.5 66.3841 115.964ZM79.5674 118.169V112.075H80.4463V120H79.604L79.5674 118.169ZM79.7285 116.704L80.1826 116.689C80.1826 117.188 80.124 117.646 80.0068 118.066C79.8896 118.486 79.7065 118.853 79.4575 119.165C79.2085 119.478 78.8862 119.719 78.4907 119.89C78.0952 120.061 77.6191 120.146 77.0625 120.146C76.6768 120.146 76.3228 120.093 76.0005 119.985C75.6831 119.873 75.4097 119.697 75.1802 119.458C74.9507 119.219 74.7725 118.909 74.6455 118.528C74.5234 118.147 74.4624 117.686 74.4624 117.144V112.075H75.334V117.158C75.334 117.583 75.3804 117.937 75.4731 118.22C75.5708 118.503 75.7026 118.73 75.8687 118.901C76.0396 119.072 76.2349 119.194 76.4546 119.268C76.6743 119.341 76.9111 119.377 77.165 119.377C77.8096 119.377 78.3174 119.253 78.6885 119.004C79.0645 118.755 79.3306 118.428 79.4868 118.022C79.6479 117.612 79.7285 117.173 79.7285 116.704ZM83.8664 113.716V120H82.9875V112.075H83.8298L83.8664 113.716ZM83.7053 115.547L83.2805 115.327C83.3098 114.858 83.3977 114.419 83.5441 114.009C83.6955 113.599 83.9055 113.237 84.174 112.925C84.4426 112.612 84.7648 112.368 85.1408 112.192C85.5168 112.017 85.944 111.929 86.4226 111.929C86.8083 111.929 87.1574 111.982 87.4699 112.09C87.7873 112.192 88.0559 112.356 88.2756 112.581C88.5002 112.8 88.6735 113.088 88.7956 113.445C88.9177 113.801 88.9787 114.229 88.9787 114.727V120H88.1071V114.756C88.1071 114.229 88.0241 113.816 87.8581 113.518C87.697 113.22 87.4699 113.008 87.177 112.881C86.8889 112.754 86.5544 112.69 86.1735 112.69C85.7243 112.69 85.3435 112.783 85.031 112.969C84.7233 113.149 84.4719 113.386 84.2766 113.679C84.0861 113.967 83.9445 114.277 83.8518 114.609C83.759 114.937 83.7102 115.249 83.7053 115.547ZM88.9714 114.858L88.3855 114.873C88.4099 114.487 88.4978 114.119 88.6491 113.767C88.8054 113.416 89.0178 113.103 89.2863 112.83C89.5549 112.551 89.8747 112.332 90.2458 112.17C90.6218 112.009 91.0441 111.929 91.5129 111.929C91.923 111.929 92.2893 111.985 92.6115 112.097C92.9338 112.205 93.2048 112.378 93.4245 112.617C93.6491 112.852 93.82 113.152 93.9372 113.518C94.0544 113.884 94.113 114.324 94.113 114.836V120H93.2341V114.829C93.2341 114.268 93.1511 113.833 92.9851 113.525C92.8239 113.213 92.5993 112.996 92.3112 112.874C92.0231 112.751 91.6862 112.69 91.3005 112.69C90.9196 112.695 90.5852 112.766 90.2971 112.903C90.009 113.035 89.7673 113.21 89.572 113.43C89.3815 113.645 89.2351 113.877 89.1325 114.126C89.0349 114.375 88.9812 114.619 88.9714 114.858ZM97.4672 113.716V120H96.5883V112.075H97.4306L97.4672 113.716ZM97.3061 115.547L96.8812 115.327C96.9105 114.858 96.9984 114.419 97.1449 114.009C97.2963 113.599 97.5062 113.237 97.7748 112.925C98.0434 112.612 98.3656 112.368 98.7416 112.192C99.1176 112.017 99.5448 111.929 100.023 111.929C100.409 111.929 100.758 111.982 101.071 112.09C101.388 112.192 101.657 112.356 101.876 112.581C102.101 112.8 102.274 113.088 102.396 113.445C102.518 113.801 102.579 114.229 102.579 114.727V120H101.708V114.756C101.708 114.229 101.625 113.816 101.459 113.518C101.298 113.22 101.071 113.008 100.778 112.881C100.49 112.754 100.155 112.69 99.7743 112.69C99.3251 112.69 98.9442 112.783 98.6317 112.969C98.3241 113.149 98.0727 113.386 97.8773 113.679C97.6869 113.967 97.5453 114.277 97.4525 114.609C97.3598 114.937 97.3109 115.249 97.3061 115.547ZM102.572 114.858L101.986 114.873C102.011 114.487 102.099 114.119 102.25 113.767C102.406 113.416 102.619 113.103 102.887 112.83C103.156 112.551 103.475 112.332 103.847 112.17C104.223 112.009 104.645 111.929 105.114 111.929C105.524 111.929 105.89 111.985 106.212 112.097C106.535 112.205 106.806 112.378 107.025 112.617C107.25 112.852 107.421 113.152 107.538 113.518C107.655 113.884 107.714 114.324 107.714 114.836V120H106.835V114.829C106.835 114.268 106.752 113.833 106.586 113.525C106.425 113.213 106.2 112.996 105.912 112.874C105.624 112.751 105.287 112.69 104.901 112.69C104.52 112.695 104.186 112.766 103.898 112.903C103.61 113.035 103.368 113.21 103.173 113.43C102.982 113.645 102.836 113.877 102.733 114.126C102.636 114.375 102.582 114.619 102.572 114.858ZM112.591 119.209L115.06 112.075H116.004L112.65 121.274C112.582 121.455 112.494 121.655 112.386 121.875C112.284 122.095 112.147 122.305 111.976 122.505C111.81 122.71 111.6 122.876 111.346 123.003C111.097 123.135 110.792 123.201 110.431 123.201C110.338 123.201 110.218 123.188 110.072 123.164C109.93 123.145 109.828 123.125 109.764 123.105L109.757 122.366C109.811 122.38 109.889 122.393 109.991 122.402C110.094 122.412 110.165 122.417 110.204 122.417C110.521 122.417 110.787 122.363 111.002 122.256C111.222 122.148 111.405 121.987 111.551 121.772C111.698 121.562 111.827 121.299 111.94 120.981L112.591 119.209ZM110.284 112.075L112.811 118.879L113.046 119.795L112.408 120.154L109.332 112.075H110.284ZM124.632 112.075V112.793H120.662V112.075H124.632ZM122.12 110.039H122.991V118.074C122.991 118.44 123.04 118.716 123.138 118.901C123.235 119.087 123.362 119.211 123.519 119.275C123.675 119.338 123.843 119.37 124.024 119.37C124.156 119.37 124.283 119.363 124.405 119.348C124.527 119.329 124.637 119.309 124.734 119.29L124.771 120.029C124.664 120.063 124.524 120.09 124.354 120.11C124.183 120.134 124.012 120.146 123.841 120.146C123.504 120.146 123.206 120.085 122.947 119.963C122.688 119.836 122.486 119.622 122.339 119.319C122.193 119.011 122.12 118.594 122.12 118.066V110.039ZM129.832 120.146C129.314 120.146 128.838 120.051 128.404 119.861C127.974 119.67 127.598 119.402 127.276 119.055C126.958 118.708 126.712 118.298 126.536 117.825C126.365 117.346 126.279 116.824 126.279 116.257V115.942C126.279 115.332 126.37 114.78 126.55 114.287C126.731 113.794 126.98 113.372 127.298 113.02C127.615 112.668 127.976 112.4 128.382 112.214C128.792 112.024 129.221 111.929 129.671 111.929C130.174 111.929 130.62 112.019 131.011 112.2C131.402 112.375 131.729 112.627 131.992 112.954C132.261 113.276 132.464 113.66 132.6 114.104C132.737 114.543 132.805 115.029 132.805 115.562V116.096H126.807V115.349H131.934V115.247C131.924 114.802 131.834 114.387 131.663 114.001C131.497 113.611 131.248 113.293 130.916 113.049C130.584 112.805 130.169 112.683 129.671 112.683C129.3 112.683 128.958 112.761 128.645 112.917C128.338 113.074 128.071 113.298 127.847 113.591C127.627 113.879 127.456 114.224 127.334 114.624C127.217 115.02 127.158 115.459 127.158 115.942V116.257C127.158 116.697 127.222 117.107 127.349 117.488C127.481 117.864 127.666 118.196 127.905 118.484C128.15 118.772 128.438 118.997 128.77 119.158C129.102 119.319 129.468 119.399 129.868 119.399C130.337 119.399 130.752 119.314 131.113 119.143C131.475 118.967 131.8 118.691 132.088 118.315L132.637 118.74C132.466 118.994 132.251 119.229 131.992 119.443C131.738 119.658 131.433 119.829 131.077 119.956C130.72 120.083 130.305 120.146 129.832 120.146ZM135.178 112.075L137.317 115.276L139.463 112.075H140.503L137.815 115.957L140.613 120H139.587L137.324 116.653L135.068 120H134.043L136.841 115.957L134.153 112.075H135.178ZM145.439 112.075V112.793H141.469V112.075H145.439ZM142.927 110.039H143.798V118.074C143.798 118.44 143.847 118.716 143.945 118.901C144.043 119.087 144.17 119.211 144.326 119.275C144.482 119.338 144.65 119.37 144.831 119.37C144.963 119.37 145.09 119.363 145.212 119.348C145.334 119.329 145.444 119.309 145.542 119.29L145.578 120.029C145.471 120.063 145.332 120.09 145.161 120.11C144.99 120.134 144.819 120.146 144.648 120.146C144.311 120.146 144.013 120.085 143.754 119.963C143.496 119.836 143.293 119.622 143.147 119.319C143 119.011 142.927 118.594 142.927 118.066V110.039ZM154.601 120.146C154.083 120.146 153.607 120.051 153.173 119.861C152.743 119.67 152.367 119.402 152.045 119.055C151.728 118.708 151.481 118.298 151.305 117.825C151.134 117.346 151.049 116.824 151.049 116.257V115.942C151.049 115.332 151.139 114.78 151.32 114.287C151.5 113.794 151.75 113.372 152.067 113.02C152.384 112.668 152.746 112.4 153.151 112.214C153.561 112.024 153.991 111.929 154.44 111.929C154.943 111.929 155.39 112.019 155.78 112.2C156.171 112.375 156.498 112.627 156.762 112.954C157.03 113.276 157.233 113.66 157.37 114.104C157.506 114.543 157.575 115.029 157.575 115.562V116.096H151.576V115.349H156.703V115.247C156.693 114.802 156.603 114.387 156.432 114.001C156.266 113.611 156.017 113.293 155.685 113.049C155.353 112.805 154.938 112.683 154.44 112.683C154.069 112.683 153.727 112.761 153.415 112.917C153.107 113.074 152.841 113.298 152.616 113.591C152.396 113.879 152.226 114.224 152.104 114.624C151.986 115.02 151.928 115.459 151.928 115.942V116.257C151.928 116.697 151.991 117.107 152.118 117.488C152.25 117.864 152.436 118.196 152.675 118.484C152.919 118.772 153.207 118.997 153.539 119.158C153.871 119.319 154.237 119.399 154.638 119.399C155.106 119.399 155.521 119.314 155.883 119.143C156.244 118.967 156.569 118.691 156.857 118.315L157.406 118.74C157.235 118.994 157.021 119.229 156.762 119.443C156.508 119.658 156.203 119.829 155.846 119.956C155.49 120.083 155.075 120.146 154.601 120.146ZM161.837 119.158L164.379 112.075H165.279L162.313 120H161.676L161.837 119.158ZM159.537 112.075L162.108 119.18L162.247 120H161.603L158.629 112.075H159.537ZM169.981 120.146C169.464 120.146 168.988 120.051 168.553 119.861C168.123 119.67 167.747 119.402 167.425 119.055C167.108 118.708 166.861 118.298 166.685 117.825C166.515 117.346 166.429 116.824 166.429 116.257V115.942C166.429 115.332 166.519 114.78 166.7 114.287C166.881 113.794 167.13 113.372 167.447 113.02C167.765 112.668 168.126 112.4 168.531 112.214C168.941 112.024 169.371 111.929 169.82 111.929C170.323 111.929 170.77 112.019 171.161 112.2C171.551 112.375 171.878 112.627 172.142 112.954C172.411 113.276 172.613 113.66 172.75 114.104C172.887 114.543 172.955 115.029 172.955 115.562V116.096H166.956V115.349H172.083V115.247C172.074 114.802 171.983 114.387 171.812 114.001C171.646 113.611 171.397 113.293 171.065 113.049C170.733 112.805 170.318 112.683 169.82 112.683C169.449 112.683 169.107 112.761 168.795 112.917C168.487 113.074 168.221 113.298 167.996 113.591C167.777 113.879 167.606 114.224 167.484 114.624C167.367 115.02 167.308 115.459 167.308 115.942V116.257C167.308 116.697 167.371 117.107 167.498 117.488C167.63 117.864 167.816 118.196 168.055 118.484C168.299 118.772 168.587 118.997 168.919 119.158C169.251 119.319 169.618 119.399 170.018 119.399C170.487 119.399 170.902 119.314 171.263 119.143C171.624 118.967 171.949 118.691 172.237 118.315L172.787 118.74C172.616 118.994 172.401 119.229 172.142 119.443C171.888 119.658 171.583 119.829 171.226 119.956C170.87 120.083 170.455 120.146 169.981 120.146ZM175.855 113.386V120H174.983V112.075H175.833L175.855 113.386ZM178.66 112.017L178.638 112.822C178.541 112.808 178.445 112.795 178.353 112.786C178.26 112.776 178.16 112.771 178.052 112.771C177.671 112.771 177.337 112.842 177.049 112.983C176.766 113.12 176.526 113.313 176.331 113.562C176.136 113.806 175.987 114.094 175.884 114.426C175.782 114.753 175.723 115.105 175.709 115.481L175.386 115.605C175.386 115.088 175.44 114.607 175.547 114.163C175.655 113.718 175.818 113.33 176.038 112.998C176.263 112.661 176.544 112.4 176.88 112.214C177.222 112.024 177.623 111.929 178.082 111.929C178.194 111.929 178.304 111.938 178.411 111.958C178.524 111.973 178.607 111.992 178.66 112.017ZM189.045 117.979C189.045 117.764 188.992 117.551 188.884 117.341C188.777 117.131 188.569 116.938 188.262 116.763C187.959 116.587 187.512 116.438 186.921 116.316C186.482 116.218 186.089 116.108 185.742 115.986C185.4 115.864 185.112 115.718 184.878 115.547C184.644 115.376 184.465 115.171 184.343 114.932C184.221 114.692 184.16 114.409 184.16 114.082C184.16 113.789 184.224 113.513 184.351 113.254C184.482 112.991 184.668 112.761 184.907 112.566C185.151 112.366 185.444 112.209 185.786 112.097C186.133 111.985 186.521 111.929 186.951 111.929C187.561 111.929 188.083 112.034 188.518 112.244C188.958 112.449 189.292 112.729 189.521 113.086C189.756 113.442 189.873 113.845 189.873 114.294H189.001C189.001 114.021 188.921 113.762 188.76 113.518C188.604 113.274 188.372 113.074 188.064 112.917C187.761 112.761 187.39 112.683 186.951 112.683C186.497 112.683 186.128 112.751 185.845 112.888C185.562 113.025 185.354 113.198 185.222 113.408C185.095 113.618 185.032 113.835 185.032 114.06C185.032 114.236 185.059 114.397 185.112 114.543C185.171 114.685 185.273 114.817 185.42 114.939C185.571 115.061 185.786 115.176 186.064 115.283C186.343 115.391 186.704 115.496 187.148 115.598C187.788 115.74 188.311 115.913 188.716 116.118C189.126 116.318 189.429 116.567 189.624 116.865C189.819 117.158 189.917 117.515 189.917 117.935C189.917 118.262 189.849 118.562 189.712 118.835C189.575 119.104 189.377 119.336 189.119 119.531C188.865 119.727 188.557 119.878 188.196 119.985C187.839 120.093 187.439 120.146 186.995 120.146C186.326 120.146 185.759 120.037 185.295 119.817C184.836 119.592 184.487 119.299 184.248 118.938C184.014 118.572 183.896 118.184 183.896 117.773H184.768C184.797 118.184 184.927 118.508 185.156 118.748C185.386 118.982 185.667 119.148 185.999 119.246C186.335 119.343 186.667 119.392 186.995 119.392C187.444 119.392 187.82 119.326 188.123 119.194C188.425 119.062 188.655 118.889 188.811 118.674C188.967 118.459 189.045 118.228 189.045 117.979ZM193.176 112.075V120H192.304V112.075H193.176ZM192.151 109.783C192.151 109.617 192.202 109.478 192.304 109.365C192.412 109.248 192.558 109.189 192.744 109.189C192.929 109.189 193.076 109.248 193.183 109.365C193.296 109.478 193.352 109.617 193.352 109.783C193.352 109.944 193.296 110.083 193.183 110.2C193.076 110.312 192.929 110.369 192.744 110.369C192.558 110.369 192.412 110.312 192.304 110.2C192.202 110.083 192.151 109.944 192.151 109.783ZM196.743 113.767V120H195.871V112.075H196.706L196.743 113.767ZM196.545 115.547L196.157 115.327C196.186 114.858 196.281 114.419 196.442 114.009C196.603 113.599 196.821 113.237 197.094 112.925C197.372 112.612 197.697 112.368 198.068 112.192C198.444 112.017 198.859 111.929 199.313 111.929C199.709 111.929 200.063 111.982 200.375 112.09C200.688 112.197 200.954 112.368 201.174 112.603C201.393 112.837 201.559 113.137 201.672 113.503C201.789 113.87 201.848 114.316 201.848 114.844V120H200.969V114.836C200.969 114.29 200.893 113.862 200.742 113.555C200.59 113.242 200.375 113.02 200.097 112.888C199.819 112.756 199.489 112.69 199.108 112.69C198.688 112.69 198.32 112.783 198.002 112.969C197.69 113.149 197.426 113.386 197.211 113.679C197.001 113.967 196.84 114.277 196.728 114.609C196.616 114.937 196.555 115.249 196.545 115.547ZM207.34 119.392C207.712 119.392 208.058 119.324 208.38 119.187C208.708 119.045 208.976 118.838 209.186 118.564C209.401 118.286 209.523 117.947 209.552 117.546H210.387C210.363 118.049 210.209 118.499 209.926 118.894C209.648 119.285 209.281 119.592 208.827 119.817C208.378 120.037 207.882 120.146 207.34 120.146C206.789 120.146 206.3 120.046 205.876 119.846C205.456 119.646 205.104 119.368 204.821 119.011C204.538 118.65 204.323 118.23 204.176 117.751C204.035 117.268 203.964 116.748 203.964 116.191V115.884C203.964 115.327 204.035 114.81 204.176 114.331C204.323 113.848 204.538 113.428 204.821 113.071C205.104 112.71 205.456 112.429 205.876 112.229C206.296 112.029 206.781 111.929 207.333 111.929C207.9 111.929 208.407 112.043 208.857 112.273C209.311 112.502 209.672 112.827 209.941 113.247C210.214 113.667 210.363 114.165 210.387 114.741H209.552C209.528 114.316 209.416 113.95 209.215 113.643C209.015 113.335 208.752 113.098 208.424 112.932C208.097 112.766 207.733 112.683 207.333 112.683C206.884 112.683 206.501 112.771 206.183 112.947C205.866 113.118 205.607 113.354 205.407 113.657C205.212 113.955 205.067 114.297 204.975 114.683C204.882 115.063 204.836 115.464 204.836 115.884V116.191C204.836 116.616 204.879 117.021 204.967 117.407C205.06 117.788 205.204 118.127 205.4 118.425C205.6 118.723 205.858 118.96 206.176 119.136C206.498 119.307 206.886 119.392 207.34 119.392ZM215.514 120.146C214.996 120.146 214.52 120.051 214.086 119.861C213.656 119.67 213.28 119.402 212.958 119.055C212.64 118.708 212.394 118.298 212.218 117.825C212.047 117.346 211.962 116.824 211.962 116.257V115.942C211.962 115.332 212.052 114.78 212.233 114.287C212.413 113.794 212.662 113.372 212.98 113.02C213.297 112.668 213.658 112.4 214.064 112.214C214.474 112.024 214.904 111.929 215.353 111.929C215.856 111.929 216.303 112.019 216.693 112.2C217.084 112.375 217.411 112.627 217.675 112.954C217.943 113.276 218.146 113.66 218.283 114.104C218.419 114.543 218.488 115.029 218.488 115.562V116.096H212.489V115.349H217.616V115.247C217.606 114.802 217.516 114.387 217.345 114.001C217.179 113.611 216.93 113.293 216.598 113.049C216.266 112.805 215.851 112.683 215.353 112.683C214.982 112.683 214.64 112.761 214.327 112.917C214.02 113.074 213.754 113.298 213.529 113.591C213.309 113.879 213.138 114.224 213.016 114.624C212.899 115.02 212.841 115.459 212.841 115.942V116.257C212.841 116.697 212.904 117.107 213.031 117.488C213.163 117.864 213.348 118.196 213.588 118.484C213.832 118.772 214.12 118.997 214.452 119.158C214.784 119.319 215.15 119.399 215.551 119.399C216.019 119.399 216.434 119.314 216.796 119.143C217.157 118.967 217.482 118.691 217.77 118.315L218.319 118.74C218.148 118.994 217.933 119.229 217.675 119.443C217.421 119.658 217.116 119.829 216.759 119.956C216.403 120.083 215.988 120.146 215.514 120.146ZM227.474 112.075V112.793H223.504V112.075H227.474ZM224.962 110.039H225.833V118.074C225.833 118.44 225.882 118.716 225.98 118.901C226.077 119.087 226.204 119.211 226.361 119.275C226.517 119.338 226.685 119.37 226.866 119.37C226.998 119.37 227.125 119.363 227.247 119.348C227.369 119.329 227.479 119.309 227.576 119.29L227.613 120.029C227.506 120.063 227.366 120.09 227.196 120.11C227.025 120.134 226.854 120.146 226.683 120.146C226.346 120.146 226.048 120.085 225.789 119.963C225.53 119.836 225.328 119.622 225.181 119.319C225.035 119.011 224.962 118.594 224.962 118.066V110.039ZM230.484 108.75V120H229.612V108.75H230.484ZM230.286 115.547L229.898 115.327C229.927 114.858 230.022 114.419 230.184 114.009C230.345 113.599 230.562 113.237 230.835 112.925C231.114 112.612 231.438 112.368 231.809 112.192C232.185 112.017 232.6 111.929 233.055 111.929C233.45 111.929 233.804 111.982 234.117 112.09C234.429 112.197 234.695 112.368 234.915 112.603C235.135 112.837 235.301 113.137 235.413 113.503C235.53 113.87 235.589 114.316 235.589 114.844V120H234.71V114.836C234.71 114.29 234.634 113.862 234.483 113.555C234.331 113.242 234.117 113.02 233.838 112.888C233.56 112.756 233.23 112.69 232.85 112.69C232.43 112.69 232.061 112.783 231.744 112.969C231.431 113.149 231.167 113.386 230.953 113.679C230.743 113.967 230.581 114.277 230.469 114.609C230.357 114.937 230.296 115.249 230.286 115.547ZM241.206 120.146C240.689 120.146 240.212 120.051 239.778 119.861C239.348 119.67 238.972 119.402 238.65 119.055C238.333 118.708 238.086 118.298 237.91 117.825C237.739 117.346 237.654 116.824 237.654 116.257V115.942C237.654 115.332 237.744 114.78 237.925 114.287C238.106 113.794 238.355 113.372 238.672 113.02C238.989 112.668 239.351 112.4 239.756 112.214C240.166 112.024 240.596 111.929 241.045 111.929C241.548 111.929 241.995 112.019 242.385 112.2C242.776 112.375 243.103 112.627 243.367 112.954C243.635 113.276 243.838 113.66 243.975 114.104C244.111 114.543 244.18 115.029 244.18 115.562V116.096H238.181V115.349H243.308V115.247C243.298 114.802 243.208 114.387 243.037 114.001C242.871 113.611 242.622 113.293 242.29 113.049C241.958 112.805 241.543 112.683 241.045 112.683C240.674 112.683 240.332 112.761 240.02 112.917C239.712 113.074 239.446 113.298 239.221 113.591C239.002 113.879 238.831 114.224 238.709 114.624C238.591 115.02 238.533 115.459 238.533 115.942V116.257C238.533 116.697 238.596 117.107 238.723 117.488C238.855 117.864 239.041 118.196 239.28 118.484C239.524 118.772 239.812 118.997 240.144 119.158C240.476 119.319 240.842 119.399 241.243 119.399C241.712 119.399 242.127 119.314 242.488 119.143C242.849 118.967 243.174 118.691 243.462 118.315L244.011 118.74C243.84 118.994 243.626 119.229 243.367 119.443C243.113 119.658 242.808 119.829 242.451 119.956C242.095 120.083 241.68 120.146 241.206 120.146ZM5.08301 131.292V142H4.21143V132.398L1.31104 133.475V132.647L4.93652 131.292H5.08301ZM10.9128 136.727L10.2243 136.529L10.7443 131.336H16.0764V132.156H11.4914L11.1179 135.745C11.3034 135.613 11.572 135.484 11.9235 135.357C12.28 135.225 12.6804 135.159 13.1247 135.159C13.5983 135.159 14.028 135.24 14.4138 135.401C14.8044 135.557 15.1389 135.787 15.4172 136.089C15.6955 136.387 15.9104 136.749 16.0617 137.173C16.2131 137.593 16.2888 138.069 16.2888 138.602C16.2888 139.114 16.2253 139.585 16.0983 140.015C15.9714 140.445 15.7785 140.821 15.5197 141.143C15.2609 141.46 14.9313 141.707 14.531 141.883C14.1306 142.059 13.6545 142.146 13.1027 142.146C12.6779 142.146 12.2775 142.088 11.9016 141.971C11.5305 141.849 11.1984 141.666 10.9055 141.421C10.6125 141.177 10.3732 140.87 10.1877 140.499C10.007 140.127 9.89473 139.693 9.85078 139.195H10.6931C10.7517 139.673 10.8811 140.076 11.0813 140.403C11.2814 140.73 11.55 140.977 11.8869 141.143C12.2287 141.309 12.634 141.392 13.1027 141.392C13.4836 141.392 13.8156 141.331 14.0988 141.209C14.3869 141.087 14.6262 140.909 14.8166 140.674C15.0119 140.435 15.1584 140.145 15.2561 139.803C15.3586 139.456 15.4099 139.061 15.4099 138.616C15.4099 138.235 15.3562 137.886 15.2487 137.569C15.1413 137.247 14.9826 136.966 14.7727 136.727C14.5676 136.482 14.3137 136.294 14.0109 136.163C13.7082 136.031 13.3615 135.965 12.9709 135.965C12.4631 135.965 12.0578 136.033 11.7551 136.17C11.4572 136.307 11.1765 136.492 10.9128 136.727ZM24.6747 135.752V137.547C24.6747 138.328 24.6015 139.009 24.455 139.59C24.3085 140.167 24.0937 140.645 23.8104 141.026C23.5321 141.402 23.1903 141.683 22.7851 141.868C22.3847 142.054 21.9257 142.146 21.4081 142.146C20.9979 142.146 20.622 142.088 20.2802 141.971C19.9384 141.854 19.6332 141.675 19.3646 141.436C19.101 141.192 18.8764 140.887 18.6908 140.521C18.5053 140.154 18.3637 139.725 18.266 139.231C18.1684 138.733 18.1195 138.172 18.1195 137.547V135.752C18.1195 134.966 18.1928 134.288 18.3393 133.716C18.4906 133.145 18.7055 132.671 18.9838 132.295C19.267 131.919 19.6112 131.641 20.0165 131.46C20.4218 131.275 20.8808 131.182 21.3935 131.182C21.8036 131.182 22.1796 131.243 22.5214 131.365C22.8681 131.482 23.1732 131.658 23.4369 131.893C23.7055 132.127 23.9301 132.427 24.1107 132.793C24.2963 133.155 24.4354 133.582 24.5282 134.075C24.6259 134.568 24.6747 135.127 24.6747 135.752ZM23.8031 137.649V135.643C23.8031 135.159 23.7689 134.72 23.7006 134.324C23.6371 133.929 23.5419 133.582 23.4149 133.284C23.288 132.986 23.1269 132.737 22.9315 132.537C22.7411 132.337 22.5165 132.188 22.2577 132.09C22.0038 131.988 21.7157 131.937 21.3935 131.937C20.9979 131.937 20.6488 132.017 20.3461 132.178C20.0482 132.334 19.7992 132.569 19.599 132.881C19.3988 133.189 19.2475 133.575 19.1449 134.039C19.0473 134.502 18.9984 135.037 18.9984 135.643V137.649C18.9984 138.128 19.0302 138.565 19.0937 138.96C19.1571 139.351 19.2548 139.698 19.3866 140C19.5185 140.303 19.6796 140.56 19.87 140.77C20.0653 140.975 20.2899 141.131 20.5438 141.238C20.8026 141.341 21.0907 141.392 21.4081 141.392C21.8134 141.392 22.1649 141.312 22.4628 141.15C22.7606 140.984 23.0097 140.743 23.2099 140.425C23.4101 140.103 23.559 139.71 23.6566 139.246C23.7543 138.777 23.8031 138.245 23.8031 137.649ZM33.295 135.752V137.547C33.295 138.328 33.2218 139.009 33.0753 139.59C32.9288 140.167 32.714 140.645 32.4308 141.026C32.1524 141.402 31.8106 141.683 31.4054 141.868C31.005 142.054 30.546 142.146 30.0284 142.146C29.6183 142.146 29.2423 142.088 28.9005 141.971C28.5587 141.854 28.2535 141.675 27.985 141.436C27.7213 141.192 27.4967 140.887 27.3111 140.521C27.1256 140.154 26.984 139.725 26.8863 139.231C26.7887 138.733 26.7398 138.172 26.7398 137.547V135.752C26.7398 134.966 26.8131 134.288 26.9596 133.716C27.1109 133.145 27.3258 132.671 27.6041 132.295C27.8873 131.919 28.2315 131.641 28.6368 131.46C29.0421 131.275 29.5011 131.182 30.0138 131.182C30.4239 131.182 30.7999 131.243 31.1417 131.365C31.4884 131.482 31.7936 131.658 32.0572 131.893C32.3258 132.127 32.5504 132.427 32.7311 132.793C32.9166 133.155 33.0558 133.582 33.1485 134.075C33.2462 134.568 33.295 135.127 33.295 135.752ZM32.4234 137.649V135.643C32.4234 135.159 32.3893 134.72 32.3209 134.324C32.2574 133.929 32.1622 133.582 32.0353 133.284C31.9083 132.986 31.7472 132.737 31.5519 132.537C31.3614 132.337 31.1368 132.188 30.878 132.09C30.6241 131.988 30.336 131.937 30.0138 131.937C29.6183 131.937 29.2691 132.017 28.9664 132.178C28.6686 132.334 28.4195 132.569 28.2193 132.881C28.0191 133.189 27.8678 133.575 27.7652 134.039C27.6676 134.502 27.6187 135.037 27.6187 135.643V137.649C27.6187 138.128 27.6505 138.565 27.714 138.96C27.7774 139.351 27.8751 139.698 28.0069 140C28.1388 140.303 28.2999 140.56 28.4903 140.77C28.6856 140.975 28.9103 141.131 29.1642 141.238C29.4229 141.341 29.711 141.392 30.0284 141.392C30.4337 141.392 30.7853 141.312 31.0831 141.15C31.381 140.984 31.63 140.743 31.8302 140.425C32.0304 140.103 32.1793 139.71 32.277 139.246C32.3746 138.777 32.4234 138.245 32.4234 137.649ZM40.3772 139.979C40.3772 139.764 40.3235 139.551 40.2161 139.341C40.1087 139.131 39.9012 138.938 39.5936 138.763C39.2908 138.587 38.844 138.438 38.2532 138.316C37.8138 138.218 37.4207 138.108 37.074 137.986C36.7322 137.864 36.4441 137.718 36.2098 137.547C35.9754 137.376 35.7972 137.171 35.6751 136.932C35.553 136.692 35.492 136.409 35.492 136.082C35.492 135.789 35.5555 135.513 35.6824 135.254C35.8143 134.991 35.9998 134.761 36.2391 134.566C36.4832 134.366 36.7762 134.209 37.118 134.097C37.4646 133.985 37.8528 133.929 38.2825 133.929C38.8929 133.929 39.4153 134.034 39.8499 134.244C40.2894 134.449 40.6238 134.729 40.8533 135.086C41.0877 135.442 41.2049 135.845 41.2049 136.294H40.3333C40.3333 136.021 40.2527 135.762 40.0916 135.518C39.9354 135.274 39.7034 135.074 39.3958 134.917C39.0931 134.761 38.722 134.683 38.2825 134.683C37.8284 134.683 37.4598 134.751 37.1766 134.888C36.8934 135.025 36.6858 135.198 36.554 135.408C36.4271 135.618 36.3636 135.835 36.3636 136.06C36.3636 136.236 36.3904 136.397 36.4441 136.543C36.5027 136.685 36.6053 136.817 36.7518 136.939C36.9031 137.061 37.118 137.176 37.3963 137.283C37.6746 137.391 38.0359 137.496 38.4803 137.598C39.1199 137.74 39.6424 137.913 40.0477 138.118C40.4578 138.318 40.7605 138.567 40.9559 138.865C41.1512 139.158 41.2488 139.515 41.2488 139.935C41.2488 140.262 41.1805 140.562 41.0438 140.835C40.907 141.104 40.7093 141.336 40.4505 141.531C40.1966 141.727 39.889 141.878 39.5276 141.985C39.1712 142.093 38.7708 142.146 38.3265 142.146C37.6575 142.146 37.0911 142.037 36.6272 141.817C36.1683 141.592 35.8191 141.299 35.5799 140.938C35.3455 140.572 35.2283 140.184 35.2283 139.773H36.0999C36.1292 140.184 36.2586 140.508 36.4881 140.748C36.7176 140.982 36.9983 141.148 37.3304 141.246C37.6673 141.343 37.9993 141.392 38.3265 141.392C38.7757 141.392 39.1517 141.326 39.4544 141.194C39.7571 141.062 39.9866 140.889 40.1429 140.674C40.2991 140.459 40.3772 140.228 40.3772 139.979ZM43.4531 141.465C43.4531 141.294 43.5068 141.15 43.6143 141.033C43.7266 140.911 43.8779 140.85 44.0684 140.85C44.2637 140.85 44.4175 140.911 44.5298 141.033C44.6421 141.15 44.6982 141.294 44.6982 141.465C44.6982 141.631 44.6421 141.773 44.5298 141.89C44.4175 142.007 44.2637 142.066 44.0684 142.066C43.8779 142.066 43.7266 142.007 43.6143 141.89C43.5068 141.773 43.4531 141.631 43.4531 141.465Z" fill="#331B3B" fill-opacity="0.66"/>
<g clip-path="url(#clip0_474_22)">
<path d="M39.2235 6.71955C39.1999 6.54846 39.05 6.45377 38.9262 6.44334C38.0128 6.37471 37.0994 6.30662 36.186 6.23908C36.186 6.23908 34.3687 4.43498 34.1693 4.23529C33.9697 4.03572 33.5799 4.09643 33.4287 4.14096C33.4064 4.14752 33.0316 4.26318 32.4117 4.45502C31.8047 2.70822 30.7333 1.10299 28.8486 1.10299C28.7966 1.10299 28.743 1.1051 28.6895 1.10814C28.1535 0.399277 27.4895 0.0913086 26.916 0.0913086C22.5255 0.0913086 20.428 5.57979 19.7703 8.36885C18.0643 8.89748 16.8524 9.2733 16.6976 9.32193C15.7453 9.62064 15.7152 9.65065 15.5901 10.5479C15.496 11.2273 13.0044 30.4963 13.0044 30.4963L32.4198 34.134L42.9397 31.8583C42.9397 31.8583 39.2467 6.89064 39.2235 6.71955ZM31.3386 4.78689L29.6958 5.29537C29.6963 5.17959 29.6969 5.06568 29.6969 4.94111C29.6969 3.85549 29.5462 2.98139 29.3045 2.28846C30.2756 2.41033 30.9224 3.51529 31.3386 4.78689ZM28.0998 2.50373C28.3698 3.18025 28.5453 4.15115 28.5453 5.46131C28.5453 5.52834 28.5447 5.58963 28.5442 5.65162C27.4758 5.98256 26.3148 6.34186 25.1512 6.70232C25.8046 4.18092 27.0292 2.96311 28.0998 2.50373ZM26.7954 1.26893C26.9849 1.26893 27.1758 1.33326 27.3585 1.459C25.9514 2.12111 24.4432 3.78869 23.8063 7.11881L21.1243 7.94943C21.8703 5.40939 23.6419 1.26893 26.7954 1.26893Z" fill="#95BF46"/>
<path d="M38.9262 6.44328C38.0128 6.37465 37.0995 6.30656 36.186 6.23902C36.186 6.23902 34.3688 4.43492 34.1693 4.23523C34.0947 4.16094 33.994 4.12285 33.8888 4.10645L32.4208 34.1338L42.9398 31.8582C42.9398 31.8582 39.2467 6.89059 39.2235 6.71949C39.2 6.5484 39.0501 6.45371 38.9262 6.44328Z" fill="#5E8E3E"/>
<path d="M28.8487 12.256L27.5515 16.1146C27.5515 16.1146 26.415 15.508 25.0219 15.508C22.9796 15.508 22.8768 16.7897 22.8768 17.1126C22.8768 18.8749 27.4705 19.5501 27.4705 23.678C27.4705 26.9256 25.4107 29.0168 22.6334 29.0168C19.3006 29.0168 17.5962 26.9426 17.5962 26.9426L18.4886 23.9941C18.4886 23.9941 20.2405 25.4982 21.7188 25.4982C22.6848 25.4982 23.0778 24.7377 23.0778 24.182C23.0778 21.8832 19.309 21.7807 19.309 18.0034C19.309 14.8242 21.5909 11.7477 26.1971 11.7477C27.9719 11.7477 28.8487 12.256 28.8487 12.256Z" fill="white"/>
</g>
<defs>
<clipPath id="clip0_474_22">
<rect width="30" height="34.2188" fill="white" transform="translate(13)"/>
</clipPath>
</defs>
</svg>
