<?xml version="1.0" encoding="utf-8"?>
<!-- Generator: Adobe Illustrator 27.5.0, SVG Export Plug-In . SVG Version: 6.00 Build 0)  -->
<svg version="1.1" xmlns="http://www.w3.org/2000/svg" xmlns:xlink="http://www.w3.org/1999/xlink" x="0px" y="0px"
	 viewBox="0 0 1100 800" style="enable-background:new 0 0 1100 800;" xml:space="preserve">
<g id="background">
	<rect style="fill:#FFFFFF;" width="1100" height="800"/>
</g>
<g id="object">
	<g>
		<g>
			<path style="fill:#F7F7F7;" d="M506.473,634.914c-26.055,0.081-52.11,0.732-78.118,3.74c-9.807,1.134-19.408,3.63-29.236,4.636
				c-19.633,2.01-38.914,5.76-58.617,7.49c-15.866,1.393-31.799,2.215-47.619,3.982c-14.832,1.657-31.252,1.275-45.97-1.463
				c-10.896-2.027-21.841-3.167-32.554-6.423c-11.984-3.642-25.003-6.245-37.489-6.151c-17.805,0.134-35.145,0.149-52.184,6.579
				c-5.981,2.257-13.304,5.967-17.846,10.704c-10.398,10.843-11.805,37.898-1.423,49.144c17.487,18.927,54.808,26.354,79.319,26.705
				c26.859,0.384,52.951-1.689,79.85-2.909c24.994-1.133,49.926-2.745,74.962-2.688c51.133,0.116,102.272,0,153.313-3.552
				c47.954-3.337,96.028-2.192,144.087-2.192c49.282,0,98.231,0.403,147.158,7.214c21.318,2.968,43.036,4.007,64.461,6.086
				c19.188,1.862,37.627-0.037,56.739-1.758c16.048-1.445,31.991-5.732,46.57-12.977c11.54-5.736,32.114-23.554,35.653-37.245
				c9.922-38.382-139.827-37.459-162.82-37.373c-25.721,0.097-51.646,0.977-77.347-0.043c-10.811-0.429-21.463-2.626-32.014-5.034
				c-10.51-2.399-21.099-1.789-31.756-2.797c-44.445-4.203-88.989-3.589-133.576-3.589
				C535.506,635.001,520.99,634.869,506.473,634.914z"/>
		</g>
		<g>
			<path style="fill:#587BC9;" d="M488.962,157.134l7.218-4.528c-1.259-5.654-3.07-11.191-5.421-16.547l-8.472,0.592
				c-9.625,0.673-16.24-9.495-11.726-18.022l3.974-7.506c-3.944-4.319-8.273-8.218-12.932-11.66l-7.064,4.764
				c-7.999,5.395-18.812-0.103-19.166-9.745l-0.311-8.477c-2.759-0.864-5.573-1.603-8.437-2.21c-2.865-0.606-5.737-1.07-8.609-1.398
				l-3.719,7.624c-4.23,8.672-16.343,9.317-21.47,1.144l-4.528-7.218c-5.654,1.259-11.191,3.069-16.547,5.421l0.592,8.472
				c0.673,9.625-9.495,16.24-18.022,11.726l-7.505-3.974c-4.319,3.944-8.219,8.273-11.66,12.932l4.764,7.064
				c5.395,7.999-0.103,18.812-9.745,19.166l-8.477,0.311c-0.864,2.759-1.603,5.573-2.21,8.437c-0.606,2.864-1.07,5.737-1.398,8.609
				l7.624,3.719c8.672,4.23,9.317,16.343,1.144,21.47l-7.218,4.528c1.259,5.654,3.069,11.191,5.421,16.547l8.472-0.592
				c9.625-0.673,16.24,9.495,11.726,18.022l-3.974,7.506c3.944,4.32,8.273,8.219,12.932,11.66l7.064-4.764
				c7.999-5.395,18.812,0.103,19.166,9.745l0.311,8.477c2.759,0.863,5.573,1.603,8.437,2.21s5.737,1.07,8.609,1.398l3.719-7.624
				c4.23-8.672,16.343-9.317,21.47-1.144l4.528,7.218c5.654-1.259,11.191-3.069,16.547-5.421l-0.592-8.472
				c-0.673-9.625,9.495-16.24,18.022-11.726l7.506,3.974c4.32-3.944,8.219-8.273,11.66-12.932l-4.764-7.064
				c-5.395-7.999,0.103-18.812,9.745-19.166l8.477-0.311c0.864-2.759,1.603-5.573,2.21-8.438c0.606-2.864,1.07-5.737,1.398-8.609
				l-7.624-3.719C481.434,174.374,480.789,162.262,488.962,157.134z M412.409,224.414c-28.828,2.485-54.211-18.871-56.695-47.698
				c-2.484-28.827,18.871-54.211,47.698-56.695c28.828-2.484,54.211,18.871,56.695,47.698
				C462.592,196.546,441.236,221.93,412.409,224.414z"/>
			<path style="fill:#3B455A;" d="M402.776,112.64c-32.904,2.836-57.278,31.808-54.443,64.712
				c2.836,32.904,31.808,57.278,64.712,54.443c32.904-2.836,57.278-31.808,54.443-64.712
				C464.652,134.179,435.679,109.804,402.776,112.64z M412.409,224.414c-28.828,2.485-54.211-18.871-56.695-47.698
				c-2.484-28.827,18.871-54.211,47.698-56.695c28.828-2.484,54.211,18.871,56.695,47.698
				C462.592,196.546,441.236,221.93,412.409,224.414z"/>
		</g>
		<g>
			<g>
				<path style="fill:#3B455A;" d="M443.499,673.674l12.18,8.627l4.06,6.597c0,0-4.567,2.03-7.105,2.537
					c-2.537,0.507-22.329-2.537-22.329-2.537v-11.672L443.499,673.674z"/>
				<path style="fill:#3B455A;" d="M401.675,679.256l6.597,6.597c0,0,5.582,9.135,3.045,9.135c-2.537,0-16.239,1.522-17.254,0
					c-1.015-1.522-8.627-6.597-9.642-7.612c-1.015-1.015-0.546-9.914-0.546-9.914L401.675,679.256z"/>
				<path style="fill:#15529B;" d="M425.019,501.131l-8.627,86.779l-14.717,91.346h-17.762l-2.03-95.406
					c0,0-14.435-78.399-15.957-104.281L425.019,501.131z"/>
				<polygon style="fill:#15529B;" points="463.29,502.654 448.066,677.227 429.797,677.227 424.214,587.91 413.727,508.834 
					453.648,462.055 				"/>
				<path style="fill:#96BFEE;" d="M466.904,421.629c-2.855-10.106-5.11-20.368-7.043-30.681c-1.686-8.997-2.35-18.682-6.324-27.071
					c-3.974-8.389-11.48-14.744-17.275-21.877c-2.455-3.022-5.075-6.167-8.725-7.608c-2.501-0.987-5.26-1.076-7.954-1.152
					c-8.172-0.231-16.344-0.462-24.516-0.693c-2.979-0.084-6.078-0.146-8.794,1.061c-4.07,1.809-6.37,6.013-8.381,9.935
					c-5.136,10.016-6.083,21.126-6.543,32.447c0.015,0.106,2.358,30.493-2.958,54.543c-5.291,23.935-3.417,87.652,1.652,84.984
					c6.312-3.322,13.534-5.088,20.615-6.323c9.986-1.795,20.181-2.935,30.358-3.216l17.915,1.355h10.811
					c6.488,0.706,5.956,2.893,12.624,2.439C466.633,509.48,469.566,431.056,466.904,421.629z"/>
				<g>
					<path style="fill:#CC937A;" d="M411.235,337.835c-4.548-0.198-9.096-0.395-13.644-0.593c-0.245-3.622-0.2-7.264,0.134-10.879
						c-3.844-1.116-8.31-2.863-9.186-6.768c-0.276-1.23-0.132-2.511,0.014-3.763c0.602-5.177,1.203-10.353,1.805-15.53
						c0.208-1.79,0.433-3.634,1.313-5.207c1.544-2.76,4.764-4.109,7.846-4.822c7.864-1.819,16.612-0.579,23.057,4.28
						c1.715,1.293,3.289,2.875,4.124,4.854c1.286,3.052,0.644,6.533-0.018,9.778c-0.611,2.995-1.223,5.991-1.834,8.986
						c-0.703,3.445-1.776,7.377-4.978,8.832c-1.7,0.773-3.762,0.689-5.279,1.776C411.911,330.698,412.514,334.801,411.235,337.835z"
						/>
					<path style="fill:#34435A;" d="M436.433,272.045c-1.01-0.18-2.04-0.393-3.083-0.847c-3.295-1.434-5.604-4.31-9.102-5.656
						c-7.076-2.722-15.952-2.327-22.903,0.597c-6.652,2.798-15.731,3.874-21.685,7.634c-2.486,1.57-4.409,3.914-5.868,6.467
						c-5.054,8.845-4.432,20.618,1.527,28.881c1.337,1.854,2.906,3.529,4.546,5.12c3.394,3.295,7.462,7.371,11.938,8.413
						c-0.114-3.946-4.392-16.171-1.545-19.568c3.775-4.505,11.184-4.39,16.494-3.892c6.326,0.592,11.535-1.439,17.844-1.123
						c3.214,0.161,6.848,0.807,9.312-1.262c2.849-2.392,8.871-9.991,10.299-13.325c1.251-2.919,0.417-6.515-1.757-8.83
						C440.573,272.655,438.547,272.422,436.433,272.045z"/>
				</g>
			</g>
			<polygon style="fill:#96BFEE;" points="395.637,332.532 351.884,320.352 357.741,254.322 342.831,252.725 325.791,322.482 
				333.665,338.835 372.651,360.29 389.159,334.197 			"/>
			<polygon style="fill:#CC937A;" points="344.176,252.869 341.766,242.074 349.754,233.555 362.534,248.465 357.741,254.322 			"/>
			<g>
				<path style="fill:#FFFFFF;" d="M440.056,427.762c0-1.409-0.266-2.803-0.805-4.105c-2.409-5.828-27.749-78.827-27.749-78.827
					s-1.021-3.778-1.497-7.108l-8.12-0.508l1.336,8.293l3.805,3.266c0,0,15.574,80.388,15.666,81.796l11.546,14.279L440.056,427.762
					z"/>
			</g>
			<g>
				<polygon style="fill:#CC937A;" points="468.186,472.297 458.899,477.816 455.827,484.046 457.786,485.355 461.332,482.82 
					456.646,495.381 461.317,499.808 472.937,488.61 477.137,474.398 				"/>
				<polygon style="fill:#96BFEE;" points="438.681,337.392 427.499,334.197 467.921,411.247 463.29,475.293 477.876,479.607 
					492.461,406.883 				"/>
			</g>
		</g>
		<g>
			<path style="fill:#154E93;" d="M829.085,78.308l-119.573,33.664l28.908,29.257c-32.062,32.602-72.152,73.538-73.221,75.472
				c-1.788,3.235-32.9-60.37-32.9-60.37l-84.001,92.82l-30.667-40.569l-67.06,74.936l62.607-42.649l33.828,44.114l75.507-76.702
				l32.195,65.8l112.25-103.969l31.07,31.445L829.085,78.308z"/>
			<polygon style="fill:#3B455A;" points="655.889,274.258 770.169,171.832 763.75,164.274 			"/>
			<polygon style="fill:#3B455A;" points="548.286,284.532 627.554,215.671 623.29,207.047 			"/>
			<polygon style="fill:#3B455A;" points="514.634,240.409 452.375,283.343 518.305,245.872 			"/>
		</g>
		<g>
			<g>
				<g>
					<g>
						<path style="fill:#305399;" d="M221.303,158.745l-3.165-5.33c-2.072,0.411-4.137,0.921-6.186,1.534
							c-2.05,0.613-4.055,1.32-6.013,2.114l0.281,6.192c0.319,7.043-7.226,11.694-13.375,8.244l-5.43-3.047
							c-3.187,2.785-6.107,5.884-8.72,9.266l3.343,5.229c3.798,5.94-0.411,13.741-7.461,13.827l-6.206,0.076
							c-1.392,4.041-2.379,8.183-2.957,12.376l5.528,2.866c6.26,3.245,6.515,12.105,0.452,15.705l-5.33,3.165
							c0.411,2.072,0.921,4.137,1.534,6.186c0.613,2.05,1.32,4.055,2.114,6.013l6.192-0.281c7.043-0.319,11.695,7.226,8.244,13.375
							l-3.047,5.43c2.785,3.187,5.884,6.107,9.266,8.72l5.229-3.343c5.94-3.798,13.741,0.411,13.827,7.461l0.076,6.206
							c4.041,1.392,8.183,2.379,12.376,2.957l2.866-5.528c3.245-6.259,12.105-6.514,15.705-0.452l3.165,5.33
							c2.072-0.411,4.136-0.921,6.186-1.534c2.05-0.613,4.055-1.32,6.013-2.114l-0.281-6.193
							c-0.319-7.043,7.226-11.694,13.375-8.244l5.43,3.047c3.187-2.785,6.107-5.884,8.721-9.266l-3.343-5.229
							c-3.798-5.94,0.411-13.741,7.461-13.827l6.206-0.076c1.392-4.041,2.379-8.183,2.957-12.376l-5.528-2.866
							c-6.26-3.245-6.514-12.106-0.452-15.705l5.33-3.165c-0.411-2.072-0.921-4.136-1.534-6.186c-0.613-2.05-1.32-4.055-2.114-6.013
							l-6.192,0.281c-7.043,0.319-11.694-7.227-8.244-13.375l3.047-5.43c-2.785-3.187-5.884-6.107-9.266-8.721l-5.229,3.343
							c-5.94,3.798-13.741-0.411-13.827-7.461l-0.076-6.206c-4.041-1.392-8.183-2.379-12.376-2.957l-2.866,5.528
							C233.763,164.553,224.902,164.808,221.303,158.745z M256.78,210.479c4.278,14.308-3.852,29.375-18.16,33.653
							c-14.308,4.278-29.375-3.852-33.653-18.16c-4.278-14.308,3.852-29.375,18.159-33.653
							C237.434,188.041,252.501,196.172,256.78,210.479z"/>
					</g>
				</g>
				<g>
					<path style="fill:#96BFEE;" d="M240.302,246.358c-15.512,5.199-32.362-3.192-37.561-18.704
						c-5.199-15.512,3.192-32.362,18.704-37.561s32.361,3.192,37.56,18.704C264.204,224.31,255.814,241.16,240.302,246.358z
						 M223.306,195.646c-12.451,4.173-19.185,17.697-15.012,30.147c4.173,12.451,17.697,19.185,30.147,15.012
						c12.451-4.173,19.185-17.697,15.012-30.147C249.28,198.208,235.757,191.474,223.306,195.646z"/>
				</g>
			</g>
		</g>
		<g>
			<path style="fill:#EACFC1;" d="M494.911,281.282l-3.279-16.975l10.134-11.582l5.308,4.826l-2.442,12.005l2.63,2.906
				l-2.861,12.271C504.4,284.732,494.878,281.05,494.911,281.282z"/>
			<polygon style="fill:#EACFC1;" points="627.24,246.901 628.485,229.19 614.16,218.099 608.152,225.955 614.622,237.507 
				612.311,243.515 618.662,253.054 			"/>
			<g>
				<g>
					<g>
						<polygon style="fill:#305399;" points="513.729,448.045 512.57,548.256 523.25,677.258 537.77,677.258 555.146,558.242 
							575.016,439.022 						"/>
						<polygon style="fill:#34435A;" points="537.687,683.381 521.984,691.232 514.133,683.381 521.984,675.53 537.687,675.53 
													"/>
					</g>
					<g>
						<polygon style="fill:#305399;" points="613.284,448.045 613.569,506.021 603.776,677.258 589.255,677.258 564.965,563.625 
							551.997,439.022 						"/>
						<polygon style="fill:#34435A;" points="589.339,683.381 605.041,691.232 612.892,683.381 605.041,675.53 589.339,675.53 
													"/>
					</g>
				</g>
				<path style="fill:#305399;" d="M628.385,482.953c0.311,9.199,0.112,21.503-3.762,21.962c-0.725,0.086-1.424-0.235-2.063-0.545
					c-6.734-3.272-11.535-7.897-18.174-11.058c-6.957-3.312-14.865-5.046-22.592-6.243c-11.526-1.841-23.243-2.947-34.843-3.05
					c-9.97-0.088-20.338,4.46-29.763,6.961c-3.628,0.963-6.579,3.607-9.593,5.68c-4.452,3.063-6.404,4.276-5.796-1.982
					c0.991-10.211,2.019-20.42,3.276-30.602c2.506-20.309,5.916-40.57,11.687-60.23c2.205-7.511,4.748-14.917,7.29-22.32
					c3.096-9.015,6.192-18.031,9.288-27.046c3.848-11.205,10.341-19.098,21.712-23.017c9.827-3.387,22.033-4.314,31.591,0.427
					c10.625,5.271,15.678,23.227,20.84,32.823c4.523,8.409,10.225,31.343,11.918,40.409c2.038,10.911,3.92,21.771,5.402,32.602
					c1.641,11.996,2.799,23.957,3.133,35.847C627.971,474.886,628.236,478.562,628.385,482.953z"/>
				<path style="fill:#FFFFFF;" d="M575.899,333.476l-19.623,0.187c0,0-21.056,73.585-21.83,86.267
					c-0.759,12.45-6.082,62.933-6.082,62.933s21.732,0.512,46.771,3.563c24.478,5.238,26.535,2.141,26.535,2.141
					s-13.211-53.059-13.649-68.303c-0.448-15.592-2.444-67.09-2.444-67.09L575.899,333.476z"/>
				<path style="fill:#34435A;" d="M573.056,334.678h-9.66c-2.255,0-3.534,2.584-2.166,4.377l3.966,5.197l-10.552,97.334
					l12.987,12.765l8.929-15.159l-2.435-94.94l1.571-6.178C576.134,336.352,574.833,334.678,573.056,334.678z"/>
				<g>
					<path style="fill:#EACFC1;" d="M564,333.858c0.23,0.2,0.496,0.358,0.803,0.459c0.61,0.201,1.271,0.127,1.909,0.052
						c2.596-0.307,5.192-0.614,7.787-0.921c-0.856-7.949,3.79-9.747,8.318-14.859c4.589-5.183,3.177-12.171,2.919-18.513
						c-0.074-1.767-0.16-3.586-0.907-5.189c-1.311-2.812-4.362-4.365-7.325-5.285c-7.56-2.349-16.207-1.771-22.864,2.515
						c-1.772,1.141-3.426,2.574-4.386,4.449c-1.48,2.892-1.104,6.343-0.691,9.566c0.634,4.953,2.1,9.818,4.901,13.992
						c2.609,3.889,7.584,5.752,8.156,10.419C562.767,331.748,563.132,333.104,564,333.858z"/>
					<path style="fill:#3B455A;" d="M593.394,272.338c-1.502-2.348-3.332-4.456-5.482-5.768c-5.15-3.142-12.32-3.431-17.868-5.584
						c-7.805-3.029-11.772-0.297-19.14,2.069c-2.946,0.946-6.332,1.767-7.891,4.558c-0.862,1.541-0.989,3.443-1.859,4.98
						c-1.12,1.979-3.246,3.012-5.09,4.258c-2.139,1.445-3.05,3.583-3.126,5.977c-0.161,5.113,3.703,13.418,8.454,15.502
						c0.923,0.405,1.946,0.643,3.026,0.757c1.148,3.183,3.184,6.251,6.252,7.292c0.485-1.987-0.446-4.008-0.888-6.005
						c-0.112-0.505-0.132-1.026-0.101-1.553c3.547-0.613,7.126-1.93,9.732-3.068c5.426-2.368,15.993-4.891,21.626-2.094
						c4.455,2.212,3.087,9.266,2.863,13.727c-0.058,1.147-0.146,2.315,0.118,3.429c0.367,1.548,1.541,2.418,1.77,3.993
						c3.648-1.637,5.854-5.751,7.915-9.094c1.03-1.672,1.994-3.418,2.752-5.318C599.846,291.911,598.597,280.473,593.394,272.338z"
						/>
				</g>
			</g>
			<polygon style="fill:#305399;" points="550.233,333.128 503.559,332.46 508.087,282.432 493.045,276.962 474.908,337.267 
				483.419,355.459 535.513,370.69 			"/>
			<polygon style="fill:#305399;" points="582.193,330.872 632.007,316.192 613.569,253.913 628.763,243.016 665.44,315.111 
				655.297,340.078 607.703,364.644 			"/>
		</g>
		<g>
			<g>
				<g>
					<path style="fill:#3B455A;" d="M834.683,176.678c0,0,10.154,1.827,11.754-3.104c1.599-4.931,6.365-5.62,6.365-5.62l29.78-0.767
						l-1.666,4.68l-36.133,37.417c-0.523,0.542-0.731,1.315-0.55,2.047l3.493,14.085c0.198,0.799,0.827,1.419,1.629,1.605
						c2.408,0.557,7.935,1.829,14.793,3.368l33.279,7.115c8.88,1.743,15.609,2.838,16.383,2.331
						c0.671-0.439,1.932-4.449,3.201-10.792c0,0,11.887-0.65,11.896-0.651c3.791-0.247,4.754-41.301,4.568-45.077
						c-0.921-18.682-8.422-35.924-20.631-49.247c-5.639-6.154-12.283-11.471-19.746-15.708c-0.994-0.564-7.688-2.294-7.918-2.747
						l-8.969-17.645c-0.47-0.925-1.908-0.921-2.097,0.007l-3.616,17.68c-15.583,1.37-26.923,6.378-26.923,6.378
						s0.716,2.712,2.388,9.041c1.671,6.329-19.085,30.279-19.085,30.279L834.683,176.678z"/>
					<path style="opacity:0.16;" d="M917.012,229.041c0.793-0.043,1.579-19.89,1.644-21.898c0.243-7.523,0.066-15.075-0.865-22.55
						c-1.902-15.284-6.871-30.586-17.335-42.165c-7.255-8.028-16.836-15.651-27.883-17.429c8.294,1.335,16.808,3.875,24.244,7.788
						c13.264,6.981,20.387,21.995,24.831,35.628c4.146,12.719,5.883,26.22,5.083,39.574c-0.091,1.514-0.912,20.432-1.942,20.625
						C924.788,228.616,917.014,229.041,917.012,229.041z"/>
				</g>
				<polygon style="fill:#3B455A;" points="900.944,254.258 904.494,233.588 858.201,225.636 854.651,246.307 834.974,261.488 
					832.621,275.187 912.075,288.834 914.428,275.135 				"/>
			</g>
			<polygon style="fill:#EACFC1;" points="909.461,251.55 911.632,233.104 891.589,224.542 887.861,233.063 897.3,246.933 
				899.586,255.372 			"/>
			<polygon style="fill:#587BC9;" points="818.015,362.952 793.755,400.192 777.962,430.355 783.74,442.047 804.748,436.171 			"/>
			<g>
				<polygon style="fill:#587BC9;" points="847.083,494.466 847.083,513.323 821.94,595.037 828.226,679.893 812.512,683.036 
					787.369,579.323 788.331,548.809 799.941,486.576 				"/>
				<polygon style="fill:#242449;" points="814.575,681.425 802.58,694.121 806.045,700.556 830.797,688.675 826.238,679.27 				"/>
				<polygon style="fill:#242449;" points="852.615,687.222 837.828,696.518 839.575,703.615 866.51,698.295 864.446,688.049 				
					"/>
				<path style="fill:#587BC9;" d="M817.934,362.857l37.405-14.838c0,0,13.294,33.019,28.406,85.911
					c15.112,52.893-7.017,120.221-7.017,120.221s-85.693-20.366-102.805-23.724l21.464-96.682L817.934,362.857z"/>
				<polygon style="fill:#587BC9;" points="827.138,516.794 852.402,689.649 863.885,689.649 871.138,595.364 886.852,501.079 				
					"/>
				<g>
					<path style="fill:#EACFC1;" d="M816.696,312.323c10.185,0.749,19.708-7.615,29.732-5.538
						c6.518,1.35,11.663,7.131,13.652,13.646c0.927,3.037,1.256,6.346,0.348,9.366c-0.589,1.96-1.674,3.726-2.953,5.296
						c-1.71,2.098-3.8,3.841-6.12,5.18c1.275,2.054,2.735,3.994,4.359,5.784c-4.697,1.799-9.394,3.597-14.091,5.396
						c-1.038-2.699-2.076-5.398-3.114-8.097c-1.413-0.078-2.82-0.279-4.199-0.637c-8.339-2.164-15.253-9.468-17.113-18.078
						C816.325,320.607,816.493,316.435,816.696,312.323z"/>
					<polygon style="fill:#34435A;" points="819.267,315.396 850.759,311.654 856.871,335.709 865.764,328.651 861.182,289.29 
						816.738,288.333 797.494,299.622 798.309,310.935 815.516,322.518 					"/>
				</g>
				<path style="fill:#FFFFFF;" d="M831.491,355.857l37.405-14.839c0,0,13.294,33.019,28.406,85.911
					c15.112,52.892-7.017,120.221-7.017,120.221s-76.656-37.877-93.767-41.235l12.426-79.172L831.491,355.857z"/>
				<path style="fill:#587BC9;" d="M897.867,426.022c-15.112-52.892-28.199-85.967-28.199-85.967l-37.612,14.894l-0.061,0.191
					c0.829,2.161,1.695,4.31,2.445,6.501c2.962,8.647,5.152,17.548,6.497,26.59c2.364,15.893,2.612,32.233,2.104,48.271
					c-0.487,15.388-2.074,30.747-4.808,45.9c-3.614,20.032-9.377,39.55-16.803,58.442c34.791,7.069,75.735,15.428,75.735,15.428
					S912.979,478.914,897.867,426.022z"/>
			</g>
			<polygon style="fill:#587BC9;" points="866.51,341.305 903.747,318.222 896.825,254.855 913.332,248.465 940.49,320.885 
				935.165,332.599 884.124,381.856 			"/>
			<polygon style="fill:#587BC9;" points="797.78,411.409 801.507,367.212 783.402,367.212 769.557,427.917 779.142,446.555 
				794.556,439.022 			"/>
			<polygon style="fill:#EACFC1;" points="785.532,367.212 785.532,352.302 796.715,348.042 806.832,356.03 806.832,362.952 
				799.377,367.212 			"/>
		</g>
		<g>
			<polygon style="fill:#EACFC1;" points="179.679,288.019 181.831,269.983 195.938,261.845 200.012,271.559 193.276,282.612 
				193.276,291.665 			"/>
			<g>
				<path style="fill:#34435A;" d="M286.412,690.171l-12.623-11.659c-3.662-1.853-7.537-3.147-10.676-3.108
					c-2.28,0.029-4.172,0.76-5.312,2.49c-1.096,1.662-1.318,3.849-0.572,5.622c0.273,0.648,0.661,1.228,1.097,1.775l-0.001,0
					c0,0,0.005,0.006,0.006,0.007c0.376,0.471,0.787,0.917,1.197,1.357c0.261,0.28,0.548,0.581,0.854,0.894
					c2.612,2.831,6.989,7.442,8.726,8.484c2.549,1.529,8.156,5.607,14.782,1.02c-0.025-0.022-0.052-0.043-0.077-0.065
					C286.223,695.358,286.931,692.678,286.412,690.171z"/>
				<path style="fill:#EACFC1;" d="M276.504,588.633l-1.019,14.631l-5.001,71.231l5.001,8.286c0,0,1.019,6.626-6.626,6.117
					c-2.275-0.152-10.33-10.394-10.33-10.394l1.164-4.693l-5.669-53.484l0.052-15.534l-2.712-17.248L276.504,588.633z"/>
			</g>
			<g>
				<path style="fill:#34435A;" d="M196.487,672.083c-2.35-0.739-4.538-0.626-6.293,0.765c-1.685,1.336-2.651,3.507-2.482,5.578
					c0.115,1.412,0.712,2.72,1.301,3.997c3.048,6.607,11.597,21.545,21.406,18.807c4.122-1.151,5.682-5.359,4.846-9.076
					C214.005,686.554,204.344,674.555,196.487,672.083z"/>
			</g>
			<path style="fill:#EACFC1;" d="M245.928,580.089l-1.708,21.067l-41.356,74.461c0,0,5.945,10.385,2.174,11.288
				c-3.77,0.902-14.827-2.243-14.85-13.971c4.348-14.202,21.439-62.428,21.439-62.428l8.003-12.444l-0.117-23.386L245.928,580.089z"
				/>
			<path style="fill:#D7E8F4;" d="M199.203,509.566c-0.326-6.211,1.66-22.415,3.701-28.221c7.44-21.172,8.874-31.607,8.874-48.839
				c0-17.233-7.646-71.872-7.646-71.872l26.562-15.944l31.841,0.894l17.681,5.831c0,0,3.743,68.743,4.806,90.9
				c0.758,15.812,1.856,29.505,3.302,47.826c0,0,4.053,41.787-2.209,86.582c0,0-1.398,14.875-2.025,16.178
				c-0.083,0.442-0.129,0.68-0.129,0.68s-0.252,0-0.254,0.001l-70.805-0.001v-25.528c-2.357-8.194-4.596-16.424-6.741-24.675
				C203.435,532.889,199.809,521.092,199.203,509.566z"/>
			<path style="fill:#587BC9;" d="M214.18,349.506l-12.086,9.09c0,0,9.194,62.929,9.685,73.91
				c0.49,10.981-13.661,54.864-13.661,54.864l58.619,7.646c0,0,8.622-46.865,11.103-70.146
				c2.481-23.281-32.985-80.037-32.985-80.037L214.18,349.506z"/>
			<path style="fill:#587BC9;" d="M272.946,348.401l11.963,5.677c0,0-1.683,69.955,1.385,87.724
				c1.87,10.831,9.15,45.904,9.15,45.904l-18.93,6.478c0,0-11.654-43.871-13.97-67.153c-2.316-23.281,0.207-81.178,0.207-81.178
				L272.946,348.401z"/>
			<g>
				<g>
					<path style="fill:#3B455A;" d="M270.625,322.774c1.553,6.01-2.013,11.948-5.133,17.017c-1.275,2.071-3.25,4.953-1.606,7.317
						c1.841,2.647,6.415,2.116,8.427,0.137c1.421-1.397,2.119-3.292,2.725-5.139c2.716-8.278,6.508-19.873,5.766-28.575
						c-0.595-6.977-9.151-19.368-17.966-14.935c-1.6,0.805-2.626,2.317-3.504,3.803c-0.524,0.888-1.03,1.818-1.134,2.831
						c-0.416,4.04,3.48,5.079,6.04,7.251C267.397,315.16,269.633,318.936,270.625,322.774z"/>
					<path style="fill:#EACFC1;" d="M255.916,344.365c5.887-0.748,10.808-4.863,13.441-9.817c2.633-4.954,3.262-10.654,3.159-16.213
						c-0.343-18.498-24.872-19.525-34.409-6.232C229.796,323.688,238.799,346.54,255.916,344.365z"/>
					<path style="fill:#3B455A;" d="M239.172,320.836c-0.202,2.24-1.342,4.615-1.656,6.917c-0.579,4.236,0.37,9.733-1.18,13.603
						c-4.301-0.589-9.532-3.28-12.719-6.231c-3.255-3.014-2.669-7.497-3.397-11.937c-0.673-4.107-1.531-8.235-1.296-12.39
						c1.285-22.75,23.987-35.191,43.988-24.928c7.567,3.883,10.876,13.75,5.31,20.234c-5.987,6.973-18.15,3.95-25.32,9.124
						C241.312,316.375,240.089,318.437,239.172,320.836z"/>
				</g>
				<path style="fill:#EACFC1;" d="M256.409,342.457c-0.298,1.377-0.597,2.754-0.896,4.131c-0.136,0.631-0.085,2.439-0.629,2.871
					c-0.283,0.225-0.704,0.192-1.076,0.147c-1.063-0.131-10.583-1.343-10.479-1.948c0.278-1.623,0.589-3.213,1.096-4.763
					c0.409-1.253,0.565-3.609,1.321-4.559c1.617,1.106,3.288,1.79,5.193,2.329c1.838,0.521,3.685,1.012,5.54,1.471
					C256.456,342.243,256.432,342.35,256.409,342.457z"/>
			</g>
			<polygon style="fill:#587BC9;" points="232.251,346.898 185.545,350.292 196.007,282.189 178.958,282.281 153.944,353.672 
				162.631,376.163 217.067,381.194 			"/>
			<polygon style="fill:#587BC9;" points="279.829,351.327 291.792,357.004 321.079,429.957 362.615,447.529 360.484,462.439 
				307.234,450.192 282.74,407.059 			"/>
			<g>
				<g>
					<path style="fill:#3B455A;" d="M350.524,486.885l-77.25-28.427c-2.35-0.865-3.502-3.612-2.574-6.136l40.126-109.042
						c0.929-2.524,3.587-3.869,5.937-3.004l77.25,28.427c2.35,0.865,3.502,3.612,2.574,6.135l-40.126,109.042
						C355.532,486.405,352.874,487.75,350.524,486.885z"/>
					<path style="fill:#BCBEC0;" d="M322.806,418.961l-20.229-7.444c-1.259-0.463-1.876-1.935-1.379-3.287l7.777-21.133
						c0.497-1.352,1.921-2.072,3.18-1.609l20.229,7.444c1.259,0.463,1.876,1.935,1.379,3.287l-7.777,21.133
						C325.488,418.704,324.065,419.425,322.806,418.961z"/>
					<path style="fill:#BCBEC0;" d="M360.102,432.686l-20.229-7.444c-1.259-0.463-1.876-1.935-1.379-3.287l7.777-21.133
						c0.498-1.352,1.922-2.073,3.18-1.609l20.229,7.444c1.259,0.463,1.876,1.935,1.379,3.287l-7.777,21.133
						C362.785,432.429,361.361,433.149,360.102,432.686z"/>
					<path style="fill:#BCBEC0;" d="M310.092,453.509l-20.229-7.444c-1.259-0.463-1.876-1.935-1.379-3.287l7.777-21.133
						c0.498-1.352,1.921-2.072,3.18-1.609l20.229,7.444c1.259,0.463,1.876,1.935,1.379,3.287l-7.777,21.133
						C312.775,453.252,311.351,453.973,310.092,453.509z"/>
					<path style="fill:#305399;" d="M347.389,467.234l-20.229-7.444c-1.259-0.463-1.876-1.935-1.379-3.287l7.777-21.133
						c0.497-1.352,1.921-2.072,3.18-1.609l20.229,7.444c1.259,0.463,1.876,1.935,1.379,3.287l-7.777,21.133
						C350.072,466.977,348.648,467.697,347.389,467.234z"/>
					<path style="fill:#EEEEEE;" d="M319.038,401.682l5.745,2.114c0.358,0.132,0.611,0.367,0.757,0.703
						c0.146,0.337,0.152,0.686,0.018,1.049c-0.134,0.363-0.358,0.615-0.673,0.756c-0.316,0.141-0.658,0.144-1.027,0.008
						l-5.745-2.114l-2.345,6.374c-0.15,0.408-0.377,0.698-0.679,0.869c-0.303,0.172-0.634,0.191-0.992,0.06
						c-0.316-0.117-0.544-0.354-0.681-0.714c-0.137-0.359-0.139-0.72-0.006-1.083l2.345-6.374l-5.713-2.102
						c-0.369-0.136-0.631-0.361-0.785-0.675c-0.154-0.314-0.164-0.652-0.031-1.015c0.125-0.34,0.362-0.593,0.711-0.761
						c0.349-0.167,0.692-0.189,1.03-0.065l5.713,2.102l2.339-6.357c0.15-0.408,0.382-0.696,0.695-0.863
						c0.313-0.168,0.644-0.188,0.992-0.06c0.359,0.132,0.598,0.362,0.717,0.689c0.119,0.327,0.104,0.694-0.046,1.102
						L319.038,401.682z"/>
					<path style="fill:#EEEEEE;" d="M347.619,415.509c-0.211-0.078-0.351-0.21-0.42-0.396c-0.069-0.186-0.058-0.404,0.034-0.653
						l0.663-1.801c0.079-0.215,0.202-0.363,0.37-0.443c0.167-0.08,0.356-0.081,0.567-0.004l13.12,4.828
						c0.243,0.089,0.409,0.222,0.501,0.397c0.091,0.175,0.097,0.37,0.018,0.586l-0.663,1.802c-0.075,0.204-0.222,0.359-0.441,0.465
						c-0.219,0.106-0.428,0.122-0.629,0.048L347.619,415.509z"/>
					<path style="fill:#EEEEEE;" d="M336.482,445.14c-0.211-0.078-0.351-0.21-0.42-0.396c-0.069-0.186-0.058-0.404,0.034-0.653
						l0.663-1.802c0.079-0.215,0.202-0.363,0.37-0.443c0.167-0.08,0.356-0.081,0.567-0.004l13.12,4.828
						c0.243,0.089,0.41,0.221,0.501,0.397c0.091,0.175,0.097,0.37,0.018,0.586l-0.663,1.802c-0.075,0.204-0.222,0.359-0.441,0.465
						c-0.219,0.106-0.428,0.122-0.629,0.048L336.482,445.14z"/>
					<path style="fill:#EEEEEE;" d="M334.053,451.742c-0.211-0.078-0.351-0.21-0.42-0.396c-0.069-0.186-0.058-0.404,0.034-0.653
						l0.663-1.802c0.079-0.215,0.202-0.363,0.37-0.443c0.167-0.08,0.356-0.081,0.567-0.003l13.12,4.828
						c0.243,0.089,0.41,0.221,0.501,0.397c0.091,0.175,0.097,0.37,0.018,0.586l-0.663,1.802c-0.075,0.204-0.222,0.359-0.441,0.465
						c-0.219,0.106-0.428,0.122-0.629,0.048L334.053,451.742z"/>
					<g>
						<path style="fill:#EEEEEE;" d="M297.811,435.366c-0.211-0.078-0.351-0.21-0.42-0.396c-0.069-0.186-0.058-0.404,0.034-0.653
							l0.663-1.802c0.079-0.215,0.202-0.363,0.37-0.443c0.167-0.08,0.356-0.081,0.567-0.004l13.12,4.828
							c0.243,0.089,0.41,0.221,0.501,0.397c0.091,0.175,0.097,0.37,0.018,0.586L312,439.681c-0.075,0.204-0.222,0.359-0.441,0.465
							c-0.219,0.106-0.428,0.122-0.629,0.048L297.811,435.366z"/>
						<path style="fill:#EEEEEE;" d="M308.287,432.54c-0.372,1.01-1.436,1.549-2.376,1.202c-0.941-0.346-1.402-1.446-1.03-2.456
							c0.372-1.01,1.436-1.548,2.376-1.202C308.198,430.43,308.659,431.53,308.287,432.54z"/>
						<path style="fill:#EEEEEE;" d="M305.17,441.012c-0.372,1.01-1.436,1.548-2.376,1.202c-0.941-0.346-1.402-1.446-1.03-2.456
							c0.372-1.01,1.436-1.548,2.376-1.202C305.08,438.902,305.542,440.002,305.17,441.012z"/>
					</g>
				</g>
				
					<rect x="339.664" y="338.611" transform="matrix(0.3453 -0.9385 0.9385 0.3453 -124.5229 572.8882)" style="fill:#D5E6F4;" width="17.409" height="74.176"/>
			</g>
			<polygon style="fill:#EACFC1;" points="365.349,465.615 357.067,467.4 356.829,454.15 365.349,448.387 373.269,452.115 			"/>
		</g>
		<g>
			<polygon style="fill:#CC937A;" points="742.246,221.499 744.394,207.888 731.066,201.464 719.92,215.41 729.923,224.543 			"/>
			<polygon style="fill:#D7E8F4;" points="719.455,349.566 746.763,290.149 726.849,224.614 744.394,220.13 769.17,297.28 
				740.118,374.43 723.447,350.312 			"/>
			<g>
				<g>
					<path style="fill:#CC937A;" d="M764.156,681.031c0.029-0.04,0.048-0.068,0.048-0.068l-0.054-0.016l-2.641-34.606l-17.115,3.673
						l8.486,30.134l-4.368,9.167c0,0-1.669,4.597-0.109,4.123c1.559-0.474,8.313-2.359,8.842-2.86
						c0.448-0.425,5.125-7.021,6.548-9.034L764.156,681.031z"/>
					<polygon style="fill:#CC937A;" points="687.867,655.601 690.562,679.161 686.084,685.38 686.553,689.477 698.552,685.511 
						703.952,682.818 704.3,649.57 					"/>
					<polygon style="fill:#96BFEE;" points="708.176,479.062 716.6,545.685 721.818,570.534 744.651,662.342 765.453,658.07 
						755.818,557.63 760.528,493.747 762.383,476.962 767.502,456.723 					"/>
					<polygon style="fill:#96BFEE;" points="665.719,482.524 669.083,550.344 686.185,663.576 706.672,661.233 707.31,594.226 
						718.406,468.948 694.977,459.175 676.231,454.055 					"/>
					<path style="fill:#154E93;" d="M690.562,679.161l-15.832,15.82l1.215,6.087l12.804-1.464l16.754-12.294l0.028-8.824
						l-1.712-1.361c0,0-15.511,9.557-16.594,9.162C686.143,685.892,690.562,679.161,690.562,679.161z"/>
					<path style="fill:#154E93;" d="M752.86,680.306l-8.031,8.608l-4.86,3.862l1.984,6.626l7.11,1.24l18.731-11.384l-1.718-8.149
						l-1.766-1.878c0,0-7.334,6.047-14.226,9.554C748.135,689.776,752.86,680.306,752.86,680.306z"/>
					<path style="fill:#D7E8F4;" d="M686.686,348.804c0,0,7.217-8.568,34.539-8.568c27.322,0,47.727,86.529,46.696,102.059
						c-1.031,15.53,2.793,50.531,2.793,50.531l-63.923-16.035c0,0-36.074,0.068-44.838,8.636
						c-8.763,8.568,17.057-61.147,17.573-77.212C680.041,392.149,677.922,356.837,686.686,348.804z"/>
					<polygon style="fill:#FFFFFF;" points="716.143,342.187 718.647,342.298 710.552,411.247 696.48,381.992 693.903,350.546 
						696.48,345.906 					"/>
					<g>
						<path style="fill:#CC937A;" d="M679.674,314.546c-1.686-20.9,25.276-24.567,37.288-10.547
							c7.835,9.145,5.665,26.401-3.946,34.208c0.133,0.436,0.267,0.84,0.409,1.17c0.732,1.697,1.253,3.459,1.741,5.261
							c0.182,0.672-10.192,3.013-11.35,3.269c-0.406,0.09-0.866,0.17-1.204-0.055c-0.648-0.432-0.794-2.476-1.015-3.174
							c-0.261-0.824-0.523-1.649-0.785-2.473c-6.544-0.277-12.397-4.399-15.841-9.692
							C681.51,327.192,680.18,320.826,679.674,314.546z"/>
						<g>
							<path style="fill:#3B455A;" d="M688.153,291.291c1.856,0.744,3.157,2.345,4.292,3.932c0.678,0.948,1.34,1.945,1.568,3.077
								c0.91,4.514-3.275,6.085-5.858,8.796c-3.186,3.344-5.232,7.832-5.899,12.262c-1.044,6.938,3.555,13.271,7.564,18.67
								c1.413,1.902,3.771,4.619,2.954,7.223c-0.83,2.646-4.814,4.033-7.242,3.919c-2.219-0.105-4.446-1.118-6.596-0.578
								c-2.276,0.571-4.735,2.755-6.572,1.24c-0.511-0.421-0.826-1.072-1.389-1.416c-1.904-1.164-3.962,2.072-6.129,1.612
								c-1.333-0.283-2.002-1.835-2.194-3.21c-0.192-1.375-0.156-2.87-0.939-4.012c-0.674-0.982-1.816-1.491-2.719-2.257
								c-1.784-1.513-2.553-4.163-1.858-6.402c1.292-4.163,6.596-5.797,8.153-9.862c0.811-2.118,0.443-4.501,0.104-6.76
								c-0.339-2.259-0.618-4.676,0.342-6.726c1.186-2.533,4.091-3.459,5.114-6.296c0.601-1.667,0.675-3.527,1.479-5.1
								c1.06-2.074,3.833-4.523,5.585-6.11C680.693,290.777,684.64,289.883,688.153,291.291z"/>
							<path style="fill:#3B455A;" d="M715.99,313.662c2.724,5.932,2.576,13.695,7.631,17.756c5.1,4.098,12.45,2.029,18.477-0.273
								c0.992-0.379,13.677-4.835,13.878-5.006c6.488-5.492-0.446-9.268-1.196-13.852c-1.079-6.59,9.231-5.559,6.952-11.31
								c-1.294,0.317-2.544-0.891-2.947-2.193s-0.249-2.703-0.398-4.058c-0.367-3.33-2.749-6.362-5.859-7.457
								c-6.205-2.184-13.455,3.015-19.297-0.055c-3.623-1.904-5.198-6.271-7.987-9.309c-5.393-5.873-13.59-4.015-20.608-4.666
								c-7.408-0.687-13.818-0.038-20.206,4.119c-7.92,5.153-10.47,16.621-3.603,23.365c8.808,8.65,25.303,0.368,33.12,9.643
								C714.786,311.362,715.445,312.475,715.99,313.662z"/>
						</g>
					</g>
				</g>
			</g>
			<g>
				<g>
					
						<rect x="615.143" y="505.241" transform="matrix(0.9933 -0.1154 0.1154 0.9933 -58.7799 82.4169)" style="fill:#3B455A;" width="134.697" height="87.364"/>
					<g>
						<path style="fill:#3B455A;" d="M704.296,501.38l-7.313,0.85l-1.708-14.707l-39.301,4.565l1.546,13.312l-7.313,0.85
							l-1.779-15.312c-0.366-3.147,1.762-5.981,4.752-6.328l43.099-5.007c2.99-0.347,5.71,1.923,6.076,5.07L704.296,501.38z"/>
					</g>
					<polygon style="fill:#3B455A;" points="746.721,518.169 683.052,536.238 612.923,533.711 610.028,508.789 743.826,493.246 
											"/>
					<path style="fill:#BCBEC0;" d="M689.733,531.56l-18.099,2.102l1.016,9.807l6.04-0.702l0.308,2.653
						c0.086,0.736,0.723,1.267,1.424,1.186l3.553-0.413c0.701-0.081,1.2-0.744,1.114-1.48l-0.308-2.653l6.029-0.7L689.733,531.56z"
						/>
				</g>
			</g>
			<polygon style="fill:#D7E8F4;" points="688.232,388.342 690.769,346.586 675.86,354.318 645.445,407.931 666.564,483.654 
				678.813,481.344 676.805,450.797 667.653,415.477 668.127,415.148 			"/>
			<path style="fill:#CC937A;" d="M669.692,495.635c0.025,0.133-3.703-3.594-3.703-3.594l0.575-8.387l12.25-2.309l2.086,3.773
				L669.692,495.635z"/>
		</g>
	</g>
</g>
</svg>
