<?xml version="1.0" encoding="utf-8"?>
<!-- Generator: Adobe Illustrator 27.5.0, SVG Export Plug-In . SVG Version: 6.00 Build 0)  -->
<svg version="1.1" xmlns="http://www.w3.org/2000/svg" xmlns:xlink="http://www.w3.org/1999/xlink" x="0px" y="0px"
	 viewBox="0 0 500 500" style="enable-background:new 0 0 500 500;" xml:space="preserve">
<g id="Floor">
	<ellipse id="Floor_6_" style="fill:#F0F0F0;" cx="253.616" cy="341.264" rx="231.974" ry="133.93"/>
</g>
<g id="Shadows">
	<ellipse id="Shadow_5_" style="fill:#E0E0E0;" cx="403.814" cy="357.178" rx="62.816" ry="36.267"/>
	<path id="Shadow" style="fill:#E0E0E0;" d="M54.757,367.608l19.697,11.376c1.474,0.851,3.864,0.852,5.338,0l230.022-132.805
		c1.474-0.851,1.474-2.231,0-3.082l-19.7-11.374c-1.474-0.851-3.864-0.851-5.338,0L54.757,364.525
		C53.283,365.376,53.283,366.756,54.757,367.608z"/>
	<path id="Shadow_3_" style="fill:#E0E0E0;" d="M320.056,415.167l-88.346,51.007c-1.184,0.683-3.103,0.683-4.287,0L108.199,397.34
		c-1.184-0.684-1.184-1.792,0-2.475l88.346-51.007c1.184-0.683,3.103-0.683,4.287,0l119.225,68.834
		C321.24,413.375,321.24,414.483,320.056,415.167z"/>
	<path id="Shadow_32_" style="opacity:0.1;fill:#455A64;" d="M372.008,281.111l-8.837-5.102c-1.667-0.963-3.723-0.956-5.384,0.017
		l-110,64.351l-10.358,12.197c-0.504,0.594,0.057,1.483,0.81,1.284l22.549-5.973l111.22-64.186
		C373.004,283.123,373.004,281.686,372.008,281.111z"/>
</g>
<g id="Clouds">
	<g id="Clouds_11_">
		<g>
			<g id="XMLID_61_">
				<path style="fill:#EBEBEB;" d="M104.041,62.258l-3.903,1.3v-7.446c0-5.903-5.437-7.318-11.339-4.367l0,0
					c-5.902,2.951-10.688,10.129-10.688,16.032v1.081c-1.339-0.462-3.068-0.283-4.96,0.662h0c-4.247,2.124-7.691,7.289-7.691,11.536
					v0.491l-5.442,2.721c-2.797,1.399-5.065,4.8-5.065,7.597c0,2.797,2.268,3.931,5.065,2.532l44.022-22.011
					c2.797-1.399,5.065-4.8,5.065-7.597C109.106,61.993,106.839,60.859,104.041,62.258z"/>
			</g>
			<g id="XMLID_60_">
				<path style="fill:#EBEBEB;" d="M149.388,79.033l-7.075,3.537c0.035-0.274,0.059-0.545,0.059-0.811v-1.775
					c0-3.159-2.561-4.439-5.72-2.86c-1.279,0.639-2.456,1.653-3.409,2.839c-0.517-3.972-4.116-5.452-8.487-3.266
					c-4.726,2.363-8.557,8.11-8.557,12.836v2.656c0,1.224,0.261,2.255,0.725,3.076l-5.877,2.938
					c-1.752,0.876-3.173,3.007-3.173,4.759c0,1.752,1.42,2.462,3.173,1.586l38.34-19.17c1.752-0.876,3.173-3.007,3.173-4.759
					C152.56,78.868,151.14,78.157,149.388,79.033z"/>
			</g>
		</g>
	</g>
</g>
<g id="Plants">
	<g id="Plants_4_">
		<g id="XMLID_1164_">
			<g id="XMLID_1165_">
				<g id="XMLID_1193_">
					<path id="XMLID_1195_" style="fill:#27DEBF;" d="M63.036,340.134l8.157-2.934c0,0,2.394-17.805,0.179-32.44
						c-3.314-21.9-21.85-43.103-35.06-47.203c-24.361-7.562-24.177,15.451-5.838,28.281
						C46.424,296.995,60.632,313.679,63.036,340.134z"/>
				</g>
				<g id="XMLID_1166_">
					<path id="XMLID_1185_" style="fill:#FFFFFF;" d="M67.036,339.119c-0.033-0.004-0.065-0.009-0.097-0.016
						c-0.517-0.113-0.845-0.624-0.731-1.142c4.373-20.032-11.159-57.847-33.036-69.072c-0.471-0.242-0.656-0.82-0.415-1.291
						c0.241-0.469,0.814-0.658,1.291-0.414c22.54,11.565,38.542,50.538,34.033,71.188C67.976,338.857,67.52,339.175,67.036,339.119z
						"/>
				</g>
			</g>
		</g>
		<g>
			<g id="XMLID_1160_">
				<g id="XMLID_1161_">
					<path id="XMLID_1163_" style="fill:#27DEBF;" d="M73.71,357.798c0.394-2.37,0.64-5.855,0.709-6.711
						c0.245-3.017-0.063-6.092-1.053-8.96c-0.438-1.268-1.309-2.494-1.467-3.787c-0.152-1.243,0.141-2.436-0.186-3.721
						c-0.644-2.533-2.29-4.833-4.571-6.137c-2.181-1.247-5.017-1.804-6.231-4.003c-0.817-1.48-0.629-3.282-0.562-4.972
						c0.102-2.585-0.209-5.364-1.869-7.349c-2.136-2.553-5.881-3.06-9.193-2.72c-3.312,0.34-6.589,1.336-9.907,1.065
						c-5.61-0.459-10.399-4.445-15.969-5.258c-1.969-0.287-3.986-0.165-5.934,0.239c-2.879,0.597-5.831,1.999-7.164,4.62
						c-1.22,2.4-0.797,5.406,0.593,7.712c1.548,2.568,4.026,4.18,6.591,5.591c2.678,1.473,4.577,2.944,3.271,6.289
						c-0.378,0.968-0.83,1.937-0.874,2.974c-0.078,1.832,1.17,3.516,2.73,4.481c1.56,0.965,3.399,1.348,5.196,1.714
						c2.122,0.433,4.244,0.865,6.365,1.298c1.852,0.378,4.13,1.221,4.222,3.109c0.057,1.17-0.815,2.152-1.267,3.233
						c-0.907,2.166-0.021,4.787,1.677,6.409c1.698,1.622,4.049,2.389,6.373,2.727c2.324,0.338,4.687,0.297,7.021,0.562
						c3.603,0.409,7.12,1.556,10.27,3.35c0.813,0.463,1.624,0.977,2.542,1.158C66.368,360.978,73.462,359.289,73.71,357.798z"/>
				</g>
			</g>
			<g id="XMLID_1191_" style="opacity:0.1;">
				<g id="XMLID_1192_">
					<path id="XMLID_1196_" d="M73.71,357.798c0.394-2.37,0.64-5.855,0.709-6.711c0.245-3.017-0.063-6.092-1.053-8.96
						c-0.438-1.268-1.309-2.494-1.467-3.787c-0.152-1.243,0.141-2.436-0.186-3.721c-0.644-2.533-2.29-4.833-4.571-6.137
						c-2.181-1.247-5.017-1.804-6.231-4.003c-0.817-1.48-0.629-3.282-0.562-4.972c0.102-2.585-0.209-5.364-1.869-7.349
						c-2.136-2.553-5.881-3.06-9.193-2.72c-3.312,0.34-6.589,1.336-9.907,1.065c-5.61-0.459-10.399-4.445-15.969-5.258
						c-1.969-0.287-3.986-0.165-5.934,0.239c-2.879,0.597-5.831,1.999-7.164,4.62c-1.22,2.4-0.797,5.406,0.593,7.712
						c1.548,2.568,4.026,4.18,6.591,5.591c2.678,1.473,4.577,2.944,3.271,6.289c-0.378,0.968-0.83,1.937-0.874,2.974
						c-0.078,1.832,1.17,3.516,2.73,4.481c1.56,0.965,3.399,1.348,5.196,1.714c2.122,0.433,4.244,0.865,6.365,1.298
						c1.852,0.378,4.13,1.221,4.222,3.109c0.057,1.17-0.815,2.152-1.267,3.233c-0.907,2.166-0.021,4.787,1.677,6.409
						c1.698,1.622,4.049,2.389,6.373,2.727c2.324,0.338,4.687,0.297,7.021,0.562c3.603,0.409,7.12,1.556,10.27,3.35
						c0.813,0.463,1.624,0.977,2.542,1.158C66.368,360.978,73.462,359.289,73.71,357.798z"/>
				</g>
			</g>
			<g id="XMLID_1123_">
				<path style="fill:#FFFFFF;" d="M69.865,360.006c-0.326-0.027-0.622-0.237-0.745-0.562c-7.976-21.07-26.938-37.917-53.392-47.435
					c-0.454-0.163-0.69-0.665-0.527-1.119c0.165-0.455,0.672-0.684,1.119-0.527c26.943,9.694,46.275,26.905,54.435,48.461
					c0.17,0.452-0.057,0.957-0.508,1.128C70.121,359.999,69.99,360.016,69.865,360.006z"/>
			</g>
		</g>
	</g>
</g>
<g id="Pencil_1_">
	<g id="Pencil">
		<path id="XMLID_689_" style="fill:#27DEBF;" d="M352.268,288.478l-1.825,1.062l-2.197,1.29l-87.864,51.112
			c0.674-1.543,0.117-4.611-1.473-7.549c-1.852-3.423-4.67-6.121-6.696-6.211l87.281-50.771l4.208-2.451
			C341.066,276.698,349.599,290.185,352.268,288.478z"/>
		<g>
			<path id="XMLID_686_" style="fill:#EBEBEB;" d="M343.431,275.119c1.159-0.725,3.195,1.442,5.146,4.195
				c2.601,3.651,4.724,8.493,3.189,9.457l-3.003,1.749l-1.085,0.607c1.535-0.964-0.585-5.809-3.187-9.46
				c-1.873-2.636-4.009-4.656-5.193-4.157l-0.012,0.007L343.431,275.119z"/>
			<path id="XMLID_685_" style="fill:#27DEBF;" d="M340.19,276.992c2.689-1.69,11.205,11.865,8.516,13.555l-4.075,2.382
				c2.689-1.69-5.826-15.243-8.515-13.553L340.19,276.992z"/>
			<path id="XMLID_684_" style="fill:#EBEBEB;" d="M332.235,281.642l4.022-2.352c2.628-1.678,10.977,11.326,8.752,13.419
				c-0.034,0.042-0.086,0.077-0.139,0.113l-4.069,2.337C343.437,293.422,334.903,279.935,332.235,281.642z"/>
		</g>
		<g id="XMLID_680_">
			<path id="XMLID_885_" style="fill:#FAFAFA;" d="M252.207,328.174l0.006,0.01l0-0.001l0.013-0.008
				C252.22,328.175,252.214,328.174,252.207,328.174l-12.048,13.85h0L252.207,328.174z"/>
			<polygon id="XMLID_889_" style="fill:#E0E0E0;" points="240.16,342.024 237.237,345.384 240.16,342.024 			"/>
			<path style="fill:#FFA8A7;" d="M258.486,331.814c-1.672-2.107-3.935-3.627-6.259-3.639l-0.014,0.008v0l-0.006-0.009
				l-12.048,13.85c0.477,0.078,0.937,0.318,1.26,0.678c1.422,1.9,1.288,2.838,1.288,2.838l17.672-3.598
				C262.12,339.247,260.936,334.902,258.486,331.814z"/>
			<path style="fill:#37474F;" d="M241.42,342.702c-0.333-0.479-1.023-0.723-1.26-0.678l-2.923,3.36h0
				c-0.272,0.313-0.199,0.73,0.052,0.966c0.151,0.142,0.366,0.219,0.61,0.169l4.809-0.979
				C242.708,345.54,242.919,344.607,241.42,342.702z"/>
		</g>
		<path style="fill:#F28F8F;" d="M368.288,279.129l-16.018,9.359c-0.095,0.055-0.19,0.091-0.284,0.108
			c1.095-1.279-0.932-5.812-3.41-9.281c-1.799-2.535-3.935-4.494-5.145-4.195l16.703-9.768c3.658-2.55,8.473,4.357,9.438,9.304
			C369.953,276.524,369.641,278.174,368.288,279.129z"/>
		<path style="opacity:0.15;" d="M368.288,279.129c1.353-0.954,1.665-2.605,1.284-4.474c-0.045-0.233-0.107-0.475-0.17-0.716
			l-108.464,62.832l-23.649,9.579c0.151,0.142,0.366,0.219,0.61,0.169l4.809-0.979l17.672-3.598c0.003-0.005,0.004-0.01,0.007-0.015
			c-0.002,0.005-0.003,0.011-0.005,0.016L368.288,279.129z"/>
	</g>
</g>
<g id="Device">
	<g id="Device_3_">
		<g id="Device_1_">
			<path id="XMLID_1159_" style="fill:#455A64;" d="M299.791,46.976c-1.504-0.801-3.44-0.69-5.56,0.53L82.251,169.899
				c-2.305,1.331-4.401,3.748-5.967,6.608l-8.54-4.932c1.871-3.556,4.519-4.761,6.825-6.105L286.536,43.076
				c2.219-1.27,4.229-1.331,5.757-0.407v-0.012L299.791,46.976z"/>
			<path id="XMLID_1122_" style="fill:#263238;" d="M68.91,368.327v-0.012c-1.874-1.048-3.057-3.526-3.057-7.052V182.112
				c0-4.008,0.28-7.589,1.891-10.538l8.54,4.932c-0.222,0.407-0.432,0.826-0.641,1.258c-0.16,0.345-0.308,0.69-0.444,1.036
				c-0.025,0.049-0.049,0.111-0.062,0.16c-0.173,0.395-0.321,0.801-0.456,1.208c-0.148,0.419-0.283,0.851-0.395,1.27
				c-0.099,0.32-0.173,0.641-0.234,0.962c-0.333,1.381-0.505,2.786-0.505,4.142v179.151c0,3.563,1.208,6.065,3.107,7.101
				L68.91,368.327z"/>
			<path id="XMLID_7049_" style="fill:#37474F;" d="M294.227,47.518L80.334,170.83c-4.811,2.777-6.792,7.551-6.792,13.965v180.906
				c0,6.414,3.9,9.363,8.71,6.585l211.974-122.383c4.811-2.778,8.71-10.229,8.71-16.643V54.103
				C302.937,47.688,299.037,44.74,294.227,47.518z"/>
			<path id="XMLID_7048_" style="fill:#27DEBF;" d="M282.55,248.296l-188.621,108.9c-2.493,1.439-4.514-0.089-4.514-3.413V180.118
				c0-3.324,2.021-7.186,4.514-8.625l188.621-108.9c2.493-1.439,4.514,0.088,4.514,3.412v173.666
				C287.064,242.996,285.043,246.857,282.55,248.296z"/>
			<path id="XMLID_1120_" style="opacity:0.1;" d="M282.55,248.296l-188.621,108.9c-2.493,1.439-4.514-0.089-4.514-3.413V180.118
				c0-3.324,2.021-7.186,4.514-8.625l188.621-108.9c2.493-1.439,4.514,0.088,4.514,3.412v173.666
				C287.064,242.996,285.043,246.857,282.55,248.296z"/>
			<path id="XMLID_7045_" style="fill:#263238;" d="M83.75,276.98c0,1.672-1.017,3.615-2.271,4.339
				c-1.254,0.724-2.271-0.044-2.271-1.717c0-1.672,1.017-3.614,2.271-4.339C82.733,274.539,83.75,275.308,83.75,276.98z"/>
			<path id="XMLID_7042_" style="fill:#263238;" d="M81.479,247.894L81.479,247.894c-0.975,0.563-1.765,2.073-1.765,3.373v15.461
				c0,1.3,0.79,1.897,1.765,1.335l0,0c0.975-0.563,1.765-2.073,1.765-3.373v-15.461C83.244,247.929,82.454,247.331,81.479,247.894z"
				/>
		</g>
		<g id="Sheet">
			<path style="fill:#FAFAFA;" d="M280.298,79.828c-0.143-1.078-1.011-1.469-2.042-0.868L102.104,180.652
				c-0.563,0.334-1.078,0.897-1.46,1.546l-3.874-2.242c0.191-0.324,0.41-0.62,0.658-0.887c0.057-0.067,0.124-0.124,0.191-0.191
				c0.191-0.181,0.401-0.334,0.611-0.458L274.383,76.727c0.859-0.496,2.109-0.639,3.12-0.401c0.324,0.067,0.62,0.181,0.878,0.334
				c0.124,0.067,0.239,0.153,0.363,0.248c0.076,0.057,0.153,0.124,0.219,0.2c0.057,0.048,0.114,0.105,0.162,0.162
				c0.105,0.105,0.191,0.219,0.277,0.334c0.076,0.095,0.143,0.2,0.21,0.305c0.143,0.229,0.277,0.467,0.372,0.725
				c0.067,0.143,0.114,0.286,0.162,0.439c0.029,0.105,0.057,0.21,0.086,0.324C280.26,79.542,280.288,79.685,280.298,79.828z"/>
			<path style="fill:#E0E0E0;" d="M101.189,342.908c-0.677,0-1.147-0.54-1.147-1.476V184.233c0-0.658,0.229-1.393,0.601-2.032
				l-3.873-2.242c-0.237,0.393-0.413,0.849-0.518,1.279c-0.038,0.172-0.064,0.319-0.08,0.512c-0.007,0.086-0.01,0.163-0.01,0.249
				L96.168,339.2c0,1.317,0.859,2.882,1.937,3.502c0.639,0.372,1.525,0.501,2.375,0.417c1.099-0.109,1.594-0.482,1.623-0.492
				C101.654,342.879,101.285,342.908,101.189,342.908z"/>
			<path style="fill:#F0F0F0;" d="M280.317,80.157c0-1.317-0.925-1.851-2.061-1.193L102.103,180.656
				c-1.135,0.658-2.061,2.261-2.061,3.578v157.199c0,1.317,0.926,1.852,2.062,1.194l176.153-101.69
				c1.145-0.658,2.062-2.263,2.062-3.58L280.317,80.157z"/>
		</g>
		<g id="Report">
			<g>
				<g>
					<path style="fill:#27DEBF;" d="M127.768,224.573l-9.775,12.401l-5.706,7.24c-1.151-2.333-1.747-5.291-1.747-8.654
						c0-8.351,3.605-18.005,9.462-25.448l1.292,2.393L127.768,224.573z"/>
					<path style="fill:#27DEBF;" d="M136.139,199.63l-7.645,23.145l-3.454-6.412l-4.029-7.493c2.504-2.969,5.201-5.292,8.018-6.917
						C131.484,200.529,133.908,199.741,136.139,199.63z"/>
					<path style="fill:#27DEBF;" d="M144.885,204.811l-14.37,16.551l7.17-21.691C140.775,199.994,143.299,201.801,144.885,204.811z"
						/>
					<path style="fill:#27DEBF;" d="M146.793,213.748c0,12.633-8.301,27.71-18.51,33.597c-6.342,3.666-11.977,2.999-15.198-1.757
						l16.077-20.399l0.091-0.111l16.309-18.783C146.379,208.406,146.793,210.91,146.793,213.748z"/>
				</g>
				<g>
					<path style="opacity:0.7;fill:#FFFFFF;" d="M136.139,199.63l-7.645,23.145l-3.454-6.412l-4.029-7.493
						c2.504-2.969,5.201-5.292,8.018-6.917C131.484,200.529,133.908,199.741,136.139,199.63z"/>
					<path style="opacity:0.3;" d="M144.885,204.811l-14.37,16.551l7.17-21.691C140.775,199.994,143.299,201.801,144.885,204.811z"
						/>
					<path style="opacity:0.5;fill:#FFFFFF;" d="M146.793,213.748c0,12.633-8.301,27.71-18.51,33.597
						c-6.342,3.666-11.977,2.999-15.198-1.757l16.077-20.399l0.091-0.111l16.309-18.783
						C146.379,208.406,146.793,210.91,146.793,213.748z"/>
				</g>
			</g>
			<g>
				<path style="fill:#455A64;" d="M113.099,189.442c0.377-0.218,0.716-0.352,1.013-0.401c0.298-0.048,0.552-0.009,0.76,0.116
					c0.21,0.126,0.369,0.349,0.481,0.668c0.112,0.319,0.168,0.735,0.168,1.245c0,0.661-0.089,1.261-0.266,1.8
					c-0.178,0.539-0.43,1.017-0.756,1.434l1.065,2.532c0.018,0.043,0.025,0.087,0.025,0.131c0,0.079-0.019,0.158-0.056,0.237
					c-0.036,0.078-0.081,0.133-0.132,0.163l-1.169,0.674c-0.115,0.066-0.196,0.073-0.244,0.022
					c-0.049-0.051-0.088-0.108-0.116-0.171l-0.952-2.28l-0.79,0.456v2.83c0,0.097-0.023,0.194-0.07,0.291
					c-0.045,0.097-0.1,0.164-0.163,0.2l-1.125,0.649c-0.062,0.036-0.117,0.032-0.163-0.012c-0.046-0.043-0.068-0.114-0.068-0.211
					v-8.54c0-0.097,0.022-0.194,0.068-0.291c0.046-0.096,0.101-0.163,0.163-0.199L113.099,189.442z M112.129,194.008l0.97-0.56
					c0.24-0.139,0.44-0.325,0.597-0.556c0.157-0.232,0.235-0.533,0.235-0.903c0-0.37-0.078-0.581-0.235-0.631
					c-0.158-0.05-0.357-0.006-0.597,0.133l-0.97,0.56V194.008z"/>
				<path style="fill:#455A64;" d="M121.238,191.882c0.063-0.036,0.118-0.033,0.164,0.011c0.045,0.045,0.069,0.115,0.069,0.212
					v1.401c0,0.097-0.024,0.194-0.069,0.29c-0.046,0.097-0.101,0.164-0.164,0.201l-4.07,2.35c-0.063,0.036-0.117,0.032-0.163-0.012
					c-0.046-0.043-0.069-0.114-0.069-0.211v-8.54c0-0.097,0.023-0.194,0.069-0.291c0.046-0.096,0.1-0.163,0.163-0.199l4.002-2.31
					c0.062-0.036,0.117-0.033,0.162,0.011c0.047,0.044,0.07,0.115,0.07,0.212v1.401c0,0.097-0.023,0.194-0.07,0.291
					c-0.045,0.097-0.1,0.164-0.162,0.2l-2.644,1.527v1.428l2.455-1.418c0.063-0.036,0.117-0.032,0.163,0.012
					c0.046,0.044,0.068,0.114,0.068,0.211v1.402c0,0.097-0.022,0.193-0.068,0.29c-0.047,0.097-0.101,0.164-0.163,0.2l-2.455,1.418
					v1.48L121.238,191.882z"/>
				<path style="fill:#455A64;" d="M125.575,182.239c0.366-0.212,0.696-0.338,0.988-0.379c0.292-0.04,0.54,0.01,0.746,0.151
					c0.207,0.141,0.366,0.373,0.477,0.697c0.112,0.323,0.167,0.74,0.167,1.252c0,0.52-0.055,1.006-0.167,1.458
					c-0.111,0.453-0.27,0.866-0.477,1.241c-0.206,0.375-0.455,0.713-0.746,1.013c-0.292,0.3-0.621,0.556-0.988,0.768l-1.099,0.634
					v2.698c0,0.097-0.023,0.194-0.07,0.291c-0.045,0.097-0.1,0.164-0.163,0.2l-1.125,0.649c-0.063,0.036-0.117,0.032-0.163-0.012
					c-0.046-0.043-0.069-0.114-0.069-0.211v-8.54c0-0.097,0.023-0.194,0.069-0.291c0.046-0.096,0.1-0.163,0.163-0.199
					L125.575,182.239z M124.476,187.011l1.056-0.61c0.24-0.139,0.439-0.334,0.596-0.589c0.158-0.254,0.237-0.566,0.237-0.936
					c0-0.37-0.079-0.591-0.237-0.663c-0.157-0.072-0.356-0.04-0.596,0.099l-1.056,0.61V187.011z"/>
				<path style="fill:#455A64;" d="M129.01,183.706c0.017-0.504,0.087-1.009,0.211-1.516c0.123-0.507,0.297-0.987,0.524-1.439
					c0.226-0.452,0.501-0.867,0.825-1.243c0.322-0.376,0.696-0.686,1.12-0.931c0.418-0.241,0.79-0.361,1.117-0.361
					c0.325,0.001,0.602,0.098,0.828,0.288c0.226,0.191,0.401,0.47,0.524,0.834c0.123,0.365,0.193,0.79,0.211,1.273
					c0.011,0.373,0.017,0.766,0.017,1.18c0,0.415-0.006,0.805-0.017,1.174c-0.018,0.504-0.088,1.009-0.211,1.516
					c-0.123,0.507-0.297,0.989-0.524,1.446c-0.226,0.457-0.503,0.872-0.828,1.245c-0.327,0.374-0.699,0.681-1.117,0.923
					c-0.424,0.245-0.798,0.368-1.12,0.369c-0.323,0.001-0.599-0.095-0.825-0.291c-0.226-0.196-0.401-0.476-0.524-0.841
					c-0.124-0.366-0.194-0.789-0.211-1.273c-0.011-0.355-0.017-0.739-0.017-1.154C128.993,184.492,128.999,184.092,129.01,183.706z
					 M132.78,183.817c0.006-0.163,0.011-0.342,0.017-0.539c0.006-0.197,0.009-0.397,0.009-0.6c0-0.203-0.004-0.397-0.009-0.584
					c-0.006-0.186-0.011-0.352-0.017-0.499c-0.011-0.213-0.042-0.399-0.09-0.556c-0.048-0.156-0.117-0.278-0.206-0.364
					c-0.089-0.085-0.199-0.129-0.331-0.132c-0.131-0.003-0.286,0.046-0.464,0.149c-0.177,0.103-0.332,0.232-0.463,0.387
					c-0.132,0.156-0.242,0.327-0.331,0.514c-0.089,0.188-0.158,0.389-0.206,0.601c-0.049,0.214-0.079,0.434-0.09,0.661
					c-0.011,0.157-0.019,0.33-0.021,0.521c-0.003,0.191-0.005,0.388-0.005,0.591c0,0.202,0.002,0.4,0.005,0.592
					c0.003,0.192,0.01,0.364,0.021,0.517c0.022,0.428,0.122,0.736,0.296,0.926c0.174,0.191,0.439,0.184,0.794-0.021
					c0.355-0.205,0.619-0.503,0.79-0.893C132.65,184.697,132.751,184.274,132.78,183.817z"/>
				<path style="fill:#455A64;" d="M138.36,174.857c0.378-0.218,0.717-0.352,1.014-0.401c0.298-0.048,0.552-0.009,0.76,0.117
					c0.209,0.126,0.369,0.349,0.481,0.668c0.112,0.319,0.167,0.735,0.167,1.245c0,0.661-0.089,1.261-0.267,1.8
					c-0.177,0.538-0.429,1.016-0.755,1.434l1.064,2.532c0.018,0.043,0.026,0.087,0.026,0.13c0,0.079-0.019,0.158-0.056,0.237
					c-0.037,0.078-0.081,0.133-0.133,0.163l-1.167,0.674c-0.115,0.066-0.196,0.073-0.244,0.022
					c-0.049-0.051-0.089-0.108-0.117-0.171l-0.953-2.279l-0.79,0.456v2.83c0,0.097-0.023,0.194-0.069,0.291
					c-0.046,0.097-0.1,0.164-0.163,0.2l-1.125,0.649c-0.063,0.036-0.117,0.032-0.163-0.012c-0.047-0.043-0.069-0.114-0.069-0.211
					v-8.54c0-0.097,0.022-0.194,0.069-0.291c0.046-0.096,0.1-0.163,0.163-0.199L138.36,174.857z M137.39,179.423l0.97-0.56
					c0.24-0.139,0.44-0.325,0.597-0.556c0.158-0.231,0.236-0.533,0.236-0.903s-0.078-0.581-0.236-0.631
					c-0.158-0.05-0.357-0.006-0.597,0.133l-0.97,0.56V179.423z"/>
				<path style="fill:#455A64;" d="M146.561,170.122c0.062-0.036,0.117-0.032,0.163,0.011c0.046,0.044,0.068,0.115,0.068,0.212
					v1.401c0,0.097-0.022,0.194-0.068,0.29c-0.047,0.097-0.101,0.164-0.163,0.2l-1.511,0.872v6.782c0,0.097-0.023,0.194-0.069,0.29
					c-0.046,0.097-0.101,0.164-0.164,0.201l-1.125,0.649c-0.063,0.036-0.117,0.032-0.163-0.012
					c-0.046-0.043-0.069-0.114-0.069-0.211v-6.782l-1.511,0.873c-0.062,0.036-0.116,0.032-0.163-0.012
					c-0.046-0.043-0.068-0.114-0.068-0.211v-1.401c0-0.097,0.022-0.194,0.068-0.291c0.047-0.096,0.101-0.163,0.163-0.199
					L146.561,170.122z"/>
			</g>
			<polygon style="fill:#27DEBF;" points="154.544,165.518 266.937,100.627 266.937,109.578 154.544,174.468 			"/>
			<g style="opacity:0.3;">
				<g>
					<path style="fill:#455A64;" d="M153.853,193.714c-0.33,0-0.65-0.171-0.827-0.477c-0.264-0.457-0.107-1.04,0.349-1.304
						l65.886-38.039c0.454-0.263,1.039-0.108,1.303,0.349c0.264,0.456,0.107,1.04-0.349,1.303l-65.886,38.039
						C154.179,193.673,154.015,193.714,153.853,193.714z"/>
				</g>
				<g>
					<path style="fill:#455A64;" d="M153.853,202.665c-0.33,0-0.65-0.171-0.827-0.477c-0.264-0.456-0.107-1.04,0.349-1.303
						l65.886-38.04c0.454-0.263,1.039-0.108,1.303,0.349c0.264,0.457,0.107,1.04-0.349,1.303l-65.886,38.04
						C154.179,202.624,154.015,202.665,153.853,202.665z"/>
				</g>
				<g>
					<path style="fill:#455A64;" d="M153.853,211.615c-0.33,0-0.65-0.171-0.827-0.477c-0.264-0.457-0.107-1.04,0.349-1.304
						l65.886-38.039c0.454-0.264,1.039-0.107,1.303,0.349c0.264,0.456,0.107,1.04-0.349,1.303l-65.886,38.039
						C154.179,211.574,154.015,211.615,153.853,211.615z"/>
				</g>
				<g>
					<path style="fill:#455A64;" d="M153.853,220.565c-0.33,0-0.65-0.171-0.827-0.477c-0.264-0.457-0.107-1.04,0.349-1.304
						l65.886-38.039c0.454-0.264,1.039-0.108,1.303,0.349c0.264,0.456,0.107,1.04-0.349,1.303l-65.886,38.039
						C154.179,220.524,154.015,220.565,153.853,220.565z"/>
				</g>
				<g>
					<path style="fill:#455A64;" d="M153.853,229.515c-0.33,0-0.65-0.171-0.827-0.477c-0.264-0.456-0.107-1.04,0.349-1.303
						l65.886-38.039c0.454-0.264,1.039-0.108,1.303,0.349c0.264,0.456,0.107,1.04-0.349,1.303l-65.886,38.039
						C154.179,229.474,154.015,229.515,153.853,229.515z"/>
				</g>
			</g>
			<g>
				<path style="fill:#27DEBF;" d="M229.214,144.725l8.477-4.894c0.57-0.329,1.033-0.062,1.033,0.596l0,9.788
					c0,0.659-0.462,1.46-1.033,1.789l-8.477,4.894c-0.57,0.329-1.033,0.062-1.033-0.596v-9.789
					C228.181,145.855,228.643,145.054,229.214,144.725z"/>
				<path style="fill:#27DEBF;" d="M243.271,136.609l8.477-4.894c0.57-0.329,1.033-0.062,1.033,0.596l0,9.788
					c0,0.659-0.462,1.46-1.033,1.789l-8.477,4.894c-0.571,0.329-1.033,0.062-1.033-0.596v-9.788
					C242.238,137.739,242.7,136.939,243.271,136.609z"/>
				<path style="fill:#27DEBF;" d="M257.328,128.493l8.477-4.894c0.57-0.329,1.033-0.062,1.033,0.596l0,9.788
					c0,0.659-0.462,1.46-1.033,1.789l-8.477,4.894c-0.571,0.329-1.033,0.062-1.033-0.596v-9.788
					C256.295,129.624,256.757,128.823,257.328,128.493z"/>
				<path style="fill:#27DEBF;" d="M229.214,160.956l8.477-4.894c0.57-0.329,1.033-0.062,1.033,0.596l0,9.788
					c0,0.659-0.462,1.46-1.033,1.789l-8.477,4.894c-0.57,0.329-1.033,0.062-1.033-0.596v-9.788
					C228.181,162.087,228.643,161.286,229.214,160.956z"/>
				<path style="fill:#27DEBF;" d="M243.271,152.841l8.477-4.894c0.57-0.329,1.033-0.062,1.033,0.596l0,9.788
					c0,0.659-0.462,1.46-1.033,1.789l-8.477,4.894c-0.571,0.329-1.033,0.062-1.033-0.596v-9.788
					C242.238,153.971,242.7,153.17,243.271,152.841z"/>
				<path style="fill:#27DEBF;" d="M257.328,144.725l8.477-4.894c0.57-0.329,1.033-0.062,1.033,0.596l0,9.788
					c0,0.659-0.462,1.46-1.033,1.789l-8.477,4.894c-0.571,0.329-1.033,0.062-1.033-0.596v-9.788
					C256.295,145.855,256.757,145.054,257.328,144.725z"/>
				<path style="fill:#27DEBF;" d="M229.214,177.188l8.477-4.894c0.57-0.329,1.033-0.062,1.033,0.596l0,9.788
					c0,0.659-0.462,1.46-1.033,1.789l-8.477,4.894c-0.57,0.329-1.033,0.062-1.033-0.596v-9.788
					C228.181,178.318,228.643,177.518,229.214,177.188z"/>
				<path style="fill:#27DEBF;" d="M243.271,169.072l8.477-4.894c0.57-0.329,1.033-0.062,1.033,0.596l0,9.788
					c0,0.659-0.462,1.46-1.033,1.789l-8.477,4.894c-0.571,0.329-1.033,0.062-1.033-0.596v-9.788
					C242.238,170.203,242.7,169.402,243.271,169.072z"/>
				<path style="fill:#27DEBF;" d="M257.328,160.957l8.477-4.894c0.57-0.329,1.033-0.062,1.033,0.596l0,9.788
					c0,0.659-0.462,1.46-1.033,1.789l-8.477,4.894c-0.571,0.329-1.033,0.062-1.033-0.596v-9.788
					C256.295,162.087,256.757,161.286,257.328,160.957z"/>
			</g>
			<g>
				<polygon style="fill:#455A64;" points="111.912,319.912 220.43,257.259 220.43,261.734 111.912,324.387 				"/>
				<polygon style="fill:#27DEBF;" points="111.912,315.437 111.912,288.585 121.471,294.104 130.675,277.042 141.655,283.382 
					146.793,277.397 154.544,281.873 165.818,265.025 174.815,268.781 185.549,246.071 193.064,259.118 203.32,244.246 
					207.143,251.505 220.43,230.408 220.43,252.784 				"/>
				<g>
					<polygon style="fill:#27DEBF;" points="111.912,286.086 120.829,290.823 130.076,273.624 141.118,280 146.078,274.211 
						153.829,278.686 164.925,262.454 173.923,266.21 185.549,241.596 193.301,255.022 203.557,240.15 207.309,247.406 
						220.43,226.572 220.43,208.032 206.709,229.421 201.052,219.22 193.301,232.645 185.549,228.171 177.798,241.596 
						170.047,237.121 158.419,257.259 150.668,250.546 142.989,261.693 130.873,255.022 121.071,271.497 111.912,266.21 					"/>
					<polygon style="opacity:0.3;" points="111.912,286.086 120.829,290.823 130.076,273.624 141.118,280 146.078,274.211 
						153.829,278.686 164.925,262.454 173.923,266.21 185.549,241.596 193.301,255.022 203.557,240.15 207.309,247.406 
						220.43,226.572 220.43,208.032 206.709,229.421 201.052,219.22 193.301,232.645 185.549,228.171 177.798,241.596 
						170.047,237.121 158.419,257.259 150.668,250.546 142.989,261.693 130.873,255.022 121.071,271.497 111.912,266.21 					"/>
				</g>
			</g>
			<g style="opacity:0.3;">
				<g>
					<path style="fill:#455A64;" d="M228.182,204.511c-0.33,0-0.65-0.171-0.827-0.477c-0.264-0.457-0.107-1.04,0.349-1.304
						l38.757-22.376c0.455-0.264,1.039-0.107,1.303,0.35c0.264,0.456,0.107,1.04-0.349,1.303l-38.757,22.376
						C228.508,204.47,228.344,204.511,228.182,204.511z"/>
				</g>
				<g>
					<path style="fill:#455A64;" d="M228.182,213.461c-0.33,0-0.65-0.171-0.827-0.477c-0.264-0.456-0.107-1.04,0.349-1.303
						l38.757-22.376c0.455-0.264,1.039-0.108,1.303,0.349c0.264,0.457,0.107,1.04-0.349,1.304l-38.757,22.376
						C228.508,213.42,228.344,213.461,228.182,213.461z"/>
				</g>
				<g>
					<path style="fill:#455A64;" d="M228.182,222.411c-0.33,0-0.65-0.171-0.827-0.477c-0.264-0.457-0.107-1.04,0.349-1.304
						l38.757-22.376c0.455-0.264,1.039-0.108,1.303,0.349c0.264,0.456,0.107,1.04-0.349,1.303l-38.757,22.376
						C228.508,222.37,228.344,222.411,228.182,222.411z"/>
				</g>
				<g>
					<path style="fill:#455A64;" d="M228.182,231.362c-0.33,0-0.65-0.171-0.827-0.478c-0.264-0.456-0.107-1.039,0.349-1.303
						l38.757-22.376c0.455-0.264,1.039-0.108,1.303,0.349c0.264,0.456,0.107,1.04-0.349,1.303l-38.757,22.376
						C228.508,231.32,228.344,231.362,228.182,231.362z"/>
				</g>
				<g>
					<path style="fill:#455A64;" d="M228.182,240.312c-0.33,0-0.65-0.171-0.827-0.477c-0.264-0.457-0.107-1.04,0.349-1.303
						l38.757-22.376c0.455-0.264,1.039-0.108,1.303,0.349c0.264,0.456,0.107,1.04-0.349,1.303l-38.757,22.376
						C228.508,240.271,228.344,240.312,228.182,240.312z"/>
				</g>
				<g>
					<path style="fill:#455A64;" d="M228.182,249.262c-0.33,0-0.65-0.17-0.827-0.477c-0.264-0.457-0.107-1.04,0.349-1.304
						l38.757-22.376c0.455-0.263,1.039-0.107,1.303,0.349c0.264,0.457,0.107,1.04-0.349,1.304l-38.757,22.376
						C228.508,249.221,228.344,249.262,228.182,249.262z"/>
				</g>
				<g>
					<path style="fill:#455A64;" d="M228.182,258.212c-0.33,0-0.65-0.171-0.827-0.477c-0.264-0.457-0.107-1.04,0.349-1.304
						l38.757-22.376c0.455-0.264,1.039-0.108,1.303,0.349c0.264,0.456,0.107,1.04-0.349,1.303l-38.757,22.376
						C228.508,258.171,228.344,258.212,228.182,258.212z"/>
				</g>
			</g>
		</g>
	</g>
</g>
<g id="Clipboard_1_">
	<g id="Clipboard">
		<g id="List">
			<g id="XMLID_317_">
				<path id="XMLID_2890_" style="fill:#27DEBF;" d="M110.855,389.927v2.101c0,0.662,0.465,1.467,1.038,1.798l116.749,67.406
					c0.574,0.331,1.503,0.331,2.077,0l83.633-48.286c0.573-0.331,1.038-1.136,1.038-1.798v-2.102c0-0.662-0.465-1.467-1.038-1.798
					l-116.749-67.405c-0.573-0.331-1.503-0.331-2.076,0l-83.633,48.286C111.319,388.46,110.855,389.265,110.855,389.927z"/>
				<path id="XMLID_732_" style="opacity:0.5;" d="M314.491,407.343c0.429,0.331,0.381,0.807-0.139,1.105l-83.634,48.286
					c-0.285,0.168-0.657,0.246-1.036,0.25l-0.002,4.501c0.378-0.003,0.746-0.084,1.036-0.249l83.634-48.286
					c0.574-0.333,1.04-1.138,1.038-1.798l0.002-2.103C315.39,408.443,314.998,407.713,314.491,407.343z"/>
				<path id="XMLID_731_" style="opacity:0.6;" d="M111.73,388.246c-0.022,0.009-0.038,0.028-0.052,0.042
					c-0.029,0.022-0.059,0.044-0.086,0.072c-0.011,0.01-0.023,0.02-0.034,0.03c-0.048,0.044-0.091,0.091-0.137,0.142l-0.012,0.021
					c-0.273,0.319-0.471,0.73-0.531,1.122c-0.016,0.085-0.021,0.171-0.024,0.252l-0.002,2.103c0.005,0.662,0.466,1.465,1.039,1.796
					l116.75,67.406c0.286,0.166,0.664,0.251,1.04,0.252l0.002-4.501c-0.378,0.003-0.756-0.082-1.042-0.247l-116.75-67.406
					c-0.204-0.117-0.337-0.261-0.394-0.41c-0.072-0.191-0.032-0.395,0.124-0.571C111.653,388.312,111.689,388.278,111.73,388.246z"
					/>
			</g>
			<g id="XMLID_263_" style="opacity:0.3;">
				<path d="M110.933,389.411c-0.041,0.134-0.062,0.268-0.072,0.391c0.01-0.041,0.01-0.082,0.021-0.124
					C110.892,389.586,110.913,389.504,110.933,389.411z"/>
				<path d="M314.353,408.45l-83.633,48.283c-0.289,0.165-0.659,0.247-1.04,0.247c-0.371,0-0.752-0.082-1.04-0.247l-116.749-67.405
					c-0.206-0.113-0.34-0.257-0.391-0.412c-0.072-0.185-0.031-0.391,0.124-0.566c0.021-0.031,0.051-0.062,0.082-0.082
					c0-0.01,0.01-0.01,0.021-0.021c0.051-0.041,0.113-0.082,0.165-0.113l83.633-48.294c0.577-0.329,1.503-0.329,2.08,0
					l116.749,67.405c0.052,0.031,0.093,0.062,0.134,0.093l0.01,0.01C314.92,407.688,314.868,408.152,314.353,408.45z"/>
				<path style="opacity:0.15;" d="M111.489,388.464c-0.031,0.031-0.051,0.062-0.082,0.093l0.01-0.021
					C111.448,388.515,111.469,388.484,111.489,388.464z"/>
			</g>
			<g>
				<path style="fill:#263238;" d="M142.468,360.057c-0.008,1.885,2.622,3.859,3.346,5.534c0.063,0.145,0.113,0.286,0.153,0.423
					c-0.362,1.188-1.459,2.012-1.691,2.808c-0.059,0.192-0.083,0.369-0.084,0.543c-0.003,0.301-0.001,1.401,0,1.583
					c0.001,0.35,0.088,0.688,0.15,1.102c-0.05,0.339-0.134,0.719-0.273,1.159c-0.276,0.883-0.385,1.519-0.384,1.986
					c0,0.273,0.003,1.295,0.002,1.538c-0.005,0.91,0.395,1.197,0.788,1.423l4.685,2.705l35.046-20.239v-1.557l-4.681-2.702
					c-0.386-0.223-0.862-0.448-2.359-0.454c-0.097-0.001-0.201,0-0.309-0.001c-0.783,0.013-1.816,0.081-3.204,0.227
					c-2.634,0.273-4.1,0.191-5.277,0.12c-0.482-0.029-0.911-0.055-1.357-0.052c-0.309-0.001-0.623,0.011-0.967,0.045
					c-2.015,0.199-4.124,1.462-8.172,0.908c-0.038-0.005-0.088-0.012-0.126-0.017c-2.877-0.415-6.274-1.922-9.525-1.933
					c-0.108-0.002-0.212-0.001-0.324,0.001c-1.27,0.036-2.522,0.316-3.709,0.998c-1.26,0.728-1.726,1.5-1.73,2.288
					C142.464,358.769,142.469,359.811,142.468,360.057z M147.786,361.141c0.169-0.308,0.446-0.587,0.846-0.818
					c0.26-0.149,0.554-0.273,0.872-0.366c1.81-0.527,4.455-0.163,6.415,0.968c0.955,0.551,1.589,1.198,1.887,1.837
					c-0.169,0.306-0.445,0.584-0.843,0.814c-1.149,0.666-2.988,0.767-4.764,0.367c-0.892-0.199-1.762-0.524-2.53-0.968
					C148.715,362.426,148.083,361.78,147.786,361.141z"/>
				<path id="XMLID_737_" style="fill:#37474F;" d="M177.165,355.91c-0.097-0.001-0.201,0-0.309-0.001
					c-0.783,0.013-1.816,0.081-3.204,0.227c-2.634,0.273-4.1,0.191-5.278,0.12c-0.481-0.029-0.91-0.055-1.356-0.052
					c-0.309-0.001-0.623,0.011-0.967,0.045c-2.015,0.199-4.124,1.462-8.172,0.908c-0.038-0.005-0.088-0.012-0.126-0.017
					c-2.877-0.415-6.274-1.923-9.525-1.933c-0.108-0.002-0.212-0.001-0.324,0.001c-1.27,0.036-2.522,0.316-3.709,0.998
					c-4.281,2.474,0.591,5.452,1.618,7.828c1.035,2.381-1.195,3.612-1.538,4.788c-0.361,1.176,0.605,1.811-0.207,4.388
					c-0.805,2.575-0.188,3.048,0.406,3.391l4.685,2.705l35.046-20.239l-4.681-2.702C179.138,356.141,178.663,355.916,177.165,355.91
					z M150.895,375.611c-0.455,0.263-1.316,0.193-1.927-0.16c-0.606-0.35-0.738-0.852-0.283-1.116
					c0.462-0.265,1.32-0.19,1.931,0.162C151.222,374.848,151.357,375.346,150.895,375.611z M156.963,363.577
					c-1.149,0.665-2.988,0.767-4.764,0.367c-0.892-0.199-1.762-0.524-2.53-0.968c-2.301-1.328-2.763-3.212-1.037-4.209
					c0.26-0.149,0.554-0.273,0.872-0.366c1.81-0.528,4.455-0.164,6.415,0.968C158.219,360.697,158.689,362.58,156.963,363.577z
					 M177.935,359.998c-0.462,0.265-1.323,0.194-1.93-0.156c-0.61-0.353-0.733-0.85-0.271-1.115c0.455-0.263,1.316-0.193,1.927,0.16
					C178.267,359.237,178.39,359.734,177.935,359.998z"/>
			</g>
			<g id="XMLID_704_">
				<path id="XMLID_707_" style="fill:#FAFAFA;" d="M226.438,449.4l72.777-42.018c0.344-0.199,0.623-0.682,0.623-1.079l0-0.81
					c0-0.397-0.279-0.88-0.623-1.079L203.062,348.9c-0.344-0.199-0.902-0.199-1.246,0l-72.776,42.017
					c-0.344,0.199-0.623,0.682-0.623,1.079v0.812c0,0.397,0.279,0.88,0.623,1.079l96.151,55.513
					C225.536,449.598,226.094,449.598,226.438,449.4z"/>
				<path id="XMLID_706_" style="fill:#F0F0F0;" d="M299.367,404.527c0.182,0.194,0.132,0.442-0.15,0.605l-72.777,42.017
					c-0.174,0.099-0.398,0.152-0.623,0.15l-0.002,2.247c0.225,0.003,0.454-0.048,0.623-0.15l72.777-42.017
					c0.345-0.194,0.625-0.68,0.621-1.076l0.004-0.812C299.836,405.152,299.639,404.756,299.367,404.527z"/>
				<path id="XMLID_705_" style="fill:#E0E0E0;" d="M128.91,391.013c-0.061,0.048-0.116,0.105-0.169,0.168
					c-0.023,0.031-0.049,0.066-0.072,0.097c-0.071,0.103-0.131,0.218-0.177,0.335c-0.028,0.078-0.05,0.154-0.061,0.231
					c-0.007,0.051-0.011,0.105-0.011,0.154l-0.001,0.808c0.002,0.4,0.278,0.88,0.623,1.079l96.151,55.513
					c0.174,0.101,0.399,0.153,0.623,0.149l0.002-2.247c-0.226-0.003-0.452-0.051-0.623-0.149l-96.151-55.513
					C128.747,391.467,128.702,391.209,128.91,391.013z"/>
			</g>
			<g>
				<path style="fill:#37474F;" d="M153.709,380.855c0,0.268,0.001,1.313,0.001,1.568c-0.001,0.742,0.307,1.447,0.817,2.141
					l42.882-24.746v-1.557c-1.304-0.67-2.76-1.045-4.182-1.053c-0.018,0-0.037,0.001-0.056,0.001
					c-0.993,0.003-1.971,0.191-2.852,0.591c-3.106,1.413-4.016,1.857-5.918,2.658c-0.508,0.216-1.963,0.4-2.918-0.417
					c-0.029-0.017-0.044-0.036-0.066-0.054l-1.284-1.179l-3.471-3.216c0,0-0.434-0.527-1.646-0.524
					c-0.03-0.001-0.056,0.001-0.086,0.001c-0.241,0.005-0.512,0.031-0.818,0.087c-0.89,0.162-2.232,0.151-3.563-0.053
					c-1.523-0.231-3.031-0.715-3.865-1.478c-1.502-1.377-3.744-2.112-5.971-2.118c-0.06-0.001-0.12-0.003-0.175-0.001
					c-1.4,0.017-2.785,0.325-3.957,0.944c-2.078,1.096-2.977,2.884-2.593,4.63c-0.296,1.343,0.177,2.795,1.492,3.999
					c0.537,0.492,0.832,1.141,0.954,1.828c-0.13,0.794-0.439,1.522-0.838,1.993c-0.349,0.416-0.463,0.765-0.463,1.043
					c-0.001,0.367,0.001,1.327,0.001,1.559c0.001,0.51,0.382,0.779,0.382,0.779l4.02,3.683l1.284,1.179
					c0.052,0.047,0.096,0.096,0.136,0.146c-0.143,0.254-0.293,0.422-0.293,0.422l-5.188,4.048
					C154.221,378.89,153.71,379.903,153.709,380.855z M165.161,357.34c-0.229,0.618-0.732,1.182-1.506,1.589
					c-1.316,0.691-3.042,0.752-4.504,0.263c-0.643-0.222-1.242-0.551-1.714-0.984c-0.403-0.371-0.675-0.78-0.827-1.199
					c0.23-0.621,0.736-1.186,1.514-1.593c0.19-0.1,0.39-0.19,0.596-0.265c1.857-0.661,4.238-0.272,5.611,0.986
					C164.735,356.508,165.008,356.919,165.161,357.34z"/>
				<path id="XMLID_733_" style="fill:#455A64;" d="M193.227,357.208c-0.018,0-0.037,0.001-0.056,0.001
					c-0.993,0.003-1.971,0.191-2.852,0.591c-3.106,1.413-4.016,1.857-5.918,2.658c-0.508,0.216-1.964,0.4-2.918-0.417
					c-0.029-0.017-0.044-0.036-0.066-0.054l-1.284-1.179l-3.471-3.216c0,0-0.433-0.527-1.646-0.524
					c-0.03-0.001-0.056,0.001-0.086,0.001c-0.241,0.005-0.512,0.031-0.818,0.087c-0.89,0.162-2.232,0.151-3.563-0.053
					c-1.523-0.231-3.031-0.715-3.865-1.478c-1.502-1.377-3.744-2.112-5.971-2.118c-0.06-0.001-0.12-0.003-0.175-0.001
					c-1.4,0.017-2.785,0.325-3.957,0.944c-3.093,1.631-3.587,4.795-1.101,7.073c1.569,1.437,1.11,4.201,0.116,5.377
					c-0.993,1.182-0.081,1.825-0.081,1.825l4.02,3.683l1.284,1.179c0.966,0.879-0.157,2.124-0.157,2.124l-5.188,4.048
					c-2.238,2.02-2.117,3.662-0.949,5.25l42.882-24.746C196.105,357.591,194.65,357.216,193.227,357.208z M164.33,354.579
					c1.525,1.401,1.232,3.347-0.675,4.35c-1.316,0.691-3.042,0.752-4.504,0.263c-0.643-0.222-1.242-0.551-1.714-0.984
					c-1.525-1.401-1.224-3.348,0.687-4.349c0.19-0.101,0.39-0.19,0.596-0.265C160.576,352.932,162.958,353.321,164.33,354.579z"/>
			</g>
		</g>
		<g id="XMLID_20990_">
			<path id="XMLID_666_" style="opacity:0.1;fill:#27DEBF;" d="M162.145,403.776l22.754,13.137c0.408,0.235,1.068,0.235,1.476,0
				l31.409-18.133c0.408-0.235,0.408-0.617,0-0.852L195.03,384.79c-0.408-0.235-1.068-0.235-1.476,0l-31.409,18.133
				C161.737,403.159,161.737,403.541,162.145,403.776z"/>
			<g id="XMLID_20986_">
				<g id="XMLID_20972_">
					<polygon id="XMLID_634_" style="fill:#27DEBF;" points="185.641,413.344 168.333,403.352 169.525,402.664 186.833,412.656 
											"/>
					<polygon id="XMLID_631_" style="fill:#455A64;" points="186.572,414.193 188.303,413.194 188.833,413.5 187.102,414.499 					
						"/>
				</g>
				<g id="XMLID_20973_">
					<polygon id="XMLID_629_" style="fill:#27DEBF;" points="187.911,412.034 174.063,404.039 175.256,403.352 189.103,411.346 
											"/>
					<polygon id="XMLID_628_" style="fill:#455A64;" points="188.842,412.883 190.572,411.883 191.103,412.189 189.372,413.189 
											"/>
				</g>
			</g>
			<g id="XMLID_20985_">
				<g id="XMLID_20974_">
					<polygon id="XMLID_619_" style="fill:#27DEBF;" points="191.372,410.035 176.333,401.352 177.525,400.664 192.564,409.347 
											"/>
					<polygon id="XMLID_618_" style="fill:#455A64;" points="192.304,410.879 194.035,409.879 194.565,410.186 192.834,411.185 
											"/>
				</g>
				<g id="XMLID_20975_">
					<polygon id="XMLID_616_" style="fill:#27DEBF;" points="193.643,408.724 181.198,401.54 182.391,400.852 194.834,408.037 					
						"/>
					<polygon id="XMLID_615_" style="fill:#455A64;" points="194.574,409.568 196.304,408.569 196.835,408.875 195.104,409.874 
											"/>
				</g>
			</g>
			<g id="XMLID_20984_">
				<g id="XMLID_20976_">
					<polygon id="XMLID_613_" style="fill:#27DEBF;" points="197.107,406.727 190.168,402.722 191.361,402.034 198.299,406.04 					
						"/>
					<polygon id="XMLID_612_" style="fill:#455A64;" points="198.03,407.576 199.76,406.576 200.291,406.883 198.56,407.882 					
						"/>
				</g>
				<g id="XMLID_20977_">
					<polygon id="XMLID_609_" style="fill:#27DEBF;" points="199.378,405.417 191.5,400.87 192.692,400.182 200.569,404.73 					"/>
					<polygon id="XMLID_608_" style="fill:#455A64;" points="200.3,406.265 202.03,405.266 202.561,405.572 200.83,406.571 					"/>
				</g>
			</g>
			<g id="XMLID_20983_">
				<g id="XMLID_20978_">
					<polygon id="XMLID_604_" style="fill:#27DEBF;" points="202.836,403.417 193.344,397.937 194.537,397.25 204.027,402.729 					
						"/>
					<polygon id="XMLID_602_" style="fill:#455A64;" points="203.785,404.258 205.516,403.259 206.046,403.565 204.315,404.564 
											"/>
				</g>
				<g id="XMLID_20979_">
					<polygon id="XMLID_408_" style="fill:#27DEBF;" points="205.106,402.106 198.929,398.541 200.122,397.853 206.298,401.419 
											"/>
					<polygon id="XMLID_395_" style="fill:#455A64;" points="206.055,402.948 207.785,401.948 208.316,402.254 206.585,403.254 
											"/>
				</g>
			</g>
			<g id="XMLID_20982_">
				<g id="XMLID_20980_">
					<polygon id="XMLID_386_" style="fill:#27DEBF;" points="208.568,400.108 205.869,398.55 207.062,397.862 209.76,399.42 					
						"/>
					<polygon id="XMLID_340_" style="fill:#27DEBF;" points="185.641,413.344 168.333,403.352 169.525,402.664 186.833,412.656 
											"/>
					<polygon id="XMLID_715_" style="fill:#27DEBF;" points="191.372,410.035 176.333,401.352 177.525,400.664 192.564,409.347 
											"/>
					<polygon id="XMLID_710_" style="fill:#27DEBF;" points="197.107,406.727 190.168,402.722 191.361,402.034 198.299,406.04 					
						"/>
					<polygon id="XMLID_337_" style="fill:#27DEBF;" points="202.836,403.417 193.344,397.937 194.537,397.25 204.027,402.729 					
						"/>
					<polygon id="XMLID_330_" style="fill:#27DEBF;" points="208.568,400.108 205.869,398.55 207.062,397.862 209.76,399.42 					
						"/>
					<polygon id="XMLID_20842_" style="fill:#455A64;" points="209.514,400.946 211.244,399.947 211.775,400.253 210.044,401.252 
											"/>
				</g>
				<g id="XMLID_20981_">
					<polygon id="XMLID_324_" style="fill:#27DEBF;" points="210.839,398.798 209.496,398.023 210.689,397.335 212.03,398.11 					
						"/>
					<polygon id="XMLID_323_" style="fill:#455A64;" points="211.783,399.635 213.514,398.636 214.044,398.942 212.314,399.941 
											"/>
				</g>
			</g>
			<g id="XMLID_20989_">
				<g id="XMLID_20987_">
					<polygon id="XMLID_20864_" style="fill:#27DEBF;" points="185.03,393.007 183.732,393.756 185.033,394.505 186.328,393.756 
											"/>
					<polygon id="XMLID_635_" style="opacity:0.25;" points="185.03,393.007 183.732,393.756 185.033,394.505 186.328,393.756 					
						"/>
					<path id="XMLID_20902_" style="fill:#455A64;" d="M195.259,387.312l-9.279,5.356c-0.187,0.108-0.187,0.283,0.001,0.391
						l0.253,0.146c0.187,0.108,0.491,0.108,0.678,0l9.276-5.356c0.187-0.108,0.187-0.283,0-0.391l-0.252-0.145
						C195.749,387.204,195.446,387.204,195.259,387.312z"/>
				</g>
				<g id="XMLID_20988_">
					<polygon id="XMLID_20863_" style="fill:#27DEBF;" points="187.194,394.256 185.896,395.005 187.197,395.755 188.492,395.005 
											"/>
					<path id="XMLID_20846_" style="fill:#455A64;" d="M197.423,388.561l-9.279,5.356c-0.187,0.108-0.187,0.283,0.001,0.391
						l0.253,0.146c0.187,0.108,0.491,0.108,0.678,0l9.276-5.356c0.187-0.108,0.187-0.283,0-0.391l-0.252-0.146
						C197.913,388.453,197.61,388.453,197.423,388.561z"/>
				</g>
			</g>
			<polygon id="XMLID_801_" style="fill:#27DEBF;" points="185.641,413.344 168.333,403.352 169.525,402.664 186.833,412.656 			"/>
			<polygon id="XMLID_792_" style="fill:#27DEBF;" points="191.372,410.035 176.333,401.352 177.525,400.664 192.564,409.347 			"/>
			<polygon id="XMLID_773_" style="fill:#27DEBF;" points="197.107,406.727 190.168,402.722 191.361,402.034 198.299,406.04 			"/>
			<polygon id="XMLID_768_" style="fill:#27DEBF;" points="202.836,403.417 193.344,397.937 194.537,397.25 204.027,402.729 			"/>
			<polygon id="XMLID_765_" style="fill:#27DEBF;" points="185.641,413.344 168.333,403.352 169.525,402.664 186.833,412.656 			"/>
			<polygon id="XMLID_321_" style="fill:#27DEBF;" points="191.372,410.035 176.333,401.352 177.525,400.664 192.564,409.347 			"/>
			<polygon id="XMLID_318_" style="fill:#27DEBF;" points="197.107,406.727 190.168,402.722 191.361,402.034 198.299,406.04 			"/>
			<polygon id="XMLID_303_" style="fill:#27DEBF;" points="202.836,403.417 193.344,397.937 194.537,397.25 204.027,402.729 			"/>
			<polygon id="XMLID_591_" style="fill:#27DEBF;" points="208.568,400.108 205.869,398.55 207.062,397.862 209.76,399.42 			"/>
			<polygon id="XMLID_845_" style="opacity:0.25;" points="185.641,413.344 168.333,403.352 169.525,402.664 186.833,412.656 			"/>
			<polygon id="XMLID_843_" style="opacity:0.25;" points="191.372,410.035 176.333,401.352 177.525,400.664 192.564,409.347 			"/>
			<polygon id="XMLID_841_" style="opacity:0.25;" points="197.107,406.727 190.168,402.722 191.361,402.034 198.299,406.04 			"/>
			<polygon id="XMLID_839_" style="opacity:0.25;" points="202.836,403.417 193.344,397.937 194.537,397.25 204.027,402.729 			"/>
			<polygon id="XMLID_294_" style="opacity:0.25;" points="208.568,400.108 205.869,398.55 207.062,397.862 209.76,399.42 			"/>
		</g>
		<g id="XMLID_20971_">
			<path id="XMLID_20872_" style="opacity:0.1;fill:#27DEBF;" d="M194.117,422.229l29.968,17.302c0.537,0.31,1.407,0.31,1.944,0
				l30.94-17.864c0.537-0.31,0.537-0.813,0-1.122L227,403.242c-0.537-0.31-1.407-0.31-1.944,0l-30.94,17.864
				C193.58,421.416,193.58,421.919,194.117,422.229z"/>
			<g id="XMLID_20968_">
				<polygon id="XMLID_20903_" style="fill:#27DEBF;" points="199.416,420.682 197.706,421.669 199.419,422.657 201.126,421.669 
									"/>
				<path id="XMLID_289_" style="fill:#455A64;" d="M206.161,417.293l-5.646,3.256c-0.148,0.085-0.148,0.223,0.001,0.309
					l0.467,0.268c0.148,0.085,0.388,0.085,0.536,0l5.643-3.256c0.148-0.085,0.148-0.224,0-0.309l-0.465-0.268
					C206.549,417.208,206.309,417.208,206.161,417.293z"/>
			</g>
			<g id="XMLID_20969_">
				<polygon id="XMLID_20923_" style="fill:#27DEBF;" points="209.1,415.087 207.39,416.074 209.103,417.061 210.809,416.074 				
					"/>
				<polygon id="XMLID_279_" style="opacity:0.25;" points="209.1,415.087 207.39,416.074 209.103,417.061 210.809,416.074 				"/>
				<path id="XMLID_20901_" style="fill:#455A64;" d="M215.944,411.714l-5.646,3.256c-0.148,0.085-0.148,0.223,0,0.309l0.467,0.268
					c0.148,0.085,0.388,0.085,0.536,0l5.643-3.256c0.148-0.085,0.148-0.224,0-0.309l-0.465-0.268
					C216.331,411.629,216.092,411.629,215.944,411.714z"/>
			</g>
			<g id="XMLID_20970_">
				<polygon id="XMLID_20927_" style="fill:#27DEBF;" points="218.783,409.491 217.073,410.478 218.786,411.465 220.493,410.478 
									"/>
				<polygon id="XMLID_276_" style="opacity:0.4;" points="218.783,409.491 217.073,410.478 218.786,411.465 220.493,410.478 				
					"/>
				<path id="XMLID_20925_" style="fill:#455A64;" d="M225.726,406.136l-5.646,3.256c-0.148,0.085-0.148,0.224,0.001,0.309
					l0.467,0.269c0.148,0.085,0.388,0.085,0.536,0l5.643-3.256c0.148-0.085,0.148-0.224,0-0.309l-0.465-0.268
					C226.113,406.051,225.874,406.051,225.726,406.136z"/>
			</g>
			<g id="XMLID_264_">
				<path id="XMLID_20916_" style="fill:#27DEBF;" d="M236.563,416.657c-0.143-0.072-0.294-0.139-0.455-0.201
					c-0.134-0.057-0.259-0.108-0.392-0.165c-0.999-0.391-2.078-0.695-3.193-0.906c-0.348-0.067-0.713-0.124-1.061-0.18
					c-0.714-0.103-1.436-0.17-2.167-0.19c-0.366-0.015-0.731-0.021-1.097-0.015c-0.294,0.005-0.58,0.016-0.874,0.031
					c-0.25,0.01-0.491,0.026-0.722,0.046c-0.357,0.031-0.704,0.067-1.061,0.108c-0.205,0.026-0.419,0.057-0.615,0.098
					c-0.134,0.015-0.259,0.036-0.375,0.062c-0.178,0.031-0.366,0.067-0.544,0.108c-0.642,0.134-1.266,0.299-1.864,0.489
					c-0.214,0.072-0.437,0.149-0.642,0.227c-0.268,0.093-0.517,0.196-0.758,0.304c-0.25,0.103-0.491,0.211-0.723,0.335
					c-0.232,0.113-0.464,0.237-0.686,0.365c-5.039,2.909-5.038,7.625,0,10.534c5.029,2.904,13.198,2.904,18.236-0.005
					c5.029-2.904,5.029-7.62,0-10.524C237.25,416.991,236.911,416.816,236.563,416.657z M235.582,426.552
					c-1.855,1.071-4.227,1.637-6.671,1.689c-0.116,0.016-0.25,0.01-0.383,0.015c-0.143,0-0.285,0-0.41-0.01
					c-0.134-0.005-0.25-0.01-0.374-0.021c-2.346-0.077-4.637-0.638-6.421-1.668c-3.942-2.276-3.942-5.962,0-8.238
					c0.437-0.252,0.91-0.474,1.391-0.669c0.365-0.149,0.758-0.283,1.15-0.396c0.196-0.062,0.392-0.113,0.597-0.16
					c0.169-0.046,0.339-0.082,0.499-0.113c0.205-0.046,0.401-0.088,0.615-0.118c0.187-0.036,0.366-0.067,0.553-0.082
					c0.054-0.01,0.107-0.021,0.169-0.026c0.259-0.026,0.526-0.057,0.794-0.077c0.036-0.01,0.071-0.01,0.107-0.01
					c0.009-0.005,0.009-0.005,0.027,0.005c0.267-0.031,0.535-0.041,0.829-0.036c0.241-0.015,0.473-0.015,0.696-0.01
					c0.981,0.01,1.944,0.113,2.88,0.293c1.445,0.278,2.8,0.741,3.95,1.406C239.515,420.595,239.515,424.282,235.582,426.552z"/>
				<path style="opacity:0.25;" d="M232.523,415.385l-0.892,1.534c-0.936-0.18-1.9-0.283-2.88-0.293
					c-0.223-0.005-0.455-0.005-0.696,0.01c-0.294-0.005-0.562,0.005-0.829,0.036c-0.018-0.01-0.018-0.01-0.027-0.005
					c-0.036,0-0.071,0-0.107,0.01c-0.267,0.01-0.535,0.041-0.794,0.077c-0.062,0.005-0.116,0.015-0.169,0.026
					c-0.187,0.016-0.366,0.046-0.553,0.082c-0.214,0.031-0.41,0.072-0.615,0.118c-0.161,0.031-0.33,0.067-0.499,0.113
					c-0.205,0.046-0.401,0.098-0.597,0.16c-0.393,0.113-0.785,0.247-1.15,0.396c-0.49,0.191-0.954,0.417-1.391,0.669l-1.989-1.148
					c0.223-0.129,0.455-0.252,0.686-0.365c0.232-0.124,0.473-0.232,0.723-0.335c0.241-0.108,0.49-0.211,0.758-0.304
					c0.205-0.077,0.428-0.154,0.642-0.227c0.597-0.19,1.222-0.355,1.864-0.489c0.178-0.041,0.366-0.077,0.544-0.108
					c0.116-0.026,0.241-0.046,0.375-0.062c0.196-0.041,0.41-0.072,0.615-0.098c0.357-0.041,0.705-0.077,1.061-0.108
					c0.232-0.021,0.473-0.036,0.722-0.046c0.294-0.015,0.58-0.026,0.874-0.031c0.366-0.005,0.731,0,1.097,0.015
					c0.731,0.031,1.454,0.098,2.167,0.19C231.81,415.262,232.176,415.318,232.523,415.385z"/>
				<path style="opacity:0.4;" d="M237.571,417.177l-1.989,1.148c-1.15-0.664-2.506-1.128-3.95-1.406l0.892-1.534
					c1.115,0.211,2.194,0.515,3.193,0.906c0.134,0.057,0.259,0.108,0.392,0.165c0.161,0.062,0.312,0.129,0.455,0.201
					C236.911,416.816,237.25,416.991,237.571,417.177z"/>
			</g>
		</g>
		<g>
			<path style="fill:#455A64;" d="M151.279,395.175c0.296-0.171,0.604-0.3,0.921-0.387c0.319-0.087,0.644-0.129,0.975-0.127
				c0.333,0.002,0.672,0.053,1.021,0.153c0.349,0.1,0.698,0.25,1.045,0.451c0.45,0.26,0.752,0.516,0.911,0.768
				c0.157,0.252,0.185,0.497,0.085,0.735l2.978,0.753c0.05,0.013,0.089,0.028,0.118,0.046c0.054,0.031,0.085,0.066,0.095,0.106
				c0.01,0.039-0.005,0.071-0.045,0.094l-0.918,0.53c-0.09,0.052-0.181,0.073-0.273,0.064c-0.093-0.009-0.176-0.022-0.253-0.04
				l-2.673-0.68l-0.621,0.358l1.925,1.112c0.066,0.038,0.105,0.082,0.116,0.13c0.013,0.048-0.006,0.087-0.056,0.116l-0.884,0.51
				c-0.049,0.028-0.116,0.039-0.2,0.032c-0.083-0.007-0.158-0.029-0.224-0.068l-5.811-3.355c-0.066-0.038-0.105-0.081-0.118-0.13
				c-0.012-0.048,0.008-0.087,0.056-0.115L151.279,395.175z M153.243,397.189l0.762-0.44c0.189-0.109,0.297-0.227,0.325-0.354
				c0.027-0.126-0.086-0.263-0.338-0.408c-0.252-0.145-0.488-0.21-0.706-0.194c-0.219,0.016-0.424,0.079-0.613,0.188l-0.762,0.44
				L153.243,397.189z"/>
			<path style="fill:#455A64;" d="M162.533,394.287c0.05-0.029,0.117-0.04,0.201-0.033c0.083,0.008,0.16,0.03,0.226,0.068
				l0.953,0.551c0.066,0.038,0.104,0.082,0.116,0.13c0.012,0.049-0.007,0.087-0.057,0.116l-3.198,1.846
				c-0.05,0.029-0.117,0.039-0.2,0.032c-0.083-0.007-0.159-0.029-0.225-0.067l-5.811-3.355c-0.066-0.038-0.104-0.081-0.117-0.13
				c-0.012-0.048,0.007-0.087,0.057-0.115l3.145-1.815c0.049-0.028,0.116-0.039,0.199-0.032c0.085,0.007,0.16,0.029,0.226,0.067
				l0.954,0.55c0.066,0.038,0.105,0.082,0.115,0.13c0.013,0.048-0.006,0.087-0.055,0.116l-2.078,1.199l0.971,0.561l1.929-1.114
				c0.049-0.028,0.115-0.039,0.201-0.032c0.084,0.007,0.158,0.029,0.224,0.068l0.954,0.551c0.066,0.038,0.105,0.081,0.117,0.129
				c0.011,0.049-0.007,0.087-0.056,0.116l-1.929,1.114l1.007,0.582L162.533,394.287z"/>
			<path style="fill:#455A64;" d="M161.082,389.515c0.288-0.166,0.59-0.291,0.906-0.373c0.317-0.082,0.644-0.119,0.983-0.11
				c0.34,0.008,0.686,0.064,1.036,0.165c0.352,0.102,0.7,0.253,1.048,0.454c0.354,0.204,0.62,0.408,0.795,0.611
				c0.177,0.203,0.271,0.402,0.282,0.596c0.013,0.194-0.051,0.383-0.19,0.567c-0.14,0.184-0.354,0.359-0.642,0.526l-0.863,0.499
				l1.835,1.06c0.066,0.038,0.105,0.082,0.115,0.13c0.013,0.048-0.006,0.087-0.056,0.116l-0.884,0.51
				c-0.05,0.029-0.116,0.039-0.2,0.032c-0.083-0.007-0.159-0.029-0.225-0.067l-5.811-3.355c-0.066-0.038-0.104-0.081-0.117-0.13
				c-0.012-0.048,0.007-0.087,0.057-0.115L161.082,389.515z M163.035,391.639l0.829-0.479c0.189-0.109,0.29-0.231,0.302-0.367
				c0.013-0.135-0.106-0.276-0.358-0.421c-0.252-0.145-0.495-0.214-0.73-0.207c-0.235,0.007-0.446,0.065-0.635,0.174l-0.829,0.479
				L163.035,391.639z"/>
			<path style="fill:#455A64;" d="M166.129,389.312c-0.323-0.202-0.585-0.416-0.784-0.643c-0.2-0.227-0.322-0.455-0.362-0.684
				c-0.042-0.229,0.001-0.454,0.126-0.675c0.124-0.221,0.353-0.428,0.687-0.62c0.329-0.19,0.686-0.321,1.071-0.395
				c0.384-0.073,0.776-0.098,1.172-0.075c0.397,0.024,0.792,0.094,1.185,0.209c0.394,0.116,0.765,0.266,1.115,0.452
				c0.267,0.144,0.541,0.297,0.823,0.46c0.282,0.163,0.542,0.318,0.779,0.465c0.322,0.202,0.583,0.416,0.784,0.643
				c0.2,0.227,0.323,0.456,0.367,0.687c0.044,0.231,0,0.456-0.129,0.677c-0.131,0.221-0.36,0.426-0.689,0.616
				c-0.333,0.192-0.689,0.326-1.069,0.399c-0.38,0.074-0.771,0.099-1.17,0.073c-0.4-0.026-0.796-0.096-1.189-0.211
				c-0.395-0.116-0.765-0.266-1.115-0.453c-0.255-0.137-0.523-0.287-0.805-0.449C166.644,389.625,166.378,389.466,166.129,389.312z
				 M170.648,388.501c-0.104-0.065-0.22-0.137-0.347-0.216c-0.128-0.079-0.259-0.158-0.397-0.238
				c-0.138-0.08-0.275-0.155-0.408-0.227c-0.133-0.072-0.253-0.136-0.359-0.192c-0.158-0.081-0.321-0.147-0.485-0.198
				c-0.164-0.051-0.328-0.083-0.49-0.096c-0.162-0.013-0.323-0.006-0.48,0.023c-0.157,0.029-0.306,0.083-0.446,0.164
				c-0.139,0.08-0.233,0.166-0.283,0.257c-0.05,0.091-0.063,0.183-0.04,0.277c0.024,0.094,0.079,0.189,0.167,0.283
				c0.087,0.095,0.202,0.189,0.343,0.28c0.093,0.064,0.203,0.134,0.329,0.21c0.127,0.076,0.259,0.154,0.397,0.233
				c0.138,0.079,0.274,0.157,0.408,0.232c0.134,0.075,0.26,0.141,0.377,0.198c0.317,0.163,0.644,0.261,0.979,0.297
				c0.335,0.035,0.642-0.027,0.921-0.189c0.279-0.161,0.387-0.338,0.324-0.53C171.094,388.876,170.925,388.687,170.648,388.501z"/>
			<path style="fill:#455A64;" d="M171.128,383.715c0.297-0.171,0.605-0.301,0.922-0.387c0.319-0.087,0.644-0.129,0.975-0.127
				c0.332,0.002,0.672,0.053,1.021,0.153c0.349,0.1,0.697,0.251,1.044,0.451c0.45,0.26,0.754,0.515,0.911,0.768
				c0.158,0.252,0.187,0.497,0.086,0.734l2.977,0.753c0.05,0.013,0.09,0.028,0.12,0.045c0.054,0.031,0.085,0.066,0.095,0.106
				c0.009,0.039-0.005,0.07-0.046,0.094l-0.917,0.53c-0.09,0.052-0.181,0.073-0.273,0.064c-0.093-0.009-0.178-0.022-0.253-0.041
				l-2.674-0.679l-0.621,0.358l1.925,1.112c0.066,0.038,0.105,0.082,0.117,0.13c0.012,0.048-0.006,0.087-0.056,0.116l-0.884,0.51
				c-0.05,0.029-0.116,0.039-0.2,0.032c-0.084-0.006-0.159-0.029-0.225-0.067l-5.811-3.355c-0.066-0.038-0.105-0.081-0.117-0.13
				c-0.012-0.048,0.007-0.087,0.056-0.115L171.128,383.715z M173.091,385.729l0.762-0.44c0.189-0.109,0.297-0.227,0.325-0.354
				c0.028-0.127-0.085-0.263-0.337-0.408c-0.252-0.145-0.488-0.21-0.707-0.194c-0.219,0.016-0.424,0.079-0.613,0.188l-0.762,0.44
				L173.091,385.729z"/>
			<path style="fill:#455A64;" d="M177.572,379.995c0.049-0.028,0.115-0.039,0.2-0.033c0.084,0.007,0.158,0.03,0.224,0.068
				l0.954,0.551c0.066,0.038,0.106,0.081,0.117,0.129c0.011,0.049-0.007,0.087-0.056,0.116l-1.187,0.686l4.615,2.664
				c0.066,0.038,0.105,0.082,0.116,0.13c0.012,0.049-0.007,0.087-0.057,0.116l-0.884,0.51c-0.05,0.029-0.117,0.039-0.2,0.032
				c-0.083-0.007-0.159-0.029-0.225-0.067l-4.615-2.664l-1.187,0.686c-0.049,0.028-0.115,0.039-0.2,0.032
				c-0.083-0.007-0.158-0.029-0.224-0.067l-0.954-0.551c-0.066-0.038-0.105-0.081-0.118-0.13c-0.011-0.048,0.008-0.087,0.057-0.115
				L177.572,379.995z"/>
		</g>
		<polygon style="fill:#27DEBF;" points="186.943,380.655 216.223,363.751 209.947,360.127 180.667,377.032 		"/>
		<g style="opacity:0.3;">
			
				<line style="fill:none;stroke:#455A64;stroke-width:1.0297;stroke-linecap:round;stroke-miterlimit:10;" x1="201.58" y1="383.07" x2="225.815" y2="369.078"/>
			
				<line style="fill:none;stroke:#455A64;stroke-width:1.0297;stroke-linecap:round;stroke-miterlimit:10;" x1="205.763" y1="385.485" x2="229.998" y2="371.493"/>
			
				<line style="fill:none;stroke:#455A64;stroke-width:1.0297;stroke-linecap:round;stroke-miterlimit:10;" x1="209.945" y1="387.9" x2="234.18" y2="373.908"/>
			
				<line style="fill:none;stroke:#455A64;stroke-width:1.0297;stroke-linecap:round;stroke-miterlimit:10;" x1="214.128" y1="390.315" x2="238.363" y2="376.323"/>
			
				<line style="fill:none;stroke:#455A64;stroke-width:1.0297;stroke-linecap:round;stroke-miterlimit:10;" x1="218.311" y1="392.73" x2="242.546" y2="378.738"/>
		</g>
		<g style="opacity:0.3;">
			
				<line style="fill:none;stroke:#455A64;stroke-width:1.0297;stroke-linecap:round;stroke-miterlimit:10;" x1="235.057" y1="402.381" x2="259.293" y2="388.388"/>
			
				<line style="fill:none;stroke:#455A64;stroke-width:1.0297;stroke-linecap:round;stroke-miterlimit:10;" x1="239.24" y1="404.796" x2="263.475" y2="390.804"/>
			
				<line style="fill:none;stroke:#455A64;stroke-width:1.0297;stroke-linecap:round;stroke-miterlimit:10;" x1="243.423" y1="407.211" x2="267.658" y2="393.219"/>
			
				<line style="fill:none;stroke:#455A64;stroke-width:1.0297;stroke-linecap:round;stroke-miterlimit:10;" x1="247.605" y1="409.626" x2="271.84" y2="395.634"/>
			
				<line style="fill:none;stroke:#455A64;stroke-width:1.0297;stroke-linecap:round;stroke-miterlimit:10;" x1="251.788" y1="412.041" x2="276.023" y2="398.049"/>
			
				<line style="fill:none;stroke:#455A64;stroke-width:1.0297;stroke-linecap:round;stroke-miterlimit:10;" x1="255.964" y1="414.46" x2="280.199" y2="400.468"/>
		</g>
	</g>
</g>
<g id="Character">
	<g id="Character_1_">
		<g id="XMLID_5056_">
			<g id="XMLID_4522_">
				<g id="XMLID_265_">
					<polygon id="XMLID_4168_" style="fill:#37474F;" points="376.531,195.56 352.181,204.036 351.495,205.149 374.661,241.862 
						397.723,231.462 398.409,230.348 					"/>
					<polygon id="XMLID_4535_" style="fill:#455A64;" points="377.218,194.446 352.181,204.036 375.348,240.748 398.409,230.348 
											"/>
					<polygon id="XMLID_2786_" style="fill:#F0F0F0;" points="377.413,198.122 356.139,206.933 375.41,236.941 395.026,227.45 					
						"/>
					<path id="XMLID_2785_" style="opacity:0.15;" d="M372.747,201.299c0,0-0.533-0.597-1.19-1.333
						c-0.657-0.736-2.589-0.811-4.317-0.167l-3.307,1.233c-1.727,0.644-2.594,1.763-1.938,2.499l1.189,1.333L372.747,201.299z"/>
					<g id="XMLID_670_">
						<path id="XMLID_4532_" style="fill:#27DEBF;" d="M369.496,196.3c-0.409-0.46-1.309-0.598-2.012-0.309l-1.272,0.523
							c0,0-2.586-2.882-5.673-1.965c-3.087,0.917-0.427,4.183-0.427,4.183s-0.599,0.257-1.339,0.575
							c-0.74,0.318-1.04,0.946-0.671,1.403l0.668,0.827l11.484-4.383C370.253,197.155,369.905,196.76,369.496,196.3z"/>
						<path id="XMLID_852_" style="opacity:0.15;" d="M369.496,196.3c-0.409-0.46-1.309-0.598-2.012-0.309l-1.272,0.523
							c0,0-2.586-2.882-5.673-1.965c-3.087,0.917-0.427,4.183-0.427,4.183s-0.599,0.257-1.339,0.575
							c-0.74,0.318-1.04,0.946-0.671,1.403l0.668,0.827l11.484-4.383C370.253,197.155,369.905,196.76,369.496,196.3z"/>
						<path id="XMLID_4531_" style="fill:#27DEBF;" d="M368.871,197.682c-1.092,0.365-1.583,0.583-0.572,1.717
							c1.155,1.296,2.088,2.249,2.088,2.249l-5.074,1.948c0,0-1.437-1.64-2.021-2.28c-0.585-0.64-1.257-1.032-2.064-0.722
							l-0.654-0.512l8.083-2.931L368.871,197.682z"/>
						<path id="XMLID_848_" style="opacity:0.4;" d="M368.871,197.682c-1.092,0.365-1.583,0.583-0.572,1.717
							c1.155,1.296,2.088,2.249,2.088,2.249l-5.074,1.948c0,0-1.437-1.64-2.021-2.28c-0.585-0.64-1.257-1.032-2.064-0.722
							l-0.654-0.512l8.083-2.931L368.871,197.682z"/>
						<path id="XMLID_671_" style="fill:#27DEBF;" d="M373.086,201.429c0,0-0.533-0.596-1.189-1.333
							c-0.657-0.736-2.59-0.811-4.317-0.166l-3.307,1.233c-1.727,0.644-2.594,1.763-1.937,2.499l1.189,1.333L373.086,201.429z"/>
						<path id="XMLID_849_" style="opacity:0.15;" d="M373.086,201.429c0,0-0.533-0.596-1.189-1.333
							c-0.657-0.736-2.59-0.811-4.317-0.166l-3.307,1.233c-1.727,0.644-2.594,1.763-1.937,2.499l1.189,1.333L373.086,201.429z"/>
					</g>
				</g>
			</g>
			<path id="XMLID_4520_" style="fill:#B16668;" d="M388.59,213.311c0,0,0.336-4.195-1.026-5.507
				c-1.362-1.311-6.442-0.623-9.048-1.503c-2.796-0.943-2.122,2.11-0.718,2.955C380.849,211.095,386.657,211.552,388.59,213.311z"/>
		</g>
		<g id="Boy_2_">
			<g>
				<g id="XMLID_830_">
					<g id="XMLID_842_">
						<path id="XMLID_844_" style="fill:#263238;" d="M433.993,338.873c0.737,0.275,1.158,1.663,1.485,5.055
							c0.202,2.1,0.919,4.878-2.284,6.583c-1.822,0.97-5.104,1.452-7.573-0.079c-2.773-1.72-3.637-5.647-6.891-8.199
							c-2.853-2.237-7.439-4.471-9.043-7.927c-1.322-2.848-1.314-6.914,3.414-6.696c5.764,0.266,9.026,4.809,12.938,4.896
							C428.226,332.555,433.256,338.598,433.993,338.873z"/>
					</g>
					<g id="XMLID_838_">
						<path id="XMLID_840_" style="fill:#B16668;" d="M433.985,337.2l0.017,3.42c0.001,1.675-7.11,4.165-9.103,0.346
							c-0.151-0.329-0.923-5.014-0.923-5.014L433.985,337.2z"/>
					</g>
					<g id="XMLID_836_">
						<path id="XMLID_837_" style="fill:#263238;" d="M403.542,357.388c0,0,1.253,0,1.746,5.117c0.188,1.948,0.654,5.945-0.01,7.391
							c-0.665,1.446-4.272,2.086-8.316,2.449c-3.018,0.271-5.744,1.731-8.542,3.311c-2.58,1.457-5.742,2.363-8.657,2.386
							c-0.064,0.001-0.128,0.001-0.193,0.001c-2.648,0.011-5.166-0.299-7.619-1.326c-1.897-0.794-4.031-2.08-4.612-4.197
							c-0.077-0.282-0.129-0.575-0.097-0.866c0.057-0.51,0.374-0.963,0.767-1.292c0.394-0.329,0.863-0.552,1.327-0.772
							c2.744-1.299,5.514-2.547,8.214-3.925c2.623-1.339,5.244-2.691,7.758-4.229c1.251-0.766,2.474-1.577,3.651-2.452
							c0.515-0.383,1.067-0.751,1.567-1.142c0.27-0.211,0.782-1.133,1.161-1.112C391.691,356.73,403.542,357.388,403.542,357.388z"
							/>
					</g>
					<g id="XMLID_833_">
						<path id="XMLID_835_" style="fill:#B16668;" d="M403.217,353.603c0,0,0,2.569,0.021,4.036c0.02,1.468-1.717,3.664-6.243,3.527
							c-3.179-0.096-5.402-0.933-5.289-3.529l-0.019-3.741L403.217,353.603z"/>
					</g>
					<g id="XMLID_831_">
						<path id="XMLID_832_" style="fill:#37474F;" d="M435.957,295.266c-1.505-10.356-3.829-16.5-3.829-16.5
							s1.06-14.258,1.534-27.773c0.512-14.599-0.237-32.633-1.155-41.52c0,0-45.931-4.355-46.685,12.522
							c-0.754,16.877,0.136,58.711,0.136,66.825c0,7.433,0.913,14.822,2.262,28.633c1.294,13.234,3.283,37.596,3.283,37.596
							c5.395,2.881,12.02-0.308,12.02-0.308s3.73-33.661,4.682-42.168c1.122-10.029-1.837-18.135-1.837-18.135
							s0.537-6.477,2.242-20.814c1.204-10.129,2.202-22.219,2.202-22.219s0.907,16.435,1.862,24.394
							c0.885,7.38,1.942,10.334,4.776,24.799c2.753,14.052,5.932,37.3,5.932,37.3c5.395,2.882,10.727-0.53,10.727-0.53
							S437.462,305.622,435.957,295.266z"/>
					</g>
				</g>
				<path style="fill:#263238;" d="M410.812,251.405l2.172-14.1c0,0,8.938-2.843,13.483-8.163c0,0-2.424,6.193-10.756,9.526
					l-3.337,11.873l-0.927,11.013L410.812,251.405z"/>
			</g>
			<g>
				<path style="fill:#37474F;" d="M423.055,152.886c7.164-1.729,11.689,1.746,14.333,11.489c2.266,8.349,5.583,25.63,6.872,32.089
					c0.476,2.388,1.416,5.129-3.614,8.145c-9.941,5.961-22.535,11.375-22.535,11.375l-2.749-10.3l11.106-22.742L423.055,152.886z"/>
			</g>
			<g>
				<polygon id="XMLID_829_" style="fill:#B16668;" points="403.268,148.351 405.413,163.422 420.275,162.658 418.971,145.047 				
					"/>
				<g id="XMLID_827_">
					<path id="XMLID_828_" style="fill:#9A4A4D;" d="M393.535,129.746c0,0-3.638,5.335-3.242,5.87
						c0.396,0.536,3.003,1.055,3.003,1.055L393.535,129.746z"/>
				</g>
				<g id="XMLID_767_">
					<path id="XMLID_770_" style="fill:#263238;" d="M394.729,133.229c-2.442-0.039-4.397-2.057-4.359-4.5
						c0.038-2.442,2.057-4.397,4.499-4.359c2.442,0.039,4.397,2.057,4.359,4.499C399.189,131.312,397.171,133.268,394.729,133.229z
						 M394.853,125.355c-1.899-0.03-3.468,1.49-3.498,3.39c-0.03,1.899,1.49,3.469,3.39,3.499c1.899,0.03,3.468-1.491,3.498-3.391
						C398.273,126.954,396.753,125.385,394.853,125.355z"/>
				</g>
				<g id="XMLID_720_">
					<path id="XMLID_762_" style="fill:#B16668;" d="M403.635,114.988c-7.214,1.403-9.339,4.53-10.197,15.941
						c-0.896,11.923,0.263,15.693,1.805,17.325c1.042,1.101,6.919,1.39,9.899,0.619c3.73-0.965,12.168-3.807,16.193-9.747
						c4.734-6.99,6.1-16.542,1.213-20.547C415.671,112.943,406.571,114.417,403.635,114.988z"/>
				</g>
				<path style="fill:#9A4A4D;" d="M403.382,149.176c-3.103,0.342-7.276-0.011-8.138-0.922c3.466,0.214,7.715-1.519,7.715-1.519
					L403.382,149.176z"/>
				<g id="XMLID_702_">
					<g id="XMLID_703_">
						<path id="XMLID_711_" style="fill:#263238;" d="M392.089,118.58c0.009,0.148,0.026,0.297,0.054,0.444
							c0.207,1.085,0.987,2.009,1.951,2.547c0.728,0.406,1.554,0.607,2.381,0.668c0.3,0.022,2.417,0.108,2.493-0.127
							c-0.261,0.814-0.792,1.414-0.783,2.351c0.008,0.828,0.412,1.681,1.138,2.079c0.418,0.229,0.922,0.303,1.29,0.607
							c0.666,0.549,0.409,1.808,0.696,2.541c0.093,0.238,1.741,2.434,1.822,2.138c0-0.001,1.262-4.597,5.143-3.955
							c3.906,0.646,4.356,5.645,1.841,8.639c-2.516,2.993-4.797,1.794-4.797,1.794s0.017,6.599,2.88,10.38
							c0,0,3.31,1.129,9.448-0.078c3.773-0.742,9.164-5.358,11.479-10.3c4.895-10.453,5.375-19.922-1.302-22.868
							c-0.92-6.883-8.405-8.911-14.279-9.087c-3.818-0.114-7.659,0.27-11.448-0.211c-1.803-0.229-3.576-0.652-5.344-1.076
							c-1.112-0.267-2.259-0.535-3.387-0.353c-2.267,0.366-3.938,2.598-4.114,4.888c-0.092,1.196,0.128,2.409,0.621,3.501
							c0.538,1.192,1.352,2.019,2.408,2.737c0.058,0.04,0.119,0.083,0.147,0.147c0.032,0.073,0.014,0.156-0.004,0.234
							C392.245,116.996,392.043,117.793,392.089,118.58z"/>
					</g>
				</g>
				<g id="XMLID_681_">
					<g id="XMLID_694_">
						<g id="XMLID_700_">
							<path id="XMLID_701_" style="fill:#263238;" d="M427.325,116.248l4.342-2.468c-0.682-1.199-2.206-1.619-3.405-0.937
								C427.063,113.525,426.644,115.049,427.325,116.248z"/>
						</g>
					</g>
					<g id="XMLID_682_">
						<g id="XMLID_687_">
							<path id="XMLID_688_" style="fill:#263238;" d="M403.058,134.411l0.211-4.99c-1.378-0.058-2.542,1.012-2.601,2.389
								C400.61,133.188,401.68,134.352,403.058,134.411z"/>
						</g>
					</g>
				</g>
				<polygon id="XMLID_679_" style="fill:#263238;" points="390.798,127.811 404.145,129.753 403.592,130.684 390.783,128.816 				
					"/>
			</g>
			<g id="XMLID_673_">
				<path id="XMLID_678_" style="fill:#455A64;" d="M433.941,160.81c-1.582-6.186-3.816-8.206-9.2-8.35
					c-1.612-0.043-7.113,0.819-8.278,1.057c-0.566,2.613-7.321,4.391-14.159,2.979c-2.033,0.594-7.416,2.058-9.106,2.671
					c-4.838,1.756-7.182,6.779-7.502,22.726c0,0-0.926,37.819,0.013,44.349c12.197,4.755,24.856,4.542,31.846,2.978
					c14.551-3.257,16.277-9.308,16.277-9.308s-0.763-15.179-1.258-26.721c0.729-7.35,1.826-12.878,2.222-18.741
					C435.199,168.51,434.537,163.137,433.941,160.81z"/>
			</g>
			<g>
				<g id="XMLID_672_">
					<path style="fill:#B16668;" d="M337.778,172.352c0.446,0.307,3.694,2.978,5.116,4.302c0,0,2.833-12.328,2.834-12.333
						c0.01-0.04-1.305-1.223-1.426-1.362c-0.447-0.512-0.912-1.017-1.289-1.585c-0.865-1.304-1.505-2.831-2.115-4.258
						c-0.706-1.65-1.601-3.067-2.669-4.51c-1.041-1.406-2.083-2.813-3.124-4.219c-0.202-0.273-0.423-0.56-0.743-0.672
						c-0.52-0.183-1.106,0.196-1.335,0.697c-0.229,0.501-0.188,1.081-0.112,1.627c0.152,1.094,0.427,2.171,0.818,3.204
						c0.229,0.607,0.902,2.112-0.488,1.953c-0.444-0.051-0.806-0.365-1.133-0.67c-1.69-1.573-3.269-3.264-4.722-5.058
						c-0.485-0.599-0.967-1.219-1.602-1.655c-0.636-0.436-1.468-0.664-2.189-0.392c-0.924,0.348-1.383,1.361-1.749,2.278
						c-0.464,1.162-0.933,2.352-0.988,3.602c-0.035,0.796,0.101,1.591,0.298,2.363c0.781,3.06,2.522,5.786,4.671,8.069
						c1.942,2.063,3.51,3.48,5.924,4.977c0.486,0.302,1.405,0.825,2.317,1.389C335.413,170.929,336.228,171.284,337.778,172.352z"/>
				</g>
				<path style="fill:#B16668;" d="M365.48,178.719l-21.865-16.032l-4.263,10.663c0,0,14.623,13.905,21.72,19.936
					c3.026,2.659,6.309,2.065,9.542,0.482c5.551-2.718,19.748-13.72,19.748-13.72s7.58-13.199,2.837-20.881
					c0,0-3.616,0.542-6.775,3.199c-3.393,2.855-20.526,16.273-20.526,16.273"/>
				<path style="fill:#37474F;" d="M394.128,158.857c0,0-3.295-0.336-6.752,1.628c-2.487,1.413-21.479,17.746-21.479,17.746
					l-15.37-10.883c-4.243,1.067-7.11,6.63-7.508,10.439c0,0,8.234,7.623,13.119,12.574c7.96,8.069,9.83,7.057,14.249,4.756
					c4.564-2.377,20.603-14.104,20.603-14.104s4.949-3.684,5.892-7.847C399.482,161.684,394.128,158.857,394.128,158.857z"/>
				<path style="opacity:0.1;" d="M365.898,178.231c0,0-2.768,1.897-4.121,5.965c0,0-0.478-3.851,2.848-6.866L365.898,178.231z"/>
				<path style="fill:#263238;" d="M350.528,167.348l-3.837-2.751c0,0-2.755,1.34-4.967,4.44c-2.212,3.1-2.372,5.436-2.372,5.436
					l3.667,3.314C344.61,173.82,347.12,170.031,350.528,167.348z"/>
				<path style="fill:#27DEBF;" d="M341.036,174.387c0.134,0.372,0.544,0.566,0.916,0.432c0.372-0.134,0.566-0.544,0.432-0.916
					c-0.134-0.372-0.544-0.566-0.916-0.432C341.095,173.605,340.902,174.015,341.036,174.387z"/>
			</g>
			<g>
				<path style="fill:#263238;" d="M419.287,149.309l0.107,1.45c0,0-2.017,2.344-6.13,3.108c-6.915,1.284-9.333-0.863-9.333-0.863
					l-0.177-1.245c0,0-0.663-0.273-1.785,0.59c-1.122,0.863-4.785,5.604-4.785,5.604s1.317-0.385,5.639,1.453
					c4.483,1.906,10.038,1.662,13.492,0.509c3.453-1.153,6.06-4.561,6.232-5.828C422.719,152.82,420.476,148.791,419.287,149.309z"
					/>
			</g>
		</g>
	</g>
</g>
</svg>
