<svg width="556" height="580" viewBox="0 0 556 580" fill="none" xmlns="http://www.w3.org/2000/svg">
<ellipse cx="278" cy="302.5" rx="278" ry="277.5" fill="#F4F6FB"/>
<g filter="url(#filter0_f_478_704)">
<ellipse cx="281.571" cy="233.184" rx="87.96" ry="87.8018" fill="#CFDDEC"/>
</g>
<path d="M268.009 424.509L225.077 439.903M268.009 424.509L268.009 84.9226M268.009 424.509L317.286 431.669M268.009 424.509L450.934 363.895M450.934 125.663L407.505 115.991M450.934 125.663L450.934 189.009M450.934 125.663L115.602 227.266M268.009 84.9226L219.228 97.6784M268.009 84.9226L317.286 95.8975M182.146 455.297L123.908 476.18L121.794 412.833M182.146 455.297L170.448 110.434M182.146 455.297L225.077 439.903M170.448 110.434L112.211 125.663L113.906 176.464M170.448 110.434L219.228 97.6784M219.228 97.6784L225.077 439.903M317.286 95.8975L317.286 431.669M317.286 95.8975L364.075 106.318M317.286 431.669L364.075 438.468M364.075 438.468L364.075 106.318M364.075 438.468L407.505 444.779M364.075 438.468L450.934 407.492M364.075 106.318L407.505 115.991M364.075 106.318L113.906 176.464M407.505 115.991L407.505 444.779M407.505 444.779L450.934 451.089L450.934 407.492M121.794 412.833L450.934 304.772M121.794 412.833L120.02 359.672M450.934 304.772L450.934 245.4M450.934 304.772L450.934 363.895M120.02 359.672L450.934 245.4M120.02 359.672L117.848 294.587M450.934 245.4L450.934 189.009M117.848 294.587L450.934 189.009M117.848 294.587L115.602 227.266M115.602 227.266L113.906 176.464M450.934 363.895L450.934 407.492" stroke="url(#paint0_linear_478_704)" stroke-width="1.67054"/>
<path d="M163.874 238.145V288H152.746V238.145H163.874ZM179.043 238.145V246.808H137.885V238.145H179.043ZM198.321 288.685C195.376 288.685 192.74 288.217 190.411 287.281C188.083 286.345 186.108 285.055 184.488 283.412C182.89 281.745 181.669 279.828 180.824 277.659C179.979 275.491 179.557 273.174 179.557 270.708V269.407C179.557 266.645 179.945 264.1 180.721 261.771C181.497 259.443 182.627 257.423 184.111 255.71C185.618 253.976 187.467 252.64 189.658 251.704C191.85 250.745 194.349 250.266 197.157 250.266C199.782 250.266 202.122 250.7 204.176 251.567C206.231 252.412 207.966 253.633 209.381 255.231C210.796 256.806 211.869 258.712 212.6 260.949C213.353 263.164 213.73 265.652 213.73 268.414V272.797H183.871V265.914H203.252V265.093C203.252 263.791 203.012 262.65 202.533 261.668C202.076 260.687 201.392 259.934 200.478 259.409C199.588 258.861 198.458 258.587 197.089 258.587C195.787 258.587 194.703 258.861 193.836 259.409C192.968 259.956 192.272 260.733 191.747 261.737C191.245 262.719 190.879 263.871 190.651 265.195C190.423 266.496 190.309 267.9 190.309 269.407V270.708C190.309 272.146 190.503 273.459 190.891 274.646C191.279 275.833 191.85 276.849 192.603 277.693C193.356 278.538 194.269 279.2 195.342 279.679C196.415 280.159 197.636 280.398 199.006 280.398C200.695 280.398 202.305 280.079 203.834 279.44C205.363 278.778 206.687 277.75 207.806 276.358L212.805 282.076C212.052 283.172 210.99 284.233 209.621 285.261C208.274 286.265 206.653 287.087 204.759 287.726C202.864 288.365 200.718 288.685 198.321 288.685ZM229.652 259.58V288H218.969V250.951H229.001L229.652 259.58ZM240.712 250.677L240.541 260.641C240.084 260.573 239.491 260.516 238.76 260.47C238.03 260.402 237.402 260.367 236.877 260.367C235.507 260.367 234.32 260.539 233.316 260.881C232.334 261.2 231.512 261.68 230.85 262.319C230.211 262.958 229.732 263.757 229.412 264.716C229.093 265.652 228.933 266.736 228.933 267.969L226.913 266.976C226.913 264.533 227.152 262.296 227.632 260.265C228.111 258.233 228.807 256.475 229.72 254.991C230.634 253.485 231.752 252.321 233.076 251.499C234.4 250.677 235.907 250.266 237.596 250.266C238.144 250.266 238.703 250.3 239.274 250.369C239.844 250.437 240.324 250.54 240.712 250.677ZM255.812 258.724V288H245.129V250.951H255.162L255.812 258.724ZM254.443 268.174L251.738 268.243C251.738 265.64 252.046 263.255 252.662 261.086C253.301 258.895 254.226 256.989 255.436 255.368C256.646 253.747 258.141 252.492 259.921 251.602C261.725 250.711 263.802 250.266 266.153 250.266C267.797 250.266 269.292 250.517 270.639 251.019C271.986 251.499 273.138 252.264 274.097 253.314C275.079 254.341 275.832 255.688 276.357 257.354C276.882 258.998 277.145 260.972 277.145 263.278V288H266.461V264.579C266.461 262.935 266.256 261.691 265.845 260.847C265.457 259.979 264.886 259.386 264.133 259.066C263.38 258.747 262.478 258.587 261.428 258.587C260.286 258.587 259.271 258.838 258.38 259.34C257.513 259.819 256.782 260.493 256.189 261.36C255.595 262.228 255.15 263.244 254.854 264.408C254.58 265.572 254.443 266.827 254.443 268.174ZM276.049 267.626L272.659 267.9C272.659 265.389 272.956 263.061 273.549 260.915C274.143 258.769 275.033 256.909 276.22 255.334C277.407 253.736 278.88 252.492 280.637 251.602C282.418 250.711 284.484 250.266 286.835 250.266C288.57 250.266 290.145 250.517 291.56 251.019C292.998 251.522 294.231 252.332 295.258 253.451C296.308 254.569 297.119 256.041 297.689 257.868C298.26 259.671 298.545 261.885 298.545 264.51V288H287.794V264.51C287.794 262.89 287.588 261.657 287.177 260.812C286.789 259.968 286.219 259.386 285.465 259.066C284.735 258.747 283.856 258.587 282.829 258.587C281.687 258.587 280.694 258.826 279.85 259.306C279.005 259.762 278.297 260.402 277.727 261.223C277.156 262.022 276.734 262.97 276.46 264.065C276.186 265.161 276.049 266.348 276.049 267.626ZM325.425 277.693C325.425 277.009 325.208 276.404 324.774 275.879C324.363 275.354 323.61 274.874 322.514 274.44C321.441 274.007 319.923 273.573 317.96 273.139C316.111 272.751 314.388 272.249 312.79 271.633C311.192 270.994 309.799 270.229 308.612 269.339C307.425 268.425 306.501 267.353 305.839 266.12C305.177 264.864 304.846 263.438 304.846 261.84C304.846 260.287 305.177 258.815 305.839 257.423C306.524 256.03 307.505 254.797 308.784 253.724C310.085 252.652 311.66 251.807 313.509 251.191C315.381 250.574 317.504 250.266 319.878 250.266C323.142 250.266 325.961 250.78 328.335 251.807C330.709 252.811 332.536 254.227 333.814 256.053C335.092 257.856 335.731 259.922 335.731 262.251H325.048C325.048 261.292 324.866 260.459 324.5 259.751C324.135 259.043 323.576 258.495 322.822 258.107C322.069 257.696 321.076 257.491 319.843 257.491C318.885 257.491 318.04 257.662 317.31 258.005C316.602 258.324 316.043 258.769 315.632 259.34C315.244 259.911 315.05 260.573 315.05 261.326C315.05 261.851 315.164 262.33 315.392 262.764C315.643 263.175 316.02 263.563 316.522 263.928C317.047 264.271 317.721 264.579 318.542 264.853C319.387 265.127 320.414 265.389 321.624 265.64C324.204 266.12 326.555 266.793 328.678 267.661C330.824 268.528 332.536 269.727 333.814 271.256C335.115 272.785 335.766 274.806 335.766 277.317C335.766 278.96 335.389 280.467 334.636 281.837C333.905 283.206 332.844 284.405 331.451 285.432C330.059 286.459 328.392 287.258 326.452 287.829C324.512 288.399 322.32 288.685 319.878 288.685C316.385 288.685 313.429 288.057 311.009 286.802C308.59 285.546 306.763 283.971 305.531 282.076C304.321 280.159 303.716 278.196 303.716 276.187H313.749C313.794 277.419 314.102 278.424 314.673 279.2C315.267 279.976 316.031 280.547 316.967 280.912C317.903 281.254 318.953 281.426 320.117 281.426C321.282 281.426 322.252 281.266 323.028 280.946C323.804 280.627 324.398 280.193 324.808 279.645C325.219 279.074 325.425 278.424 325.425 277.693ZM357.646 269.852V269.133C357.646 266.417 358.034 263.917 358.81 261.634C359.586 259.329 360.728 257.331 362.234 255.642C363.741 253.953 365.59 252.64 367.781 251.704C369.973 250.745 372.484 250.266 375.314 250.266C378.191 250.266 380.724 250.745 382.916 251.704C385.13 252.64 386.991 253.953 388.497 255.642C390.004 257.331 391.145 259.329 391.921 261.634C392.697 263.917 393.086 266.417 393.086 269.133V269.852C393.086 272.546 392.697 275.045 391.921 277.351C391.145 279.634 390.004 281.631 388.497 283.343C386.991 285.032 385.142 286.345 382.95 287.281C380.759 288.217 378.236 288.685 375.383 288.685C372.552 288.685 370.03 288.217 367.816 287.281C365.601 286.345 363.741 285.032 362.234 283.343C360.728 281.631 359.586 279.634 358.81 277.351C358.034 275.045 357.646 272.546 357.646 269.852ZM368.363 269.133V269.852C368.363 271.313 368.478 272.683 368.706 273.961C368.957 275.239 369.356 276.358 369.904 277.317C370.452 278.275 371.171 279.029 372.061 279.577C372.975 280.102 374.082 280.364 375.383 280.364C376.684 280.364 377.78 280.102 378.67 279.577C379.56 279.029 380.279 278.275 380.827 277.317C381.375 276.358 381.763 275.239 381.991 273.961C382.242 272.683 382.368 271.313 382.368 269.852V269.133C382.368 267.695 382.242 266.348 381.991 265.093C381.763 263.814 381.375 262.684 380.827 261.703C380.279 260.721 379.549 259.956 378.636 259.409C377.745 258.861 376.638 258.587 375.314 258.587C374.036 258.587 372.952 258.861 372.061 259.409C371.171 259.956 370.452 260.721 369.904 261.703C369.356 262.684 368.957 263.814 368.706 265.093C368.478 266.348 368.363 267.695 368.363 269.133ZM412.021 288H401.269V247.801C401.269 244.947 401.829 242.55 402.947 240.61C404.088 238.67 405.698 237.197 407.775 236.193C409.852 235.189 412.306 234.686 415.137 234.686C416.119 234.686 417.032 234.755 417.876 234.892C418.744 235.006 419.588 235.166 420.41 235.371V243.349C419.976 243.235 419.531 243.155 419.075 243.11C418.618 243.064 418.07 243.041 417.431 243.041C416.29 243.041 415.308 243.224 414.486 243.589C413.687 243.931 413.071 244.468 412.637 245.198C412.226 245.906 412.021 246.774 412.021 247.801V288ZM419.349 250.951V258.45H395.859V250.951H419.349ZM189.521 351.851C189.521 351.007 189.396 350.253 189.145 349.591C188.893 348.907 188.437 348.279 187.775 347.708C187.113 347.137 186.177 346.567 184.967 345.996C183.757 345.403 182.171 344.798 180.208 344.181C177.97 343.451 175.836 342.629 173.804 341.716C171.796 340.78 170.004 339.696 168.429 338.463C166.853 337.23 165.609 335.792 164.696 334.149C163.806 332.505 163.361 330.588 163.361 328.396C163.361 326.273 163.829 324.356 164.765 322.644C165.701 320.931 167.013 319.471 168.703 318.261C170.392 317.028 172.378 316.092 174.66 315.453C176.943 314.791 179.454 314.46 182.194 314.46C185.846 314.46 189.053 315.11 191.815 316.412C194.6 317.69 196.769 319.493 198.321 321.822C199.873 324.127 200.65 326.81 200.65 329.868H189.555C189.555 328.522 189.27 327.335 188.699 326.307C188.152 325.257 187.307 324.436 186.166 323.842C185.047 323.248 183.643 322.952 181.954 322.952C180.31 322.952 178.929 323.203 177.811 323.705C176.715 324.184 175.882 324.846 175.311 325.691C174.763 326.536 174.489 327.46 174.489 328.465C174.489 329.264 174.695 329.994 175.106 330.656C175.539 331.295 176.156 331.9 176.955 332.471C177.776 333.019 178.781 333.544 179.968 334.046C181.155 334.548 182.513 335.027 184.043 335.484C186.713 336.329 189.076 337.265 191.131 338.292C193.208 339.319 194.954 340.483 196.369 341.784C197.785 343.086 198.846 344.558 199.554 346.202C200.284 347.845 200.65 349.706 200.65 351.783C200.65 353.997 200.216 355.96 199.348 357.672C198.504 359.384 197.271 360.845 195.65 362.055C194.052 363.242 192.135 364.144 189.898 364.76C187.661 365.377 185.161 365.685 182.399 365.685C179.888 365.685 177.411 365.365 174.969 364.726C172.526 364.064 170.312 363.06 168.326 361.713C166.363 360.366 164.788 358.654 163.601 356.577C162.436 354.477 161.854 351.988 161.854 349.112H173.017C173.017 350.619 173.234 351.897 173.667 352.947C174.101 353.974 174.718 354.808 175.517 355.447C176.338 356.086 177.331 356.542 178.496 356.816C179.66 357.09 180.961 357.227 182.399 357.227C184.065 357.227 185.412 356.999 186.439 356.542C187.49 356.063 188.266 355.412 188.768 354.591C189.27 353.769 189.521 352.856 189.521 351.851ZM224.139 365.685C221.194 365.685 218.558 365.217 216.229 364.281C213.901 363.345 211.926 362.055 210.306 360.412C208.708 358.745 207.486 356.828 206.642 354.659C205.797 352.491 205.375 350.174 205.375 347.708V346.407C205.375 343.645 205.763 341.1 206.539 338.771C207.315 336.443 208.445 334.423 209.929 332.71C211.436 330.976 213.285 329.64 215.476 328.704C217.668 327.745 220.167 327.266 222.975 327.266C225.6 327.266 227.94 327.7 229.994 328.567C232.049 329.412 233.784 330.633 235.199 332.231C236.614 333.806 237.687 335.712 238.418 337.949C239.171 340.164 239.548 342.652 239.548 345.414V349.797H209.689V342.914H229.07V342.093C229.07 340.791 228.83 339.65 228.351 338.668C227.894 337.687 227.209 336.934 226.296 336.409C225.406 335.861 224.276 335.587 222.906 335.587C221.605 335.587 220.521 335.861 219.654 336.409C218.786 336.956 218.09 337.733 217.565 338.737C217.063 339.719 216.697 340.871 216.469 342.195C216.241 343.496 216.127 344.9 216.127 346.407V347.708C216.127 349.146 216.321 350.459 216.709 351.646C217.097 352.833 217.668 353.849 218.421 354.693C219.174 355.538 220.087 356.2 221.16 356.679C222.233 357.159 223.454 357.398 224.824 357.398C226.513 357.398 228.123 357.079 229.652 356.44C231.181 355.778 232.505 354.75 233.624 353.358L238.623 359.076C237.87 360.172 236.808 361.233 235.439 362.261C234.092 363.265 232.471 364.087 230.576 364.726C228.682 365.365 226.536 365.685 224.139 365.685ZM255.47 336.58V365H244.787V327.951H254.819L255.47 336.58ZM266.53 327.677L266.359 337.641C265.902 337.573 265.309 337.516 264.578 337.47C263.848 337.402 263.22 337.367 262.695 337.367C261.325 337.367 260.138 337.539 259.134 337.881C258.152 338.2 257.33 338.68 256.668 339.319C256.029 339.958 255.55 340.757 255.23 341.716C254.911 342.652 254.751 343.736 254.751 344.969L252.731 343.976C252.731 341.533 252.97 339.296 253.45 337.265C253.929 335.233 254.625 333.475 255.538 331.991C256.451 330.485 257.57 329.321 258.894 328.499C260.218 327.677 261.725 327.266 263.414 327.266C263.962 327.266 264.521 327.3 265.092 327.369C265.662 327.437 266.142 327.54 266.53 327.677ZM284.506 357.433L292.245 327.951H303.476L291.184 365H284.438L284.506 357.433ZM279.507 327.951L287.212 357.467L287.28 365H280.535L268.242 327.951H279.507ZM318.679 327.951V365H307.962V327.951H318.679ZM307.311 318.363C307.311 316.811 307.859 315.544 308.955 314.563C310.05 313.558 311.489 313.056 313.269 313.056C315.05 313.056 316.488 313.558 317.584 314.563C318.702 315.544 319.261 316.811 319.261 318.363C319.261 319.893 318.702 321.16 317.584 322.164C316.488 323.146 315.05 323.637 313.269 323.637C311.489 323.637 310.05 323.146 308.955 322.164C307.859 321.16 307.311 319.893 307.311 318.363ZM341.861 357.364C343.002 357.364 343.995 357.147 344.84 356.714C345.684 356.28 346.335 355.675 346.791 354.899C347.271 354.1 347.51 353.141 347.51 352.023H357.577C357.577 354.716 356.881 357.09 355.489 359.145C354.119 361.199 352.27 362.809 349.942 363.973C347.613 365.114 344.988 365.685 342.066 365.685C339.19 365.685 336.679 365.217 334.533 364.281C332.387 363.322 330.595 361.987 329.157 360.275C327.719 358.563 326.635 356.577 325.904 354.317C325.197 352.034 324.843 349.569 324.843 346.921V346.03C324.843 343.405 325.197 340.951 325.904 338.668C326.635 336.386 327.719 334.388 329.157 332.676C330.595 330.964 332.376 329.64 334.499 328.704C336.645 327.745 339.156 327.266 342.032 327.266C345.068 327.266 347.75 327.848 350.079 329.012C352.43 330.177 354.267 331.854 355.591 334.046C356.915 336.215 357.577 338.828 357.577 341.887H347.51C347.51 340.7 347.294 339.639 346.86 338.703C346.449 337.744 345.81 336.991 344.942 336.443C344.098 335.872 343.048 335.587 341.792 335.587C340.491 335.587 339.418 335.872 338.573 336.443C337.752 336.991 337.124 337.755 336.69 338.737C336.256 339.719 335.96 340.837 335.8 342.093C335.64 343.325 335.56 344.638 335.56 346.03V346.921C335.56 348.336 335.64 349.683 335.8 350.961C335.96 352.217 336.256 353.324 336.69 354.282C337.147 355.241 337.786 355.995 338.608 356.542C339.429 357.09 340.514 357.364 341.861 357.364ZM380.348 365.685C377.403 365.685 374.766 365.217 372.438 364.281C370.11 363.345 368.135 362.055 366.514 360.412C364.916 358.745 363.695 356.828 362.851 354.659C362.006 352.491 361.584 350.174 361.584 347.708V346.407C361.584 343.645 361.972 341.1 362.748 338.771C363.524 336.443 364.654 334.423 366.138 332.71C367.644 330.976 369.493 329.64 371.685 328.704C373.876 327.745 376.376 327.266 379.184 327.266C381.809 327.266 384.149 327.7 386.203 328.567C388.258 329.412 389.992 330.633 391.408 332.231C392.823 333.806 393.896 335.712 394.626 337.949C395.38 340.164 395.756 342.652 395.756 345.414V349.797H365.898V342.914H385.279V342.093C385.279 340.791 385.039 339.65 384.559 338.668C384.103 337.687 383.418 336.934 382.505 336.409C381.615 335.861 380.485 335.587 379.115 335.587C377.814 335.587 376.73 335.861 375.862 336.409C374.995 336.956 374.299 337.733 373.773 338.737C373.271 339.719 372.906 340.871 372.678 342.195C372.449 343.496 372.335 344.9 372.335 346.407V347.708C372.335 349.146 372.529 350.459 372.917 351.646C373.306 352.833 373.876 353.849 374.63 354.693C375.383 355.538 376.296 356.2 377.369 356.679C378.442 357.159 379.663 357.398 381.033 357.398C382.722 357.398 384.331 357.079 385.861 356.44C387.39 355.778 388.714 354.75 389.833 353.358L394.832 359.076C394.079 360.172 393.017 361.233 391.647 362.261C390.301 363.265 388.68 364.087 386.785 364.726C384.89 365.365 382.745 365.685 380.348 365.685Z" fill="#292930"/>
<defs>
<filter id="filter0_f_478_704" x="26.5569" y="-21.6719" width="510.029" height="509.712" filterUnits="userSpaceOnUse" color-interpolation-filters="sRGB">
<feFlood flood-opacity="0" result="BackgroundImageFix"/>
<feBlend mode="normal" in="SourceGraphic" in2="BackgroundImageFix" result="shape"/>
<feGaussianBlur stdDeviation="83.5272" result="effect1_foregroundBlur_478_704"/>
</filter>
<linearGradient id="paint0_linear_478_704" x1="434.345" y1="148.463" x2="313.093" y2="304.254" gradientUnits="userSpaceOnUse">
<stop stop-color="#CFDEEC"/>
<stop offset="1" stop-color="#B0C2D5" stop-opacity="0"/>
</linearGradient>
</defs>
</svg>
