<svg width="877" height="432" viewBox="0 0 877 432" fill="none" xmlns="http://www.w3.org/2000/svg">
<path d="M241 142.046L225 186.046L140.008 186.046C140.008 186.046 139.756 168.452 142.112 160.379C144.914 150.777 153.765 142.046 153.765 142.046L241 142.046Z" fill="#0E096B"/>
<rect x="105.253" y="163.727" width="44.5864" height="193.208" fill="#F8A62B"/>
<path d="M305.892 171.159C305.892 194.418 296.804 209.326 280.567 225.98C264.329 242.633 242.227 252.283 218.975 252.872C195.723 253.46 173.161 244.94 156.102 229.129C139.043 213.318 128.837 191.467 127.661 168.237C126.484 145.007 134.431 122.237 149.806 104.784C165.18 87.3303 186.766 76.5747 209.958 74.8112C233.151 73.0478 256.115 80.4159 273.952 95.3442C291.788 110.272 303.087 131.579 305.436 154.72" stroke="#0E096B" stroke-width="44.5864"/>
<path d="M393.603 218.457C369.044 218.457 348.871 196.529 348.871 170.567C348.871 145.832 369.044 126.009 393.603 126.009C416.934 126.009 437.985 143.376 439.915 171.97H371.851V173.724C372.202 188.284 381.85 194.775 393.428 194.775C406.584 194.775 416.057 189.512 416.057 174.952H439.739C439.739 207.054 415.706 218.457 393.603 218.457ZM381.675 153.2H405.006C403.778 151.621 400.971 149.691 393.603 149.691C386.236 149.691 384.13 151.27 381.675 153.2ZM491.593 218.457C467.034 218.457 446.86 197.231 446.86 172.321C446.86 147.235 467.034 126.009 491.593 126.009C505.451 126.009 517.38 131.447 525.8 142.148L511.591 157.059C504.048 150.744 497.733 149.516 491.593 149.516C479.489 149.516 470.542 159.34 470.542 172.321C470.542 184.951 479.489 194.775 491.242 194.775C501.417 194.775 507.03 191.617 511.591 187.232L525.625 204.072C512.117 215.124 502.469 218.457 491.593 218.457ZM570.216 218.457C546.359 218.457 525.834 197.231 525.834 172.321C525.834 147.235 546.183 126.009 570.216 126.009C594.249 126.009 614.598 147.235 614.598 172.321C614.598 197.231 594.074 218.457 570.216 218.457ZM570.216 194.775C581.619 194.775 590.916 184.6 590.916 172.321C590.916 159.69 581.794 149.691 570.216 149.691C558.638 149.691 549.516 159.69 549.516 172.321C549.516 184.951 558.638 194.775 570.216 194.775ZM645.279 216.703H621.597V171.444C621.597 146.358 639.841 126.009 662.821 126.009C674.925 126.009 685.451 131.097 692.994 139.517C700.362 131.097 710.711 126.009 722.289 126.009C746.147 126.009 764.215 146.007 764.215 171.795V216.703H740.533V171.795C740.533 158.989 732.815 149.691 722.289 149.691C711.939 149.691 704.747 158.638 704.747 171.444V216.703H681.065V171.795C681.065 158.989 673.347 149.691 662.821 149.691C652.471 149.691 645.279 158.638 645.279 171.444V216.703Z" fill="#0E096B"/>
<path d="M363.957 355.5H347.761V300.076C347.761 283.041 361.677 268.765 378.473 268.765C395.028 268.765 409.064 283.161 409.064 300.076C409.064 317.231 394.908 331.987 378.473 331.987C372.714 331.987 368.396 330.547 363.957 328.148V355.5ZM378.473 315.791C386.27 315.791 392.869 308.833 392.869 300.076C392.869 291.438 386.51 284.96 378.473 284.96C370.195 284.96 363.957 291.438 363.957 300.076C363.957 309.313 369.955 315.791 378.473 315.791ZM430.032 267.085H413.836V251.61H430.032V267.085ZM430.032 330.787H413.836V268.765H430.032V330.787ZM451.002 330.787H434.807V299.836C434.807 282.681 447.283 268.765 462.999 268.765C479.314 268.765 491.67 282.441 491.67 300.076V330.787H475.475V300.076C475.475 291.318 470.197 284.96 462.999 284.96C455.921 284.96 451.002 291.078 451.002 299.836V330.787ZM512.625 330.787H496.43V299.836C496.43 282.681 508.906 268.765 524.622 268.765C540.937 268.765 553.293 282.441 553.293 300.076V330.787H537.098V300.076C537.098 291.318 531.819 284.96 524.622 284.96C517.544 284.96 512.625 291.078 512.625 299.836V330.787ZM588.644 331.987C572.208 331.987 558.053 317.231 558.053 300.076C558.053 283.161 572.089 268.765 588.644 268.765C605.439 268.765 619.355 283.041 619.355 300.076V330.787H603.16V328.148C598.721 330.547 594.402 331.987 588.644 331.987ZM588.644 315.791C597.161 315.791 603.16 309.313 603.16 300.076C603.16 291.438 596.921 284.96 588.644 284.96C580.606 284.96 574.248 291.438 574.248 300.076C574.248 308.833 580.846 315.791 588.644 315.791ZM654.718 331.987C637.923 331.987 624.127 317.471 624.127 300.436C624.127 283.281 637.923 268.765 654.718 268.765C664.196 268.765 672.353 272.484 678.112 279.802L668.395 289.999C663.236 285.68 658.917 284.84 654.718 284.84C646.441 284.84 640.323 291.558 640.323 300.436C640.323 309.073 646.441 315.791 654.479 315.791C661.437 315.791 665.275 313.632 668.395 310.633L677.992 322.149C668.754 329.707 662.156 331.987 654.718 331.987ZM699.134 330.787H682.938V251.61H699.134V330.787ZM734.5 331.987C717.705 331.987 703.909 316.991 703.909 299.236C703.909 282.321 717.705 268.765 734.5 268.765C750.456 268.765 764.851 280.641 766.171 300.196H719.624V301.395C719.864 311.353 726.463 315.791 734.38 315.791C743.378 315.791 749.856 312.192 749.856 302.235H766.051C766.051 324.189 749.616 331.987 734.5 331.987ZM726.343 287.359H742.298C741.458 286.28 739.539 284.96 734.5 284.96C729.462 284.96 728.022 286.04 726.343 287.359Z" fill="#F8A62B"/>
</svg>
